<?xml version="1.0" encoding="UTF-8" standalone="no"?>
<!DOCTYPE svg PUBLIC "-//W3C//DTD SVG 1.1//EN" "http://www.w3.org/Graphics/SVG/1.1/DTD/svg11.dtd">
<!-- Created with Vectornator (http://vectornator.io/) -->
<svg height="100%" stroke-miterlimit="10" style="fill-rule:nonzero;clip-rule:evenodd;stroke-linecap:round;stroke-linejoin:round;" version="1.1" viewBox="0 0 226.8 170.1" width="100%" xml:space="preserve" xmlns="http://www.w3.org/2000/svg" xmlns:vectornator="http://vectornator.io" xmlns:xlink="http://www.w3.org/1999/xlink">
<defs/>
<path d="M0 0L226.8 0L226.8 170.1L0 170.1L0 0Z" fill="#ffffff" fill-rule="nonzero" opacity="1" stroke="none"/>
<g id="Ebene-1" vectornator:layerName="Ebene 1">
<path d="M101.367 88.2113C102.967 91.4122 104.426 95.116 104.426 98.7151" fill="none" opacity="1" stroke="#4a6b5f" stroke-linecap="round" stroke-linejoin="round" stroke-opacity="0.495495" stroke-width="4.05836" vectornator:layerName="Kurve 59"/>
<g opacity="1" vectornator:layerName="Linie 1">
<path d="M28.2843 27.4581C28.27 36.0199 28.0594 161.514 28.0594 161.514" fill="none" stroke="#a3a3a3" stroke-linecap="butt" stroke-linejoin="round" stroke-width="2"/>
<g fill="#a3a3a3" stroke="none">
<path d="M35.0487 33.1695L29.061 25.8261L28.2886 24.8789L27.5131 25.8235L21.5008 33.1468C21.1504 33.5736 21.2123 34.2038 21.6392 34.5542C22.066 34.9047 22.6962 34.8427 23.0466 34.4159L29.0589 27.0926L27.511 27.09L33.4987 34.4334C33.8477 34.8614 34.4776 34.9255 34.9056 34.5765C35.3337 34.2275 35.3977 33.5975 35.0487 33.1695Z" fill="#a3a3a3"/>
</g>
</g>
<g opacity="1" vectornator:layerName="Linie 2">
<path d="M196.027 142.528C185.58 142.528 10.1964 142.528 10.1964 142.528" fill="none" stroke="#a3a3a3" stroke-linecap="butt" stroke-linejoin="round" stroke-width="2"/>
<g fill="#a3a3a3" stroke="none">
<path d="M190.327 149.302L197.66 143.302L198.606 142.528L197.66 141.754L190.327 135.754C189.9 135.404 189.27 135.467 188.92 135.894C188.57 136.322 188.633 136.952 189.061 137.302L196.394 143.302L196.394 141.754L189.061 147.754C188.633 148.103 188.57 148.733 188.92 149.161C189.27 149.588 189.9 149.651 190.327 149.302Z" fill="#a3a3a3"/>
</g>
</g>
<path d="M24.8089 9.63697C24.6058 9.23077 27.3536 13.7775 28.6331 14.4172" fill="none" opacity="1" stroke="#eebf5b" stroke-linecap="round" stroke-linejoin="round" stroke-width="1.55" vectornator:layerName="Kurve 1"/>
<path d="M31.6924 9.63697C30.4771 11.7638 26.9122 17.2296 26.9122 19.5799" fill="none" opacity="1" stroke="#eebf5b" stroke-linecap="round" stroke-linejoin="round" stroke-width="1.55" vectornator:layerName="Kurve 2"/>
<path d="M207.405 140.939C207.285 140.699 207.314 140.219 207.045 140.219C206.287 140.219 207.444 141.691 207.765 142.379C208.753 144.495 210.149 146.246 211.185 148.318" fill="none" opacity="1" stroke="#eebf5b" stroke-linecap="round" stroke-linejoin="round" stroke-width="1.55" vectornator:layerName="Kurve 3"/>
<path d="M212.625 140.039C212.513 140.039 205.862 147.57 206.325 148.498" fill="none" opacity="1" stroke="#eebf5b" stroke-linecap="round" stroke-linejoin="round" stroke-width="1.55" vectornator:layerName="Kurve 4"/>
<path d="M71.9168 117.444C71.6992 117.77 69.5577 124.836 70.0047 125.283C70.0949 125.373 70.3055 125.381 70.3872 125.283C71.234 124.267 73.097 118.235 74.4026 118.017C76.0674 117.74 74.6541 122.787 74.5938 123.18C74.5252 123.625 74.4026 124.969 74.4026 124.518C74.4026 123.63 77.6342 117.628 78.2267 117.826C79.7518 118.334 76.4064 124.997 80.7125 124.136" fill="none" opacity="1" stroke="#224767" stroke-linecap="round" stroke-linejoin="round" stroke-width="1.55" vectornator:layerName="Kurve 9"/>
<g opacity="1" vectornator:layerName="Gruppieren 1">
<path d="M181.357 32.1915C181.357 34.743 181.305 37.2558 181.207 39.8043C181.203 39.9038 181.207 40.2024 181.207 40.1029" fill="none" opacity="1" stroke="#d0453b" stroke-linecap="round" stroke-linejoin="round" stroke-width="1.55" vectornator:layerName="Kurve 13"/>
<path d="M181.058 34.132C181.682 30.2265 185.64 32.6256 185.238 33.8334C184.916 34.7981 182.622 35.312 181.804 35.4754C181.603 35.5157 181.252 35.825 181.207 35.6247C181.002 34.7018 180.991 34.5518 181.058 34.132Z" fill="none" opacity="1" stroke="#d0453b" stroke-linecap="round" stroke-linejoin="round" stroke-width="1.55" vectornator:layerName="Kurve 14"/>
<path d="M180.461 28.4597C182.082 27.379 184.244 28.0118 186.133 28.0118" fill="none" opacity="1" stroke="#d0453b" stroke-linecap="round" stroke-linejoin="round" stroke-width="1.55" vectornator:layerName="Kurve 15"/>
<path d="M184.342 26.5191C185.273 26.2088 186.569 27.0808 186.88 28.0118C187.114 28.7136 185.761 28.9815 185.238 29.5046" fill="none" opacity="1" stroke="#d0453b" stroke-linecap="round" stroke-linejoin="round" stroke-width="1.55" vectornator:layerName="Kurve 16"/>
<path d="M190.313 31.1465C191.562 30.5219 193.097 30.9017 194.492 30.848" fill="none" opacity="1" stroke="#d0453b" stroke-linecap="round" stroke-linejoin="round" stroke-width="1.55" vectornator:layerName="Kurve 17"/>
<path d="M190.014 33.3856C191.18 32.9972 192.809 33.1901 194.045 33.0871" fill="none" opacity="1" stroke="#d0453b" stroke-linecap="round" stroke-linejoin="round" stroke-width="1.55" vectornator:layerName="Kurve 18"/>
<path d="M199.717 30.5495C200.236 32.1079 199.005 34.0764 199.866 35.4754C200.356 36.2716 200.688 33.7951 201.06 32.9378C201.148 32.7355 201.783 30.6181 202.105 30.6987C202.783 30.8681 202.255 33.9594 202.255 34.5798C202.255 34.7291 202.11 34.9914 202.255 35.0276C203.563 35.3548 205.021 28.2224 205.389 32.6393C205.418 32.9864 205.389 33.3359 205.389 33.6842C205.389 34.2315 205.389 34.7788 205.389 35.3262" fill="none" opacity="1" stroke="#d0453b" stroke-linecap="round" stroke-linejoin="round" stroke-width="1.55" vectornator:layerName="Kurve 19"/>
<path d="M208.823 30.5495C208.823 29.69 208.811 34.0245 209.867 34.7291C210.707 35.2887 212.855 30.7006 212.256 30.1016" fill="none" opacity="1" stroke="#d0453b" stroke-linecap="round" stroke-linejoin="round" stroke-width="1.55" vectornator:layerName="Kurve 20"/>
<path d="M207.479 26.6684C207.38 26.6186 207.07 26.5277 207.181 26.5191C208.571 26.4122 209.966 26.403 211.36 26.3699C212.057 26.3533 212.753 26.3699 213.45 26.3699" fill="none" opacity="1" stroke="#d0453b" stroke-linecap="round" stroke-linejoin="round" stroke-width="1.55" vectornator:layerName="Kurve 21"/>
<path d="M212.107 24.8771C213.164 24.8771 214.345 25.9197 214.495 26.9669C214.575 27.5286 213.599 27.6635 213.151 28.0118" fill="none" opacity="1" stroke="#d0453b" stroke-linecap="round" stroke-linejoin="round" stroke-width="1.55" vectornator:layerName="Kurve 22"/>
</g>
<path d="M46.5917 111.639C50.5981 109.922 54.0266 107.083 57.6533 104.665" fill="none" opacity="1" stroke="#224767" stroke-linecap="round" stroke-linejoin="round" stroke-opacity="0.538288" stroke-width="2.09926" vectornator:layerName="Kurve 23"/>
<path d="M47.7941 117.41C47.6338 117.57 47.1222 118.013 47.3131 117.891C49.504 116.489 51.6001 114.941 53.8058 113.562C56.1614 112.09 56.022 112.182 57.6533 111.639" fill="none" opacity="1" stroke="#224767" stroke-linecap="round" stroke-linejoin="round" stroke-opacity="0.538288" stroke-width="2.09926" vectornator:layerName="Kurve 24"/>
<path d="M53.0844 121.399C55.7938 118.689 59.0975 116.643 62.2222 114.425" fill="none" opacity="1" stroke="#224767" stroke-linecap="round" stroke-linejoin="round" stroke-opacity="0.538288" stroke-width="2.09926" vectornator:layerName="Kurve 25"/>
<g opacity="1" vectornator:layerName="Gruppieren 2">
<path d="M66.5327 101.498C66.5327 96.9125 70.2497 93.1955 74.8348 93.1955C79.42 93.1955 83.137 96.9125 83.137 101.498C83.137 106.083 79.42 109.8 74.8348 109.8C70.2497 109.8 66.5327 106.083 66.5327 101.498Z" fill="#ffffff" fill-rule="nonzero" opacity="1" stroke="#224767" stroke-linecap="round" stroke-linejoin="round" stroke-width="3.03909" vectornator:layerName="Oval 1"/>
<path d="M74.8348 94.3719C75.4531 94.3719 75.9019 94.9099 76.4504 95.0846C80.7402 96.4515 81.9272 102.227 79.3915 105.459C78.7023 106.338 78.4374 107.638 77.3617 108.152" fill="none" opacity="1" stroke="#224767" stroke-linecap="round" stroke-linejoin="round" stroke-opacity="0.538288" stroke-width="4.05836" vectornator:layerName="Kurve 27"/>
</g>
<path d="M85.2729 95.5943C87.5247 93.3257 91.539 91.9869 94.3597 90.3416C101.836 85.9809 109.231 81.8515 117.151 78.1854C121.41 76.2143 126.168 74.6226 130.26 72.3324C136.786 68.6797 143.999 66.139 150.37 62.1272C159.993 56.068 170.231 50.4718 180.461 45.3186" fill="none" opacity="1" stroke="#d0453b" stroke-linecap="round" stroke-linejoin="round" stroke-width="2" vectornator:layerName="Kurve 28"/>
<path d="M172.75 42.4089C172.464 42.4089 174.834 42.6094 175.66 42.8453C177.234 43.2952 181.666 43.2124 182.643 43.8638C182.824 43.9841 182.526 44.3156 182.352 44.4457C181.855 44.8185 181.566 45.4262 181.334 46.0461C180.592 48.0233 179.152 51.187 179.152 53.3204" fill="none" opacity="1" stroke="#d0453b" stroke-linecap="round" stroke-linejoin="round" stroke-width="2" vectornator:layerName="Kurve 29"/>
<path d="M75.2876 89.584C75.2876 85.5576 75.8381 80.4891 76.6229 76.5652C77.1585 73.8873 76.7898 70.794 76.7898 68.0529C76.7898 64.702 77.1236 61.4311 77.1236 58.0384C77.1236 57.0639 77.6706 47.9033 77.4574 47.6902C77.237 47.4698 74.7462 50.8769 74.62 51.0283C74.5418 51.1221 73.9445 52.1967 73.9524 52.1967C74.4852 52.1967 76.7684 48.3214 77.9581 48.024C78.3258 47.9321 80.3378 52.6164 80.7956 53.5319" fill="none" opacity="1" stroke="#f3d3cb" stroke-linecap="round" stroke-linejoin="round" stroke-width="2" vectornator:layerName="Kurve 33"/>
<path d="M87.1381 100.433C88.4903 99.7569 90.4697 100.455 91.9784 100.266C96.7844 99.6653 101.864 100.7 106.666 101.101C114.901 101.787 123.408 101.268 131.702 101.268C140.793 101.268 150.036 101.671 159.075 100.767C164.722 100.202 170.308 100.611 175.933 100.099C177.405 99.9654 178.962 100.099 180.439 100.099C180.551 100.099 180.724 100.199 180.773 100.099C181.003 99.6407 179.093 99.4704 178.937 99.4316C177.631 99.1049 175.766 96.9279 175.766 96.9279C175.766 96.9279 176.504 97.1648 176.768 97.4287C177.386 98.047 180.106 99.8783 180.106 100.767C180.106 100.996 175.979 103.012 175.432 104.105" fill="none" opacity="1" stroke="#f3d3cb" stroke-linecap="round" stroke-linejoin="round" stroke-width="2" vectornator:layerName="Kurve 34"/>
<path d="M125.587 108.514C125.587 109.941 125.665 111.367 125.665 112.794" fill="none" opacity="1" stroke="#f3d3cb" stroke-linecap="round" stroke-linejoin="round" stroke-width="1.54963" vectornator:layerName="Kurve 35"/>
<path d="M125.042 108.202C125.042 107.369 125.653 107.26 126.365 107.035C128.673 106.306 128.527 109.107 126.832 109.759C126.497 109.888 126.094 109.837 125.743 109.837" fill="none" opacity="1" stroke="#f3d3cb" stroke-linecap="round" stroke-linejoin="round" stroke-width="1.54963" vectornator:layerName="Kurve 36"/>
<path d="M129.712 111.16C130.472 110.653 131.303 112.09 131.969 112.716C132.184 112.919 132.332 113.183 132.514 113.417" fill="none" opacity="1" stroke="#f3d3cb" stroke-linecap="round" stroke-linejoin="round" stroke-width="1.54963" vectornator:layerName="Kurve 37"/>
<path d="M132.669 110.615C131.844 111.44 131.26 112.476 130.568 113.417" fill="none" opacity="1" stroke="#f3d3cb" stroke-linecap="round" stroke-linejoin="round" stroke-width="1.54963" vectornator:layerName="Kurve 38"/>
<path d="M60.9132 69.2889C61.0664 70.9741 61.0689 72.6578 61.0689 74.3476" fill="none" opacity="1" stroke="#f3d3cb" stroke-linecap="round" stroke-linejoin="round" stroke-width="1.54963" vectornator:layerName="Kurve 39"/>
<path d="M60.7576 69.2889C60.2925 68.3588 63.1978 67.993 63.715 68.355C64.9135 69.1939 62.4386 71.3357 61.458 70.8454" fill="none" opacity="1" stroke="#f3d3cb" stroke-linecap="round" stroke-linejoin="round" stroke-width="1.54963" vectornator:layerName="Kurve 40"/>
<path d="M64.5711 73.1802C65.2665 72.8325 66.0021 74.0665 66.5167 74.5811" fill="none" opacity="1" stroke="#f3d3cb" stroke-linecap="round" stroke-linejoin="round" stroke-width="1.54963" vectornator:layerName="Kurve 41"/>
<path d="M67.7619 72.2463C67.7619 74.0281 66.2019 76.0668 65.4271 77.6163" fill="none" opacity="1" stroke="#f3d3cb" stroke-linecap="round" stroke-linejoin="round" stroke-width="1.54963" vectornator:layerName="Kurve 42"/>
<path d="M183.023 48.8983C183.023 50.6627 183.101 52.4261 183.101 54.1905" fill="none" opacity="1" stroke="#d1d1d1" stroke-linecap="round" stroke-linejoin="round" stroke-width="2" vectornator:layerName="Kurve 43"/>
<path d="M182.712 60.1832C182.358 61.6001 182.436 63.127 182.79 64.5415" fill="none" opacity="1" stroke="#d1d1d1" stroke-linecap="round" stroke-linejoin="round" stroke-width="2" vectornator:layerName="Kurve 44"/>
<path d="M182.245 70.3006C182.245 71.9353 182.167 73.5689 182.167 75.2037" fill="none" opacity="1" stroke="#d1d1d1" stroke-linecap="round" stroke-linejoin="round" stroke-width="2" vectornator:layerName="Kurve 45"/>
<path d="M181.622 81.4298C181.622 82.91 181.467 84.3855 181.467 85.866" fill="none" opacity="1" stroke="#d1d1d1" stroke-linecap="round" stroke-linejoin="round" stroke-width="2" vectornator:layerName="Kurve 46"/>
<path d="M181.155 91.7808C181.155 93.0574 181.131 94.3313 181.311 95.5943" fill="none" opacity="1" stroke="#d1d1d1" stroke-linecap="round" stroke-linejoin="round" stroke-width="2" vectornator:layerName="Kurve 47"/>
<path d="M169.637 42.9835C168.343 42.9835 167.048 43.217 165.746 43.217" fill="none" opacity="1" stroke="#d1d1d1" stroke-linecap="round" stroke-linejoin="round" stroke-width="2" vectornator:layerName="Kurve 48"/>
<path d="M159.753 42.9057C158.612 42.9057 157.47 42.9057 156.329 42.9057" fill="none" opacity="1" stroke="#d1d1d1" stroke-linecap="round" stroke-linejoin="round" stroke-width="2" vectornator:layerName="Kurve 49"/>
<path d="M150.881 42.9835C149.578 42.7664 148.28 43.0613 146.989 43.0613" fill="none" opacity="1" stroke="#d1d1d1" stroke-linecap="round" stroke-linejoin="round" stroke-width="2" vectornator:layerName="Kurve 50"/>
<path d="M140.296 42.9835C139.102 42.9835 137.91 43.0923 136.716 43.1391C136.535 43.1463 135.99 43.1391 136.172 43.1391" fill="none" opacity="1" stroke="#d1d1d1" stroke-linecap="round" stroke-linejoin="round" stroke-width="2" vectornator:layerName="Kurve 51"/>
<path d="M130.412 43.2948C128.907 43.2948 127.405 43.217 125.898 43.217" fill="none" opacity="1" stroke="#d1d1d1" stroke-linecap="round" stroke-linejoin="round" stroke-width="2" vectornator:layerName="Kurve 52"/>
<path d="M119.05 43.217C117.711 42.5476 115.963 43.217 114.458 43.217" fill="none" opacity="1" stroke="#d1d1d1" stroke-linecap="round" stroke-linejoin="round" stroke-width="2" vectornator:layerName="Kurve 53"/>
<path d="M109.01 43.8396C107.512 43.8396 105.519 43.7561 104.107 44.4622" fill="none" opacity="1" stroke="#d1d1d1" stroke-linecap="round" stroke-linejoin="round" stroke-width="2" vectornator:layerName="Kurve 54"/>
<path d="M98.1143 43.9174C96.7334 44.1936 95.3199 44.3065 93.9117 44.3065" fill="none" opacity="1" stroke="#d1d1d1" stroke-linecap="round" stroke-linejoin="round" stroke-width="2" vectornator:layerName="Kurve 55"/>
<path d="M88.7751 43.9174C88.047 43.5533 86.0766 43.4378 85.2729 43.8396" fill="none" opacity="1" stroke="#d1d1d1" stroke-linecap="round" stroke-linejoin="round" stroke-width="2" vectornator:layerName="Kurve 56"/>
<path d="M81.4594 43.8396C80.1602 43.4065 78.0586 43.5723 76.7898 43.9952" fill="none" opacity="1" stroke="#d1d1d1" stroke-linecap="round" stroke-linejoin="round" stroke-width="2" vectornator:layerName="Kurve 57"/>
<path d="M103.61 86.9876C105.678 91.1227 106.873 94.4026 106.873 99.123" fill="none" opacity="1" stroke="#4a6b5f" stroke-linecap="round" stroke-linejoin="round" stroke-width="2" vectornator:layerName="Kurve 58"/>
</g>
</svg>
