<?xml version="1.0" encoding="UTF-8" standalone="no"?>
<!DOCTYPE svg PUBLIC "-//W3C//DTD SVG 1.1//EN" "http://www.w3.org/Graphics/SVG/1.1/DTD/svg11.dtd">
<!-- Created with Vectornator (http://vectornator.io/) -->
<svg height="100%" stroke-miterlimit="10" style="fill-rule:nonzero;clip-rule:evenodd;stroke-linecap:round;stroke-linejoin:round;" version="1.1" viewBox="0 0 751.275 425.25" width="100%" xml:space="preserve" xmlns="http://www.w3.org/2000/svg" xmlns:vectornator="http://vectornator.io" xmlns:xlink="http://www.w3.org/1999/xlink">
<defs/>
<g id="Ebene-1" vectornator:layerName="Ebene 1">
<g opacity="1"/>
</g>
<g id="Ebene-2" vectornator:layerName="Ebene 2">
<path d="M184.974 34.4343C186.103 43.4691 185.918 52.9935 185.918 62.1384" fill="none" opacity="1" stroke="#2e6777" stroke-linecap="round" stroke-linejoin="round" stroke-width="2.86201"/>
<path d="M185.918 35.0639C185.918 33.1887 199.409 33.8046 201.659 33.8046C216.976 33.8046 232.409 33.175 247.623 33.175" fill="none" opacity="1" stroke="#2e6777" stroke-linecap="round" stroke-linejoin="round" stroke-width="2.86201"/>
<path d="M247.961 33.335C250.993 43.1714 254.257 52.6936 257.257 62.4249" fill="none" opacity="1" stroke="#2e6777" stroke-linecap="round" stroke-linejoin="round" stroke-width="2.86201"/>
<path d="M185.918 63.1223C202.799 63.1223 219.613 63.1223 236.492 63.1223C241.138 63.1223 252.075 64.3594 255.969 62.4532" fill="none" opacity="1" stroke="#2e6777" stroke-linecap="round" stroke-linejoin="round" stroke-width="2.86201"/>
<g opacity="1">
<path d="M109.732 35.0639C110.861 44.0987 110.677 53.6231 110.677 62.7681" fill="none" opacity="1" stroke="#a3a3a3" stroke-linecap="round" stroke-linejoin="round" stroke-width="2.86201"/>
<path d="M110.677 35.6936C110.677 33.8184 124.167 34.4343 126.418 34.4343C141.734 34.4343 157.167 33.8046 172.381 33.8046" fill="none" opacity="1" stroke="#a3a3a3" stroke-linecap="round" stroke-linejoin="round" stroke-width="2.86201"/>
<path d="M173.326 33.8046C173.326 44.0978 173.64 54.1591 173.64 64.3422" fill="none" opacity="1" stroke="#a3a3a3" stroke-linecap="round" stroke-linejoin="round" stroke-width="2.86201"/>
<path d="M110.677 63.7125C126.229 63.7125 141.719 63.7125 157.27 63.7125C161.551 63.7125 171.627 64.8768 175.215 63.0829" fill="none" opacity="1" stroke="#a3a3a3" stroke-linecap="round" stroke-linejoin="round" stroke-width="2.86201"/>
</g>
<g opacity="1">
<path d="M36.6939 35.3787C37.8233 44.4135 37.6384 53.938 37.6384 63.0829" fill="none" opacity="1" stroke="#a3a3a3" stroke-linecap="round" stroke-linejoin="round" stroke-width="2.86201"/>
<path d="M37.6384 36.0084C37.6384 34.1332 51.1292 34.7491 53.3794 34.7491C68.6956 34.7491 84.1289 34.1195 99.343 34.1195" fill="none" opacity="1" stroke="#a3a3a3" stroke-linecap="round" stroke-linejoin="round" stroke-width="2.86201"/>
<path d="M100.288 34.1195C100.288 44.4126 100.602 54.4739 100.602 64.657" fill="none" opacity="1" stroke="#a3a3a3" stroke-linecap="round" stroke-linejoin="round" stroke-width="2.86201"/>
<path d="M37.6384 64.0273C53.1909 64.0273 68.6813 64.0273 84.2317 64.0273C88.5126 64.0273 98.5886 65.1916 102.176 63.3977" fill="none" opacity="1" stroke="#a3a3a3" stroke-linecap="round" stroke-linejoin="round" stroke-width="2.86201"/>
</g>
<path d="M175.007 56.0505C177.573 56.0505 180.13 56.2641 182.695 56.2641" fill="none" opacity="1" stroke="#2e6777" stroke-linecap="round" stroke-linejoin="round" stroke-width="2.86201"/>
<path d="M102.613 57.1183C104.438 56.5101 106.456 56.9047 108.379 56.9047" fill="none" opacity="1" stroke="#2e6777" stroke-linecap="round" stroke-linejoin="round" stroke-width="2.86201"/>
<path d="M50.6913 66.7578C50.6577 66.8249 50.8614 66.5277 50.792 66.5564C49.7652 66.9813 48.3782 67.0354 47.7712 67.9661C47.1844 68.8658 47.3114 70.2177 47.7712 71.1884C48.0438 71.7639 48.9658 71.6381 49.5837 71.7925C52.2903 72.4692 53.0355 69.6298 52.8059 67.5633C52.7271 66.8538 50.9943 66.1518 50.6913 66.7578Z" fill="none" opacity="1" stroke="#a3a3a3" stroke-linecap="round" stroke-linejoin="round" stroke-width="2.86201"/>
<path d="M90.6673 66.4557C88.0991 66.3932 85.1663 69.3378 88.2506 71.1884C94.0005 74.6383 95.7022 66.5782 90.6673 66.4557Z" fill="none" opacity="1" stroke="#a3a3a3" stroke-linecap="round" stroke-linejoin="round" stroke-width="2.86201"/>
<path d="M122.487 65.9522C119.012 67.7487 118.487 71.6777 122.286 70.987C126.402 70.2385 125.736 64.2726 122.487 65.9522Z" fill="none" opacity="1" stroke="#a3a3a3" stroke-linecap="round" stroke-linejoin="round" stroke-width="2.86201"/>
<path d="M163.369 65.7508C159.34 66.2131 159.277 71.1209 163.571 70.5842C166.524 70.2151 166.892 65.3466 163.369 65.7508Z" fill="none" opacity="1" stroke="#a3a3a3" stroke-linecap="round" stroke-linejoin="round" stroke-width="2.86201"/>
<path d="M198.31 65.348C197.262 65.736 196.194 66.5201 195.793 67.5633C194.926 69.8172 197.987 70.8318 199.418 70.1814C203.676 68.2459 201.407 64.2021 198.31 65.348Z" fill="none" opacity="1" stroke="#a3a3a3" stroke-linecap="round" stroke-linejoin="round" stroke-width="2.86201"/>
<path d="M247.351 65.4979C246.062 64.8532 245.292 68.0046 245.539 69.425C245.819 71.0367 249.998 69.4984 250.372 67.8139C250.8 65.8862 248.54 66.0924 247.351 65.4979Z" fill="none" opacity="1" stroke="#a3a3a3" stroke-linecap="round" stroke-linejoin="round" stroke-width="2.86201"/>
<path d="M244.138 72.5818C260.816 71.7876 277.596 73.1502 294.275 72.356C304.562 71.8661 314.933 72.9272 325.215 72.356C336.766 71.7143 348.453 72.8996 359.994 72.1302C379.735 70.8141 399.628 71.3636 419.39 70.3234C429.336 69.8 439.525 71.3137 449.427 70.3234C457.422 69.5239 465.569 70.3234 473.592 70.3234L499.256 70.3234" fill="none" opacity="1" stroke="#daa987" stroke-linecap="round" stroke-linejoin="round" stroke-width="2.86201"/>
<path d="M245.548 109.738C250.027 106.006 256.547 104.407 261.936 102.355C277.329 96.4905 293.295 93.2857 309.477 90.2891C338.503 84.914 367.941 83.6459 397.357 85.6069C417.787 86.9689 437.947 92.0176 457.685 96.9521C466.294 99.1044 474.76 101.857 483.077 105.056C488.415 107.109 494.31 108.241 499.464 110.818" fill="none" opacity="1" stroke="#daa987" stroke-linecap="round" stroke-linejoin="round" stroke-width="2.86201"/>
<path d="M243.842 72.7612C243.842 79.2814 244.542 85.9283 245.006 92.4204C245.382 97.6939 244.876 103.056 244.876 108.329" fill="none" opacity="1" stroke="#daa987" stroke-linecap="round" stroke-linejoin="round" stroke-width="2.86201"/>
<path d="M499.308 70.2382C498.478 71.8982 499.063 80.1101 499.308 82.3173C500.281 91.0668 499.626 100.358 499.626 109.178" fill="none" opacity="1" stroke="#daa987" stroke-linecap="round" stroke-linejoin="round" stroke-width="2.86201"/>
<path d="M499.991 70.7712C499.627 70.0426 505.447 70.314 505.936 70.314C509.148 70.314 512.429 69.8968 515.653 69.628C526.019 68.7642 536.683 67.7989 547.092 67.7989" fill="none" opacity="1" stroke="#4a6b5f" stroke-linecap="round" stroke-linejoin="round" stroke-width="2.86201"/>
<path d="M200.729 73.0706C215.151 73.0706 229.512 73.0706 243.802 73.0706" fill="none" opacity="1" stroke="#4a6b5f" stroke-linecap="round" stroke-linejoin="round" stroke-width="2.86201"/>
<path d="M201.555 77.2824C204.109 77.6016 206.654 77.146 209.205 77.378C219.764 78.3379 230.315 76.8042 240.668 76.8042" fill="none" opacity="1" stroke="#4a6b5f" stroke-linecap="round" stroke-linejoin="round" stroke-opacity="0.533784" stroke-width="8.90797"/>
<path d="M502.926 75.1193C508.502 74.1899 514.209 75.47 519.8 74.911C528.403 74.0507 537.431 73.0361 546.048 73.0361" fill="none" opacity="1" stroke="#4a6b5f" stroke-linecap="round" stroke-linejoin="round" stroke-opacity="0.533784" stroke-width="8.90797"/>
<path d="M187.935 38.8943C192.831 36.936 203.74 38.5302 209.294 38.5302C217.721 38.5302 226.258 38.3271 234.659 37.8021C238.431 37.5663 242.338 36.8312 246.067 36.8312" fill="none" opacity="1" stroke="#2e6777" stroke-linecap="round" stroke-linejoin="round" stroke-opacity="0.504504" stroke-width="6.49632"/>
<path d="M415.368 175.562C416.498 184.597 416.313 194.121 416.313 203.266" fill="none" opacity="1" stroke="#2e6777" stroke-linecap="round" stroke-linejoin="round" stroke-width="2.86201"/>
<path d="M416.313 176.192C416.313 174.317 429.804 174.932 432.054 174.932C447.37 174.932 462.803 174.303 478.017 174.303" fill="none" opacity="1" stroke="#2e6777" stroke-linecap="round" stroke-linejoin="round" stroke-width="2.86201"/>
<path d="M478.355 174.463C481.387 184.299 484.652 193.821 487.651 203.553" fill="none" opacity="1" stroke="#2e6777" stroke-linecap="round" stroke-linejoin="round" stroke-width="2.86201"/>
<path d="M416.313 204.25C433.194 204.25 450.007 204.25 466.886 204.25C471.533 204.25 482.469 205.487 486.364 203.581" fill="none" opacity="1" stroke="#2e6777" stroke-linecap="round" stroke-linejoin="round" stroke-width="2.86201"/>
<g opacity="1">
<path d="M340.126 176.192C341.256 185.227 341.071 194.751 341.071 203.896" fill="none" opacity="1" stroke="#a3a3a3" stroke-linecap="round" stroke-linejoin="round" stroke-width="2.86201"/>
<path d="M341.071 176.821C341.071 174.946 354.562 175.562 356.812 175.562C372.128 175.562 387.561 174.932 402.776 174.932" fill="none" opacity="1" stroke="#a3a3a3" stroke-linecap="round" stroke-linejoin="round" stroke-width="2.86201"/>
<path d="M403.72 174.932C403.72 185.226 404.035 195.287 404.035 205.47" fill="none" opacity="1" stroke="#a3a3a3" stroke-linecap="round" stroke-linejoin="round" stroke-width="2.86201"/>
<path d="M341.071 204.84C356.623 204.84 372.114 204.84 387.664 204.84C391.945 204.84 402.021 206.005 405.609 204.211" fill="none" opacity="1" stroke="#a3a3a3" stroke-linecap="round" stroke-linejoin="round" stroke-width="2.86201"/>
</g>
<g opacity="1">
<path d="M267.088 176.507C268.218 185.541 268.033 195.066 268.033 204.211" fill="none" opacity="1" stroke="#a3a3a3" stroke-linecap="round" stroke-linejoin="round" stroke-width="2.86201"/>
<path d="M268.033 177.136C268.033 175.261 281.524 175.877 283.774 175.877C299.09 175.877 314.523 175.247 329.737 175.247" fill="none" opacity="1" stroke="#a3a3a3" stroke-linecap="round" stroke-linejoin="round" stroke-width="2.86201"/>
<path d="M330.682 175.247C330.682 185.54 330.997 195.602 330.997 205.785" fill="none" opacity="1" stroke="#a3a3a3" stroke-linecap="round" stroke-linejoin="round" stroke-width="2.86201"/>
<path d="M268.033 205.155C283.585 205.155 299.076 205.155 314.626 205.155C318.907 205.155 328.983 206.319 332.571 204.525" fill="none" opacity="1" stroke="#a3a3a3" stroke-linecap="round" stroke-linejoin="round" stroke-width="2.86201"/>
</g>
<path d="M405.401 197.178C407.967 197.178 410.524 197.392 413.089 197.392" fill="none" opacity="1" stroke="#2e6777" stroke-linecap="round" stroke-linejoin="round" stroke-width="2.86201"/>
<path d="M333.007 198.246C334.832 197.638 336.85 198.033 338.773 198.033" fill="none" opacity="1" stroke="#2e6777" stroke-linecap="round" stroke-linejoin="round" stroke-width="2.86201"/>
<path d="M281.086 207.886C281.052 207.953 281.256 207.655 281.186 207.684C280.16 208.109 278.772 208.163 278.165 209.094C277.579 209.994 277.706 211.345 278.165 212.316C278.438 212.892 279.36 212.766 279.978 212.92C282.685 213.597 283.43 210.758 283.2 208.691C283.121 207.982 281.389 207.28 281.086 207.886Z" fill="none" opacity="1" stroke="#a3a3a3" stroke-linecap="round" stroke-linejoin="round" stroke-width="2.86201"/>
<path d="M321.062 207.583C318.493 207.521 315.561 210.466 318.645 212.316C324.395 215.766 326.097 207.706 321.062 207.583Z" fill="none" opacity="1" stroke="#a3a3a3" stroke-linecap="round" stroke-linejoin="round" stroke-width="2.86201"/>
<path d="M352.881 207.08C349.407 208.877 348.881 212.806 352.68 212.115C356.796 211.366 356.13 205.4 352.881 207.08Z" fill="none" opacity="1" stroke="#a3a3a3" stroke-linecap="round" stroke-linejoin="round" stroke-width="2.86201"/>
<path d="M393.764 206.879C389.734 207.341 389.671 212.249 393.965 211.712C396.918 211.343 397.287 206.474 393.764 206.879Z" fill="none" opacity="1" stroke="#a3a3a3" stroke-linecap="round" stroke-linejoin="round" stroke-width="2.86201"/>
<path d="M428.705 206.476C427.657 206.864 426.589 207.648 426.187 208.691C425.321 210.945 428.382 211.96 429.812 211.309C434.071 209.374 431.801 205.33 428.705 206.476Z" fill="none" opacity="1" stroke="#a3a3a3" stroke-linecap="round" stroke-linejoin="round" stroke-width="2.86201"/>
<path d="M477.745 206.626C476.456 205.981 475.686 209.132 475.933 210.553C476.213 212.164 480.392 210.626 480.766 208.942C481.195 207.014 478.934 207.22 477.745 206.626Z" fill="none" opacity="1" stroke="#a3a3a3" stroke-linecap="round" stroke-linejoin="round" stroke-width="2.86201"/>
<path d="M243.205 215.901C259.883 215.107 276.662 216.47 293.341 215.676C303.629 215.186 313.999 216.247 324.281 215.676C335.833 215.034 347.52 216.219 359.061 215.45C378.802 214.134 398.694 214.683 418.457 213.643C428.402 213.12 438.591 214.633 448.493 213.643C456.488 212.843 464.636 213.643 472.658 213.643L498.323 213.643" fill="none" opacity="1" stroke="#daa987" stroke-linecap="round" stroke-linejoin="round" stroke-width="2.86201"/>
<path d="M244.615 253.057C249.093 249.325 255.614 247.727 261.002 245.674C276.395 239.81 292.362 236.605 308.544 233.609C337.569 228.234 367.008 226.965 396.424 228.926C416.854 230.288 437.013 235.337 456.751 240.272C465.361 242.424 473.826 245.177 482.143 248.375C487.481 250.429 493.377 251.561 498.53 254.138" fill="none" opacity="1" stroke="#daa987" stroke-linecap="round" stroke-linejoin="round" stroke-width="2.86201"/>
<path d="M242.908 216.081C242.908 222.601 243.608 229.248 244.072 235.74C244.449 241.013 243.943 246.375 243.943 251.648" fill="none" opacity="1" stroke="#daa987" stroke-linecap="round" stroke-linejoin="round" stroke-width="2.86201"/>
<path d="M498.375 213.558C497.545 215.218 498.129 223.43 498.375 225.637C499.347 234.386 498.693 243.677 498.693 252.497" fill="none" opacity="1" stroke="#daa987" stroke-linecap="round" stroke-linejoin="round" stroke-width="2.86201"/>
<path d="M499.058 214.091C498.693 213.362 504.513 213.633 505.002 213.633C508.214 213.633 511.495 213.216 514.72 212.948C525.085 212.084 535.749 211.118 546.158 211.118" fill="none" opacity="1" stroke="#4a6b5f" stroke-linecap="round" stroke-linejoin="round" stroke-width="2.86201"/>
<path d="M199.795 216.39C214.217 216.39 228.579 216.39 242.869 216.39" fill="none" opacity="1" stroke="#4a6b5f" stroke-linecap="round" stroke-linejoin="round" stroke-width="2.86201"/>
<path d="M200.621 220.602C203.175 220.921 205.72 220.466 208.272 220.698C218.831 221.657 229.381 220.124 239.734 220.124" fill="none" opacity="1" stroke="#4a6b5f" stroke-linecap="round" stroke-linejoin="round" stroke-opacity="0.533784" stroke-width="8.90797"/>
<path d="M501.992 218.439C507.569 217.509 513.276 218.79 518.866 218.231C527.469 217.37 536.497 216.356 545.114 216.356" fill="none" opacity="1" stroke="#4a6b5f" stroke-linecap="round" stroke-linejoin="round" stroke-opacity="0.533784" stroke-width="8.90797"/>
<path d="M418.329 180.022C423.225 178.064 434.134 179.658 439.689 179.658C448.115 179.658 456.652 179.455 465.053 178.93C468.825 178.694 472.732 177.959 476.461 177.959" fill="none" opacity="1" stroke="#2e6777" stroke-linecap="round" stroke-linejoin="round" stroke-opacity="0.504504" stroke-width="6.49632"/>
<path d="M634.573 312.737C635.702 321.771 635.517 331.296 635.517 340.441" fill="none" opacity="1" stroke="#2e6777" stroke-linecap="round" stroke-linejoin="round" stroke-width="2.86201"/>
<path d="M635.517 313.366C635.517 311.491 649.008 312.107 651.258 312.107C666.574 312.107 682.008 311.477 697.222 311.477" fill="none" opacity="1" stroke="#2e6777" stroke-linecap="round" stroke-linejoin="round" stroke-width="2.86201"/>
<path d="M697.56 311.637C700.592 321.474 703.856 330.996 706.856 340.727" fill="none" opacity="1" stroke="#2e6777" stroke-linecap="round" stroke-linejoin="round" stroke-width="2.86201"/>
<path d="M635.517 341.425C652.398 341.425 669.212 341.425 686.091 341.425C690.737 341.425 701.674 342.662 705.568 340.756" fill="none" opacity="1" stroke="#2e6777" stroke-linecap="round" stroke-linejoin="round" stroke-width="2.86201"/>
<g opacity="1">
<path d="M559.331 313.366C560.46 322.401 560.275 331.926 560.275 341.07" fill="none" opacity="1" stroke="#a3a3a3" stroke-linecap="round" stroke-linejoin="round" stroke-width="2.86201"/>
<path d="M560.275 313.996C560.275 312.121 573.766 312.737 576.016 312.737C591.333 312.737 606.766 312.107 621.98 312.107" fill="none" opacity="1" stroke="#a3a3a3" stroke-linecap="round" stroke-linejoin="round" stroke-width="2.86201"/>
<path d="M622.924 312.107C622.924 322.4 623.239 332.461 623.239 342.645" fill="none" opacity="1" stroke="#a3a3a3" stroke-linecap="round" stroke-linejoin="round" stroke-width="2.86201"/>
<path d="M560.275 342.015C575.828 342.015 591.318 342.015 606.869 342.015C611.15 342.015 621.226 343.179 624.813 341.385" fill="none" opacity="1" stroke="#a3a3a3" stroke-linecap="round" stroke-linejoin="round" stroke-width="2.86201"/>
</g>
<g opacity="1">
<path d="M486.293 313.681C487.422 322.716 487.237 332.24 487.237 341.385" fill="none" opacity="1" stroke="#a3a3a3" stroke-linecap="round" stroke-linejoin="round" stroke-width="2.86201"/>
<path d="M487.237 314.311C487.237 312.436 500.728 313.051 502.978 313.051C518.294 313.051 533.728 312.422 548.942 312.422" fill="none" opacity="1" stroke="#a3a3a3" stroke-linecap="round" stroke-linejoin="round" stroke-width="2.86201"/>
<path d="M549.886 312.422C549.886 322.715 550.201 332.776 550.201 342.959" fill="none" opacity="1" stroke="#a3a3a3" stroke-linecap="round" stroke-linejoin="round" stroke-width="2.86201"/>
<path d="M487.237 342.33C502.79 342.33 518.28 342.33 533.831 342.33C538.111 342.33 548.187 343.494 551.775 341.7" fill="none" opacity="1" stroke="#a3a3a3" stroke-linecap="round" stroke-linejoin="round" stroke-width="2.86201"/>
</g>
<path d="M624.606 334.353C627.172 334.353 629.729 334.566 632.294 334.566" fill="none" opacity="1" stroke="#2e6777" stroke-linecap="round" stroke-linejoin="round" stroke-width="2.86201"/>
<path d="M552.212 335.421C554.037 334.812 556.055 335.207 557.978 335.207" fill="none" opacity="1" stroke="#2e6777" stroke-linecap="round" stroke-linejoin="round" stroke-width="2.86201"/>
<path d="M500.29 345.06C500.257 345.127 500.46 344.83 500.391 344.859C499.364 345.284 497.977 345.338 497.37 346.269C496.783 347.168 496.91 348.52 497.37 349.491C497.643 350.066 498.565 349.94 499.182 350.095C501.889 350.772 502.634 347.932 502.405 345.866C502.326 345.156 500.593 344.454 500.29 345.06Z" fill="none" opacity="1" stroke="#a3a3a3" stroke-linecap="round" stroke-linejoin="round" stroke-width="2.86201"/>
<path d="M540.266 344.758C537.698 344.696 534.765 347.64 537.849 349.491C543.599 352.941 545.301 344.881 540.266 344.758Z" fill="none" opacity="1" stroke="#a3a3a3" stroke-linecap="round" stroke-linejoin="round" stroke-width="2.86201"/>
<path d="M572.086 344.255C568.611 346.051 568.085 349.98 571.884 349.289C576.001 348.541 575.334 342.575 572.086 344.255Z" fill="none" opacity="1" stroke="#a3a3a3" stroke-linecap="round" stroke-linejoin="round" stroke-width="2.86201"/>
<path d="M612.968 344.053C608.939 344.516 608.876 349.423 613.169 348.887C616.122 348.517 616.491 343.649 612.968 344.053Z" fill="none" opacity="1" stroke="#a3a3a3" stroke-linecap="round" stroke-linejoin="round" stroke-width="2.86201"/>
<path d="M647.909 343.65C646.861 344.038 645.793 344.822 645.392 345.866C644.525 348.12 647.586 349.134 649.017 348.484C653.275 346.548 651.006 342.504 647.909 343.65Z" fill="none" opacity="1" stroke="#a3a3a3" stroke-linecap="round" stroke-linejoin="round" stroke-width="2.86201"/>
<path d="M696.95 343.8C695.66 343.156 694.89 346.307 695.137 347.727C695.418 349.339 699.597 347.801 699.971 346.116C700.399 344.189 698.139 344.395 696.95 343.8Z" fill="none" opacity="1" stroke="#a3a3a3" stroke-linecap="round" stroke-linejoin="round" stroke-width="2.86201"/>
<path d="M245.539 354.553C262.217 353.758 278.997 355.121 295.675 354.327C305.963 353.837 316.333 354.898 326.616 354.327C338.167 353.685 349.854 354.87 361.395 354.101C381.136 352.785 401.028 353.334 420.791 352.294C430.736 351.771 440.925 353.284 450.828 352.294C458.823 351.495 466.97 352.294 474.993 352.294L500.657 352.294" fill="none" opacity="1" stroke="#daa987" stroke-linecap="round" stroke-linejoin="round" stroke-width="2.86201"/>
<path d="M246.949 391.709C251.427 387.976 257.948 386.378 263.336 384.325C278.729 378.461 294.696 375.256 310.878 372.26C339.903 366.885 369.342 365.617 398.758 367.578C419.188 368.94 439.348 373.988 459.086 378.923C467.695 381.075 476.161 383.828 484.477 387.026C489.815 389.08 495.711 390.212 500.865 392.789" fill="none" opacity="1" stroke="#daa987" stroke-linecap="round" stroke-linejoin="round" stroke-width="2.86201"/>
<path d="M245.242 354.732C245.242 361.252 245.942 367.899 246.406 374.391C246.783 379.665 246.277 385.026 246.277 390.3" fill="none" opacity="1" stroke="#daa987" stroke-linecap="round" stroke-linejoin="round" stroke-width="2.86201"/>
<path d="M500.709 352.209C499.879 353.869 500.464 362.081 500.709 364.288C501.681 373.037 501.027 382.328 501.027 391.148" fill="none" opacity="1" stroke="#daa987" stroke-linecap="round" stroke-linejoin="round" stroke-width="2.86201"/>
<path d="M501.347 352.644C501.019 351.898 506.818 352.457 507.307 352.482C510.515 352.641 513.812 352.387 517.047 352.278C527.442 351.929 538.141 351.494 548.537 352.01" fill="none" opacity="1" stroke="#4a6b5f" stroke-linecap="round" stroke-linejoin="round" stroke-width="2.86201"/>
<path d="M202.129 355.041C216.551 355.041 230.913 355.041 245.203 355.041" fill="none" opacity="1" stroke="#4a6b5f" stroke-linecap="round" stroke-linejoin="round" stroke-width="2.86201"/>
<path d="M202.955 359.253C205.509 359.572 208.054 359.117 210.606 359.349C221.165 360.309 231.715 358.775 242.069 358.775" fill="none" opacity="1" stroke="#4a6b5f" stroke-linecap="round" stroke-linejoin="round" stroke-opacity="0.533784" stroke-width="8.90797"/>
<path d="M503.969 357.685C509.546 356.755 515.253 358.035 520.843 357.476C529.446 356.616 538.475 355.601 547.092 355.601" fill="none" opacity="1" stroke="#4a6b5f" stroke-linecap="round" stroke-linejoin="round" stroke-opacity="0.533784" stroke-width="8.90797"/>
<path d="M637.534 317.197C642.429 315.238 653.338 316.833 658.893 316.833C667.32 316.833 675.856 316.63 684.257 316.104C688.03 315.869 691.937 315.134 695.665 315.134" fill="none" opacity="1" stroke="#2e6777" stroke-linecap="round" stroke-linejoin="round" stroke-opacity="0.504504" stroke-width="6.49632"/>
<path d="M246.114 122.054C246.114 125.623 246.355 129.189 246.51 132.755" fill="none" opacity="1" stroke="#d1d1d1" stroke-linecap="round" stroke-linejoin="round" stroke-width="3.19853"/>
<path d="M246.51 145.834C246.51 149.533 246.51 153.233 246.51 156.932" fill="none" opacity="1" stroke="#d1d1d1" stroke-linecap="round" stroke-linejoin="round" stroke-width="3.19853"/>
<path d="M246.51 169.218C245.677 172.551 246.354 176.092 246.51 179.523" fill="none" opacity="1" stroke="#d1d1d1" stroke-linecap="round" stroke-linejoin="round" stroke-width="3.19853"/>
<path d="M246.51 190.621C244.855 193.932 246.114 198.017 246.114 201.718" fill="none" opacity="1" stroke="#d1d1d1" stroke-linecap="round" stroke-linejoin="round" stroke-width="3.19853"/>
<path d="M244.528 263.944C244.528 266.718 244.528 269.492 244.528 272.267" fill="none" opacity="1" stroke="#d1d1d1" stroke-linecap="round" stroke-linejoin="round" stroke-width="3.19853"/>
<path d="M245.321 283.761C245.321 287.856 245.321 291.952 245.321 296.047" fill="none" opacity="1" stroke="#d1d1d1" stroke-linecap="round" stroke-linejoin="round" stroke-width="3.19853"/>
<path d="M245.717 305.559C245.717 308.862 245.717 312.165 245.717 315.468" fill="none" opacity="1" stroke="#d1d1d1" stroke-linecap="round" stroke-linejoin="round" stroke-width="3.19853"/>
<path d="M246.906 325.376C246.906 328.151 246.906 330.925 246.906 333.7" fill="none" opacity="1" stroke="#d1d1d1" stroke-linecap="round" stroke-linejoin="round" stroke-width="3.19853"/>
<path d="M247.501 346.581C246.641 346.529 247.134 344.849 247.303 344.004C247.472 343.16 248.361 346.633 247.501 346.581Z" fill="none" opacity="1" stroke="#d1d1d1" stroke-linecap="round" stroke-linejoin="round" stroke-width="3.19853"/>
<path d="M498.008 40.9972C498.008 43.6428 498.008 46.2884 498.008 48.9339" fill="none" opacity="1" stroke="#d1d1d1" stroke-linecap="round" stroke-linejoin="round" stroke-width="3.19853"/>
<path d="M498.889 57.3116C498.889 59.3745 499.144 61.4301 499.33 63.4846" fill="none" opacity="1" stroke="#d1d1d1" stroke-linecap="round" stroke-linejoin="round" stroke-width="3.19853"/>
<path d="M499.33 122.569C500.4 124.709 500.315 127.255 500.653 129.624" fill="none" opacity="1" stroke="#d1d1d1" stroke-linecap="round" stroke-linejoin="round" stroke-width="3.19853"/>
<path d="M500.653 144.175C500.653 147.702 500.653 151.229 500.653 154.757" fill="none" opacity="1" stroke="#d1d1d1" stroke-linecap="round" stroke-linejoin="round" stroke-width="3.19853"/>
<path d="M499.771 171.512C499.771 174.749 500.042 177.98 500.212 181.213" fill="none" opacity="1" stroke="#d1d1d1" stroke-linecap="round" stroke-linejoin="round" stroke-width="3.19853"/>
<path d="M499.33 192.236C499.33 195.322 499.33 198.409 499.33 201.495" fill="none" opacity="1" stroke="#d1d1d1" stroke-linecap="round" stroke-linejoin="round" stroke-width="3.19853"/>
<path d="M498.008 264.548C498.008 268.663 498.008 272.779 498.008 276.894" fill="none" opacity="1" stroke="#d1d1d1" stroke-linecap="round" stroke-linejoin="round" stroke-width="3.19853"/>
<path d="M498.008 284.831C498.008 287.77 498.008 290.71 498.008 293.649" fill="none" opacity="1" stroke="#d1d1d1" stroke-linecap="round" stroke-linejoin="round" stroke-width="3.19853"/>
<path d="M698.63 274.69C697.953 278.751 698.189 282.918 698.189 287.036C698.189 288.246 698.058 288.18 698.63 287.036" fill="none" opacity="1" stroke="#d1d1d1" stroke-linecap="round" stroke-linejoin="round" stroke-width="3.19853"/>
<path d="M697.307 255.73C697.16 255.289 696.867 253.942 696.867 254.407C696.867 256.91 697.16 259.404 697.307 261.903" fill="none" opacity="1" stroke="#d1d1d1" stroke-linecap="round" stroke-linejoin="round" stroke-width="3.19853"/>
<path d="M695.985 230.156C696.517 233.348 696.426 236.619 696.426 239.856C696.426 240.15 696.426 239.268 696.426 238.974" fill="none" opacity="1" stroke="#d1d1d1" stroke-linecap="round" stroke-linejoin="round" stroke-width="3.19853"/>
<path d="M695.103 209.873C695.103 212.666 695.103 215.458 695.103 218.251" fill="none" opacity="1" stroke="#d1d1d1" stroke-linecap="round" stroke-linejoin="round" stroke-width="3.19853"/>
<path d="M694.662 184.299C695.249 190.76 695.103 187.526 695.103 194" fill="none" opacity="1" stroke="#d1d1d1" stroke-linecap="round" stroke-linejoin="round" stroke-width="3.19853"/>
<path d="M692.898 158.725C692.581 162.536 692.798 166.404 693.339 170.189" fill="none" opacity="1" stroke="#d1d1d1" stroke-linecap="round" stroke-linejoin="round" stroke-width="3.19853"/>
<path d="M692.457 134.033C692.457 137.564 692.738 141.089 692.898 144.615" fill="none" opacity="1" stroke="#d1d1d1" stroke-linecap="round" stroke-linejoin="round" stroke-width="3.19853"/>
<path d="M691.575 113.75C691.575 117.131 691.575 120.511 691.575 123.892" fill="none" opacity="1" stroke="#d1d1d1" stroke-linecap="round" stroke-linejoin="round" stroke-width="3.19853"/>
<path d="M690.694 89.9403C689.246 92.8354 690.253 96.4039 690.253 99.6407" fill="none" opacity="1" stroke="#d1d1d1" stroke-linecap="round" stroke-linejoin="round" stroke-width="3.19853"/>
<path d="M689.812 73.4055C689.812 71.7153 689.812 66.6446 689.812 68.3348C689.812 70.8334 689.812 73.332 689.812 75.8306C689.812 76.639 689.812 74.2138 689.812 73.4055Z" fill="none" opacity="1" stroke="#d1d1d1" stroke-linecap="round" stroke-linejoin="round" stroke-width="3.19853"/>
<path d="M688.489 47.1702C688.489 50.1134 688.757 53.0507 688.93 55.9888" fill="none" opacity="1" stroke="#d1d1d1" stroke-linecap="round" stroke-linejoin="round" stroke-width="3.19853"/>
<path d="M686.725 20.6148C685.148 23.7698 686.565 27.6733 686.725 31.197" fill="none" opacity="1" stroke="#d1d1d1" stroke-linecap="round" stroke-linejoin="round" stroke-width="3.19853"/>
<path d="M507.418 26.3087C518.883 26.3087 530.378 24.9451 541.782 24.9451" fill="none" opacity="1" stroke="#d1d1d1" stroke-linecap="round" stroke-linejoin="round" stroke-width="3.19853"/>
<path d="M510.964 20.8542C509.316 22.0899 505.782 24.401 505.782 26.036C505.782 26.4426 506.495 26.4305 506.873 26.5815C509.98 27.8244 513.07 29.6802 516.146 31.2178" fill="none" opacity="1" stroke="#d1d1d1" stroke-linecap="round" stroke-linejoin="round" stroke-width="3.19853"/>
<path d="M642.29 22.9727C640.555 25.5756 652.309 23.439 653.249 23.439C660.699 23.439 668.165 23.2058 675.634 23.2058" fill="none" opacity="1" stroke="#d1d1d1" stroke-linecap="round" stroke-linejoin="round" stroke-width="3.19853"/>
<path d="M670.97 17.8428C671.953 19.8091 673.987 21.0497 675.634 22.5063C678.531 25.069 677.868 23.2839 676.1 25.3044C674.52 27.1101 675.877 25.9494 673.768 27.6361C673.095 28.1752 672.437 28.8848 671.67 29.2683" fill="none" opacity="1" stroke="#d1d1d1" stroke-linecap="round" stroke-linejoin="round" stroke-width="3.19853"/>
<path d="M584.23 18.7755C582.846 17.3917 579.609 17.9362 578.4 19.475C577.814 20.2211 579.936 20.5919 580.732 21.1073C582.538 22.2758 584.538 23.4218 584.929 25.7707C585.426 28.7532 580.597 28.1514 579.1 27.403" fill="none" opacity="1" stroke="#d1d1d1" stroke-linecap="round" stroke-linejoin="round" stroke-width="3.19853"/>
<path d="M592.391 25.7707C592.857 25.5376 593.272 25.0065 593.79 25.0712C595.253 25.2541 597.469 25.0894 597.987 26.4703C598.733 28.4604 593.689 31.814 594.722 34.3982C595.419 36.1386 600.306 35.5765 601.251 34.6313" fill="none" opacity="1" stroke="#d1d1d1" stroke-linecap="round" stroke-linejoin="round" stroke-width="3.19853"/>
<path d="M591.458 30.9006C591.879 30.0579 599.846 30.494 601.951 29.9679" fill="none" opacity="1" stroke="#d1d1d1" stroke-linecap="round" stroke-linejoin="round" stroke-width="3.19853"/>
<path d="M248.055 28.7633C259.519 28.7633 271.014 27.3997 282.418 27.3997" fill="none" opacity="1" stroke="#d1d1d1" stroke-linecap="round" stroke-linejoin="round" stroke-width="3.19853"/>
<path d="M251.6 23.3087C249.953 24.5444 246.418 26.8556 246.418 28.4906C246.418 28.8971 247.132 28.885 247.509 29.036C250.617 30.2789 253.707 32.1347 256.782 33.6724" fill="none" opacity="1" stroke="#d1d1d1" stroke-linecap="round" stroke-linejoin="round" stroke-width="3.19853"/>
<path d="M456.017 25.6999C454.282 28.3029 466.036 26.1663 466.976 26.1663C474.427 26.1663 481.892 25.9331 489.361 25.9331" fill="none" opacity="1" stroke="#d1d1d1" stroke-linecap="round" stroke-linejoin="round" stroke-width="3.19853"/>
<path d="M484.698 20.5701C485.681 22.5364 487.714 23.777 489.361 25.2336C492.258 27.7963 491.595 26.0112 489.827 28.0317C488.247 29.8374 489.604 28.6767 487.496 30.3634C486.822 30.9025 486.164 31.6121 485.397 31.9956" fill="none" opacity="1" stroke="#d1d1d1" stroke-linecap="round" stroke-linejoin="round" stroke-width="3.19853"/>
<path d="M369.236 21.1438C367.852 19.7599 364.616 20.3044 363.407 21.8433C362.821 22.5893 364.942 22.9601 365.739 23.4755C367.544 24.6441 369.544 25.7901 369.936 28.139C370.433 31.1215 365.603 30.5197 364.106 29.7712" fill="none" opacity="1" stroke="#d1d1d1" stroke-linecap="round" stroke-linejoin="round" stroke-width="3.19853"/>
<path d="M374.704 28.9989C374.834 31.7212 374.402 34.821 375.044 37.3901" fill="none" opacity="1" stroke="#d1d1d1" stroke-linecap="round" stroke-linejoin="round" stroke-width="3.19853"/>
<path d="M373.91 28.8855C373.948 28.8099 373.941 28.6747 374.024 28.6587C376.129 28.2525 378.234 27.5065 380.374 27.6382C380.97 27.6749 381.214 28.5424 381.394 29.1123C381.607 29.7871 379.821 30.5912 379.58 30.6998C379.344 30.8063 377.66 31.3942 377.312 31.4936C377.048 31.5692 376.251 31.6536 376.518 31.7204C378.269 32.1582 381.572 30.6322 382.302 33.3079C382.983 35.8052 376.65 38.447 375.838 36.8232" fill="none" opacity="1" stroke="#d1d1d1" stroke-linecap="round" stroke-linejoin="round" stroke-width="3.19853"/>
<path d="M497.846 302.301C496.922 304.149 497.682 306.485 497.682 308.545" fill="none" opacity="1" stroke="#d1d1d1" stroke-linecap="round" stroke-linejoin="round" stroke-width="3.19853"/>
<path d="M698.334 297.535C698.757 300.075 698.498 302.684 698.498 305.259C698.498 305.368 698.498 305.04 698.498 304.93" fill="none" opacity="1" stroke="#d1d1d1" stroke-linecap="round" stroke-linejoin="round" stroke-width="3.19853"/>
</g>
</svg>
