<?xml version="1.0" encoding="UTF-8" standalone="no"?>
<!DOCTYPE svg PUBLIC "-//W3C//DTD SVG 1.1//EN" "http://www.w3.org/Graphics/SVG/1.1/DTD/svg11.dtd">
<!-- Created with Vectornator (http://vectornator.io/) -->
<svg height="100%" stroke-miterlimit="10" style="fill-rule:nonzero;clip-rule:evenodd;stroke-linecap:round;stroke-linejoin:round;" version="1.1" viewBox="0 0 396.9 141.75" width="100%" xml:space="preserve" xmlns="http://www.w3.org/2000/svg" xmlns:vectornator="http://vectornator.io" xmlns:xlink="http://www.w3.org/1999/xlink">
<defs/>
<g id="Ebene-1" vectornator:layerName="Ebene 1">
<path d="M241.905 29.228C243.034 38.2628 242.85 47.7872 242.85 56.9321" fill="none" opacity="1" stroke="#2e6777" stroke-linecap="round" stroke-linejoin="round" stroke-width="2.86201"/>
<path d="M242.85 29.8576C242.85 27.9824 256.34 28.5984 258.591 28.5984C273.907 28.5984 289.34 27.9687 304.554 27.9687" fill="none" opacity="1" stroke="#2e6777" stroke-linecap="round" stroke-linejoin="round" stroke-width="2.86201"/>
<path d="M304.892 28.1287C307.924 37.9652 311.189 47.4873 314.188 57.2186" fill="none" opacity="1" stroke="#2e6777" stroke-linecap="round" stroke-linejoin="round" stroke-width="2.86201"/>
<path d="M242.85 57.916C259.731 57.916 276.544 57.916 293.423 57.916C298.069 57.916 309.006 59.1531 312.9 57.247" fill="none" opacity="1" stroke="#2e6777" stroke-linecap="round" stroke-linejoin="round" stroke-width="2.86201"/>
<g opacity="1">
<path d="M166.663 29.8576C167.793 38.8924 167.608 48.4169 167.608 57.5618" fill="none" opacity="1" stroke="#a3a3a3" stroke-linecap="round" stroke-linejoin="round" stroke-width="2.86201"/>
<path d="M167.608 30.4873C167.608 28.6121 181.099 29.228 183.349 29.228C198.665 29.228 214.098 28.5984 229.312 28.5984" fill="none" opacity="1" stroke="#a3a3a3" stroke-linecap="round" stroke-linejoin="round" stroke-width="2.86201"/>
<path d="M230.257 28.5984C230.257 38.8915 230.572 48.9528 230.572 59.1359" fill="none" opacity="1" stroke="#a3a3a3" stroke-linecap="round" stroke-linejoin="round" stroke-width="2.86201"/>
<path d="M167.608 58.5062C183.16 58.5062 198.651 58.5062 214.201 58.5062C218.482 58.5062 228.558 59.6705 232.146 57.8766" fill="none" opacity="1" stroke="#a3a3a3" stroke-linecap="round" stroke-linejoin="round" stroke-width="2.86201"/>
</g>
<g opacity="1">
<path d="M93.6251 30.1725C94.7544 39.2072 94.5696 48.7317 94.5696 57.8766" fill="none" opacity="1" stroke="#a3a3a3" stroke-linecap="round" stroke-linejoin="round" stroke-width="2.86201"/>
<path d="M94.5696 30.8021C94.5696 28.9269 108.06 29.5428 110.311 29.5428C125.627 29.5428 141.06 28.9132 156.274 28.9132" fill="none" opacity="1" stroke="#a3a3a3" stroke-linecap="round" stroke-linejoin="round" stroke-width="2.86201"/>
<path d="M157.219 28.9132C157.219 39.2063 157.533 49.2676 157.533 59.4507" fill="none" opacity="1" stroke="#a3a3a3" stroke-linecap="round" stroke-linejoin="round" stroke-width="2.86201"/>
<path d="M94.5696 58.8211C110.122 58.8211 125.612 58.8211 141.163 58.8211C145.444 58.8211 155.52 59.9853 159.108 58.1914" fill="none" opacity="1" stroke="#a3a3a3" stroke-linecap="round" stroke-linejoin="round" stroke-width="2.86201"/>
</g>
<g opacity="1"/>
<path d="M231.938 50.8442C234.504 50.8442 237.061 51.0578 239.626 51.0578" fill="none" opacity="1" stroke="#2e6777" stroke-linecap="round" stroke-linejoin="round" stroke-width="2.86201"/>
<path d="M159.544 51.912C161.369 51.3038 163.387 51.6985 165.31 51.6985" fill="none" opacity="1" stroke="#2e6777" stroke-linecap="round" stroke-linejoin="round" stroke-width="2.86201"/>
<path d="M107.622 61.5515C107.589 61.6186 107.793 61.3214 107.723 61.3501C106.696 61.775 105.309 61.8291 104.702 62.7598C104.116 63.6595 104.243 65.0114 104.702 65.9821C104.975 66.5576 105.897 66.4318 106.515 66.5863C109.221 67.2629 109.967 64.4235 109.737 62.3571C109.658 61.6475 107.925 60.9455 107.622 61.5515Z" fill="none" opacity="1" stroke="#a3a3a3" stroke-linecap="round" stroke-linejoin="round" stroke-width="2.86201"/>
<path d="M147.598 61.2494C145.03 61.1869 142.097 64.1315 145.182 65.9821C150.932 69.432 152.633 61.372 147.598 61.2494Z" fill="none" opacity="1" stroke="#a3a3a3" stroke-linecap="round" stroke-linejoin="round" stroke-width="2.86201"/>
<path d="M179.418 60.7459C175.943 62.5424 175.418 66.4714 179.217 65.7807C183.333 65.0323 182.667 59.0663 179.418 60.7459Z" fill="none" opacity="1" stroke="#a3a3a3" stroke-linecap="round" stroke-linejoin="round" stroke-width="2.86201"/>
<path d="M220.3 60.5445C216.271 61.0069 216.208 65.9146 220.502 65.3779C223.455 65.0088 223.823 60.1403 220.3 60.5445Z" fill="none" opacity="1" stroke="#a3a3a3" stroke-linecap="round" stroke-linejoin="round" stroke-width="2.86201"/>
<path d="M255.242 60.1418C254.193 60.5297 253.126 61.3138 252.724 62.3571C251.857 64.611 254.918 65.6255 256.349 64.9751C260.607 63.0396 258.338 58.9958 255.242 60.1418Z" fill="none" opacity="1" stroke="#a3a3a3" stroke-linecap="round" stroke-linejoin="round" stroke-width="2.86201"/>
<path d="M304.282 60.2916C302.993 59.6469 302.223 62.7983 302.47 64.2188C302.75 65.8304 306.929 64.2922 307.303 62.6076C307.732 60.6799 305.471 60.8861 304.282 60.2916Z" fill="none" opacity="1" stroke="#a3a3a3" stroke-linecap="round" stroke-linejoin="round" stroke-width="2.86201"/>
<path d="M69.7416 69.5673C86.4197 68.7731 103.199 70.1357 119.878 69.3415C130.165 68.8516 140.536 69.9127 150.818 69.3415C162.37 68.6997 174.056 69.885 185.598 69.1156C205.339 67.7996 225.231 68.349 244.994 67.3089C254.939 66.7854 265.128 68.2991 275.03 67.3089C283.025 66.5094 291.172 67.3089 299.195 67.3089L324.859 67.3089" fill="none" opacity="1" stroke="#daa987" stroke-linecap="round" stroke-linejoin="round" stroke-width="2.86201"/>
<path d="M71.1514 106.723C75.6301 102.991 82.1507 101.393 87.5389 99.34C102.932 93.476 118.898 90.2712 135.081 87.2745C164.106 81.8994 193.545 80.6313 222.961 82.5924C243.39 83.9544 263.55 89.0031 283.288 93.9376C291.897 96.0899 300.363 98.8426 308.68 102.041C314.018 104.094 319.913 105.227 325.067 107.804" fill="none" opacity="1" stroke="#daa987" stroke-linecap="round" stroke-linejoin="round" stroke-width="2.86201"/>
<path d="M69.4448 69.7467C69.4448 76.2669 70.1451 82.9138 70.6089 89.4059C70.9855 94.6794 70.4795 100.041 70.4795 105.314" fill="none" opacity="1" stroke="#daa987" stroke-linecap="round" stroke-linejoin="round" stroke-width="2.86201"/>
<path d="M324.912 67.2237C324.082 68.8837 324.666 77.0956 324.912 79.3028C325.884 88.0522 325.229 97.343 325.229 106.163" fill="none" opacity="1" stroke="#daa987" stroke-linecap="round" stroke-linejoin="round" stroke-width="2.86201"/>
<path d="M325.595 67.7567C325.23 67.028 331.05 67.2994 331.539 67.2994C334.751 67.2994 338.032 66.8822 341.257 66.6135C351.622 65.7497 362.286 64.7843 372.695 64.7843" fill="none" opacity="1" stroke="#4a6b5f" stroke-linecap="round" stroke-linejoin="round" stroke-width="2.86201"/>
<path d="M26.332 70.0561C40.7538 70.0561 55.1155 70.0561 69.4054 70.0561" fill="none" opacity="1" stroke="#4a6b5f" stroke-linecap="round" stroke-linejoin="round" stroke-width="2.86201"/>
<path d="M27.1581 74.2678C29.7119 74.587 32.2569 74.1315 34.8086 74.3634C45.3676 75.3234 55.9181 73.7897 66.2713 73.7897" fill="none" opacity="1" stroke="#4a6b5f" stroke-linecap="round" stroke-linejoin="round" stroke-opacity="0.533784" stroke-width="8.90797"/>
<path d="M328.529 72.1048C334.105 71.1753 339.812 72.4555 345.403 71.8964C354.006 71.0361 363.034 70.0215 371.651 70.0215" fill="none" opacity="1" stroke="#4a6b5f" stroke-linecap="round" stroke-linejoin="round" stroke-opacity="0.533784" stroke-width="8.90797"/>
<path d="M244.866 33.688C249.762 31.7298 260.671 33.324 266.226 33.324C274.652 33.324 283.189 33.1209 291.59 32.5958C295.362 32.36 299.269 31.6249 302.998 31.6249" fill="none" opacity="1" stroke="#2e6777" stroke-linecap="round" stroke-linejoin="round" stroke-opacity="0.504504" stroke-width="6.49632"/>
</g>
<g id="Ebene-2" vectornator:layerName="Ebene 2"/>
</svg>
