<?xml version="1.0" encoding="UTF-8" standalone="no"?>
<!DOCTYPE svg PUBLIC "-//W3C//DTD SVG 1.1//EN" "http://www.w3.org/Graphics/SVG/1.1/DTD/svg11.dtd">
<!-- Created with Vectornator (http://vectornator.io/) -->
<svg height="100%" stroke-miterlimit="10" style="fill-rule:nonzero;clip-rule:evenodd;stroke-linecap:round;stroke-linejoin:round;" version="1.1" viewBox="0 0 340.2 255.15" width="100%" xml:space="preserve" xmlns="http://www.w3.org/2000/svg" xmlns:vectornator="http://vectornator.io" xmlns:xlink="http://www.w3.org/1999/xlink">
<defs/>
<g id="Ebene-1" vectornator:layerName="Ebene 1"/>
<clipPath id="ArtboardFrame">
<rect height="255.15" width="340.2" x="0" y="0"/>
</clipPath>
<g clip-path="url(#ArtboardFrame)" id="Ebene-2" vectornator:layerName="Ebene 2">
<path d="M32.0398 44.8145L295.909 45.3881" fill="none" opacity="1" stroke="#a3a3a3" stroke-linecap="butt" stroke-linejoin="round" stroke-opacity="0.197404" stroke-width="0.579909"/>
<path d="M20.4736 263.984L21.8005 264.173" fill="none" opacity="1" stroke="#2e6777" stroke-linecap="butt" stroke-linejoin="round" stroke-width="2.09926"/>
<path d="M38.8262 45.6137L132.241 45.4759" fill="none" opacity="1" stroke="#2e6777" stroke-linecap="butt" stroke-linejoin="round" stroke-width="2.6489"/>
<path d="M32.4223 194.723L296.291 195.296" fill="none" opacity="1" stroke="#a3a3a3" stroke-linecap="butt" stroke-linejoin="round" stroke-opacity="0.197404" stroke-width="0.579909"/>
<path d="M31.4662 157.437L295.335 158.011" fill="none" opacity="1" stroke="#a3a3a3" stroke-linecap="butt" stroke-linejoin="round" stroke-opacity="0.197404" stroke-width="0.579909"/>
<path d="M32.4223 119.577L296.291 120.151" fill="none" opacity="1" stroke="#a3a3a3" stroke-linecap="butt" stroke-linejoin="round" stroke-opacity="0.197404" stroke-width="0.579909"/>
<path d="M31.8486 82.8652L295.718 83.4388" fill="none" opacity="1" stroke="#a3a3a3" stroke-linecap="butt" stroke-linejoin="round" stroke-opacity="0.197404" stroke-width="0.579909"/>
<path d="M74.0683 237.667L75.4068 34.9844" fill="none" opacity="1" stroke="#a3a3a3" stroke-linecap="butt" stroke-linejoin="round" stroke-opacity="0.197404" stroke-width="0.579909"/>
<path d="M111.545 237.667L112.884 34.9844" fill="none" opacity="1" stroke="#a3a3a3" stroke-linecap="butt" stroke-linejoin="round" stroke-opacity="0.197404" stroke-width="0.579909"/>
<path d="M149.214 237.667L150.552 34.9844" fill="none" opacity="1" stroke="#a3a3a3" stroke-linecap="butt" stroke-linejoin="round" stroke-opacity="0.197404" stroke-width="0.579909"/>
<path d="M187.223 237.667L188.562 34.9844" fill="none" opacity="1" stroke="#a3a3a3" stroke-linecap="butt" stroke-linejoin="round" stroke-opacity="0.197404" stroke-width="0.579909"/>
<path d="M224.586 237.667L225.924 34.9844" fill="none" opacity="1" stroke="#a3a3a3" stroke-linecap="butt" stroke-linejoin="round" stroke-opacity="0.197404" stroke-width="0.579909"/>
<path d="M261.948 237.667L263.287 34.9844" fill="none" opacity="1" stroke="#a3a3a3" stroke-linecap="butt" stroke-linejoin="round" stroke-opacity="0.197404" stroke-width="0.579909"/>
<g opacity="1">
<path d="M37.7632 30.0696C37.8066 42.3764 38.478 232.888 38.478 232.888" fill="none" stroke="#a3a3a3" stroke-linecap="butt" stroke-linejoin="round" stroke-width="2.6489"/>
<g fill="#a3a3a3" stroke="none">
<path d="M46.7615 37.5874L38.7807 27.9028L37.7512 26.6536L36.7305 27.9101L28.8181 37.6506C28.3569 38.2184 28.4433 39.0525 29.0111 39.5137C29.5788 39.9749 30.413 39.8885 30.8742 39.3208L38.7866 29.5802L36.7365 29.5874L44.7173 39.272C45.1825 39.8365 46.0172 39.917 46.5817 39.4518C47.1462 38.9866 47.2267 38.1519 46.7615 37.5874Z" fill="#a3a3a3"/>
</g>
</g>
<g opacity="1">
<path d="M293.728 157.523C279.561 157.523 37.6026 157.523 37.6026 157.523" fill="none" stroke="#a3a3a3" stroke-linecap="butt" stroke-linejoin="round" stroke-width="2.6489"/>
<g fill="#a3a3a3" stroke="none">
<path d="M286.178 166.495L295.891 158.548L297.144 157.523L295.891 156.498L286.178 148.551C285.612 148.088 284.778 148.172 284.314 148.738C283.851 149.304 283.935 150.138 284.501 150.601L294.213 158.548L294.213 156.498L284.501 164.445C283.935 164.908 283.851 165.742 284.314 166.308C284.778 166.875 285.612 166.958 286.178 166.495Z" fill="#a3a3a3"/>
</g>
</g>
<path d="M35.1141 44.4653C35.1141 42.4442 36.7525 40.8058 38.7735 40.8058C40.7946 40.8058 42.433 42.4442 42.433 44.4653C42.433 46.4863 40.7946 48.1247 38.7735 48.1247C36.7525 48.1247 35.1141 46.4863 35.1141 44.4653Z" fill="#ffffff" fill-rule="nonzero" opacity="1" stroke="#d5694f" stroke-linecap="round" stroke-linejoin="round" stroke-width="2.09926"/>
<path d="M32.3817 232.05L296.251 232.624" fill="none" opacity="1" stroke="#a3a3a3" stroke-linecap="butt" stroke-linejoin="round" stroke-opacity="0.197404" stroke-width="0.579909"/>
<path d="M130.657 232.107L188.729 232.295" fill="none" opacity="1" stroke="#2e6777" stroke-linecap="butt" stroke-linejoin="round" stroke-width="2.6489"/>
<path d="M131.235 45.5465L131.227 232.556" fill="none" opacity="1" stroke="#2e6777" stroke-linecap="butt" stroke-linejoin="round" stroke-width="2.6489"/>
<path d="M127.568 46.3414C127.568 44.3203 129.206 42.6819 131.227 42.6819C133.248 42.6819 134.887 44.3203 134.887 46.3414C134.887 48.3624 133.248 50.0008 131.227 50.0008C129.206 50.0008 127.568 48.3624 127.568 46.3414Z" fill="#ffffff" fill-rule="nonzero" opacity="1" stroke="#d5694f" stroke-linecap="round" stroke-linejoin="round" stroke-width="2.09926"/>
<path d="M127.999 232.105C127.999 230.084 129.637 228.446 131.658 228.446C133.68 228.446 135.318 230.084 135.318 232.105C135.318 234.126 133.68 235.765 131.658 235.765C129.637 235.765 127.999 234.126 127.999 232.105Z" fill="#ffffff" fill-rule="nonzero" opacity="1" stroke="#d5694f" stroke-linecap="round" stroke-linejoin="round" stroke-width="2.09926"/>
<path d="M187.92 100.844L187.912 232.675" fill="none" opacity="1" stroke="#2e6777" stroke-linecap="butt" stroke-linejoin="round" stroke-width="2.6489"/>
<path d="M261.721 100.401L188.355 100.259" fill="none" opacity="1" stroke="#2e6777" stroke-linecap="butt" stroke-linejoin="round" stroke-width="2.6489"/>
<path d="M184.593 232.798C184.593 230.777 186.232 229.138 188.253 229.138C190.274 229.138 191.912 230.777 191.912 232.798C191.912 234.819 190.274 236.457 188.253 236.457C186.232 236.457 184.593 234.819 184.593 232.798Z" fill="#ffffff" fill-rule="nonzero" opacity="1" stroke="#d5694f" stroke-linecap="round" stroke-linejoin="round" stroke-width="2.09926"/>
<path d="M258.769 100.861C258.769 98.84 260.408 97.2016 262.429 97.2016C264.45 97.2016 266.088 98.84 266.088 100.861C266.088 102.882 264.45 104.521 262.429 104.521C260.408 104.521 258.769 102.882 258.769 100.861Z" fill="#ffffff" fill-rule="nonzero" opacity="1" stroke="#d5694f" stroke-linecap="round" stroke-linejoin="round" stroke-width="2.09926"/>
<path d="M184.53 100.378C184.53 98.3574 186.168 96.719 188.189 96.719C190.21 96.719 191.848 98.3574 191.848 100.378C191.848 102.399 190.21 104.038 188.189 104.038C186.168 104.038 184.53 102.399 184.53 100.378Z" fill="#ffffff" fill-rule="nonzero" opacity="1" stroke="#d5694f" stroke-linecap="round" stroke-linejoin="round" stroke-width="2.09926"/>
</g>
<g id="Ebene-3" vectornator:layerName="Ebene 3"/>
<g id="Ebene-4" vectornator:layerName="Ebene 4">
<path d="M11.6117 233.149C13.0858 233.149 14.5574 233.027 16.0298 232.957" fill="none" opacity="1" stroke="#eebf5b" stroke-linecap="round" stroke-linejoin="round" stroke-width="2.09926"/>
<path d="M19.4874 229.691C19.9535 228.759 21.684 228.552 22.5608 229.115C23.5172 229.73 19.8546 236.67 20.2557 236.991C21.4835 237.973 23.4537 236.607 24.6737 236.607" fill="none" opacity="1" stroke="#eebf5b" stroke-linecap="round" stroke-linejoin="round" stroke-width="2.09926"/>
<path d="M11.4196 194.923C13.04 193.843 15.2366 194.044 17.1823 193.963" fill="none" opacity="1" stroke="#eebf5b" stroke-linecap="round" stroke-linejoin="round" stroke-width="2.09926"/>
<path d="M21.2161 194.539C22.4115 193.344 23.1334 191.739 24.2896 190.505C24.6231 190.15 24.8253 191.364 24.8658 191.85C24.903 192.297 24.8658 192.746 24.8658 193.195C24.8658 195.03 24.4782 197.218 25.0579 198.957" fill="none" opacity="1" stroke="#eebf5b" stroke-linecap="round" stroke-linejoin="round" stroke-width="2.09926"/>
<path d="M21.5043 156.122C21.1384 156.243 20.8821 155.053 20.6399 155.353C19.9146 156.251 19.6712 157.479 19.4874 158.619C19.2825 159.889 19.4849 162.036 20.832 162.845C23.5602 164.482 26.7558 154.381 21.5043 156.122Z" fill="none" opacity="1" stroke="#eebf5b" stroke-linecap="round" stroke-linejoin="round" stroke-width="2.09926"/>
<path d="M16.4139 121.93C17.815 119.828 18.8715 117.512 20.2557 115.399C20.304 115.325 20.4398 116.872 20.4478 116.936C20.5522 117.771 20.6399 118.219 20.6399 119.049C20.6399 120.965 20.832 122.879 20.832 124.811" fill="none" opacity="1" stroke="#eebf5b" stroke-linecap="round" stroke-linejoin="round" stroke-width="2.09926"/>
<path d="M16.606 80.6309C17.4491 78.5231 19.854 79.3028 20.0636 81.3992C20.2797 83.5604 17.0957 86.0472 17.5665 87.9302C17.6012 88.0691 17.8075 88.1223 17.9506 88.1223C19.6033 88.1223 21.6857 87.1085 23.3291 87.9302" fill="none" opacity="1" stroke="#eebf5b" stroke-linecap="round" stroke-linejoin="round" stroke-width="2.09926"/>
<path d="M18.5046 43.0042C17.9985 41.9921 20.6518 41.8244 21.7614 42.0464C22.4699 42.188 22.8933 42.9778 23.2941 43.579C24.0133 44.6579 23.5955 45.7409 22.5278 46.4527C22.0525 46.7695 21.5254 47.0069 20.9951 47.219C20.8765 47.2664 20.4842 47.219 20.612 47.219C28.6507 47.219 22.7018 51.7472 18.8877 50.4759" fill="none" opacity="1" stroke="#eebf5b" stroke-linecap="round" stroke-linejoin="round" stroke-width="2.09926"/>
<path d="M72.0758 166.821C73.0907 165.806 77.7349 164.026 76.7122 167.094C75.9783 169.295 73.289 171.579 73.4395 171.73C73.9209 172.211 78.4027 172.057 78.894 171.73" fill="none" opacity="1" stroke="#eebf5b" stroke-linecap="round" stroke-linejoin="round" stroke-width="2.09926"/>
<path d="M110.258 164.366C110.258 166.238 110.244 170.031 110.53 170.639C110.644 170.881 114.975 168.417 115.439 168.184" fill="none" opacity="1" stroke="#eebf5b" stroke-linecap="round" stroke-linejoin="round" stroke-width="2.09926"/>
<path d="M113.803 164.094C113.803 166.979 112.25 173.094 113.803 173.094" fill="none" opacity="1" stroke="#eebf5b" stroke-linecap="round" stroke-linejoin="round" stroke-width="2.09926"/>
<path d="M149.53 161.912C148.667 164.5 148.761 167.41 149.258 170.094C149.485 171.322 152.118 168.675 152.258 168.184C152.983 165.644 150.575 165.822 149.53 167.912" fill="none" opacity="1" stroke="#eebf5b" stroke-linecap="round" stroke-linejoin="round" stroke-width="2.09926"/>
<path d="M220.557 169.184C221.328 167.641 221.809 165.97 222.478 164.38C222.528 164.262 222.487 164.637 222.478 164.765C222.455 165.117 222.413 165.469 222.382 165.821C222.349 166.206 222.3 166.589 222.286 166.974C222.24 168.253 222.162 169.676 222.574 170.913" fill="none" opacity="1" stroke="#eebf5b" stroke-linecap="round" stroke-linejoin="round" stroke-width="2.09926"/>
<path d="M226.705 165.341C226.645 165.38 226.538 165.178 226.513 165.245C226.189 166.119 225.86 167.01 225.745 167.935C225.738 167.992 225.683 170.471 226.609 170.625C229.341 171.08 229.837 163.327 226.705 165.341Z" fill="none" opacity="1" stroke="#eebf5b" stroke-linecap="round" stroke-linejoin="round" stroke-width="2.09926"/>
<path d="M257.065 168.704C257.64 167.267 258.341 165.883 258.987 164.476C259.318 163.755 259.083 166.052 259.083 166.206C259.083 167.46 258.776 169.223 259.179 170.433" fill="none" opacity="1" stroke="#eebf5b" stroke-linecap="round" stroke-linejoin="round" stroke-width="2.09926"/>
<path d="M262.542 164.957C262.714 164.269 263.881 164.078 264.559 164.284C264.879 164.382 264.827 164.911 264.847 165.245C264.898 166.051 262.247 169.565 262.83 169.857C264.009 170.446 265.508 168.794 266.673 169.376" fill="none" opacity="1" stroke="#eebf5b" stroke-linecap="round" stroke-linejoin="round" stroke-width="2.09926"/>
<path d="M304.624 152.435C305.468 155.388 300.711 166.045 307.784 162.508" fill="none" opacity="1" stroke="#eebf5b" stroke-linecap="round" stroke-linejoin="round" stroke-width="2.09926"/>
<path d="M302.945 157.966C302.337 158.128 300.516 158.464 301.069 158.163C301.966 157.674 303.015 157.48 304.031 157.373C304.442 157.33 303.344 157.859 302.945 157.966Z" fill="none" opacity="1" stroke="#eebf5b" stroke-linecap="round" stroke-linejoin="round" stroke-width="2.09926"/>
<path d="M316.87 152.238C316.034 151.401 315.504 150.78 313.907 150.657C313.185 150.602 313.859 152.108 313.907 152.83C313.999 154.211 314.105 155.594 314.105 156.978C314.105 158.887 314.105 160.797 314.105 162.706C314.105 162.903 313.928 163.21 314.105 163.299C315.026 163.759 316.728 162.892 317.66 162.706" fill="none" opacity="1" stroke="#eebf5b" stroke-linecap="round" stroke-linejoin="round" stroke-width="2.09926"/>
<path d="M323.585 155.003C322.503 154.462 320.994 155.449 320.228 156.385C320.122 156.514 324.373 158.167 323.585 159.348C323.063 160.132 319.635 160.044 319.635 159.348" fill="none" opacity="1" stroke="#eebf5b" stroke-linecap="round" stroke-linejoin="round" stroke-width="2.09926"/>
<path d="M324.968 151.645C326.014 150.251 328.362 150.59 330.104 150.657C330.341 150.667 330.554 150.863 330.696 151.052C331.206 151.732 329.191 155.837 329.116 156.583C328.595 161.789 331.736 163.101 325.758 163.101" fill="none" opacity="1" stroke="#eebf5b" stroke-linecap="round" stroke-linejoin="round" stroke-width="2.09926"/>
<path d="M34.3567 8.61539C33.1637 8.01885 31.7164 8.02401 30.3859 8.11904C29.5567 8.17828 30.4974 9.78073 30.6341 10.6008C30.9088 12.2491 30.927 13.9364 31.1305 15.5643C31.3535 17.3485 31.3857 19.7335 31.1305 21.5205C31.0708 21.9381 30.4906 22.6048 30.8823 22.7614C32.3851 23.3625 34.1729 22.2651 35.5976 22.2651" fill="none" opacity="1" stroke="#eebf5b" stroke-linecap="round" stroke-linejoin="round" stroke-width="2.09926"/>
<path d="M37.0867 14.5716C37.0867 15.4584 37.1937 16.2064 37.3348 17.0534C37.9802 20.9254 38.4171 14.4872 40.0648 14.0753C41.1067 13.8148 40.9445 17.1435 41.5538 17.5497C42.6997 18.3136 42.3407 14.1721 43.5392 14.5716C44.1393 14.7716 45.082 17.5599 45.2765 18.0461" fill="none" opacity="1" stroke="#eebf5b" stroke-linecap="round" stroke-linejoin="round" stroke-width="2.09926"/>
<path d="M19.9278 14.3735C19.4873 13.4924 20.3697 15.7457 20.4319 15.8856C20.7083 16.5076 21.4731 19.1247 22.196 19.4138C23.2142 19.8211 24.1609 14.5251 25.2201 13.9955" fill="none" opacity="1" stroke="#eebf5b" stroke-linecap="round" stroke-linejoin="round" stroke-width="2.09926"/>
<path d="M50.4602 10.606C50.0986 13.4994 49.6291 16.3796 49.1132 19.2495C48.9921 19.9231 48.3835 21.5722 48.3835 22.6171" fill="none" opacity="1" stroke="#eebf5b" stroke-linecap="round" stroke-linejoin="round" stroke-width="2.09926"/>
<path d="M55.2872 14.3665C55.2872 14.2868 52.581 13.9494 53.3788 15.5451C53.612 16.0115 55.1172 16.1678 55.5117 16.6115C56.7856 18.0447 54.2701 18.9217 53.2105 18.127" fill="none" opacity="1" stroke="#eebf5b" stroke-linecap="round" stroke-linejoin="round" stroke-width="2.09926"/>
<path d="M57.6445 9.65179C58.4112 9.14064 59.4733 9.35653 60.3947 9.37116C62.5994 9.40616 61.8261 10.308 61.7418 12.1214C61.6989 13.043 61.6497 14.2358 61.6856 15.1522C61.7455 16.6796 62.5638 19.3835 61.9663 20.8772C61.921 20.9905 58.7109 21.8264 58.7109 21.3262" fill="none" opacity="1" stroke="#eebf5b" stroke-linecap="round" stroke-linejoin="round" stroke-width="2.09926"/>
<path d="M188.258 164.094C188.547 164.871 185.45 162.698 184.712 164.912C184.132 166.653 188.657 166.844 189.349 168.457C190.313 170.709 187.837 174.229 186.076 172.821C182.599 170.039 189.717 166.718 190.439 164.912C190.988 163.54 187.959 163.292 188.258 164.094Z" fill="none" opacity="1" stroke="#eebf5b" stroke-linecap="round" stroke-linejoin="round" stroke-width="2.09926"/>
</g>
</svg>
