<?xml version="1.0" encoding="UTF-8" standalone="no"?>
<!DOCTYPE svg PUBLIC "-//W3C//DTD SVG 1.1//EN" "http://www.w3.org/Graphics/SVG/1.1/DTD/svg11.dtd">
<!-- Created with Vectornator (http://vectornator.io/) -->
<svg height="100%" stroke-miterlimit="10" style="fill-rule:nonzero;clip-rule:evenodd;stroke-linecap:round;stroke-linejoin:round;" version="1.1" viewBox="0 0 340.2 524.475" width="100%" xml:space="preserve" xmlns="http://www.w3.org/2000/svg" xmlns:vectornator="http://vectornator.io" xmlns:xlink="http://www.w3.org/1999/xlink">
<defs/>
<g id="Ebene-3" vectornator:layerName="Ebene 3">
<path d="M31.3935 25.4633L124.513 25.4633L124.513 490.652L31.3935 490.652L31.3935 25.4633Z" fill="#e9b0a2" fill-opacity="0.215734" fill-rule="nonzero" opacity="1" stroke="none"/>
<path d="M180.919 26.6067L255.109 26.6067L255.109 491.356L180.919 491.356L180.919 26.6067Z" fill="#e9b0a2" fill-opacity="0.215734" fill-rule="nonzero" opacity="1" stroke="none"/>
<g opacity="1">
<path d="M77.3199 263.129C77.3836 264.595 77.4429 266.061 77.5111 267.526C77.568 268.751 76.9881 271.708 78.0847 271.159" fill="none" opacity="1" stroke="#d5694f" stroke-linecap="round" stroke-linejoin="round" stroke-width="2.09926"/>
<path d="M73.1133 263.129C75.6274 261.872 78.7187 262.689 81.5265 262.555" fill="none" opacity="1" stroke="#d5694f" stroke-linecap="round" stroke-linejoin="round" stroke-width="2.09926"/>
<path d="M73.7263 271.973C77.2095 271.586 80.6943 271.1 84.2026 271.1" fill="none" opacity="1" stroke="#d5694f" stroke-linecap="round" stroke-linejoin="round" stroke-width="2.09926"/>
<path d="M148.37 263.025C148.695 264.002 149.509 271.925 150.116 271.318" fill="none" opacity="1" stroke="#d5694f" stroke-linecap="round" stroke-linejoin="round" stroke-width="2.09926"/>
<path d="M152.08 263.243C151.729 266.048 151.752 269.081 153.389 271.537" fill="none" opacity="1" stroke="#d5694f" stroke-linecap="round" stroke-linejoin="round" stroke-width="2.09926"/>
<path d="M144.878 261.715C148.418 260.83 152.146 261.031 155.79 260.842C156.81 260.789 157.933 260.604 158.846 261.06" fill="none" opacity="1" stroke="#d5694f" stroke-linecap="round" stroke-linejoin="round" stroke-width="2.09926"/>
<path d="M145.314 273.065C145.169 273.065 144.732 273.057 144.878 273.065C146.478 273.145 148.078 273.239 149.679 273.283C151.149 273.323 159.884 272.304 159.937 272.41" fill="none" opacity="1" stroke="#d5694f" stroke-linecap="round" stroke-linejoin="round" stroke-width="2.09926"/>
<path d="M215.592 264.553C216.895 267.159 215.952 270.37 216.029 273.283" fill="none" opacity="1" stroke="#d5694f" stroke-linecap="round" stroke-linejoin="round" stroke-width="2.09926"/>
<path d="M218.43 263.243C219.731 265.847 218.664 269.251 219.084 272.192" fill="none" opacity="1" stroke="#d5694f" stroke-linecap="round" stroke-linejoin="round" stroke-width="2.09926"/>
<path d="M221.049 262.807C222.537 265.782 222.14 269.537 222.14 272.846" fill="none" opacity="1" stroke="#d5694f" stroke-linecap="round" stroke-linejoin="round" stroke-width="2.09926"/>
<path d="M212.537 262.152C212.464 262.006 212.161 261.755 212.318 261.715C214.105 261.269 215.944 261.046 217.775 260.842C220.704 260.517 223.252 260.406 226.068 260.406" fill="none" opacity="1" stroke="#d5694f" stroke-linecap="round" stroke-linejoin="round" stroke-width="2.09926"/>
<path d="M213.191 275.247C216.515 274.416 220.034 274.868 223.449 274.592C225.465 274.43 228.103 273.501 230.215 273.501" fill="none" opacity="1" stroke="#d5694f" stroke-linecap="round" stroke-linejoin="round" stroke-width="2.09926"/>
</g>
<path d="M124.006 476.698C124.006 460.354 122.094 444.035 123.003 427.666C123.296 422.394 123.756 417.127 124.132 411.866C124.447 407.453 123.918 402.983 124.257 398.573C124.488 395.57 124.63 392.279 124.257 389.293C123.628 384.261 124.84 378.994 124.006 373.994C122.885 367.266 124.257 359.527 124.257 352.802C124.257 352.095 124.53 346.212 124.257 346.03C123.787 345.717 122.517 349.886 122.376 350.168C122.307 350.307 121.317 352.175 121.498 352.175C121.592 352.175 122.228 350.104 122.251 350.043C122.734 348.714 123.161 347.105 123.881 345.905C123.969 345.757 123.834 345.403 124.006 345.403C124.379 345.403 126.943 352.175 127.141 352.175" fill="none" opacity="1" stroke="#d5694f" stroke-linecap="round" stroke-linejoin="round" stroke-width="2.09926"/>
<path d="M129.09 419.279C130.761 419.279 132.428 419.136 134.099 419.136" fill="none" opacity="1" stroke="#d5694f" stroke-linecap="round" stroke-linejoin="round" stroke-width="2.09926"/>
<path d="M131.809 415.988C131.809 418.039 131.898 420.09 131.952 422.141" fill="none" opacity="1" stroke="#d5694f" stroke-linecap="round" stroke-linejoin="round" stroke-width="2.09926"/>
<path d="M137.676 420.996C139.162 420.253 139.883 418.502 140.824 417.133C140.995 416.884 140.897 416.487 141.11 416.274C141.447 415.937 141.134 417.229 141.11 417.705C141.079 418.324 141.135 418.946 141.11 419.565C141.067 420.649 140.757 421.798 141.11 422.856" fill="none" opacity="1" stroke="#d5694f" stroke-linecap="round" stroke-linejoin="round" stroke-width="2.09926"/>
<path d="M145.403 415.702C144.789 416.622 145.211 418.077 145.832 418.993C146.264 419.629 147.314 419.572 147.835 420.138C148.473 420.829 144.115 423.091 144.115 421.855" fill="none" opacity="1" stroke="#d5694f" stroke-linecap="round" stroke-linejoin="round" stroke-width="2.09926"/>
<path d="M144.973 415.702C146.582 414.897 148.397 415.634 150.125 414.986" fill="none" opacity="1" stroke="#d5694f" stroke-linecap="round" stroke-linejoin="round" stroke-width="2.09926"/>
<path d="M151.126 418.564C151.442 419.827 151.117 421.263 151.699 422.427C151.807 422.643 152.523 420.82 152.557 420.71C152.695 420.262 152.869 418.824 153.273 418.42C154.321 417.372 155.071 421.514 155.419 421.282C155.944 420.932 155.997 418.277 156.993 418.277C157.703 418.277 158.077 421.651 158.71 422.284" fill="none" opacity="1" stroke="#d5694f" stroke-linecap="round" stroke-linejoin="round" stroke-width="2.09926"/>
<path d="M35.6415 480.634C37.6568 480.634 39.6721 480.634 41.6874 480.634" fill="none" opacity="1" stroke="#d5694f" stroke-linecap="round" stroke-linejoin="round" stroke-width="2.09926"/>
<path d="M48.0997 480.817C50.1797 480.817 52.2495 480.634 54.3289 480.634" fill="none" opacity="1" stroke="#d5694f" stroke-linecap="round" stroke-linejoin="round" stroke-width="2.09926"/>
<path d="M60.9244 480.45C63.1227 480.45 65.3187 480.634 67.52 480.634" fill="none" opacity="1" stroke="#d5694f" stroke-linecap="round" stroke-linejoin="round" stroke-width="2.09926"/>
<path d="M73.5659 480.45C75.5828 480.45 77.5948 480.267 79.6118 480.267" fill="none" opacity="1" stroke="#d5694f" stroke-linecap="round" stroke-linejoin="round" stroke-width="2.09926"/>
<path d="M86.5738 480.45C88.4184 480.45 90.2753 480.368 92.0701 480.817" fill="none" opacity="1" stroke="#d5694f" stroke-linecap="round" stroke-linejoin="round" stroke-width="2.09926"/>
<path d="M98.4825 480.817C100.62 480.817 102.757 480.817 104.895 480.817" fill="none" opacity="1" stroke="#d5694f" stroke-linecap="round" stroke-linejoin="round" stroke-width="2.09926"/>
<path d="M111.674 480.45C113.571 480.45 115.462 480.665 117.353 480.817" fill="none" opacity="1" stroke="#d5694f" stroke-linecap="round" stroke-linejoin="round" stroke-width="2.09926"/>
<path d="M120.284 480.634C121.567 480.634 122.849 480.634 124.132 480.634" fill="none" opacity="1" stroke="#d5694f" stroke-linecap="round" stroke-linejoin="round" stroke-width="2.09926"/>
<path d="M124.132 476.236C124.132 478.255 124.078 477.217 124.315 479.351" fill="none" opacity="1" stroke="#d5694f" stroke-linecap="round" stroke-linejoin="round" stroke-width="2.09926"/>
<path d="M129.445 341.76C130.483 341.76 131.521 341.76 132.56 341.76" fill="none" opacity="1" stroke="#d5694f" stroke-linecap="round" stroke-linejoin="round" stroke-width="2.09926"/>
<path d="M136.957 341.577C138.483 341.577 140.01 341.577 141.537 341.577" fill="none" opacity="1" stroke="#d5694f" stroke-linecap="round" stroke-linejoin="round" stroke-width="2.09926"/>
<path d="M146.667 341.577C148.193 341.577 149.72 341.577 151.247 341.577" fill="none" opacity="1" stroke="#d5694f" stroke-linecap="round" stroke-linejoin="round" stroke-width="2.09926"/>
<path d="M156.926 341.577C158.514 341.577 160.102 341.577 161.69 341.577" fill="none" opacity="1" stroke="#d5694f" stroke-linecap="round" stroke-linejoin="round" stroke-width="2.09926"/>
<path d="M166.82 341.394C167.736 341.394 168.652 341.394 169.568 341.394" fill="none" opacity="1" stroke="#d5694f" stroke-linecap="round" stroke-linejoin="round" stroke-width="2.09926"/>
<path d="M175.064 341.76C174.288 341.76 178.304 341.577 179.461 341.577" fill="none" opacity="1" stroke="#d5694f" stroke-linecap="round" stroke-linejoin="round" stroke-width="2.09926"/>
<path d="M185.552 396.995C186.892 397.107 188.202 397.116 189.548 397.116" fill="none" opacity="1" stroke="#d5694f" stroke-linecap="round" stroke-linejoin="round" stroke-width="2.09926"/>
<path d="M195.601 396.995C197.377 396.995 199.153 396.995 200.928 396.995" fill="none" opacity="1" stroke="#d5694f" stroke-linecap="round" stroke-linejoin="round" stroke-width="2.09926"/>
<path d="M205.771 396.147C207.099 396.337 208.434 396.478 209.767 396.632" fill="none" opacity="1" stroke="#d5694f" stroke-linecap="round" stroke-linejoin="round" stroke-width="2.09926"/>
<path d="M215.457 395.905C216.87 395.905 218.282 395.982 219.695 396.026" fill="none" opacity="1" stroke="#d5694f" stroke-linecap="round" stroke-linejoin="round" stroke-width="2.09926"/>
<path d="M225.385 395.905C227.363 395.905 229.339 395.784 231.317 395.784" fill="none" opacity="1" stroke="#d5694f" stroke-linecap="round" stroke-linejoin="round" stroke-width="2.09926"/>
<path d="M235.797 395.542C237.492 395.542 239.187 395.542 240.882 395.542" fill="none" opacity="1" stroke="#d5694f" stroke-linecap="round" stroke-linejoin="round" stroke-width="2.09926"/>
<path d="M247.662 395.421C249.682 395.421 251.697 395.3 253.716 395.3" fill="none" opacity="1" stroke="#d5694f" stroke-linecap="round" stroke-linejoin="round" stroke-width="2.09926"/>
<path d="M181.073 342.634C181.073 358.487 180.225 374.378 180.225 390.215" fill="none" opacity="1" stroke="#d5694f" stroke-linecap="round" stroke-linejoin="round" stroke-width="2.09926"/>
<path d="M177.319 385.372C177.843 385.634 179.304 389.743 180.225 389.973C180.608 390.068 183.901 384.437 184.22 383.798" fill="none" opacity="1" stroke="#d5694f" stroke-linecap="round" stroke-linejoin="round" stroke-width="2.09926"/>
<path d="M255.411 394.937C256.691 391.096 256.046 386.35 256.379 382.345C257.029 374.555 257.227 366.443 257.227 358.615C257.227 357.591 257.147 347.981 256.622 347.719C256.411 347.613 256.379 348.122 256.258 348.324C255.625 349.379 254.442 351.044 254.442 352.319C254.442 353.005 255.119 351.124 255.411 350.503C255.559 350.189 256.196 347.961 256.743 347.961C257.557 347.961 260.779 352.685 261.101 353.651" fill="none" opacity="1" stroke="#d5694f" stroke-linecap="round" stroke-linejoin="round" stroke-width="2.09926"/>
<path d="M185.275 365.061C186.55 365.061 187.804 364.789 189.081 364.789" fill="none" opacity="1" stroke="#d5694f" stroke-linecap="round" stroke-linejoin="round" stroke-width="2.09926"/>
<path d="M194.337 360.257C193.488 362.078 193.286 364.151 193.069 366.148C192.863 368.035 195.44 367.399 196.059 366.239C196.823 364.808 195.637 363.61 194.609 365.151" fill="none" opacity="1" stroke="#d5694f" stroke-linecap="round" stroke-linejoin="round" stroke-width="2.09926"/>
<path d="M199.322 363.701C199.322 364.883 199.319 366.022 199.503 367.236C199.51 367.284 199.622 367.036 199.956 365.967C200.069 365.605 200.767 363.065 201.587 363.339C202.539 363.656 202.056 367.054 202.222 367.054C202.331 367.054 202.354 366.88 202.403 366.783C202.671 366.246 204.396 362.43 205.212 364.064C205.449 364.537 205.573 364.897 205.666 365.423C205.917 366.848 205.572 365.687 205.938 366.783" fill="none" opacity="1" stroke="#d5694f" stroke-linecap="round" stroke-linejoin="round" stroke-width="2.09926"/>
<path d="M261.857 368.862C263.115 368.682 264.4 368.826 265.671 368.862" fill="none" opacity="1" stroke="#d5694f" stroke-linecap="round" stroke-linejoin="round" stroke-width="2.09926"/>
<path d="M264.309 366.41C263.802 366.917 264.309 370.326 264.309 371.495" fill="none" opacity="1" stroke="#d5694f" stroke-linecap="round" stroke-linejoin="round" stroke-width="2.09926"/>
<path d="M270.846 365.23C270.585 365.317 267.441 372.484 269.938 373.039C273.448 373.819 272.142 366.09 269.757 370.86" fill="none" opacity="1" stroke="#d5694f" stroke-linecap="round" stroke-linejoin="round" stroke-width="2.09926"/>
<path d="M275.295 369.044C275.683 370.205 275.575 371.481 275.84 372.676C275.93 373.078 276.422 372.062 276.567 371.677C276.681 371.371 277.166 369.044 277.656 369.044C278.186 369.044 278.025 372.312 278.564 372.222C279.705 372.032 279.562 369.543 280.471 369.316C280.772 369.241 281.924 372.167 282.015 372.313" fill="none" opacity="1" stroke="#d5694f" stroke-linecap="round" stroke-linejoin="round" stroke-width="2.09926"/>
</g>
<g id="Ebene-1" vectornator:layerName="Ebene 1">
<path d="M64.4598 501.68C65.211 501.304 66.7451 500.216 67.7135 501.088C68.2019 501.528 64.6831 506.134 64.3119 506.708C64.0441 507.122 62.9568 507.735 63.4245 507.891C64.3611 508.203 66.8239 507.3 68.0093 507.3" fill="none" opacity="1" stroke="#eebf5b" stroke-linecap="round" stroke-linejoin="round" stroke-width="2.09926"/>
<path d="M102.617 499.313C103.036 498.475 102.552 501.189 102.617 502.123C102.646 502.543 102.783 502.989 103.061 503.306C103.733 504.075 105.679 502.737 106.314 502.419" fill="none" opacity="1" stroke="#eebf5b" stroke-linecap="round" stroke-linejoin="round" stroke-width="2.09926"/>
<path d="M105.723 498.87C105.723 501.635 105.427 504.385 105.427 507.152" fill="none" opacity="1" stroke="#eebf5b" stroke-linecap="round" stroke-linejoin="round" stroke-width="2.09926"/>
<path d="M142.697 500.053C142.147 498.68 140.484 502.193 140.034 503.602C139.702 504.645 139.637 506.155 140.478 506.856C143.382 509.276 146.481 500.833 141.218 504.342" fill="none" opacity="1" stroke="#eebf5b" stroke-linecap="round" stroke-linejoin="round" stroke-width="2.09926"/>
<path d="M180.854 499.831C180.837 499.849 180.878 499.755 180.854 499.757C179.964 499.831 178.773 499.375 178.192 500.053C177.553 500.798 181.45 503.634 181.593 504.638C181.745 505.699 179.692 508.237 178.635 507.004C177.46 505.632 181.46 501.45 182.037 500.201C182.661 498.848 181.412 499.228 180.854 499.831Z" fill="none" opacity="1" stroke="#eebf5b" stroke-linecap="round" stroke-linejoin="round" stroke-width="2.09926"/>
<path d="M211.32 506.264C212.013 504.187 213.408 502.396 214.722 500.644C214.931 500.365 214.647 501.339 214.574 501.68C214.499 502.031 214.323 502.359 214.278 502.715C214.135 503.86 214.238 505.284 214.426 506.412" fill="none" opacity="1" stroke="#eebf5b" stroke-linecap="round" stroke-linejoin="round" stroke-width="2.09926"/>
<path d="M217.532 501.458C217.456 501.711 216.649 507.188 219.307 506.856C220.504 506.706 221.414 505.229 221.821 504.342C223.574 500.517 218.819 497.126 217.532 501.458Z" fill="none" opacity="1" stroke="#eebf5b" stroke-linecap="round" stroke-linejoin="round" stroke-width="2.09926"/>
<path d="M248.146 506.116C248.713 503.849 250.145 501.877 251.4 499.905C251.532 499.697 251.43 500.4 251.4 500.644C251.332 501.191 251.152 501.722 251.104 502.271C251.046 502.935 250.691 506.058 251.4 506.412" fill="none" opacity="1" stroke="#eebf5b" stroke-linecap="round" stroke-linejoin="round" stroke-width="2.09926"/>
<path d="M253.766 501.236C255.039 500.472 255.853 499.879 257.759 500.053C258.212 500.094 257.708 501 257.464 501.384C256.963 502.17 254.43 505.336 254.801 506.264C255.001 506.763 259.963 505.337 260.717 505.229" fill="none" opacity="1" stroke="#eebf5b" stroke-linecap="round" stroke-linejoin="round" stroke-width="2.09926"/>
<path d="M13.791 448.629C13.2548 447.556 13.7586 451.027 13.791 452.226C13.8126 453.025 13.5851 453.852 13.791 454.624C14.1131 455.832 18.0155 454.035 18.4164 453.768" fill="none" opacity="1" stroke="#eebf5b" stroke-linecap="round" stroke-linejoin="round" stroke-width="2.09926"/>
<path d="M17.5598 448.629C17.5598 448.514 17.5653 448.172 17.5598 448.286C17.4973 449.599 17.4496 450.913 17.3885 452.226C17.3039 454.046 16.6439 457.589 17.5598 459.421" fill="none" opacity="1" stroke="#eebf5b" stroke-linecap="round" stroke-linejoin="round" stroke-width="2.09926"/>
<path d="M16.1037 410.855C15.1815 411.032 14.8741 412.616 15.1615 413.51C15.647 415.021 17.7203 415.971 17.9025 417.793C18.0747 419.515 15.391 419.706 14.305 419.163C11.2705 417.646 23.5287 409.427 16.1037 410.855Z" fill="none" opacity="1" stroke="#eebf5b" stroke-linecap="round" stroke-linejoin="round" stroke-width="2.09926"/>
<path d="M6.93867 379.762C7.40956 377.879 8.50299 376.167 9.67962 374.623C9.85608 374.391 9.83383 375.189 9.85093 375.48C9.89117 376.164 9.85093 376.85 9.85093 377.535C9.85093 379.128 9.70875 380.764 10.0222 382.332" fill="none" opacity="1" stroke="#eebf5b" stroke-linecap="round" stroke-linejoin="round" stroke-width="2.09926"/>
<path d="M13.1058 376.679C13.4281 375.712 16.6468 373.713 16.8746 375.308C17.0423 376.482 13.635 381.649 14.8189 381.818C15.9686 381.982 16.7576 381.133 17.9025 381.133" fill="none" opacity="1" stroke="#eebf5b" stroke-linecap="round" stroke-linejoin="round" stroke-width="2.09926"/>
<path d="M7.88398 344.168C9.72115 341.872 11.2563 339.346 13.0586 337.022C13.2117 336.825 12.9814 337.516 12.9354 337.762C12.8284 338.332 12.7773 338.912 12.689 339.486C12.4285 341.179 12.3194 342.824 12.3194 344.538" fill="none" opacity="1" stroke="#eebf5b" stroke-linecap="round" stroke-linejoin="round" stroke-width="2.09926"/>
<path d="M17.494 337.146C17.3297 337.187 17.0366 337.103 17.0012 337.269C16.5229 339.501 16.0836 341.764 16.0155 344.045C15.9991 344.596 16.3824 345.117 16.7548 345.524C17.9309 346.807 21.0714 339.954 17.7404 341.827C17.3354 342.055 17.0656 342.468 16.7548 342.813C16.6933 342.881 16.6726 342.977 16.6315 343.059" fill="none" opacity="1" stroke="#eebf5b" stroke-linecap="round" stroke-linejoin="round" stroke-width="2.09926"/>
<path d="M7.91511 302.446C7.86864 302.307 7.63409 302.067 7.77572 302.028C9.1379 301.652 10.5566 301.144 11.9572 301.331C12.6616 301.425 11.8804 302.833 11.1209 304.119C9.57832 306.729 6.55762 309.504 12.236 307.882" fill="none" opacity="1" stroke="#eebf5b" stroke-linecap="round" stroke-linejoin="round" stroke-width="2.09926"/>
<path d="M17.3932 301.819C16.2272 302.367 15.617 303.945 15.5812 305.234C15.53 307.077 17.3912 307.484 18.6476 307.185C23.2582 306.087 21.3628 299.951 17.3932 301.819Z" fill="none" opacity="1" stroke="#eebf5b" stroke-linecap="round" stroke-linejoin="round" stroke-width="2.09926"/>
<path d="M298.936 487.586C298.691 489.547 296.407 498.944 301.075 495.21" fill="none" opacity="1" stroke="#eebf5b" stroke-linecap="round" stroke-linejoin="round" stroke-width="2.09926"/>
<path d="M295.775 492.049C295.682 492.049 295.404 492.063 295.496 492.049C296.641 491.881 297.787 491.72 298.936 491.584C299.072 491.568 300.814 491.25 300.982 491.584" fill="none" opacity="1" stroke="#eebf5b" stroke-linecap="round" stroke-linejoin="round" stroke-width="2.09926"/>
<path d="M308.699 485.82C308.031 485.152 307.033 484.817 306.095 484.704C305.599 484.645 306.226 485.695 306.281 486.192C306.418 487.422 306.374 488.785 306.374 490.004C306.374 491.984 305.257 500.185 309.814 497.907" fill="none" opacity="1" stroke="#eebf5b" stroke-linecap="round" stroke-linejoin="round" stroke-width="2.09926"/>
<path d="M314.928 490.562C314.314 489.948 313.124 490.316 312.325 490.655C312.123 490.74 312.204 491.088 312.232 491.305C312.357 492.307 315.725 491.785 315.3 493.63C315.05 494.712 311.953 495.337 311.953 494.374" fill="none" opacity="1" stroke="#eebf5b" stroke-linecap="round" stroke-linejoin="round" stroke-width="2.09926"/>
<path d="M316.043 486.192C316.043 486.003 319.43 485.063 320.227 485.541C320.383 485.635 320.041 490.204 320.041 490.748C320.041 491.579 320.915 497.762 320.32 498C319.429 498.356 317.94 498.186 316.973 498.186" fill="none" opacity="1" stroke="#eebf5b" stroke-linecap="round" stroke-linejoin="round" stroke-width="2.09926"/>
<path d="M19.5519 272.624C19.461 272.594 19.368 272.498 19.2793 272.534C18.3757 272.901 17.1283 272.959 16.6444 273.806C16.5271 274.011 19.1682 274.712 19.3702 274.805C20.2417 275.204 21.0516 276.013 20.5513 277.076C19.9281 278.401 16.9182 278.896 16.1902 277.44" fill="none" opacity="1" stroke="#eebf5b" stroke-linecap="round" stroke-linejoin="round" stroke-width="2.09926"/>
<path d="M28.4559 268.172C27.8564 267.873 26.7278 267.219 26.0936 267.536C25.4078 267.879 26.3523 269.048 26.457 269.808C26.5677 270.61 26.8701 272.906 26.9113 273.442C26.9741 274.258 26.9666 275.078 27.0022 275.895C27.0236 276.389 26.8387 279.308 27.4565 279.802C28.0114 280.246 29.5554 279.802 30.1822 279.802" fill="none" opacity="1" stroke="#eebf5b" stroke-linecap="round" stroke-linejoin="round" stroke-width="2.09926"/>
<path d="M31.0907 271.262C31.4756 272.801 31.5849 274.425 32.181 275.895C32.3419 276.292 32.9055 275.373 33.0896 274.987C33.2668 274.615 33.822 271.926 34.1799 271.807C34.4012 271.733 34.8074 275.16 35.1793 275.532C35.7143 276.067 37.4177 272.418 37.4507 272.443C38.3507 273.118 37.7099 274.844 38.9045 275.441" fill="none" opacity="1" stroke="#eebf5b" stroke-linecap="round" stroke-linejoin="round" stroke-width="2.09926"/>
<path d="M39.177 268.354C39.3686 267.588 44.1946 266.83 45.1736 267.809C45.8619 268.497 44.8696 271.786 44.9919 272.715C45.6154 277.454 48.1743 279.075 42.2662 279.075" fill="none" opacity="1" stroke="#eebf5b" stroke-linecap="round" stroke-linejoin="round" stroke-width="2.09926"/>
</g>
<g id="Ebene-2" vectornator:layerName="Ebene 2">
<path d="M25.6403 42.4541L289.509 43.0278" fill="none" opacity="1" stroke="#a3a3a3" stroke-linecap="butt" stroke-linejoin="round" stroke-opacity="0.197404" stroke-width="0.579909"/>
<path d="M31.4875 478.924L125.175 341.059" fill="none" opacity="1" stroke="#2e6777" stroke-linecap="butt" stroke-linejoin="round" stroke-width="2.6489"/>
<path d="M181.159 395.52L125.556 341.25" fill="none" opacity="1" stroke="#2e6777" stroke-linecap="butt" stroke-linejoin="round" stroke-width="2.6489"/>
<path d="M256.185 342.392L180.587 396.472" fill="none" opacity="1" stroke="#2e6777" stroke-linecap="butt" stroke-linejoin="round" stroke-width="2.6489"/>
<g opacity="1">
<path d="M25.0836 453.215L288.953 453.789" fill="none" opacity="1" stroke="#a3a3a3" stroke-linecap="butt" stroke-linejoin="round" stroke-opacity="0.197404" stroke-width="0.579909"/>
<path d="M24.1275 415.929L287.997 416.503" fill="none" opacity="1" stroke="#a3a3a3" stroke-linecap="butt" stroke-linejoin="round" stroke-opacity="0.197404" stroke-width="0.579909"/>
<path d="M25.0836 378.07L288.953 378.644" fill="none" opacity="1" stroke="#a3a3a3" stroke-linecap="butt" stroke-linejoin="round" stroke-opacity="0.197404" stroke-width="0.579909"/>
<path d="M24.5099 341.358L288.379 341.931" fill="none" opacity="1" stroke="#a3a3a3" stroke-linecap="butt" stroke-linejoin="round" stroke-opacity="0.197404" stroke-width="0.579909"/>
<path d="M24.7011 303.307L288.57 303.881" fill="none" opacity="1" stroke="#a3a3a3" stroke-linecap="butt" stroke-linejoin="round" stroke-opacity="0.197404" stroke-width="0.579909"/>
<path d="M66.7296 496.159L68.0681 293.477" fill="none" opacity="1" stroke="#a3a3a3" stroke-linecap="butt" stroke-linejoin="round" stroke-opacity="0.197404" stroke-width="0.579909"/>
<path d="M104.207 496.159L105.545 293.477" fill="none" opacity="1" stroke="#a3a3a3" stroke-linecap="butt" stroke-linejoin="round" stroke-opacity="0.197404" stroke-width="0.579909"/>
<path d="M141.875 496.159L143.213 293.477" fill="none" opacity="1" stroke="#a3a3a3" stroke-linecap="butt" stroke-linejoin="round" stroke-opacity="0.197404" stroke-width="0.579909"/>
<path d="M179.884 496.159L181.223 293.477" fill="none" opacity="1" stroke="#a3a3a3" stroke-linecap="butt" stroke-linejoin="round" stroke-opacity="0.197404" stroke-width="0.579909"/>
<path d="M217.247 496.159L218.585 293.477" fill="none" opacity="1" stroke="#a3a3a3" stroke-linecap="butt" stroke-linejoin="round" stroke-opacity="0.197404" stroke-width="0.579909"/>
<path d="M254.61 496.159L255.948 293.477" fill="none" opacity="1" stroke="#a3a3a3" stroke-linecap="butt" stroke-linejoin="round" stroke-opacity="0.197404" stroke-width="0.579909"/>
<g opacity="1">
<path d="M30.4245 288.562C30.4679 300.869 31.1393 491.38 31.1393 491.38" fill="none" stroke="#a3a3a3" stroke-linecap="butt" stroke-linejoin="round" stroke-width="2.6489"/>
<g fill="#a3a3a3" stroke="none">
<path d="M39.4228 296.08L31.442 286.395L30.4125 285.146L29.3918 286.403L21.4794 296.143C21.0182 296.711 21.1046 297.545 21.6724 298.006C22.2401 298.467 23.0743 298.381 23.5355 297.813L31.4479 288.073L29.3978 288.08L37.3786 297.765C37.8438 298.329 38.6785 298.41 39.243 297.944C39.8075 297.479 39.888 296.644 39.4228 296.08Z" fill="#a3a3a3"/>
</g>
</g>
<g opacity="1">
<path d="M286.847 491.773C272.68 491.773 30.7217 491.773 30.7217 491.773" fill="none" stroke="#a3a3a3" stroke-linecap="butt" stroke-linejoin="round" stroke-width="2.6489"/>
<g fill="#a3a3a3" stroke="none">
<path d="M279.297 500.745L289.01 492.798L290.263 491.773L289.01 490.748L279.297 482.801C278.731 482.338 277.897 482.421 277.434 482.988C276.97 483.554 277.054 484.388 277.62 484.851L287.333 492.798L287.333 490.748L277.62 498.695C277.054 499.158 276.97 499.992 277.434 500.558C277.897 501.124 278.731 501.208 279.297 500.745Z" fill="#a3a3a3"/>
</g>
</g>
</g>
<path d="M27.5026 479.958C27.5026 477.937 29.141 476.298 31.1621 476.298C33.1832 476.298 34.8216 477.937 34.8216 479.958C34.8216 481.979 33.1832 483.617 31.1621 483.617C29.141 483.617 27.5026 481.979 27.5026 479.958Z" fill="#ffffff" fill-rule="nonzero" opacity="1" stroke="#d5694f" stroke-linecap="round" stroke-linejoin="round" stroke-width="2.09926"/>
<path d="M120.926 341.692C120.926 339.671 122.564 338.033 124.585 338.033C126.606 338.033 128.245 339.671 128.245 341.692C128.245 343.714 126.606 345.352 124.585 345.352C122.564 345.352 120.926 343.714 120.926 341.692Z" fill="#ffffff" fill-rule="nonzero" opacity="1" stroke="#d5694f" stroke-linecap="round" stroke-linejoin="round" stroke-width="2.09926"/>
<path d="M177.141 396.378C177.141 394.357 178.78 392.719 180.801 392.719C182.822 392.719 184.46 394.357 184.46 396.378C184.46 398.399 182.822 400.038 180.801 400.038C178.78 400.038 177.141 398.399 177.141 396.378Z" fill="#ffffff" fill-rule="nonzero" opacity="1" stroke="#d5694f" stroke-linecap="round" stroke-linejoin="round" stroke-width="2.09926"/>
<path d="M252.247 342.701C252.247 340.68 253.885 339.041 255.906 339.041C257.927 339.041 259.566 340.68 259.566 342.701C259.566 344.722 257.927 346.36 255.906 346.36C253.885 346.36 252.247 344.722 252.247 342.701Z" fill="#ffffff" fill-rule="nonzero" opacity="1" stroke="#d5694f" stroke-linecap="round" stroke-linejoin="round" stroke-width="2.09926"/>
<path d="M13.3556 260.781L14.6825 260.97" fill="none" opacity="1" stroke="#2e6777" stroke-linecap="butt" stroke-linejoin="round" stroke-width="2.09926"/>
<path d="M32.4267 43.2534L125.841 43.1155" fill="none" opacity="1" stroke="#2e6777" stroke-linecap="butt" stroke-linejoin="round" stroke-width="2.6489"/>
<path d="M26.0227 192.362L289.892 192.936" fill="none" opacity="1" stroke="#a3a3a3" stroke-linecap="butt" stroke-linejoin="round" stroke-opacity="0.197404" stroke-width="0.579909"/>
<path d="M25.0667 155.077L288.936 155.65" fill="none" opacity="1" stroke="#a3a3a3" stroke-linecap="butt" stroke-linejoin="round" stroke-opacity="0.197404" stroke-width="0.579909"/>
<path d="M26.0227 117.217L289.892 117.791" fill="none" opacity="1" stroke="#a3a3a3" stroke-linecap="butt" stroke-linejoin="round" stroke-opacity="0.197404" stroke-width="0.579909"/>
<path d="M25.4491 80.5048L289.318 81.0785" fill="none" opacity="1" stroke="#a3a3a3" stroke-linecap="butt" stroke-linejoin="round" stroke-opacity="0.197404" stroke-width="0.579909"/>
<path d="M67.6688 235.306L69.0073 32.6241" fill="none" opacity="1" stroke="#a3a3a3" stroke-linecap="butt" stroke-linejoin="round" stroke-opacity="0.197404" stroke-width="0.579909"/>
<path d="M105.146 235.306L106.484 32.6241" fill="none" opacity="1" stroke="#a3a3a3" stroke-linecap="butt" stroke-linejoin="round" stroke-opacity="0.197404" stroke-width="0.579909"/>
<path d="M142.814 235.306L144.153 32.6241" fill="none" opacity="1" stroke="#a3a3a3" stroke-linecap="butt" stroke-linejoin="round" stroke-opacity="0.197404" stroke-width="0.579909"/>
<path d="M180.824 235.306L182.162 32.6241" fill="none" opacity="1" stroke="#a3a3a3" stroke-linecap="butt" stroke-linejoin="round" stroke-opacity="0.197404" stroke-width="0.579909"/>
<path d="M218.186 235.306L219.525 32.6241" fill="none" opacity="1" stroke="#a3a3a3" stroke-linecap="butt" stroke-linejoin="round" stroke-opacity="0.197404" stroke-width="0.579909"/>
<path d="M255.549 235.306L256.887 32.6241" fill="none" opacity="1" stroke="#a3a3a3" stroke-linecap="butt" stroke-linejoin="round" stroke-opacity="0.197404" stroke-width="0.579909"/>
<g opacity="1">
<path d="M31.3637 27.7092C31.4071 40.0161 32.0785 230.528 32.0785 230.528" fill="none" stroke="#a3a3a3" stroke-linecap="butt" stroke-linejoin="round" stroke-width="2.6489"/>
<g fill="#a3a3a3" stroke="none">
<path d="M40.362 35.227L32.3811 25.5425L31.3517 24.2932L30.331 25.5497L22.4186 35.2903C21.9574 35.858 22.0438 36.6922 22.6115 37.1534C23.1793 37.6146 24.0134 37.5282 24.4746 36.9604L32.3871 27.2199L30.3369 27.2271L38.3178 36.9116C38.783 37.4761 39.6177 37.5566 40.1822 37.0914C40.7467 36.6263 40.8272 35.7915 40.362 35.227Z" fill="#a3a3a3"/>
</g>
</g>
<g opacity="1">
<path d="M287.328 155.163C273.162 155.163 31.2031 155.163 31.2031 155.163" fill="none" stroke="#a3a3a3" stroke-linecap="butt" stroke-linejoin="round" stroke-width="2.6489"/>
<g fill="#a3a3a3" stroke="none">
<path d="M279.779 164.134L289.491 156.188L290.744 155.163L289.491 154.138L279.779 146.191C279.213 145.728 278.378 145.811 277.915 146.377C277.452 146.943 277.535 147.778 278.101 148.241L287.814 156.188L287.814 154.138L278.101 162.084C277.535 162.547 277.452 163.382 277.915 163.948C278.378 164.514 279.213 164.598 279.779 164.134Z" fill="#a3a3a3"/>
</g>
</g>
<path d="M28.7145 42.1049C28.7145 40.0838 30.3529 38.4454 32.374 38.4454C34.3951 38.4454 36.0334 40.0838 36.0334 42.1049C36.0334 44.126 34.3951 45.7644 32.374 45.7644C30.3529 45.7644 28.7145 44.126 28.7145 42.1049Z" fill="#ffffff" fill-rule="nonzero" opacity="1" stroke="#d5694f" stroke-linecap="round" stroke-linejoin="round" stroke-width="2.09926"/>
<path d="M25.9822 229.69L289.851 230.263" fill="none" opacity="1" stroke="#a3a3a3" stroke-linecap="butt" stroke-linejoin="round" stroke-opacity="0.197404" stroke-width="0.579909"/>
<path d="M124.258 229.746L182.329 229.935" fill="none" opacity="1" stroke="#2e6777" stroke-linecap="butt" stroke-linejoin="round" stroke-width="2.6489"/>
<path d="M124.835 43.1861L124.827 230.195" fill="none" opacity="1" stroke="#2e6777" stroke-linecap="butt" stroke-linejoin="round" stroke-width="2.6489"/>
<path d="M121.168 43.981C121.168 41.9599 122.806 40.3215 124.828 40.3215C126.849 40.3215 128.487 41.9599 128.487 43.981C128.487 46.0021 126.849 47.6405 124.828 47.6405C122.806 47.6405 121.168 46.0021 121.168 43.981Z" fill="#ffffff" fill-rule="nonzero" opacity="1" stroke="#d5694f" stroke-linecap="round" stroke-linejoin="round" stroke-width="2.09926"/>
<path d="M121.599 229.745C121.599 227.724 123.238 226.085 125.259 226.085C127.28 226.085 128.918 227.724 128.918 229.745C128.918 231.766 127.28 233.404 125.259 233.404C123.238 233.404 121.599 231.766 121.599 229.745Z" fill="#ffffff" fill-rule="nonzero" opacity="1" stroke="#d5694f" stroke-linecap="round" stroke-linejoin="round" stroke-width="2.09926"/>
<path d="M181.52 98.4838L181.512 230.315" fill="none" opacity="1" stroke="#2e6777" stroke-linecap="butt" stroke-linejoin="round" stroke-width="2.6489"/>
<path d="M255.321 98.0406L181.956 97.8989" fill="none" opacity="1" stroke="#2e6777" stroke-linecap="butt" stroke-linejoin="round" stroke-width="2.6489"/>
<path d="M178.194 230.437C178.194 228.416 179.832 226.778 181.853 226.778C183.874 226.778 185.513 228.416 185.513 230.437C185.513 232.458 183.874 234.097 181.853 234.097C179.832 234.097 178.194 232.458 178.194 230.437Z" fill="#ffffff" fill-rule="nonzero" opacity="1" stroke="#d5694f" stroke-linecap="round" stroke-linejoin="round" stroke-width="2.09926"/>
<path d="M252.37 98.5007C252.37 96.4796 254.008 94.8413 256.029 94.8413C258.05 94.8413 259.689 96.4796 259.689 98.5007C259.689 100.522 258.05 102.16 256.029 102.16C254.008 102.16 252.37 100.522 252.37 98.5007Z" fill="#ffffff" fill-rule="nonzero" opacity="1" stroke="#d5694f" stroke-linecap="round" stroke-linejoin="round" stroke-width="2.09926"/>
<path d="M178.13 98.0181C178.13 95.997 179.768 94.3586 181.789 94.3586C183.811 94.3586 185.449 95.997 185.449 98.0181C185.449 100.039 183.811 101.678 181.789 101.678C179.768 101.678 178.13 100.039 178.13 98.0181Z" fill="#ffffff" fill-rule="nonzero" opacity="1" stroke="#d5694f" stroke-linecap="round" stroke-linejoin="round" stroke-width="2.09926"/>
</g>
<g id="Ebene-4" vectornator:layerName="Ebene 4">
<path d="M5.2122 230.789C6.68627 230.789 8.15783 230.667 9.63023 230.597" fill="none" opacity="1" stroke="#eebf5b" stroke-linecap="round" stroke-linejoin="round" stroke-width="2.09926"/>
<path d="M13.0878 227.331C13.554 226.399 15.2845 226.191 16.1612 226.755C17.1177 227.37 13.455 234.31 13.8562 234.63C15.084 235.613 17.0542 234.246 18.2742 234.246" fill="none" opacity="1" stroke="#eebf5b" stroke-linecap="round" stroke-linejoin="round" stroke-width="2.09926"/>
<path d="M5.02011 192.563C6.64043 191.483 8.83707 191.684 10.7828 191.603" fill="none" opacity="1" stroke="#eebf5b" stroke-linecap="round" stroke-linejoin="round" stroke-width="2.09926"/>
<path d="M14.8166 192.179C16.0119 190.984 16.7339 189.378 17.89 188.145C18.2235 187.789 18.4258 189.004 18.4663 189.49C18.5035 189.936 18.4663 190.386 18.4663 190.834C18.4663 192.67 18.0787 194.858 18.6584 196.597" fill="none" opacity="1" stroke="#eebf5b" stroke-linecap="round" stroke-linejoin="round" stroke-width="2.09926"/>
<path d="M15.1048 153.761C14.7388 153.883 14.4826 152.693 14.2404 152.993C13.5151 153.891 13.2716 155.119 13.0878 156.258C12.883 157.528 13.0854 159.676 14.4324 160.484C17.1607 162.121 20.3563 152.02 15.1048 153.761Z" fill="none" opacity="1" stroke="#eebf5b" stroke-linecap="round" stroke-linejoin="round" stroke-width="2.09926"/>
<path d="M10.0144 119.57C11.4154 117.468 12.472 115.151 13.8562 113.039C13.9044 112.965 14.0403 114.512 14.0483 114.575C14.1527 115.411 14.2404 115.859 14.2404 116.688C14.2404 118.605 14.4324 120.518 14.4324 122.451" fill="none" opacity="1" stroke="#eebf5b" stroke-linecap="round" stroke-linejoin="round" stroke-width="2.09926"/>
<path d="M10.2065 78.2705C11.0496 76.1628 13.4544 76.9424 13.6641 79.0389C13.8802 81.2 10.6962 83.6868 11.1669 85.5699C11.2017 85.7088 11.4079 85.762 11.5511 85.762C13.2038 85.762 15.2862 84.7482 16.9296 85.5699" fill="none" opacity="1" stroke="#eebf5b" stroke-linecap="round" stroke-linejoin="round" stroke-width="2.09926"/>
<path d="M12.1051 40.6439C11.599 39.6318 14.2523 39.4641 15.3619 39.686C16.0704 39.8277 16.4938 40.6175 16.8945 41.2186C17.6138 42.2975 17.196 43.3805 16.1282 44.0923C15.653 44.4092 15.1259 44.6465 14.5956 44.8586C14.477 44.9061 14.0847 44.8586 14.2124 44.8586C22.2512 44.8586 16.3023 49.3869 12.4882 48.1155" fill="none" opacity="1" stroke="#eebf5b" stroke-linecap="round" stroke-linejoin="round" stroke-width="2.09926"/>
<path d="M65.6763 164.46C66.6911 163.446 71.3353 161.665 70.3126 164.733C69.5788 166.935 66.8894 169.219 67.0399 169.37C67.5214 169.851 72.0031 169.697 72.4945 169.37" fill="none" opacity="1" stroke="#eebf5b" stroke-linecap="round" stroke-linejoin="round" stroke-width="2.09926"/>
<path d="M103.858 162.006C103.858 163.878 103.845 167.67 104.131 168.279C104.245 168.521 108.575 166.056 109.04 165.824" fill="none" opacity="1" stroke="#eebf5b" stroke-linecap="round" stroke-linejoin="round" stroke-width="2.09926"/>
<path d="M107.404 161.733C107.404 164.618 105.851 170.733 107.404 170.733" fill="none" opacity="1" stroke="#eebf5b" stroke-linecap="round" stroke-linejoin="round" stroke-width="2.09926"/>
<path d="M143.131 159.551C142.268 162.14 142.361 165.05 142.858 167.733C143.086 168.961 145.718 166.314 145.858 165.824C146.584 163.284 144.176 163.462 143.131 165.551" fill="none" opacity="1" stroke="#eebf5b" stroke-linecap="round" stroke-linejoin="round" stroke-width="2.09926"/>
<path d="M181.858 161.733C182.148 162.511 179.051 160.337 178.313 162.551C177.732 164.293 182.258 164.484 182.949 166.097C183.914 168.348 181.437 171.869 179.676 170.46C176.199 167.679 183.317 164.358 184.04 162.551C184.588 161.18 181.56 160.932 181.858 161.733Z" fill="none" opacity="1" stroke="#eebf5b" stroke-linecap="round" stroke-linejoin="round" stroke-width="2.09926"/>
<path d="M214.157 166.824C214.928 165.281 215.409 163.609 216.079 162.02C216.128 161.902 216.087 162.276 216.079 162.404C216.055 162.757 216.013 163.109 215.983 163.461C215.949 163.845 215.9 164.229 215.886 164.614C215.841 165.893 215.762 167.316 216.175 168.553" fill="none" opacity="1" stroke="#eebf5b" stroke-linecap="round" stroke-linejoin="round" stroke-width="2.09926"/>
<path d="M220.306 162.981C220.246 163.019 220.139 162.817 220.114 162.885C219.79 163.759 219.461 164.649 219.345 165.575C219.338 165.632 219.284 168.11 220.21 168.265C222.942 168.72 223.438 160.967 220.306 162.981Z" fill="none" opacity="1" stroke="#eebf5b" stroke-linecap="round" stroke-linejoin="round" stroke-width="2.09926"/>
<path d="M250.666 166.343C251.241 164.906 251.941 163.522 252.587 162.116C252.919 161.394 252.683 163.692 252.683 163.845C252.683 165.099 252.376 166.863 252.779 168.073" fill="none" opacity="1" stroke="#eebf5b" stroke-linecap="round" stroke-linejoin="round" stroke-width="2.09926"/>
<path d="M256.142 162.596C256.314 161.909 257.481 161.717 258.16 161.924C258.48 162.021 258.427 162.551 258.448 162.885C258.498 163.691 255.848 167.205 256.43 167.496C257.609 168.086 259.108 166.433 260.273 167.016" fill="none" opacity="1" stroke="#eebf5b" stroke-linecap="round" stroke-linejoin="round" stroke-width="2.09926"/>
<path d="M298.224 150.075C299.068 153.028 294.311 163.685 301.385 160.148" fill="none" opacity="1" stroke="#eebf5b" stroke-linecap="round" stroke-linejoin="round" stroke-width="2.09926"/>
<path d="M296.545 155.605C295.938 155.767 294.117 156.104 294.669 155.803C295.566 155.313 296.615 155.12 297.632 155.013C298.042 154.969 296.944 155.499 296.545 155.605Z" fill="none" opacity="1" stroke="#eebf5b" stroke-linecap="round" stroke-linejoin="round" stroke-width="2.09926"/>
<path d="M310.47 149.877C309.634 149.041 309.104 148.42 307.508 148.297C306.786 148.242 307.459 149.747 307.508 150.47C307.6 151.851 307.705 153.233 307.705 154.618C307.705 156.527 307.705 158.436 307.705 160.346C307.705 160.543 307.528 160.85 307.705 160.938C308.627 161.399 310.328 160.532 311.26 160.346" fill="none" opacity="1" stroke="#eebf5b" stroke-linecap="round" stroke-linejoin="round" stroke-width="2.09926"/>
<path d="M317.186 152.642C316.103 152.101 314.595 153.088 313.828 154.025C313.723 154.154 317.974 155.806 317.186 156.988C316.663 157.772 313.236 157.684 313.236 156.988" fill="none" opacity="1" stroke="#eebf5b" stroke-linecap="round" stroke-linejoin="round" stroke-width="2.09926"/>
<path d="M318.569 149.285C319.614 147.89 321.962 148.23 323.704 148.297C323.941 148.306 324.154 148.502 324.297 148.692C324.806 149.372 322.791 153.477 322.716 154.223C322.196 159.429 325.337 160.741 319.359 160.741" fill="none" opacity="1" stroke="#eebf5b" stroke-linecap="round" stroke-linejoin="round" stroke-width="2.09926"/>
<path d="M31.0197 6.17325C29.8266 5.57671 28.3794 5.58186 27.0489 5.6769C26.2196 5.73613 27.1604 7.33859 27.297 8.15866C27.5718 9.80696 27.5899 11.4943 27.7934 13.1222C28.0164 14.9063 28.0487 17.2914 27.7934 19.0784C27.7337 19.496 27.1536 20.1626 27.5452 20.3193C29.0481 20.9204 30.8359 19.8229 32.2606 19.8229" fill="none" opacity="1" stroke="#eebf5b" stroke-linecap="round" stroke-linejoin="round" stroke-width="2.09926"/>
<path d="M33.7496 12.1295C33.7496 13.0162 33.8566 13.7643 33.9978 14.6112C34.6431 18.4832 35.08 12.045 36.7277 11.6331C37.7697 11.3726 37.6074 14.7013 38.2168 15.1076C39.3626 15.8715 39.0036 11.73 40.2022 12.1295C40.8022 12.3295 41.7449 15.1177 41.9394 15.6039" fill="none" opacity="1" stroke="#eebf5b" stroke-linecap="round" stroke-linejoin="round" stroke-width="2.09926"/>
<path d="M16.5908 11.9314C16.1502 11.0503 17.0326 13.3036 17.0948 13.4435C17.3712 14.0655 18.136 16.6826 18.8589 16.9717C19.8771 17.379 20.8238 12.083 21.8831 11.5534" fill="none" opacity="1" stroke="#eebf5b" stroke-linecap="round" stroke-linejoin="round" stroke-width="2.09926"/>
<path d="M47.1232 8.16381C46.7615 11.0573 46.2921 13.9374 45.7761 16.8074C45.655 17.481 45.0465 19.13 45.0465 20.175" fill="none" opacity="1" stroke="#eebf5b" stroke-linecap="round" stroke-linejoin="round" stroke-width="2.09926"/>
<path d="M51.9501 11.9243C51.9501 11.8446 49.2439 11.5072 50.0418 13.103C50.2749 13.5693 51.7802 13.7257 52.1746 14.1694C53.4485 15.6026 50.933 16.4796 49.8734 15.6848" fill="none" opacity="1" stroke="#eebf5b" stroke-linecap="round" stroke-linejoin="round" stroke-width="2.09926"/>
<path d="M54.3074 7.20965C55.0742 6.69849 56.1363 6.91439 57.0577 6.92902C59.2624 6.96401 58.489 7.86588 58.4047 9.67924C58.3618 10.6009 58.3126 11.7937 58.3486 12.7101C58.4085 14.2375 59.2267 16.9414 58.6292 18.4351C58.5839 18.5484 55.3738 19.3843 55.3738 18.8841" fill="none" opacity="1" stroke="#eebf5b" stroke-linecap="round" stroke-linejoin="round" stroke-width="2.09926"/>
</g>
</svg>
