<?xml version="1.0" encoding="UTF-8" standalone="no"?>
<!DOCTYPE svg PUBLIC "-//W3C//DTD SVG 1.1//EN" "http://www.w3.org/Graphics/SVG/1.1/DTD/svg11.dtd">
<!-- Created with Vectornator (http://vectornator.io/) -->
<svg height="100%" stroke-miterlimit="10" style="fill-rule:nonzero;clip-rule:evenodd;stroke-linecap:round;stroke-linejoin:round;" version="1.1" viewBox="0 0 326.025 255.15" width="100%" xml:space="preserve" xmlns="http://www.w3.org/2000/svg" xmlns:vectornator="http://vectornator.io" xmlns:xlink="http://www.w3.org/1999/xlink">
<defs/>
<g id="Ebene-2" vectornator:layerName="Ebene 2">
<path d="M23.5364 192.267L287.406 192.84" fill="none" opacity="1" stroke="#a3a3a3" stroke-linecap="butt" stroke-linejoin="round" stroke-opacity="0.197404" stroke-width="0.579909"/>
<path d="M22.5804 154.981L286.45 155.554" fill="none" opacity="1" stroke="#a3a3a3" stroke-linecap="butt" stroke-linejoin="round" stroke-opacity="0.197404" stroke-width="0.579909"/>
<path d="M23.5364 117.121L287.406 117.695" fill="none" opacity="1" stroke="#a3a3a3" stroke-linecap="butt" stroke-linejoin="round" stroke-opacity="0.197404" stroke-width="0.579909"/>
<path d="M22.9628 80.4089L286.832 80.9826" fill="none" opacity="1" stroke="#a3a3a3" stroke-linecap="butt" stroke-linejoin="round" stroke-opacity="0.197404" stroke-width="0.579909"/>
<path d="M23.154 42.3582L287.023 42.9319" fill="none" opacity="1" stroke="#a3a3a3" stroke-linecap="butt" stroke-linejoin="round" stroke-opacity="0.197404" stroke-width="0.579909"/>
<path d="M65.1825 235.21L66.5209 32.5282" fill="none" opacity="1" stroke="#a3a3a3" stroke-linecap="butt" stroke-linejoin="round" stroke-opacity="0.197404" stroke-width="0.579909"/>
<path d="M102.66 235.21L103.998 32.5282" fill="none" opacity="1" stroke="#a3a3a3" stroke-linecap="butt" stroke-linejoin="round" stroke-opacity="0.197404" stroke-width="0.579909"/>
<path d="M140.328 235.21L141.666 32.5282" fill="none" opacity="1" stroke="#a3a3a3" stroke-linecap="butt" stroke-linejoin="round" stroke-opacity="0.197404" stroke-width="0.579909"/>
<path d="M178.337 235.21L179.676 32.5282" fill="none" opacity="1" stroke="#a3a3a3" stroke-linecap="butt" stroke-linejoin="round" stroke-opacity="0.197404" stroke-width="0.579909"/>
<path d="M215.7 235.21L217.038 32.5282" fill="none" opacity="1" stroke="#a3a3a3" stroke-linecap="butt" stroke-linejoin="round" stroke-opacity="0.197404" stroke-width="0.579909"/>
<path d="M253.062 235.21L254.401 32.5282" fill="none" opacity="1" stroke="#a3a3a3" stroke-linecap="butt" stroke-linejoin="round" stroke-opacity="0.197404" stroke-width="0.579909"/>
<path d="M103.995 41.9992L66.7187 154.929" fill="none" opacity="1" stroke="#2e6777" stroke-linecap="butt" stroke-linejoin="round" stroke-width="3.19853"/>
<path d="M102.764 42.4853L180.344 118.243" fill="none" opacity="1" stroke="#2e6777" stroke-linecap="butt" stroke-linejoin="round" stroke-width="3.19853"/>
<path d="M217.945 117.598L179.422 117.687" fill="none" opacity="1" stroke="#2e6777" stroke-linecap="butt" stroke-linejoin="round" stroke-width="3.19853"/>
<path d="M254.234 42.964L216.694 118.492" fill="none" opacity="1" stroke="#2e6777" stroke-linecap="butt" stroke-linejoin="round" stroke-width="3.19853"/>
<g opacity="1">
<path d="M28.8774 27.6133C28.9207 39.9202 29.5921 230.432 29.5921 230.432" fill="none" stroke="#a3a3a3" stroke-linecap="butt" stroke-linejoin="round" stroke-width="2.6489"/>
<g fill="#a3a3a3" stroke="none">
<path d="M37.8757 35.1311L29.8948 25.4466L28.8653 24.1973L27.8447 25.4538L19.9323 35.1944C19.4711 35.7621 19.5575 36.5963 20.1252 37.0575C20.693 37.5187 21.5271 37.4323 21.9883 36.8645L29.9007 27.1239L27.8506 27.1312L35.8315 36.8157C36.2967 37.3802 37.1314 37.4607 37.6959 36.9955C38.2604 36.5303 38.3409 35.6956 37.8757 35.1311Z" fill="#a3a3a3"/>
</g>
</g>
<g opacity="1">
<path d="M285.3 230.824C271.133 230.824 29.1745 230.824 29.1745 230.824" fill="none" stroke="#a3a3a3" stroke-linecap="butt" stroke-linejoin="round" stroke-width="2.6489"/>
<g fill="#a3a3a3" stroke="none">
<path d="M277.75 239.796L287.463 231.849L288.716 230.824L287.463 229.799L277.75 221.852C277.184 221.389 276.35 221.473 275.886 222.039C275.423 222.605 275.507 223.439 276.073 223.902L285.785 231.849L285.785 229.799L276.073 237.746C275.507 238.209 275.423 239.043 275.886 239.609C276.35 240.176 277.184 240.259 277.75 239.796Z" fill="#a3a3a3"/>
</g>
</g>
<path d="M61.8447 242.019C61.7622 242.06 61.5546 242.224 61.5973 242.143C62.0862 241.209 62.5855 240.274 63.2052 239.422C63.705 238.734 64.4238 237.434 65.184 237.814C65.7335 238.089 65.5288 245.253 65.9261 246.842" fill="none" opacity="1" stroke="#eebf5b" stroke-linecap="round" stroke-linejoin="round" stroke-width="2.09926"/>
<path d="M28.5425 192.474L67.307 154.565" fill="none" opacity="1" stroke="#2e6777" stroke-linecap="butt" stroke-linejoin="round" stroke-width="3.19853"/>
<path d="M100.68 238.927C100.68 238.844 100.601 238.702 100.68 238.68C101.815 238.355 102.964 237.875 104.143 237.937C105.29 237.998 105.429 238.922 105.503 239.669C105.798 242.612 101.175 245.271 101.175 247.337C101.175 247.717 101.919 247.182 102.288 247.09C102.774 246.968 103.271 246.866 103.772 246.842C105.248 246.772 106.746 246.842 108.224 246.842" fill="none" opacity="1" stroke="#eebf5b" stroke-linecap="round" stroke-linejoin="round" stroke-width="2.09926"/>
<path d="M137.784 240.164C138.583 238.166 143.487 236.284 144.339 238.556C144.742 239.631 143.353 240.797 142.607 241.277C142.102 241.601 140.339 242.04 140.876 241.771C142.242 241.088 144.79 242.076 144.091 243.998C143.712 245.041 141.248 247.131 140.01 246.719C139.522 246.556 138.71 244.954 138.402 244.492" fill="none" opacity="1" stroke="#eebf5b" stroke-linecap="round" stroke-linejoin="round" stroke-width="2.09926"/>
<path d="M178.474 236.824C178.474 237.157 175.13 242.88 176.495 244.121C177.113 244.683 183.908 242.637 182.679 242.637" fill="none" opacity="1" stroke="#eebf5b" stroke-linecap="round" stroke-linejoin="round" stroke-width="2.09926"/>
<path d="M181.69 237.195C181.088 239.603 181.255 242.141 181.071 244.616C180.995 245.647 180.898 246.677 180.824 247.708C180.824 247.708 180.824 248.505 180.824 247.832" fill="none" opacity="1" stroke="#eebf5b" stroke-linecap="round" stroke-linejoin="round" stroke-width="2.09926"/>
<path d="M215.207 237.69C210.373 241.557 217.212 240.305 216.567 244.492C216.226 246.709 212.362 249.2 212.362 244.987" fill="none" opacity="1" stroke="#eebf5b" stroke-linecap="round" stroke-linejoin="round" stroke-width="2.09926"/>
<path d="M214.217 239.545C214.547 238.886 215.475 238.709 216.196 238.556C217.497 238.279 218.831 238.197 220.154 238.061C220.504 238.025 222.018 237.672 221.762 238.185" fill="none" opacity="1" stroke="#eebf5b" stroke-linecap="round" stroke-linejoin="round" stroke-width="2.09926"/>
<path d="M256.268 237.319C256.186 237.278 256.097 237.143 256.021 237.195C254.983 237.914 253.836 238.556 253.053 239.545C252.193 240.632 250.351 243.99 251.569 245.729C253.367 248.298 257.91 245.931 257.01 244.492C255.888 242.696 253.393 243.462 252.434 244.74" fill="none" opacity="1" stroke="#eebf5b" stroke-linecap="round" stroke-linejoin="round" stroke-width="2.09926"/>
<path d="M5.29231 193.735C5.63405 193.18 5.89876 192.569 6.31752 192.069C7.22946 190.981 8.24065 189.977 9.26501 188.994C9.32664 188.935 9.4831 188.917 9.52131 188.994C9.71584 189.383 9.52131 191.37 9.52131 191.557C9.52131 194.229 9.26501 196.847 9.26501 199.502" fill="none" opacity="1" stroke="#eebf5b" stroke-linecap="round" stroke-linejoin="round" stroke-width="2.09926"/>
<path d="M14.8396 191.237C15.0428 191.056 15.5146 190.406 15.4163 190.66C14.919 191.942 13.8447 193.019 13.6222 194.376C13.3802 195.852 13.8362 199.502 15.2881 199.502C18.0337 199.502 19.5565 194.299 18.7482 192.198C17.9408 190.098 15.66 190.288 14.2629 191.685C14.0907 191.857 14.6576 191.398 14.8396 191.237Z" fill="none" opacity="1" stroke="#eebf5b" stroke-linecap="round" stroke-linejoin="round" stroke-width="2.09926"/>
<path d="M5.93307 154.906C5.53923 154.906 5.8282 153.909 6.18937 153.752C7.38082 153.234 9.87277 153.104 10.0339 154.393C10.2973 156.5 7.16938 160.207 6.31752 161.826C6.12157 162.198 5.45486 162.746 5.80492 162.979C6.18471 163.232 12.5116 162.467 11.1873 162.467" fill="none" opacity="1" stroke="#eebf5b" stroke-linecap="round" stroke-linejoin="round" stroke-width="2.09926"/>
<path d="M15.4804 154.841C16.7162 153.838 14.4598 155.853 14.3911 156.059C13.8767 157.602 13.4591 161.983 16.3133 161.698C19.1712 161.412 19.804 157.427 18.2356 155.674C17.9743 155.382 15.3866 153.352 14.7755 154.777C14.6826 154.994 15.2972 154.99 15.4804 154.841Z" fill="none" opacity="1" stroke="#eebf5b" stroke-linecap="round" stroke-linejoin="round" stroke-width="2.09926"/>
<path d="M5.67676 114.922C5.00572 113.916 7.20339 112.815 8.36794 112.487C8.8368 112.356 9.23328 112.992 9.52131 113.384C11.1629 115.623 7.23004 116.157 6.83013 117.357C6.64053 117.926 8.02931 117.411 8.62425 117.485C9.99123 117.656 11.1837 118.532 10.931 120.048C10.4908 122.689 7.19197 122.152 5.54861 121.33" fill="none" opacity="1" stroke="#eebf5b" stroke-linecap="round" stroke-linejoin="round" stroke-width="2.09926"/>
<path d="M15.8007 114.217C15.946 113.919 16.3223 113.057 16.057 113.256C15.234 113.874 14.3378 114.589 14.0066 115.563C13.2265 117.858 13.9471 122.073 15.9289 121.33C17.7348 120.653 18.496 117.968 17.9793 116.332C17.3015 114.186 15.1936 115.463 15.8007 114.217Z" fill="none" opacity="1" stroke="#eebf5b" stroke-linecap="round" stroke-linejoin="round" stroke-width="2.09926"/>
<path d="M6.97246 76.1154C5.95056 77.8186 3.16771 81.4847 3.63286 83.1127C3.69509 83.3305 7.57422 82.7169 7.92663 82.6356C8.52925 82.4965 8.98655 82.2647 9.51692 81.9995" fill="none" opacity="1" stroke="#eebf5b" stroke-linecap="round" stroke-linejoin="round" stroke-width="2.09926"/>
<path d="M10.3121 76.9106C8.50587 79.6199 8.40372 84.3825 8.40372 87.5655" fill="none" opacity="1" stroke="#eebf5b" stroke-linecap="round" stroke-linejoin="round" stroke-width="2.09926"/>
<path d="M14.8444 78.7394C14.5863 78.6012 14.8637 77.5892 14.7649 77.8647C14.1702 79.5235 13.4085 81.1931 13.3336 82.9537C13.2963 83.8303 13.9279 84.6315 14.4468 85.3391C15.6185 86.9368 18.0591 81.0661 18.1045 80.2502C18.2701 77.2691 16.12 79.4224 14.8444 78.7394Z" fill="none" opacity="1" stroke="#eebf5b" stroke-linecap="round" stroke-linejoin="round" stroke-width="2.09926"/>
<path d="M9.51692 41.7652C9.4109 41.6592 9.30488 41.3412 9.19886 41.4472C8.44919 42.1968 7.12302 42.9448 7.29052 43.9916C7.43785 44.9125 10.9918 45.1831 10.6301 47.1722C10.1019 50.0774 7.22973 49.9739 5.5412 48.2854" fill="none" opacity="1" stroke="#eebf5b" stroke-linecap="round" stroke-linejoin="round" stroke-width="2.09926"/>
<path d="M7.29052 42.4013C8.88798 41.8689 10.5271 41.7652 12.2204 41.7652" fill="none" opacity="1" stroke="#eebf5b" stroke-linecap="round" stroke-linejoin="round" stroke-width="2.09926"/>
<path d="M16.0371 41.7652C15.0227 42.0448 14.051 42.8591 13.6517 43.8326C13.2064 44.9179 12.6802 48.7184 14.7649 49.2396C20.4345 50.657 21.2785 40.3206 16.0371 41.7652Z" fill="none" opacity="1" stroke="#eebf5b" stroke-linecap="round" stroke-linejoin="round" stroke-width="2.09926"/>
<path d="M29.9646 10.4343C29.6362 10.0237 28.6913 9.23364 28.2346 9.59905C28.1887 9.63575 28.2942 11.4263 28.2942 11.866C28.2942 13.0301 27.8442 17.8375 28.4135 18.7863C28.4873 18.9093 31.1147 18.6503 31.2771 18.488" fill="none" opacity="1" stroke="#eebf5b" stroke-linecap="round" stroke-linejoin="round" stroke-width="1.54963"/>
<path d="M32.8878 12.8802C32.8878 12.6375 32.9483 16.0423 33.3054 16.1613C33.432 16.2035 33.4544 15.9334 33.4844 15.8034C33.5803 15.3879 34.2791 12.8552 34.6179 12.9399C35.386 13.1319 35.2386 15.9087 35.5127 15.8631C36.311 15.73 36.0934 13.0267 37.0042 13.1785C37.6626 13.2882 37.5533 15.9982 37.9587 15.8631" fill="none" opacity="1" stroke="#eebf5b" stroke-linecap="round" stroke-linejoin="round" stroke-width="1.54963"/>
<path d="M38.1973 10.1956C37.9026 9.99917 41.5017 9.44834 41.896 10.4343C42.2663 11.3599 42.1516 13.3263 42.3136 14.2523C42.6953 16.4332 44.0051 18.3634 41.3591 19.0249C40.8321 19.1566 40.2826 19.2181 39.7484 19.0845" fill="none" opacity="1" stroke="#eebf5b" stroke-linecap="round" stroke-linejoin="round" stroke-width="1.54963"/>
<path d="M297.11 226.043C297.807 227.089 296.961 228.555 296.809 229.803C296.416 233.027 296.451 235.867 300.418 233.487" fill="none" opacity="1" stroke="#eebf5b" stroke-linecap="round" stroke-linejoin="round" stroke-width="1.54963"/>
<path d="M295.079 230.254C295.029 230.254 294.879 230.257 294.929 230.254C295.681 230.2 296.432 230.13 297.185 230.103C298.008 230.075 298.896 230.103 299.742 230.103" fill="none" opacity="1" stroke="#eebf5b" stroke-linecap="round" stroke-linejoin="round" stroke-width="1.54963"/>
<path d="M309.442 225.366C308.518 224.904 307.461 224.728 306.434 224.614C306.431 224.614 306.624 226.042 306.66 226.268C306.874 227.623 306.846 227.032 306.885 228.825C306.95 231.732 305.005 236.621 309.668 235.066" fill="none" opacity="1" stroke="#eebf5b" stroke-linecap="round" stroke-linejoin="round" stroke-width="1.54963"/>
<path d="M314.405 228.524C314.075 227.864 312.809 228.45 312.224 228.9C311.337 229.583 314.591 230.811 314.405 231.833C314.237 232.756 311.085 232.694 311.247 232.209" fill="none" opacity="1" stroke="#eebf5b" stroke-linecap="round" stroke-linejoin="round" stroke-width="1.54963"/>
<path d="M315.759 225.667C315.932 225.536 319.669 225.295 319.669 225.742C319.669 226.27 319.261 226.989 319.218 227.547C319.04 229.858 319.373 232.382 319.819 234.615C320.001 235.523 316.393 235.56 316.661 235.292" fill="none" opacity="1" stroke="#eebf5b" stroke-linecap="round" stroke-linejoin="round" stroke-width="1.54963"/>
<path d="M19.7022 12.5689C21.0765 13.9432 22.2396 15.8877 23.1379 17.6842" fill="none" opacity="1" stroke="#eebf5b" stroke-linecap="round" stroke-linejoin="round" stroke-width="1.54963"/>
<path d="M23.825 12.3399C23.4806 12.5695 19.3969 17.7362 19.3969 18.524" fill="none" opacity="1" stroke="#eebf5b" stroke-linecap="round" stroke-linejoin="round" stroke-width="1.54963"/>
</g>
<g id="Ebene-1" vectornator:layerName="Ebene 1">
<path d="M103.713 2.99189L179.191 2.99189L179.191 230.92L103.713 230.92L103.713 2.99189Z" fill="#e9b0a2" fill-opacity="0.215734" fill-rule="nonzero" opacity="1" stroke="none"/>
<path d="M29.3052 3.84715L66.0816 3.84715L66.0816 231.776L29.3052 231.776L29.3052 3.84715Z" fill="#e9b0a2" fill-opacity="0.215734" fill-rule="nonzero" opacity="1" stroke="none"/>
<path d="M100.345 42.8107C100.345 40.7896 101.984 39.1512 104.005 39.1512C106.026 39.1512 107.664 40.7896 107.664 42.8107C107.664 44.8318 106.026 46.4702 104.005 46.4702C101.984 46.4702 100.345 44.8318 100.345 42.8107Z" fill="#ffffff" fill-rule="nonzero" opacity="1" stroke="#d5694f" stroke-linecap="round" stroke-linejoin="round" stroke-width="2.09926"/>
<path d="M175.478 118.146C175.478 116.125 177.116 114.486 179.137 114.486C181.159 114.486 182.797 116.125 182.797 118.146C182.797 120.167 181.159 121.805 179.137 121.805C177.116 121.805 175.478 120.167 175.478 118.146Z" fill="#ffffff" fill-rule="nonzero" opacity="1" stroke="#d5694f" stroke-linecap="round" stroke-linejoin="round" stroke-width="2.09926"/>
<path d="M103.873 48.1037C103.873 55.1341 103.975 62.1623 103.975 69.2036C103.975 71.3136 104.303 73.3982 104.178 75.5234C103.369 89.278 103.363 103.091 103.363 116.908" fill="none" opacity="1" stroke="#d5694f" stroke-linecap="round" stroke-linejoin="round" stroke-width="2.09926"/>
<path d="M99.9992 112.627C100.001 112.63 102.318 116.877 102.751 116.704C103.771 116.296 105.226 111.856 105.707 110.894" fill="none" opacity="1" stroke="#d5694f" stroke-linecap="round" stroke-linejoin="round" stroke-width="2.09926"/>
<path d="M103.465 117.417C115.758 117.417 128.078 117.315 140.364 117.315C145.897 117.315 151.793 116.705 157.285 117.315C162.93 117.943 168.908 117.927 174.613 117.927" fill="none" opacity="1" stroke="#d5694f" stroke-linecap="round" stroke-linejoin="round" stroke-width="2.09926"/>
<path d="M169.721 115.175C170.548 115.175 171.33 115.611 172.065 115.99C172.609 116.271 175.056 117.354 175.123 117.621C175.2 117.928 174.796 117.809 174.715 117.825C174.031 117.962 171.286 120.213 170.434 120.781" fill="none" opacity="1" stroke="#d5694f" stroke-linecap="round" stroke-linejoin="round" stroke-width="2.09926"/>
<path d="M107.338 86.2262C108.493 86.2262 109.649 86.2262 110.804 86.2262" fill="none" opacity="1" stroke="#d5694f" stroke-linecap="round" stroke-linejoin="round" stroke-width="2.09926"/>
<path d="M113.862 83.6779C114.272 83.1316 115.347 83.0742 115.901 83.474C116.571 83.958 115.485 86.713 115.289 87.1436C114.651 88.5479 114.618 88.2649 116.716 88.2649" fill="none" opacity="1" stroke="#d5694f" stroke-linecap="round" stroke-linejoin="round" stroke-width="2.09926"/>
<path d="M119.723 83.576C119.244 84.4554 119.1 84.799 119.06 86.4301C118.981 89.7044 122.102 86.6394 122.424 85.5127C122.981 83.5635 120.94 81.3415 119.723 83.576Z" fill="none" opacity="1" stroke="#d5694f" stroke-linecap="round" stroke-linejoin="round" stroke-width="2.09926"/>
<path d="M124.463 84.5953C124.873 85.8269 124.645 87.1902 124.871 88.4687C124.925 88.7772 125.377 88.0502 125.482 87.7552C125.539 87.5947 126.597 84.1649 127.113 84.5953C127.992 85.328 127.362 88.2934 127.827 88.061C128.746 87.6013 128.885 85.4188 129.356 84.5953C129.403 84.5119 129.473 84.3485 129.559 84.3914C130.693 84.9584 129.415 89.0803 131.394 89.0803" fill="none" opacity="1" stroke="#d5694f" stroke-linecap="round" stroke-linejoin="round" stroke-width="2.09926"/>
<path d="M132.617 126.184C133.849 125.876 135.593 126.877 136.389 126.082" fill="#d5694f" fill-rule="nonzero" opacity="1" stroke="#d5694f" stroke-linecap="round" stroke-linejoin="round" stroke-width="2.09926"/>
<path d="M134.86 123.228C134.86 124.859 134.794 126.489 134.758 128.12" fill="#d5694f" fill-rule="nonzero" opacity="1" stroke="#d5694f" stroke-linecap="round" stroke-linejoin="round" stroke-width="2.09926"/>
<path d="M139.957 124.349C140.326 123.609 141.628 123.654 142.403 123.941C142.806 124.09 142.792 124.735 142.811 125.164C142.841 125.865 141.065 129.412 141.078 129.445C141.328 130.072 144.041 129.242 144.543 129.242" fill="none" opacity="1" stroke="#d5694f" stroke-linecap="round" stroke-linejoin="round" stroke-width="2.09926"/>
<path d="M150.048 125.266C149.915 124.602 148.59 125.399 148.111 125.878C147.982 126.007 148.213 126.235 148.315 126.387C148.809 127.128 151.136 126.658 150.252 128.426C149.915 129.099 147.916 128.732 147.296 128.732" fill="#d5694f" fill-rule="nonzero" opacity="1" stroke="#d5694f" stroke-linecap="round" stroke-linejoin="round" stroke-width="2.09926"/>
<path d="M25.8808 191.8C25.8808 189.779 27.5192 188.141 29.5403 188.141C31.5613 188.141 33.1997 189.779 33.1997 191.8C33.1997 193.821 31.5613 195.46 29.5403 195.46C27.5192 195.46 25.8808 193.821 25.8808 191.8Z" fill="#ffffff" fill-rule="nonzero" opacity="1" stroke="#d5694f" stroke-linecap="round" stroke-linejoin="round" stroke-width="2.09926"/>
<path d="M62.4754 155.206C62.4754 153.185 64.1138 151.546 66.1348 151.546C68.1559 151.546 69.7943 153.185 69.7943 155.206C69.7943 157.227 68.1559 158.865 66.1348 158.865C64.1138 158.865 62.4754 157.227 62.4754 155.206Z" fill="#ffffff" fill-rule="nonzero" opacity="1" stroke="#d5694f" stroke-linecap="round" stroke-linejoin="round" stroke-width="2.09926"/>
<path d="M33.5517 192.241C41.3586 192.241 49.3206 192.324 57.2041 192.324C57.8319 192.324 64.4544 192.399 64.5903 191.992C64.7439 191.531 62.7652 190.814 62.5155 190.664C62.436 190.616 61.3072 189.595 61.1877 189.834C61.16 189.889 61.2269 189.956 61.2707 190C61.966 190.695 64.2385 191.312 64.4243 192.241C64.5204 192.721 60.9965 196.166 60.1918 196.971" fill="none" opacity="1" stroke="#d5694f" stroke-linecap="round" stroke-linejoin="round" stroke-width="2.09926"/>
<path d="M65.5032 190.747C65.5032 183.527 65.1712 176.329 65.1712 169.086C65.1712 166.948 64.9506 164.489 65.2542 162.364C65.3059 162.002 65.5711 160.923 65.4202 160.621C65.2479 160.277 65.0094 161.029 65.0052 161.036C64.2356 162.268 63.5538 163.499 62.8475 164.771C62.6862 165.061 62.3755 165.328 62.2665 165.601C62.2112 165.739 62.0179 166.14 62.1006 166.016C63.143 164.452 64.1353 162.839 65.1712 161.285C65.3127 161.073 65.441 160.59 65.6692 160.704C66.2067 160.973 66.6608 163.212 66.914 163.775C67.3403 164.722 68.1312 165.379 68.5738 166.265" fill="none" opacity="1" stroke="#d5694f" stroke-linecap="round" stroke-linejoin="round" stroke-width="2.09926"/>
<path d="M37.51 207.631C38.9263 207.631 40.3267 207.485 41.7408 207.485" fill="none" opacity="1" stroke="#d5694f" stroke-linecap="round" stroke-linejoin="round" stroke-width="2.09926"/>
<path d="M39.2607 204.276C39.9127 206.232 39.8442 208.351 39.8442 210.403" fill="none" opacity="1" stroke="#d5694f" stroke-linecap="round" stroke-linejoin="round" stroke-width="2.09926"/>
<path d="M44.2208 209.674C45.069 207.977 45.6732 206.17 46.4091 204.422C46.4935 204.221 46.5471 203.992 46.7009 203.838C46.976 203.563 46.7009 204.616 46.7009 205.005C46.7009 205.54 46.7009 206.075 46.7009 206.61C46.7009 208.334 46.1991 211.004 46.9927 212.591" fill="none" opacity="1" stroke="#d5694f" stroke-linecap="round" stroke-linejoin="round" stroke-width="2.09926"/>
<path d="M54.287 207.048C53.063 206.436 51.0278 206.791 50.494 208.215C50.4012 208.462 52.268 208.911 52.3905 208.944C53.4886 209.244 54.5232 209.625 54.8706 210.841C55.6473 213.559 51.8509 211.884 50.9316 211.424" fill="none" opacity="1" stroke="#d5694f" stroke-linecap="round" stroke-linejoin="round" stroke-width="2.09926"/>
<path d="M71.7935 172.618C71.9836 174.899 72.2312 177.185 72.2312 179.475" fill="none" opacity="1" stroke="#d5694f" stroke-linecap="round" stroke-linejoin="round" stroke-width="2.09926"/>
<path d="M69.6052 175.974C69.1248 175.733 70.6741 176.083 71.2099 176.12C71.9862 176.173 72.7703 176.038 73.5441 176.12C73.8261 176.149 74.02 176.43 74.2736 176.557" fill="none" opacity="1" stroke="#d5694f" stroke-linecap="round" stroke-linejoin="round" stroke-width="2.09926"/>
<path d="M78.942 177.287C79.2824 176.703 79.6836 176.151 79.9632 175.536C80.4602 174.443 80.0751 172.181 81.2762 172.181C81.3734 172.181 81.2762 172.375 81.2762 172.472C81.2762 173.299 81.2762 174.126 81.2762 174.952C81.2762 176.46 81.3513 178.317 81.7138 179.767" fill="none" opacity="1" stroke="#d5694f" stroke-linecap="round" stroke-linejoin="round" stroke-width="2.09926"/>
<path d="M85.361 173.494C84.0228 174.632 85.1713 177.105 85.7986 178.746C86.8714 181.551 88.6528 174.817 88.5705 174.077C88.4048 172.586 86.0218 172.932 85.361 173.494Z" fill="none" opacity="1" stroke="#d5694f" stroke-linecap="round" stroke-linejoin="round" stroke-width="2.09926"/>
<path d="M91.1965 174.952C91.1965 176.509 90.5413 178.286 91.3424 179.621C91.7677 180.33 92.1528 178.178 92.5095 177.433C92.7725 176.882 92.9866 175.775 93.3848 175.244C93.45 175.157 93.5793 175.05 93.6765 175.098C94.9838 175.752 94.0853 178.425 94.6978 179.037C94.9179 179.257 95.172 178.599 95.2813 178.308C95.4867 177.76 95.8489 175.098 96.5943 175.098C97.7697 175.098 98.199 179.065 98.199 180.058" fill="none" opacity="1" stroke="#d5694f" stroke-linecap="round" stroke-linejoin="round" stroke-width="2.09926"/>
<path d="M48.4951 20.6758C48.9756 22.5977 48.2341 25.2413 49.0821 26.9373" fill="none" opacity="1" stroke="#d5694f" stroke-linecap="round" stroke-linejoin="round" stroke-width="2.09926"/>
<path d="M45.7557 20.6758C45.2967 19.7578 50.2144 19.2226 50.6475 20.0888" fill="none" opacity="1" stroke="#d5694f" stroke-linecap="round" stroke-linejoin="round" stroke-width="2.09926"/>
<path d="M46.147 27.9156C47.881 27.9156 49.9728 28.271 51.6258 27.72" fill="none" opacity="1" stroke="#d5694f" stroke-linecap="round" stroke-linejoin="round" stroke-width="2.09926"/>
<path d="M80.1939 20.2844C81.2196 21.3101 79.9681 30.3241 81.368 27.5243" fill="none" opacity="1" stroke="#f3d3cb" stroke-linecap="round" stroke-linejoin="round" stroke-width="2.09926"/>
<path d="M83.5204 20.4801C84.44 22.3193 83.716 25.343 83.716 27.5243" fill="none" opacity="1" stroke="#f3d3cb" stroke-linecap="round" stroke-linejoin="round" stroke-width="2.09926"/>
<path d="M77.2589 19.1104C76.6679 17.9284 85.4137 17.5133 86.6511 18.132" fill="none" opacity="1" stroke="#f3d3cb" stroke-linecap="round" stroke-linejoin="round" stroke-width="2.09926"/>
<path d="M76.4762 29.6767C75.8411 30.9468 84.9246 29.7534 86.4554 30.2637" fill="none" opacity="1" stroke="#f3d3cb" stroke-linecap="round" stroke-linejoin="round" stroke-width="2.09926"/>
<path d="M136.547 19.8931C136.547 22.2412 136.547 24.5892 136.547 26.9373" fill="none" opacity="1" stroke="#d5694f" stroke-linecap="round" stroke-linejoin="round" stroke-width="2.09926"/>
<path d="M139.091 20.2844C139.091 20.5177 139.287 29.857 139.287 26.7416" fill="none" opacity="1" stroke="#d5694f" stroke-linecap="round" stroke-linejoin="round" stroke-width="2.09926"/>
<path d="M141.048 19.6974C142.403 21.7302 141.439 25.057 141.439 27.5243" fill="none" opacity="1" stroke="#d5694f" stroke-linecap="round" stroke-linejoin="round" stroke-width="2.09926"/>
<path d="M133.025 18.3277C132.24 15.9709 141.281 16.958 143.592 16.958" fill="none" opacity="1" stroke="#d5694f" stroke-linecap="round" stroke-linejoin="round" stroke-width="2.09926"/>
<path d="M132.83 30.2637C135.228 31.4628 138.181 29.911 140.852 29.6767C143.248 29.4665 143.506 29.481 145.157 29.481" fill="none" opacity="1" stroke="#d5694f" stroke-linecap="round" stroke-linejoin="round" stroke-width="2.09926"/>
<path d="M191.923 21.0671C192.308 23.3777 191.354 30.6181 192.118 29.0897" fill="none" opacity="1" stroke="#f3d3cb" stroke-linecap="round" stroke-linejoin="round" stroke-width="2.09926"/>
<path d="M195.249 22.2412C195.743 23.9685 196.115 25.4328 197.01 27.133C197.974 28.9634 199.358 20.0446 199.358 19.8931" fill="none" opacity="1" stroke="#f3d3cb" stroke-linecap="round" stroke-linejoin="round" stroke-width="2.09926"/>
<path d="M189.575 18.5234C189.509 18.3929 189.235 18.1574 189.379 18.132C191.642 17.7327 193.933 17.4723 196.227 17.3494C198.663 17.2189 199.583 17.4194 201.511 17.7407" fill="none" opacity="1" stroke="#f3d3cb" stroke-linecap="round" stroke-linejoin="round" stroke-width="2.09926"/>
<path d="M190.162 30.6551C193.917 30.2795 197.567 28.465 201.315 29.0897" fill="none" opacity="1" stroke="#f3d3cb" stroke-linecap="round" stroke-linejoin="round" stroke-width="2.09926"/>
<path d="M233.405 22.8282C233.405 21.8558 235.963 28.653 236.145 28.6983C237.458 29.0266 238.612 21.9594 238.884 20.8715" fill="none" opacity="1" stroke="#f3d3cb" stroke-linecap="round" stroke-linejoin="round" stroke-width="2.09926"/>
<path d="M230.47 19.5017C232.942 17.8541 236.308 18.2669 239.275 18.132C239.51 18.1214 239.536 18.5234 239.667 18.7191" fill="none" opacity="1" stroke="#f3d3cb" stroke-linecap="round" stroke-linejoin="round" stroke-width="2.09926"/>
<path d="M232.231 31.8291C233.976 32.7014 241.118 29.0578 242.406 31.6334" fill="none" opacity="1" stroke="#f3d3cb" stroke-linecap="round" stroke-linejoin="round" stroke-width="2.09926"/>
</g>
</svg>
