<?xml version="1.0" encoding="UTF-8" standalone="no"?>
<!DOCTYPE svg PUBLIC "-//W3C//DTD SVG 1.1//EN" "http://www.w3.org/Graphics/SVG/1.1/DTD/svg11.dtd">
<!-- Created with Vectornator (http://vectornator.io/) -->
<svg height="100%" stroke-miterlimit="10" style="fill-rule:nonzero;clip-rule:evenodd;stroke-linecap:round;stroke-linejoin:round;" version="1.1" viewBox="0 0 326.025 255.15" width="100%" xml:space="preserve" xmlns="http://www.w3.org/2000/svg" xmlns:vectornator="http://vectornator.io" xmlns:xlink="http://www.w3.org/1999/xlink">
<defs/>
<g id="Ebene-2" vectornator:layerName="Ebene 2">
<path d="M104.408 39.6927L67.1318 152.622" fill="none" opacity="1" stroke="#2e6777" stroke-linecap="butt" stroke-linejoin="round" stroke-width="3.19853"/>
<path d="M103.177 40.1787L180.757 115.937" fill="none" opacity="1" stroke="#2e6777" stroke-linecap="butt" stroke-linejoin="round" stroke-width="3.19853"/>
<path d="M218.358 115.291L179.835 115.381" fill="none" opacity="1" stroke="#2e6777" stroke-linecap="butt" stroke-linejoin="round" stroke-width="3.19853"/>
<path d="M254.647 40.6574L217.107 116.185" fill="none" opacity="1" stroke="#2e6777" stroke-linecap="butt" stroke-linejoin="round" stroke-width="3.19853"/>
<g opacity="1">
<path d="M23.9496 189.96L287.819 190.534" fill="none" opacity="1" stroke="#a3a3a3" stroke-linecap="butt" stroke-linejoin="round" stroke-opacity="0.197404" stroke-width="0.579909"/>
<path d="M22.9935 152.674L286.863 153.248" fill="none" opacity="1" stroke="#a3a3a3" stroke-linecap="butt" stroke-linejoin="round" stroke-opacity="0.197404" stroke-width="0.579909"/>
<path d="M23.9496 114.815L287.819 115.388" fill="none" opacity="1" stroke="#a3a3a3" stroke-linecap="butt" stroke-linejoin="round" stroke-opacity="0.197404" stroke-width="0.579909"/>
<path d="M23.3759 78.1024L287.245 78.676" fill="none" opacity="1" stroke="#a3a3a3" stroke-linecap="butt" stroke-linejoin="round" stroke-opacity="0.197404" stroke-width="0.579909"/>
<path d="M23.5671 40.0517L287.436 40.6253" fill="none" opacity="1" stroke="#a3a3a3" stroke-linecap="butt" stroke-linejoin="round" stroke-opacity="0.197404" stroke-width="0.579909"/>
<path d="M65.5956 232.904L66.9341 30.2216" fill="none" opacity="1" stroke="#a3a3a3" stroke-linecap="butt" stroke-linejoin="round" stroke-opacity="0.197404" stroke-width="0.579909"/>
<path d="M103.073 232.904L104.411 30.2216" fill="none" opacity="1" stroke="#a3a3a3" stroke-linecap="butt" stroke-linejoin="round" stroke-opacity="0.197404" stroke-width="0.579909"/>
<path d="M140.741 232.904L142.079 30.2216" fill="none" opacity="1" stroke="#a3a3a3" stroke-linecap="butt" stroke-linejoin="round" stroke-opacity="0.197404" stroke-width="0.579909"/>
<path d="M178.75 232.904L180.089 30.2216" fill="none" opacity="1" stroke="#a3a3a3" stroke-linecap="butt" stroke-linejoin="round" stroke-opacity="0.197404" stroke-width="0.579909"/>
<path d="M216.113 232.904L217.451 30.2216" fill="none" opacity="1" stroke="#a3a3a3" stroke-linecap="butt" stroke-linejoin="round" stroke-opacity="0.197404" stroke-width="0.579909"/>
<path d="M253.476 232.904L254.814 30.2216" fill="none" opacity="1" stroke="#a3a3a3" stroke-linecap="butt" stroke-linejoin="round" stroke-opacity="0.197404" stroke-width="0.579909"/>
<g opacity="1">
<path d="M29.2905 25.3068C29.3339 37.6136 30.0053 228.125 30.0053 228.125" fill="none" stroke="#a3a3a3" stroke-linecap="butt" stroke-linejoin="round" stroke-width="2.6489"/>
<g fill="#a3a3a3" stroke="none">
<path d="M38.2888 32.8246L30.308 23.14L29.2785 21.8908L28.2578 23.1473L20.3454 32.8878C19.8842 33.4556 19.9706 34.2897 20.5384 34.7509C21.1061 35.2121 21.9403 35.1257 22.4015 34.558L30.3139 24.8174L28.2638 24.8246L36.2446 34.5092C36.7098 35.0737 37.5445 35.1542 38.109 34.689C38.6735 34.2238 38.754 33.3891 38.2888 32.8246Z" fill="#a3a3a3"/>
</g>
</g>
<g opacity="1">
<path d="M285.713 228.518C271.546 228.518 29.5877 228.518 29.5877 228.518" fill="none" stroke="#a3a3a3" stroke-linecap="butt" stroke-linejoin="round" stroke-width="2.6489"/>
<g fill="#a3a3a3" stroke="none">
<path d="M278.163 237.489L287.876 229.543L289.129 228.518L287.876 227.493L278.163 219.546C277.597 219.083 276.763 219.166 276.3 219.732C275.836 220.298 275.92 221.133 276.486 221.596L286.199 229.543L286.199 227.493L276.486 235.439C275.92 235.902 275.836 236.737 276.3 237.303C276.763 237.869 277.597 237.953 278.163 237.489Z" fill="#a3a3a3"/>
</g>
</g>
</g>
<path d="M62.2578 239.712C62.1754 239.754 61.9677 239.918 62.0105 239.836C62.4993 238.903 62.9987 237.967 63.6183 237.115C64.1182 236.428 64.837 235.127 65.5972 235.507C66.1467 235.782 65.942 242.947 66.3393 244.536" fill="none" opacity="1" stroke="#eebf5b" stroke-linecap="round" stroke-linejoin="round" stroke-width="2.09926"/>
<path d="M28.9557 190.168L67.7201 152.258" fill="none" opacity="1" stroke="#2e6777" stroke-linecap="butt" stroke-linejoin="round" stroke-width="3.19853"/>
<path d="M101.093 236.62C101.093 236.538 101.014 236.396 101.093 236.373C102.228 236.049 103.377 235.569 104.556 235.631C105.703 235.691 105.842 236.615 105.917 237.362C106.211 240.305 101.588 242.964 101.588 245.031C101.588 245.411 102.332 244.875 102.701 244.783C103.188 244.662 103.684 244.56 104.185 244.536C105.661 244.466 107.159 244.536 108.638 244.536" fill="none" opacity="1" stroke="#eebf5b" stroke-linecap="round" stroke-linejoin="round" stroke-width="2.09926"/>
<path d="M138.197 237.857C138.996 235.859 143.9 233.978 144.752 236.249C145.155 237.325 143.766 238.491 143.02 238.97C142.515 239.295 140.752 239.733 141.289 239.465C142.656 238.782 145.203 239.769 144.505 241.691C144.125 242.734 141.661 244.825 140.423 244.412C139.935 244.249 139.123 242.648 138.815 242.186" fill="none" opacity="1" stroke="#eebf5b" stroke-linecap="round" stroke-linejoin="round" stroke-width="2.09926"/>
<path d="M178.887 234.518C178.887 234.85 175.543 240.574 176.908 241.815C177.526 242.376 184.321 240.331 183.092 240.331" fill="none" opacity="1" stroke="#eebf5b" stroke-linecap="round" stroke-linejoin="round" stroke-width="2.09926"/>
<path d="M182.103 234.889C181.501 237.297 181.668 239.834 181.485 242.31C181.408 243.341 181.311 244.37 181.237 245.402C181.237 245.402 181.237 246.199 181.237 245.525" fill="none" opacity="1" stroke="#eebf5b" stroke-linecap="round" stroke-linejoin="round" stroke-width="2.09926"/>
<path d="M215.62 235.384C210.787 239.25 217.625 237.998 216.981 242.186C216.639 244.403 212.775 246.894 212.775 242.681" fill="none" opacity="1" stroke="#eebf5b" stroke-linecap="round" stroke-linejoin="round" stroke-width="2.09926"/>
<path d="M214.631 237.239C214.96 236.579 215.888 236.403 216.609 236.249C217.91 235.973 219.245 235.89 220.567 235.755C220.917 235.719 222.432 235.365 222.175 235.878" fill="none" opacity="1" stroke="#eebf5b" stroke-linecap="round" stroke-linejoin="round" stroke-width="2.09926"/>
<path d="M256.682 235.013C256.599 234.971 256.51 234.836 256.434 234.889C255.397 235.607 254.249 236.249 253.466 237.239C252.606 238.325 250.764 241.683 251.982 243.423C253.78 245.992 258.323 243.625 257.424 242.186C256.301 240.39 253.806 241.155 252.847 242.433" fill="none" opacity="1" stroke="#eebf5b" stroke-linecap="round" stroke-linejoin="round" stroke-width="2.09926"/>
<path d="M5.70547 191.429C6.04721 190.874 6.31192 190.263 6.73068 189.763C7.64262 188.675 8.65381 187.671 9.67816 186.687C9.7398 186.628 9.89626 186.611 9.93447 186.687C10.129 187.076 9.93447 189.063 9.93447 189.25C9.93447 191.923 9.67816 194.54 9.67816 197.196" fill="none" opacity="1" stroke="#eebf5b" stroke-linecap="round" stroke-linejoin="round" stroke-width="2.09926"/>
<path d="M15.2528 188.93C15.4559 188.749 15.9277 188.1 15.8294 188.353C15.3321 189.636 14.2579 190.712 14.0353 192.07C13.7934 193.546 14.2494 197.196 15.7013 197.196C18.4468 197.196 19.9697 191.993 19.1614 189.891C18.354 187.792 16.0732 187.981 14.6761 189.379C14.5039 189.551 15.0707 189.092 15.2528 188.93Z" fill="none" opacity="1" stroke="#eebf5b" stroke-linecap="round" stroke-linejoin="round" stroke-width="2.09926"/>
<path d="M6.34623 152.599C5.95239 152.599 6.24136 151.603 6.60253 151.446C7.79398 150.928 10.2859 150.797 10.4471 152.086C10.7105 154.193 7.58254 157.901 6.73068 159.519C6.53473 159.892 5.86802 160.439 6.21807 160.673C6.59787 160.926 12.9247 160.16 11.6004 160.16" fill="none" opacity="1" stroke="#eebf5b" stroke-linecap="round" stroke-linejoin="round" stroke-width="2.09926"/>
<path d="M15.8935 152.535C17.1294 151.532 14.873 153.546 14.8042 153.752C14.2898 155.296 13.8723 159.676 16.7265 159.391C19.5843 159.105 20.2172 155.121 18.6488 153.368C18.3875 153.076 15.7998 151.045 15.1887 152.471C15.0957 152.688 15.7103 152.684 15.8935 152.535Z" fill="none" opacity="1" stroke="#eebf5b" stroke-linecap="round" stroke-linejoin="round" stroke-width="2.09926"/>
<path d="M6.08992 112.616C5.41888 111.609 7.61655 110.508 8.7811 110.181C9.24996 110.049 9.64644 110.685 9.93447 111.078C11.576 113.316 7.6432 113.851 7.24329 115.051C7.05369 115.619 8.44247 115.104 9.03741 115.179C10.4044 115.35 11.5969 116.225 11.3441 117.742C10.9039 120.383 7.60513 119.845 5.96177 119.023" fill="none" opacity="1" stroke="#eebf5b" stroke-linecap="round" stroke-linejoin="round" stroke-width="2.09926"/>
<path d="M16.2139 111.911C16.3591 111.613 16.7355 110.751 16.4702 110.95C15.6472 111.567 14.7509 112.283 14.4198 113.257C13.6396 115.551 14.3603 119.767 16.342 119.023C18.148 118.346 18.9092 115.662 18.3925 114.025C17.7147 111.879 15.6068 113.157 16.2139 111.911Z" fill="none" opacity="1" stroke="#eebf5b" stroke-linecap="round" stroke-linejoin="round" stroke-width="2.09926"/>
<path d="M7.38562 73.8089C6.36372 75.5121 3.58087 79.1781 4.04602 80.8062C4.10825 81.024 7.98738 80.4104 8.33979 80.3291C8.94241 80.19 9.3997 79.9581 9.93008 79.693" fill="none" opacity="1" stroke="#eebf5b" stroke-linecap="round" stroke-linejoin="round" stroke-width="2.09926"/>
<path d="M10.7252 74.604C8.91903 77.3133 8.81688 82.076 8.81688 85.259" fill="none" opacity="1" stroke="#eebf5b" stroke-linecap="round" stroke-linejoin="round" stroke-width="2.09926"/>
<path d="M15.2575 76.4329C14.9994 76.2947 15.2768 75.2826 15.178 75.5582C14.5834 77.217 13.8217 78.8866 13.7468 80.6471C13.7095 81.5238 14.3411 82.325 14.86 83.0326C16.0316 84.6303 18.4723 78.7596 18.5176 77.9436C18.6832 74.9626 16.5332 77.1158 15.2575 76.4329Z" fill="none" opacity="1" stroke="#eebf5b" stroke-linecap="round" stroke-linejoin="round" stroke-width="2.09926"/>
<path d="M9.93008 39.4587C9.82406 39.3527 9.71804 39.0346 9.61202 39.1406C8.86235 39.8903 7.53618 40.6382 7.70368 41.6851C7.85101 42.606 11.4049 42.8766 11.0433 44.8657C10.5151 47.7708 7.64289 47.6674 5.95436 45.9789" fill="none" opacity="1" stroke="#eebf5b" stroke-linecap="round" stroke-linejoin="round" stroke-width="2.09926"/>
<path d="M7.70368 40.0948C9.30114 39.5623 10.9403 39.4587 12.6336 39.4587" fill="none" opacity="1" stroke="#eebf5b" stroke-linecap="round" stroke-linejoin="round" stroke-width="2.09926"/>
<path d="M16.4503 39.4587C15.4359 39.7383 14.4642 40.5526 14.0648 41.5261C13.6196 42.6114 13.0934 46.4119 15.178 46.933C20.8476 48.3504 21.6917 38.014 16.4503 39.4587Z" fill="none" opacity="1" stroke="#eebf5b" stroke-linecap="round" stroke-linejoin="round" stroke-width="2.09926"/>
<path d="M30.3778 8.12772C30.0493 7.71715 29.1045 6.9271 28.6477 7.29252C28.6018 7.32921 28.7074 9.11974 28.7074 9.55949C28.7074 10.7236 28.2574 15.5309 28.8267 16.4797C28.9005 16.6027 31.5279 16.3438 31.6902 16.1814" fill="none" opacity="1" stroke="#eebf5b" stroke-linecap="round" stroke-linejoin="round" stroke-width="1.54963"/>
<path d="M33.301 10.5737C33.301 10.331 33.3614 13.7358 33.7186 13.8548C33.8451 13.897 33.8675 13.6268 33.8975 13.4969C33.9934 13.0813 34.6922 10.5486 35.031 10.6333C35.7992 10.8254 35.6518 13.6022 35.9259 13.5565C36.7242 13.4235 36.5065 10.7201 37.4173 10.8719C38.0757 10.9817 37.9664 13.6917 38.3718 13.5565" fill="none" opacity="1" stroke="#eebf5b" stroke-linecap="round" stroke-linejoin="round" stroke-width="1.54963"/>
<path d="M38.6105 7.88909C38.3158 7.69263 41.9148 7.1418 42.3092 8.12772C42.6794 9.05334 42.5647 11.0198 42.7268 11.9458C43.1085 14.1267 44.4183 16.0569 41.7723 16.7183C41.2453 16.8501 40.6957 16.9115 40.1615 16.778" fill="none" opacity="1" stroke="#eebf5b" stroke-linecap="round" stroke-linejoin="round" stroke-width="1.54963"/>
<path d="M297.523 223.736C298.22 224.782 297.374 226.248 297.222 227.496C296.829 230.721 296.865 233.561 300.832 231.181" fill="none" opacity="1" stroke="#eebf5b" stroke-linecap="round" stroke-linejoin="round" stroke-width="1.54963"/>
<path d="M295.493 227.947C295.442 227.947 295.292 227.951 295.342 227.947C296.094 227.894 296.845 227.823 297.598 227.797C298.421 227.768 299.309 227.797 300.155 227.797" fill="none" opacity="1" stroke="#eebf5b" stroke-linecap="round" stroke-linejoin="round" stroke-width="1.54963"/>
<path d="M309.855 223.059C308.931 222.597 307.875 222.422 306.847 222.307C306.844 222.307 307.037 223.735 307.073 223.962C307.287 225.317 307.259 224.726 307.299 226.518C307.363 229.425 305.418 234.314 310.081 232.76" fill="none" opacity="1" stroke="#eebf5b" stroke-linecap="round" stroke-linejoin="round" stroke-width="1.54963"/>
<path d="M314.818 226.218C314.488 225.558 313.222 226.144 312.638 226.594C311.75 227.276 315.004 228.504 314.818 229.526C314.65 230.449 311.498 230.388 311.66 229.902" fill="none" opacity="1" stroke="#eebf5b" stroke-linecap="round" stroke-linejoin="round" stroke-width="1.54963"/>
<path d="M316.172 223.36C316.346 223.23 320.082 222.988 320.082 223.435C320.082 223.963 319.674 224.683 319.631 225.24C319.453 227.551 319.786 230.075 320.232 232.309C320.414 233.216 316.806 233.253 317.074 232.985" fill="none" opacity="1" stroke="#eebf5b" stroke-linecap="round" stroke-linejoin="round" stroke-width="1.54963"/>
<path d="M20.8575 9.84584C22.2317 11.2201 23.3949 13.1646 24.2931 14.9611" fill="none" opacity="1" stroke="#eebf5b" stroke-linecap="round" stroke-linejoin="round" stroke-width="1.54963"/>
<path d="M24.9802 9.6168C24.6359 9.84639 20.5521 15.0131 20.5521 15.8009" fill="none" opacity="1" stroke="#eebf5b" stroke-linecap="round" stroke-linejoin="round" stroke-width="1.54963"/>
</g>
<g id="Ebene-1" vectornator:layerName="Ebene 1"/>
</svg>
