<?xml version="1.0" encoding="UTF-8" standalone="no"?>
<!DOCTYPE svg PUBLIC "-//W3C//DTD SVG 1.1//EN" "http://www.w3.org/Graphics/SVG/1.1/DTD/svg11.dtd">
<!-- Created with Vectornator (http://vectornator.io/) -->
<svg height="100%" stroke-miterlimit="10" style="fill-rule:nonzero;clip-rule:evenodd;stroke-linecap:round;stroke-linejoin:round;" version="1.1" viewBox="0 0 425.25 283.5" width="100%" xml:space="preserve" xmlns="http://www.w3.org/2000/svg" xmlns:vectornator="http://vectornator.io" xmlns:xlink="http://www.w3.org/1999/xlink">
<defs/>
<g id="Ebene-2" vectornator:layerName="Ebene 2">
<path d="M33.9756 124.903C36.1512 124.36 38.4573 124.687 40.6998 124.687C44.184 124.687 47.5001 124.253 50.8946 124.253" fill="none" opacity="1" stroke="#d1d1d1" stroke-linecap="round" stroke-linejoin="round" stroke-width="2.09926"/>
<path d="M59.7879 124.036C64.8281 124.036 69.9569 123.602 74.9716 123.602" fill="none" opacity="1" stroke="#d1d1d1" stroke-linecap="round" stroke-linejoin="round" stroke-width="2.09926"/>
<path d="M85.8171 122.951C92.1249 122.951 98.3871 122.517 104.688 122.517" fill="none" opacity="1" stroke="#d1d1d1" stroke-linecap="round" stroke-linejoin="round" stroke-width="2.09926"/>
<path d="M114.449 122.301C119.144 122.301 123.84 121.867 128.548 121.867" fill="none" opacity="1" stroke="#d1d1d1" stroke-linecap="round" stroke-linejoin="round" stroke-width="2.09926"/>
<path d="M138.743 120.782C144.041 120.782 149.283 120.348 154.578 120.348" fill="none" opacity="1" stroke="#d1d1d1" stroke-linecap="round" stroke-linejoin="round" stroke-width="2.09926"/>
<path d="M165.64 120.131C171.191 119.338 176.944 119.698 182.559 119.698" fill="none" opacity="1" stroke="#d1d1d1" stroke-linecap="round" stroke-linejoin="round" stroke-width="2.09926"/>
<path d="M192.971 119.047C198.538 119.047 204.105 119.047 209.673 119.047" fill="none" opacity="1" stroke="#d1d1d1" stroke-linecap="round" stroke-linejoin="round" stroke-width="2.09926"/>
<path d="M219 119.047C225.179 118.164 231.472 119.047 237.654 119.047" fill="none" opacity="1" stroke="#d1d1d1" stroke-linecap="round" stroke-linejoin="round" stroke-width="2.09926"/>
<path d="M245.246 119.264C250.385 119.264 255.571 119.698 260.647 119.698" fill="none" opacity="1" stroke="#d1d1d1" stroke-linecap="round" stroke-linejoin="round" stroke-width="2.09926"/>
<path d="M270.191 119.915C276.042 119.915 281.903 119.698 287.76 119.698" fill="none" opacity="1" stroke="#d1d1d1" stroke-linecap="round" stroke-linejoin="round" stroke-width="2.09926"/>
<path d="M297.088 119.698C301.516 119.698 306.177 119.915 310.536 119.915" fill="none" opacity="1" stroke="#d1d1d1" stroke-linecap="round" stroke-linejoin="round" stroke-width="2.09926"/>
<path d="M318.714 119.294C324.309 118.362 329.88 119.945 335.416 119.945" fill="none" opacity="1" stroke="#d1d1d1" stroke-linecap="round" stroke-linejoin="round" stroke-width="2.09926"/>
<path d="M341.831 119.666C344.769 120.155 347.76 120.02 350.724 120.316" fill="none" opacity="1" stroke="#d1d1d1" stroke-linecap="round" stroke-linejoin="round" stroke-width="2.09926"/>
<path d="M24.2129 117.864C24.0925 117.744 24.0067 117.432 23.8517 117.503C22.5734 118.084 21.1385 118.591 20.2397 119.67C19.7772 120.225 20.0112 121.152 20.2397 121.837C20.8264 123.598 24.5578 120.693 24.9352 119.309C25.0092 119.038 25.2018 118.555 24.9352 118.466C24.3885 118.284 24.567 120.634 24.5741 120.754C24.7281 123.372 25.4168 126.142 25.4168 128.7" fill="none" opacity="1" stroke="#d1d1d1" stroke-linecap="round" stroke-linejoin="round" stroke-width="2.09926"/>
<path d="M83.4762 172.493C85.5243 173.124 86.2009 169.991 87.4753 168.398C90.583 164.514 93.8384 160.93 96.8065 156.972C97.3385 156.263 100.656 150.117 100.996 150.117C102.069 150.117 104.184 153.256 104.614 154.116C106.906 158.699 110.612 162.398 113.184 166.684C113.779 167.676 115.062 169.134 115.85 169.922C115.939 170.011 116.741 171.697 116.992 171.445C117.31 171.128 117.041 170.538 117.183 170.112C117.87 168.051 118.733 165.307 119.849 163.447C124.285 156.053 128.907 148.595 133.941 141.547C135.547 139.299 136.824 136.937 138.321 134.692C138.471 134.466 139.021 132.83 139.463 132.978C139.975 133.148 140.441 134.979 140.796 135.453C142.514 137.743 145.144 139.404 146.7 141.738C147.046 142.257 148.283 144.701 149.175 144.404C149.222 144.388 151.71 139.203 152.413 138.5C153.854 137.059 154.755 135.016 156.221 133.549C158.836 130.935 161.537 128.048 163.839 124.98C164.312 124.349 166.809 121.512 166.505 120.6C166.385 120.24 159.322 120.219 158.507 120.219C150.194 120.219 141.844 120.326 133.56 121.361C122.975 122.685 112.07 121.515 101.567 123.266C99.877 123.547 98.1122 123.119 96.4256 123.456C92.5226 124.237 87.8693 123.647 83.8571 123.647C83.125 123.647 81.2799 123.317 80.6197 123.647C80.0783 123.917 81.6317 130.099 81.7623 130.883C82.9829 138.206 81.8544 146 82.9049 153.354C83.5376 157.783 82.9049 162.777 82.9049 167.256C82.9049 169.139 81.5479 171.898 83.4762 172.493Z" fill="#daa987" fill-opacity="0.497399" fill-rule="nonzero" opacity="1" stroke="none"/>
<path d="M212.97 119.552C213.278 122.709 218.18 124.957 220.588 126.884C224.225 129.794 227.339 133.086 230.3 136.786C230.851 137.476 235.05 142.058 235.441 141.928C236.003 141.741 238.261 137.166 238.869 136.406C242.207 132.233 245.05 127.766 248.581 123.647C248.935 123.234 251.867 119.22 251.819 119.076C251.727 118.801 250.963 118.886 250.866 118.886C248.264 118.886 245.661 118.886 243.059 118.886C235.648 118.886 228.263 119.076 220.778 119.076C219.292 119.076 212.861 118.426 212.97 119.552Z" fill="#daa987" fill-opacity="0.497399" fill-rule="nonzero" opacity="1" stroke="none"/>
<path d="M203.163 108.317C202.82 108.086 202.283 108.014 201.925 108.222C201.502 108.466 198.757 113.849 197.926 114.887C197.082 115.943 196.422 117.082 195.641 118.124C195.486 118.331 194.245 119.807 194.308 119.838C194.827 120.097 196.621 119.335 197.164 119.267C200.531 118.846 204.485 118.695 207.829 118.695C208.265 118.695 211.757 118.802 211.828 118.695C212.063 118.343 210.31 116.343 210.114 116.029C208.485 113.424 205.645 109.989 203.163 108.317Z" fill="#4a6b5f" fill-opacity="0.533784" fill-rule="nonzero" opacity="1" stroke="none"/>
<path d="M177.074 105.841C176.022 105.352 172.446 112.926 171.266 114.696C170.127 116.404 168.904 117.871 167.838 119.648C167.692 119.891 167.256 120.209 167.457 120.409C167.557 120.51 167.698 120.242 167.838 120.219C169.5 119.942 171.481 120.219 173.17 120.219C177.912 120.219 182.652 120.57 187.262 119.648C187.928 119.514 190.497 119.84 190.88 119.457C191.079 119.258 189.181 118.139 188.976 117.934C187.788 116.746 186.556 115.704 185.358 114.506C182.684 111.833 180.454 107.413 177.074 105.841Z" fill="#4a6b5f" fill-opacity="0.533784" fill-rule="nonzero" opacity="1" stroke="none"/>
<path d="M252.58 118.505C254.232 116.028 256.411 114.209 258.103 111.84C264.274 103.2 269.963 93.9132 276.765 85.7505C278.728 83.3948 280.517 80.5766 282.097 77.9428C282.442 77.3683 283.359 74.834 284.002 74.7055C284.736 74.5585 286.083 77.1549 286.477 77.9428C288.057 81.1013 291.469 83.28 292.762 86.5123C292.998 87.1023 294.34 90.6201 295.237 90.3209C296.166 90.0115 297.826 86.2339 298.475 85.3697C300.419 82.777 303.622 80.7936 305.901 78.5141C307.259 77.1562 308.347 75.4973 309.71 74.1342C310.721 73.1231 311.435 71.8375 312.376 70.8968C312.499 70.7735 313.231 69.3245 313.328 69.3733C313.769 69.5936 314.053 71.7744 314.28 72.2298C315.355 74.3782 317.418 76.0622 318.66 78.1332C318.905 78.5408 319.633 80.6089 320.184 80.6089C321.077 80.6089 325.098 71.6304 326.659 72.8011C327.094 73.1274 327.999 75.2983 328.182 75.848C328.69 77.3721 329.965 79.0508 330.848 80.228C331.839 81.5491 331.92 83.4102 332.752 84.7984C336.033 90.2654 340.006 94.9264 342.845 100.604C343.444 101.802 343.915 103.434 344.369 104.794C345.035 106.791 346.863 108.335 347.225 110.507C347.608 112.805 347.695 116.017 348.749 118.124C349.135 118.896 350.023 119.72 350.463 120.6" fill="#4a6b5f" fill-opacity="0.533784" fill-rule="nonzero" opacity="1" stroke="none"/>
</g>
<g id="Ebene-1" vectornator:layerName="Ebene 1">
<path d="M38.0843 30.4408C38.0843 58.455 39.4244 86.3935 39.4244 114.42C39.4244 157.62 38.0843 200.759 38.0843 243.962" fill="none" opacity="1" stroke="#a3a3a3" stroke-linecap="round" stroke-linejoin="round" stroke-width="3.19853"/>
<path d="M36.7442 31.7809C35.2571 34.7553 34.4918 38.9564 32.724 41.6082C32.4762 41.9799 32.6608 40.7103 32.724 40.2681C33.1452 37.3194 33.0989 39.5901 34.0641 36.6946C34.4458 35.5493 34.5743 31.5258 35.8508 30.8875C37.4499 30.088 43.0843 36.7808 44.3381 38.0347" fill="none" opacity="1" stroke="#a3a3a3" stroke-linecap="round" stroke-linejoin="round" stroke-width="3.19853"/>
<g opacity="1">
<path d="M38.3914 244.654C38.9879 243.992 57.5234 244.061 60.0021 244.039C81.3413 243.855 102.689 244.314 124.065 244.13C157.157 243.845 190.439 243.665 223.499 244.131C251.63 244.528 279.868 243.407 307.995 243.832C326.647 244.113 345.544 243.937 364.196 243.776C372.028 243.709 382.209 242.682 389.744 243.985" fill="none" opacity="1" stroke="#a3a3a3" stroke-linecap="round" stroke-linejoin="round" stroke-width="3.19853"/>
<path d="M389.183 244.041C389.182 243.872 389.316 243.631 389.179 243.533C388.682 243.178 381.933 238.769 381.772 238.771C380.872 238.779 383.043 240.075 383.819 240.531C385.405 241.464 387.214 242.14 388.669 243.283C388.857 243.431 389.179 243.547 389.181 243.787C389.184 244.153 382.043 247.339 381.087 247.667" fill="none" opacity="1" stroke="#a3a3a3" stroke-linecap="round" stroke-linejoin="round" stroke-width="3.19853"/>
</g>
<path d="M18.2322 14.0923C18.893 16.0747 19.2079 19.7044 20.6867 21.1832C20.8305 21.3269 21.0503 21.5468 21.2322 21.4559C21.7372 21.2034 25.933 11.9154 26.9594 10.5468" fill="none" opacity="1" stroke="#eebf5b" stroke-linecap="round" stroke-linejoin="round" stroke-width="3.19853"/>
<path d="M83.9369 237.686C83.9369 241.686 83.9369 245.686 83.9369 249.686" fill="none" opacity="1" stroke="#eebf5b" stroke-linecap="round" stroke-linejoin="round" stroke-width="3.19853"/>
<path d="M344.79 237.186C345.448 241.791 345.609 246.054 345.609 250.822" fill="none" opacity="1" stroke="#eebf5b" stroke-linecap="round" stroke-linejoin="round" stroke-width="3.19853"/>
<path d="M219.654 237.731C219.654 236.822 219.654 239.55 219.654 240.459C219.654 243.913 219.654 247.368 219.654 250.822" fill="none" opacity="1" stroke="#eebf5b" stroke-linecap="round" stroke-linejoin="round" stroke-width="3.19853"/>
<path d="M73.1255 260.712C74.6786 259.417 75.5825 257.5 76.778 255.87C76.956 255.627 77.1277 255.365 77.3726 255.19C77.9787 254.757 77.1253 256.66 77.0329 257.399C76.8217 259.088 76.5232 260.874 76.5232 262.58" fill="none" opacity="1" stroke="#eebf5b" stroke-linecap="round" stroke-linejoin="round" stroke-width="2.1"/>
<path d="M81.28 255.19C80.6088 255.862 80.1532 257.001 80.4306 257.909C80.8017 259.123 83.2324 258.256 82.8939 260.287C82.7156 261.357 79.9209 262.643 79.9209 261.221" fill="none" opacity="1" stroke="#eebf5b" stroke-linecap="round" stroke-linejoin="round" stroke-width="2.1"/>
<path d="M80.5155 255.87C80.5155 254.635 84.1613 255.406 85.1025 254.936" fill="none" opacity="1" stroke="#eebf5b" stroke-linecap="round" stroke-linejoin="round" stroke-width="2.1"/>
<path d="M87.226 257.909C87.226 258.078 87.226 258.248 87.226 258.418" fill="none" opacity="1" stroke="#eebf5b" stroke-linecap="round" stroke-linejoin="round" stroke-width="2.1"/>
<path d="M87.1411 260.882C87.1411 260.995 87.1411 261.108 87.1411 261.221" fill="none" opacity="1" stroke="#eebf5b" stroke-linecap="round" stroke-linejoin="round" stroke-width="2.1"/>
<path d="M92.4925 255.445C92.3499 255.591 92.188 254.734 92.1527 254.936C91.8431 256.7 91.341 258.521 91.6431 260.287C91.753 260.929 92.6246 261.233 93.257 261.391C93.5631 261.468 94.398 260.491 94.5311 260.287C95.2249 259.223 95.9914 257.864 95.4655 256.549C95.0155 255.424 93.57 254.341 92.4925 255.445Z" fill="none" opacity="1" stroke="#eebf5b" stroke-linecap="round" stroke-linejoin="round" stroke-width="2.1"/>
<path d="M100.137 255.02C100.081 254.964 100.001 254.778 99.9675 254.851C99.3039 256.293 98.3567 257.689 98.1837 259.268C98.1075 259.963 98.716 260.649 99.2879 261.051C100.213 261.703 101.398 259.987 101.666 259.522C103.364 256.58 100.441 252.775 98.4385 255.445" fill="none" opacity="1" stroke="#eebf5b" stroke-linecap="round" stroke-linejoin="round" stroke-width="2.1"/>
<path d="M205.39 261.418C206.943 260.123 207.847 258.206 209.043 256.576C209.221 256.333 209.393 256.071 209.637 255.896C210.244 255.463 209.39 257.366 209.298 258.105C209.087 259.794 208.788 261.58 208.788 263.286" fill="none" opacity="1" stroke="#eebf5b" stroke-linecap="round" stroke-linejoin="round" stroke-width="2.1"/>
<path d="M219.491 258.615C219.491 258.784 219.491 258.954 219.491 259.124" fill="none" opacity="1" stroke="#eebf5b" stroke-linecap="round" stroke-linejoin="round" stroke-width="2.1"/>
<path d="M219.406 261.588C219.406 261.701 219.406 261.814 219.406 261.927" fill="none" opacity="1" stroke="#eebf5b" stroke-linecap="round" stroke-linejoin="round" stroke-width="2.1"/>
<path d="M224.757 256.151C224.615 256.297 224.453 255.44 224.418 255.642C224.108 257.406 223.606 259.227 223.908 260.993C224.018 261.635 224.889 261.939 225.522 262.097C225.828 262.174 226.663 261.197 226.796 260.993C227.49 259.929 228.256 258.57 227.73 257.255C227.28 256.13 225.835 255.047 224.757 256.151Z" fill="none" opacity="1" stroke="#eebf5b" stroke-linecap="round" stroke-linejoin="round" stroke-width="2.1"/>
<path d="M232.402 255.726C232.346 255.67 232.266 255.484 232.232 255.557C231.569 256.999 230.621 258.395 230.449 259.974C230.372 260.669 230.981 261.355 231.553 261.757C232.478 262.409 233.663 260.693 233.931 260.228C235.629 257.286 232.706 253.481 230.703 256.151" fill="none" opacity="1" stroke="#eebf5b" stroke-linecap="round" stroke-linejoin="round" stroke-width="2.1"/>
<path d="M330.903 260.535C332.456 259.24 333.36 257.323 334.555 255.693C334.733 255.45 334.905 255.188 335.15 255.013C335.756 254.58 334.902 256.483 334.81 257.222C334.599 258.911 334.3 260.697 334.3 262.403" fill="none" opacity="1" stroke="#eebf5b" stroke-linecap="round" stroke-linejoin="round" stroke-width="2.1"/>
<path d="M345.003 257.732C345.003 257.901 345.003 258.071 345.003 258.241" fill="none" opacity="1" stroke="#eebf5b" stroke-linecap="round" stroke-linejoin="round" stroke-width="2.1"/>
<path d="M344.918 260.705C344.918 260.818 344.918 260.931 344.918 261.044" fill="none" opacity="1" stroke="#eebf5b" stroke-linecap="round" stroke-linejoin="round" stroke-width="2.1"/>
<path d="M350.27 255.268C350.127 255.414 349.965 254.557 349.93 254.759C349.62 256.524 349.118 258.344 349.42 260.11C349.53 260.753 350.402 261.056 351.034 261.214C351.34 261.291 352.175 260.314 352.308 260.11C353.002 259.046 353.769 257.687 353.243 256.373C352.793 255.248 351.347 254.164 350.27 255.268Z" fill="none" opacity="1" stroke="#eebf5b" stroke-linecap="round" stroke-linejoin="round" stroke-width="2.1"/>
<path d="M357.915 254.844C357.858 254.787 357.778 254.601 357.745 254.674C357.081 256.116 356.134 257.512 355.961 259.091C355.885 259.786 356.493 260.472 357.065 260.874C357.991 261.526 359.176 259.81 359.444 259.346C361.141 256.403 358.219 252.598 356.216 255.268" fill="none" opacity="1" stroke="#eebf5b" stroke-linecap="round" stroke-linejoin="round" stroke-width="2.1"/>
<path d="M214.55 255.285C213.877 255.621 213.848 256.624 213.603 257.336C213.382 257.979 212.277 263.217 213.498 263.489C215.687 263.975 217.025 258.98 214.129 259.807" fill="none" opacity="1" stroke="#eebf5b" stroke-linecap="round" stroke-linejoin="round" stroke-width="2.1"/>
<path d="M337.728 254.219C338.355 254.219 342.127 254.312 342.146 254.331C342.282 254.467 341.577 256.428 341.552 256.521C341.111 258.174 340.814 260.075 340.141 261.644" fill="none" opacity="1" stroke="#eebf5b" stroke-linecap="round" stroke-linejoin="round" stroke-width="2.1"/>
<path d="M339.287 258.526C339.829 258.255 341.584 258.452 341.886 258.452" fill="none" opacity="1" stroke="#eebf5b" stroke-linecap="round" stroke-linejoin="round" stroke-width="2.1"/>
<path d="M84.0526 172.534C89.2293 167.357 92.8249 161.064 96.8851 154.974C97.1091 154.638 100.087 149.951 100.262 150.021C101.181 150.388 102.462 152.446 103.189 153.173C107.051 157.035 110.284 161.547 113.095 166.23C113.344 166.646 115.994 171.647 116.922 171.183C116.965 171.162 117.084 169.54 117.147 169.382C117.941 167.398 119.026 165.414 120.074 163.529C122.38 159.378 124.091 154.606 126.828 150.696C128.594 148.173 131.168 145.915 132.681 143.267C133.175 142.402 138.227 133.269 138.76 133.136C139.602 132.925 145.91 141.844 146.639 142.817C146.786 143.012 148.149 145.326 148.665 145.068C149.198 144.802 153.131 138.104 153.843 137.188C159.292 130.183 164.681 122.958 169.603 115.576C170.388 114.398 175.819 105.399 176.357 105.22C177.008 105.002 179.446 108.948 179.734 109.272C181.639 111.415 190.071 119.398 192.791 120.078C193.792 120.328 200.081 110.808 200.896 109.722C200.955 109.643 202.379 106.883 202.922 107.246C203.061 107.338 203.662 108.854 203.823 109.047C206.152 111.842 208.634 114.642 211.027 117.377C216.081 123.153 222.006 128.581 227.462 134.036C229.932 136.507 232.151 138.713 234.216 141.466C234.266 141.533 234.886 142.218 235.116 142.141C235.826 141.905 237.303 138.732 237.818 138.089C240.843 134.307 243.477 130.243 246.373 126.382C256.088 113.428 265.767 100.401 275.19 87.209C277.329 84.2138 281.004 75.0715 284.195 73.4759C284.608 73.2695 286.285 76.563 286.671 77.078C289.116 80.3382 291.392 83.8173 293.2 87.4341C293.456 87.946 294.493 90.3898 295.451 89.9106C295.505 89.8839 297.251 87.6603 297.478 87.4341C302.017 82.8951 305.257 77.4203 309.41 72.5754C310.016 71.8683 312.166 68.2979 313.012 68.2979C313.179 68.2979 313.175 68.5924 313.237 68.7482C314.244 71.2667 316.147 73.4482 317.514 75.7273C317.802 76.2069 319.475 80.8519 319.991 80.6802C321.095 80.312 325.409 71.6826 326.745 72.3503C327.07 72.5128 331.229 80.9898 331.923 82.031C336.701 89.1977 341.945 96.1674 345.206 104.319C346.144 106.664 349.033 109.352 349.033 111.973" fill="none" opacity="1" stroke="#2e6777" stroke-linecap="round" stroke-linejoin="round" stroke-width="3.19926"/>
<path d="M39.4558 6.43602C33.6607 5.64577 36.715 7.19376 36.959 10.9757C37.0979 13.1297 36.8116 15.2955 36.732 17.4449C36.7157 17.8853 36.6928 23.5343 36.732 23.5735C37.0704 23.9119 37.6196 23.1828 38.0939 23.1195C39.0362 22.9939 39.9807 22.8925 40.9312 22.8925" fill="none" opacity="1" stroke="#eebf5b" stroke-linecap="round" stroke-linejoin="round" stroke-width="2.09926"/>
<path d="M45.1305 8.81937C45.8574 11.7271 45.7045 14.79 45.8114 17.7853C45.8359 18.47 45.4256 19.5218 46.0384 19.8282" fill="none" opacity="1" stroke="#eebf5b" stroke-linecap="round" stroke-linejoin="round" stroke-width="2.09926"/>
<path d="M49.1027 14.721C49.1027 13.9865 47.7832 15.428 47.2869 15.9694C45.7593 17.6358 46.4682 19.7228 48.8758 18.9203" fill="none" opacity="1" stroke="#eebf5b" stroke-linecap="round" stroke-linejoin="round" stroke-width="2.09926"/>
<path d="M52.5075 14.494C52.5075 15.5328 52.8231 16.5506 53.075 17.5583C54.0742 21.5551 55.3533 15.2885 55.5719 15.2885C56.3209 15.2885 55.6473 19.1048 57.0473 18.5798C58.1754 18.1567 59.199 12.9791 59.9981 15.8559C60.1135 16.2716 60.243 16.6838 60.3386 17.1044C60.4323 17.5168 60.5028 17.9345 60.5656 18.3528C60.6164 18.6916 60.6412 19.0338 60.6791 19.3742" fill="none" opacity="1" stroke="#eebf5b" stroke-linecap="round" stroke-linejoin="round" stroke-width="2.09926"/>
<path d="M66.1267 4.27965C66.1267 10.2615 66.1005 16.24 65.7862 22.2116" fill="none" opacity="1" stroke="#eebf5b" stroke-linecap="round" stroke-linejoin="round" stroke-width="2.09926"/>
<path d="M70.6665 7.57095C70.7043 7.41962 70.7518 6.96356 70.7799 7.11698C71.1463 9.11137 71.4693 11.1162 71.6879 13.1321C71.8108 14.2661 71.4911 18.0274 71.9149 18.2393C72.6784 18.6211 73.6929 15.7907 73.8443 15.5155C74.0668 15.1108 74.4512 13.9586 74.6387 14.3805C75.259 15.7763 75.1183 17.1428 76.0006 18.4663" fill="none" opacity="1" stroke="#eebf5b" stroke-linecap="round" stroke-linejoin="round" stroke-width="2.09926"/>
<path d="M77.0221 7.34396C78.3486 6.68068 79.9871 7.54381 81.4483 7.79793C81.9093 7.87811 82.4793 7.80753 82.8102 8.13841C83.03 8.35815 82.5832 10.1983 82.5832 10.2948C82.5832 12.4041 82.9493 14.5404 83.0372 16.6504C83.0572 17.1304 83.4681 21.7321 83.2642 21.7576C82.2171 21.8885 80.8458 21.5306 79.7459 21.5306" fill="none" opacity="1" stroke="#eebf5b" stroke-linecap="round" stroke-linejoin="round" stroke-width="2.09926"/>
<path d="M404.433 236.217C403.479 238.603 403.546 241.283 403.295 243.841C403.161 245.22 402.987 247.345 403.523 248.847C404.038 250.288 405.941 250.013 406.937 249.416" fill="none" opacity="1" stroke="#eebf5b" stroke-linecap="round" stroke-linejoin="round" stroke-width="2.09926"/>
<path d="M399.768 245.32C401.91 244.891 404.197 245.433 406.368 245.433" fill="none" opacity="1" stroke="#eebf5b" stroke-linecap="round" stroke-linejoin="round" stroke-width="2.09926"/>
</g>
</svg>
