<?xml version="1.0" encoding="UTF-8" standalone="no"?>
<!DOCTYPE svg PUBLIC "-//W3C//DTD SVG 1.1//EN" "http://www.w3.org/Graphics/SVG/1.1/DTD/svg11.dtd">
<!-- Created with Vectornator (http://vectornator.io/) -->
<svg height="100%" stroke-miterlimit="10" style="fill-rule:nonzero;clip-rule:evenodd;stroke-linecap:round;stroke-linejoin:round;" version="1.1" viewBox="0 0 425.25 283.5" width="100%" xml:space="preserve" xmlns="http://www.w3.org/2000/svg" xmlns:vectornator="http://vectornator.io" xmlns:xlink="http://www.w3.org/1999/xlink">
<defs/>
<g id="Ebene-2" vectornator:layerName="Ebene 2">
<path d="M33.9756 124.903C36.1512 124.36 38.4573 124.687 40.6998 124.687C44.184 124.687 47.5001 124.253 50.8946 124.253" fill="none" opacity="1" stroke="#d1d1d1" stroke-linecap="round" stroke-linejoin="round" stroke-width="2.09926"/>
<path d="M59.7879 124.036C64.8281 124.036 69.9569 123.602 74.9716 123.602" fill="none" opacity="1" stroke="#d1d1d1" stroke-linecap="round" stroke-linejoin="round" stroke-width="2.09926"/>
<path d="M85.8171 122.951C92.1249 122.951 98.3871 122.517 104.688 122.517" fill="none" opacity="1" stroke="#d1d1d1" stroke-linecap="round" stroke-linejoin="round" stroke-width="2.09926"/>
<path d="M114.449 122.301C119.144 122.301 123.84 121.867 128.548 121.867" fill="none" opacity="1" stroke="#d1d1d1" stroke-linecap="round" stroke-linejoin="round" stroke-width="2.09926"/>
<path d="M138.743 120.782C144.041 120.782 149.283 120.348 154.578 120.348" fill="none" opacity="1" stroke="#d1d1d1" stroke-linecap="round" stroke-linejoin="round" stroke-width="2.09926"/>
<path d="M165.64 120.131C171.191 119.338 176.944 119.698 182.559 119.698" fill="none" opacity="1" stroke="#d1d1d1" stroke-linecap="round" stroke-linejoin="round" stroke-width="2.09926"/>
<path d="M192.971 119.047C198.538 119.047 204.105 119.047 209.673 119.047" fill="none" opacity="1" stroke="#d1d1d1" stroke-linecap="round" stroke-linejoin="round" stroke-width="2.09926"/>
<path d="M219 119.047C225.179 118.164 231.472 119.047 237.654 119.047" fill="none" opacity="1" stroke="#d1d1d1" stroke-linecap="round" stroke-linejoin="round" stroke-width="2.09926"/>
<path d="M245.246 119.264C250.385 119.264 255.571 119.698 260.647 119.698" fill="none" opacity="1" stroke="#d1d1d1" stroke-linecap="round" stroke-linejoin="round" stroke-width="2.09926"/>
<path d="M270.191 119.915C276.042 119.915 281.903 119.698 287.76 119.698" fill="none" opacity="1" stroke="#d1d1d1" stroke-linecap="round" stroke-linejoin="round" stroke-width="2.09926"/>
<path d="M297.088 119.698C301.516 119.698 306.177 119.915 310.536 119.915" fill="none" opacity="1" stroke="#d1d1d1" stroke-linecap="round" stroke-linejoin="round" stroke-width="2.09926"/>
<path d="M318.714 119.294C324.309 118.362 329.88 119.945 335.416 119.945" fill="none" opacity="1" stroke="#d1d1d1" stroke-linecap="round" stroke-linejoin="round" stroke-width="2.09926"/>
<path d="M341.831 119.666C344.769 120.155 347.76 120.02 350.724 120.316" fill="none" opacity="1" stroke="#d1d1d1" stroke-linecap="round" stroke-linejoin="round" stroke-width="2.09926"/>
<path d="M20.4805 164.7C19.6243 163.843 26.2041 164.588 26.2596 164.7C27.1857 166.552 25.5372 172.665 25.5372 175.054" fill="none" opacity="1" stroke="#d1d1d1" stroke-linecap="round" stroke-linejoin="round" stroke-width="2.09926"/>
<path d="M23.7313 170.479C22.8829 170.055 24.3712 170.451 26.5004 170.238C27.3391 170.154 28.1663 170.118 29.0288 170.118" fill="none" opacity="1" stroke="#d1d1d1" stroke-linecap="round" stroke-linejoin="round" stroke-width="2.09926"/>
<path d="M23.7915 140.74C22.811 140.518 21.2298 141.07 21.0825 142.064C20.966 142.85 22.2062 143.188 22.7681 143.75C24.2081 145.19 26.1502 149.89 22.4069 149.89C20.5443 149.89 21.3017 147.994 21.9253 147.121C23.2992 145.198 28.2924 141.757 23.7915 140.74Z" fill="none" opacity="1" stroke="#d1d1d1" stroke-linecap="round" stroke-linejoin="round" stroke-width="2.09926"/>
<path d="M24.2129 117.864C24.0925 117.744 24.0067 117.432 23.8517 117.503C22.5734 118.084 21.1385 118.591 20.2397 119.67C19.7772 120.225 20.0112 121.152 20.2397 121.837C20.8264 123.598 24.5578 120.693 24.9352 119.309C25.0092 119.038 25.2018 118.555 24.9352 118.466C24.3885 118.284 24.567 120.634 24.5741 120.754C24.7281 123.372 25.4168 126.142 25.4168 128.7" fill="none" opacity="1" stroke="#d1d1d1" stroke-linecap="round" stroke-linejoin="round" stroke-width="2.09926"/>
<path d="M33.1574 146.176C35.333 145.632 37.6391 145.959 39.8816 145.959C43.3658 145.959 46.6819 145.525 50.0764 145.525" fill="none" opacity="1" stroke="#d1d1d1" stroke-linecap="round" stroke-linejoin="round" stroke-width="2.09926"/>
<path d="M58.9697 145.309C64.0099 145.309 69.1387 144.875 74.1534 144.875" fill="none" opacity="1" stroke="#d1d1d1" stroke-linecap="round" stroke-linejoin="round" stroke-width="2.09926"/>
<path d="M84.9989 144.224C91.3067 144.224 97.5689 143.79 103.87 143.79" fill="none" opacity="1" stroke="#d1d1d1" stroke-linecap="round" stroke-linejoin="round" stroke-width="2.09926"/>
<path d="M113.631 143.573C118.326 143.573 123.022 143.139 127.73 143.139" fill="none" opacity="1" stroke="#d1d1d1" stroke-linecap="round" stroke-linejoin="round" stroke-width="2.09926"/>
<path d="M137.925 142.055C143.222 142.055 148.465 141.621 153.759 141.621" fill="none" opacity="1" stroke="#d1d1d1" stroke-linecap="round" stroke-linejoin="round" stroke-width="2.09926"/>
<path d="M164.822 141.404C170.373 140.611 176.126 140.97 181.741 140.97" fill="none" opacity="1" stroke="#d1d1d1" stroke-linecap="round" stroke-linejoin="round" stroke-width="2.09926"/>
<path d="M192.153 140.32C197.72 140.32 203.287 140.32 208.855 140.32" fill="none" opacity="1" stroke="#d1d1d1" stroke-linecap="round" stroke-linejoin="round" stroke-width="2.09926"/>
<path d="M218.182 140.32C224.361 139.437 230.654 140.32 236.836 140.32" fill="none" opacity="1" stroke="#d1d1d1" stroke-linecap="round" stroke-linejoin="round" stroke-width="2.09926"/>
<path d="M244.428 140.537C249.567 140.537 254.753 140.97 259.828 140.97" fill="none" opacity="1" stroke="#d1d1d1" stroke-linecap="round" stroke-linejoin="round" stroke-width="2.09926"/>
<path d="M269.373 141.187C275.224 141.187 281.085 140.97 286.942 140.97" fill="none" opacity="1" stroke="#d1d1d1" stroke-linecap="round" stroke-linejoin="round" stroke-width="2.09926"/>
<path d="M296.269 140.97C300.698 140.97 305.359 141.187 309.718 141.187" fill="none" opacity="1" stroke="#d1d1d1" stroke-linecap="round" stroke-linejoin="round" stroke-width="2.09926"/>
<path d="M317.895 140.567C323.491 139.635 329.062 141.218 334.597 141.218" fill="none" opacity="1" stroke="#d1d1d1" stroke-linecap="round" stroke-linejoin="round" stroke-width="2.09926"/>
<path d="M341.013 140.938C343.951 141.428 346.942 141.293 349.906 141.589" fill="none" opacity="1" stroke="#d1d1d1" stroke-linecap="round" stroke-linejoin="round" stroke-width="2.09926"/>
<path d="M33.1574 168.813C35.333 168.269 37.6391 168.596 39.8816 168.596C43.3658 168.596 46.6819 168.162 50.0764 168.162" fill="none" opacity="1" stroke="#d1d1d1" stroke-linecap="round" stroke-linejoin="round" stroke-width="2.09926"/>
<path d="M58.9697 167.945C64.0099 167.945 69.1387 167.511 74.1534 167.511" fill="none" opacity="1" stroke="#d1d1d1" stroke-linecap="round" stroke-linejoin="round" stroke-width="2.09926"/>
<path d="M84.9989 166.86C91.3067 166.86 97.5689 166.427 103.87 166.427" fill="none" opacity="1" stroke="#d1d1d1" stroke-linecap="round" stroke-linejoin="round" stroke-width="2.09926"/>
<path d="M113.631 166.21C118.326 166.21 123.022 165.776 127.73 165.776" fill="none" opacity="1" stroke="#d1d1d1" stroke-linecap="round" stroke-linejoin="round" stroke-width="2.09926"/>
<path d="M137.925 164.691C143.222 164.691 148.465 164.257 153.759 164.257" fill="none" opacity="1" stroke="#d1d1d1" stroke-linecap="round" stroke-linejoin="round" stroke-width="2.09926"/>
<path d="M164.822 164.041C170.373 163.247 176.126 163.607 181.741 163.607" fill="none" opacity="1" stroke="#d1d1d1" stroke-linecap="round" stroke-linejoin="round" stroke-width="2.09926"/>
<path d="M192.153 162.956C197.72 162.956 203.287 162.956 208.855 162.956" fill="none" opacity="1" stroke="#d1d1d1" stroke-linecap="round" stroke-linejoin="round" stroke-width="2.09926"/>
<path d="M218.182 162.956C224.361 162.073 230.654 162.956 236.836 162.956" fill="none" opacity="1" stroke="#d1d1d1" stroke-linecap="round" stroke-linejoin="round" stroke-width="2.09926"/>
<path d="M244.428 163.173C249.567 163.173 254.753 163.607 259.828 163.607" fill="none" opacity="1" stroke="#d1d1d1" stroke-linecap="round" stroke-linejoin="round" stroke-width="2.09926"/>
<path d="M269.373 163.824C275.224 163.824 281.085 163.607 286.942 163.607" fill="none" opacity="1" stroke="#d1d1d1" stroke-linecap="round" stroke-linejoin="round" stroke-width="2.09926"/>
<path d="M296.269 163.607C300.698 163.607 305.359 163.824 309.718 163.824" fill="none" opacity="1" stroke="#d1d1d1" stroke-linecap="round" stroke-linejoin="round" stroke-width="2.09926"/>
<path d="M317.895 163.204C323.491 162.271 329.062 163.854 334.597 163.854" fill="none" opacity="1" stroke="#d1d1d1" stroke-linecap="round" stroke-linejoin="round" stroke-width="2.09926"/>
<path d="M341.013 163.575C343.951 164.064 346.942 163.929 349.906 164.226" fill="none" opacity="1" stroke="#d1d1d1" stroke-linecap="round" stroke-linejoin="round" stroke-width="2.09926"/>
<path d="M33.4302 102.813C35.6058 102.269 37.9118 102.596 40.1544 102.596C43.6385 102.596 46.9547 102.162 50.3491 102.162" fill="none" opacity="1" stroke="#d1d1d1" stroke-linecap="round" stroke-linejoin="round" stroke-width="2.09926"/>
<path d="M59.2425 101.945C64.2826 101.945 69.4115 101.511 74.4262 101.511" fill="none" opacity="1" stroke="#d1d1d1" stroke-linecap="round" stroke-linejoin="round" stroke-width="2.09926"/>
<path d="M85.2717 100.86C91.5794 100.86 97.8416 100.427 104.143 100.427" fill="none" opacity="1" stroke="#d1d1d1" stroke-linecap="round" stroke-linejoin="round" stroke-width="2.09926"/>
<path d="M113.904 100.21C118.599 100.21 123.294 99.7758 128.003 99.7758" fill="none" opacity="1" stroke="#d1d1d1" stroke-linecap="round" stroke-linejoin="round" stroke-width="2.09926"/>
<path d="M138.198 98.6912C143.495 98.6912 148.738 98.2574 154.032 98.2574" fill="none" opacity="1" stroke="#d1d1d1" stroke-linecap="round" stroke-linejoin="round" stroke-width="2.09926"/>
<path d="M165.095 98.0405C170.646 97.2475 176.398 97.6067 182.014 97.6067" fill="none" opacity="1" stroke="#d1d1d1" stroke-linecap="round" stroke-linejoin="round" stroke-width="2.09926"/>
<path d="M192.425 96.956C197.993 96.956 203.56 96.956 209.127 96.956" fill="none" opacity="1" stroke="#d1d1d1" stroke-linecap="round" stroke-linejoin="round" stroke-width="2.09926"/>
<path d="M218.454 96.956C224.634 96.0732 230.927 96.956 237.109 96.956" fill="none" opacity="1" stroke="#d1d1d1" stroke-linecap="round" stroke-linejoin="round" stroke-width="2.09926"/>
<path d="M244.701 97.1729C249.84 97.1729 255.026 97.6067 260.101 97.6067" fill="none" opacity="1" stroke="#d1d1d1" stroke-linecap="round" stroke-linejoin="round" stroke-width="2.09926"/>
<path d="M269.645 97.8236C275.496 97.8236 281.358 97.6067 287.215 97.6067" fill="none" opacity="1" stroke="#d1d1d1" stroke-linecap="round" stroke-linejoin="round" stroke-width="2.09926"/>
<path d="M296.542 97.6067C300.971 97.6067 305.632 97.8236 309.991 97.8236" fill="none" opacity="1" stroke="#d1d1d1" stroke-linecap="round" stroke-linejoin="round" stroke-width="2.09926"/>
<path d="M318.168 97.2035C323.764 96.2709 329.334 97.8542 334.87 97.8542" fill="none" opacity="1" stroke="#d1d1d1" stroke-linecap="round" stroke-linejoin="round" stroke-width="2.09926"/>
<path d="M341.286 97.5748C344.224 98.0645 347.215 97.9291 350.179 98.2255" fill="none" opacity="1" stroke="#d1d1d1" stroke-linecap="round" stroke-linejoin="round" stroke-width="2.09926"/>
<path d="M12.7192 104.544C13.8085 102.729 14.7976 100.853 15.7445 98.9594C15.8542 98.74 15.7445 98.3388 15.9772 98.2612C16.1648 98.1987 16.0756 98.6461 16.0935 98.843C16.1632 99.6096 16.1147 100.863 16.0935 101.519C16.0139 103.989 15.6045 106.754 16.0935 109.199" fill="none" opacity="1" stroke="#d1d1d1" stroke-linecap="round" stroke-linejoin="round" stroke-width="2.09926"/>
<path d="M22.4349 99.8902C22.3305 99.8895 22.1635 99.6713 22.144 99.7739C21.7713 101.735 21.423 103.714 21.3295 105.708C21.2923 106.502 21.5285 107.388 22.3767 107.453C25.9123 107.725 28.0994 99.9283 22.4349 99.8902Z" fill="none" opacity="1" stroke="#d1d1d1" stroke-linecap="round" stroke-linejoin="round" stroke-width="2.09926"/>
</g>
<g id="Ebene-1" vectornator:layerName="Ebene 1">
<path d="M38.0843 30.4408C38.0843 58.455 39.4244 86.3935 39.4244 114.42C39.4244 157.62 38.0843 200.759 38.0843 243.962" fill="none" opacity="1" stroke="#a3a3a3" stroke-linecap="round" stroke-linejoin="round" stroke-width="3.19853"/>
<path d="M36.7442 31.7809C35.2571 34.7553 34.4918 38.9564 32.724 41.6082C32.4762 41.9799 32.6608 40.7103 32.724 40.2681C33.1452 37.3194 33.0989 39.5901 34.0641 36.6946C34.4458 35.5493 34.5743 31.5258 35.8508 30.8875C37.4499 30.088 43.0843 36.7808 44.3381 38.0347" fill="none" opacity="1" stroke="#a3a3a3" stroke-linecap="round" stroke-linejoin="round" stroke-width="3.19853"/>
<g opacity="1">
<path d="M38.3914 244.654C38.9879 243.992 57.5234 244.061 60.0021 244.039C81.3413 243.855 102.689 244.314 124.065 244.13C157.157 243.845 190.439 243.665 223.499 244.131C251.63 244.528 279.868 243.407 307.995 243.832C326.647 244.113 345.544 243.937 364.196 243.776C372.028 243.709 382.209 242.682 389.744 243.985" fill="none" opacity="1" stroke="#a3a3a3" stroke-linecap="round" stroke-linejoin="round" stroke-width="3.19853"/>
<path d="M389.183 244.041C389.182 243.872 389.316 243.631 389.179 243.533C388.682 243.178 381.933 238.769 381.772 238.771C380.872 238.779 383.043 240.075 383.819 240.531C385.405 241.464 387.214 242.14 388.669 243.283C388.857 243.431 389.179 243.547 389.181 243.787C389.184 244.153 382.043 247.339 381.087 247.667" fill="none" opacity="1" stroke="#a3a3a3" stroke-linecap="round" stroke-linejoin="round" stroke-width="3.19853"/>
</g>
<path d="M83.9369 237.686C83.9369 241.686 83.9369 245.686 83.9369 249.686" fill="none" opacity="1" stroke="#eebf5b" stroke-linecap="round" stroke-linejoin="round" stroke-width="3.19853"/>
<path d="M344.79 237.186C345.448 241.791 345.609 246.054 345.609 250.822" fill="none" opacity="1" stroke="#eebf5b" stroke-linecap="round" stroke-linejoin="round" stroke-width="3.19853"/>
<path d="M219.654 237.731C219.654 236.822 219.654 239.55 219.654 240.459C219.654 243.913 219.654 247.368 219.654 250.822" fill="none" opacity="1" stroke="#eebf5b" stroke-linecap="round" stroke-linejoin="round" stroke-width="3.19853"/>
<path d="M73.1255 260.712C74.6786 259.417 75.5825 257.5 76.778 255.87C76.956 255.627 77.1277 255.365 77.3726 255.19C77.9787 254.757 77.1253 256.66 77.0329 257.399C76.8217 259.088 76.5232 260.874 76.5232 262.58" fill="none" opacity="1" stroke="#eebf5b" stroke-linecap="round" stroke-linejoin="round" stroke-width="2.1"/>
<path d="M81.28 255.19C80.6088 255.862 80.1532 257.001 80.4306 257.909C80.8017 259.123 83.2324 258.256 82.8939 260.287C82.7156 261.357 79.9209 262.643 79.9209 261.221" fill="none" opacity="1" stroke="#eebf5b" stroke-linecap="round" stroke-linejoin="round" stroke-width="2.1"/>
<path d="M80.5155 255.87C80.5155 254.635 84.1613 255.406 85.1025 254.936" fill="none" opacity="1" stroke="#eebf5b" stroke-linecap="round" stroke-linejoin="round" stroke-width="2.1"/>
<path d="M87.226 257.909C87.226 258.078 87.226 258.248 87.226 258.418" fill="none" opacity="1" stroke="#eebf5b" stroke-linecap="round" stroke-linejoin="round" stroke-width="2.1"/>
<path d="M87.1411 260.882C87.1411 260.995 87.1411 261.108 87.1411 261.221" fill="none" opacity="1" stroke="#eebf5b" stroke-linecap="round" stroke-linejoin="round" stroke-width="2.1"/>
<path d="M92.4925 255.445C92.3499 255.591 92.188 254.734 92.1527 254.936C91.8431 256.7 91.341 258.521 91.6431 260.287C91.753 260.929 92.6246 261.233 93.257 261.391C93.5631 261.468 94.398 260.491 94.5311 260.287C95.2249 259.223 95.9914 257.864 95.4655 256.549C95.0155 255.424 93.57 254.341 92.4925 255.445Z" fill="none" opacity="1" stroke="#eebf5b" stroke-linecap="round" stroke-linejoin="round" stroke-width="2.1"/>
<path d="M100.137 255.02C100.081 254.964 100.001 254.778 99.9675 254.851C99.3039 256.293 98.3567 257.689 98.1837 259.268C98.1075 259.963 98.716 260.649 99.2879 261.051C100.213 261.703 101.398 259.987 101.666 259.522C103.364 256.58 100.441 252.775 98.4385 255.445" fill="none" opacity="1" stroke="#eebf5b" stroke-linecap="round" stroke-linejoin="round" stroke-width="2.1"/>
<path d="M205.39 261.418C206.943 260.123 207.847 258.206 209.043 256.576C209.221 256.333 209.393 256.071 209.637 255.896C210.244 255.463 209.39 257.366 209.298 258.105C209.087 259.794 208.788 261.58 208.788 263.286" fill="none" opacity="1" stroke="#eebf5b" stroke-linecap="round" stroke-linejoin="round" stroke-width="2.1"/>
<path d="M219.491 258.615C219.491 258.784 219.491 258.954 219.491 259.124" fill="none" opacity="1" stroke="#eebf5b" stroke-linecap="round" stroke-linejoin="round" stroke-width="2.1"/>
<path d="M219.406 261.588C219.406 261.701 219.406 261.814 219.406 261.927" fill="none" opacity="1" stroke="#eebf5b" stroke-linecap="round" stroke-linejoin="round" stroke-width="2.1"/>
<path d="M224.757 256.151C224.615 256.297 224.453 255.44 224.418 255.642C224.108 257.406 223.606 259.227 223.908 260.993C224.018 261.635 224.889 261.939 225.522 262.097C225.828 262.174 226.663 261.197 226.796 260.993C227.49 259.929 228.256 258.57 227.73 257.255C227.28 256.13 225.835 255.047 224.757 256.151Z" fill="none" opacity="1" stroke="#eebf5b" stroke-linecap="round" stroke-linejoin="round" stroke-width="2.1"/>
<path d="M232.402 255.726C232.346 255.67 232.266 255.484 232.232 255.557C231.569 256.999 230.621 258.395 230.449 259.974C230.372 260.669 230.981 261.355 231.553 261.757C232.478 262.409 233.663 260.693 233.931 260.228C235.629 257.286 232.706 253.481 230.703 256.151" fill="none" opacity="1" stroke="#eebf5b" stroke-linecap="round" stroke-linejoin="round" stroke-width="2.1"/>
<path d="M330.903 260.535C332.456 259.24 333.36 257.323 334.555 255.693C334.733 255.45 334.905 255.188 335.15 255.013C335.756 254.58 334.902 256.483 334.81 257.222C334.599 258.911 334.3 260.697 334.3 262.403" fill="none" opacity="1" stroke="#eebf5b" stroke-linecap="round" stroke-linejoin="round" stroke-width="2.1"/>
<path d="M345.003 257.732C345.003 257.901 345.003 258.071 345.003 258.241" fill="none" opacity="1" stroke="#eebf5b" stroke-linecap="round" stroke-linejoin="round" stroke-width="2.1"/>
<path d="M344.918 260.705C344.918 260.818 344.918 260.931 344.918 261.044" fill="none" opacity="1" stroke="#eebf5b" stroke-linecap="round" stroke-linejoin="round" stroke-width="2.1"/>
<path d="M350.27 255.268C350.127 255.414 349.965 254.557 349.93 254.759C349.62 256.524 349.118 258.344 349.42 260.11C349.53 260.753 350.402 261.056 351.034 261.214C351.34 261.291 352.175 260.314 352.308 260.11C353.002 259.046 353.769 257.687 353.243 256.373C352.793 255.248 351.347 254.164 350.27 255.268Z" fill="none" opacity="1" stroke="#eebf5b" stroke-linecap="round" stroke-linejoin="round" stroke-width="2.1"/>
<path d="M357.915 254.844C357.858 254.787 357.778 254.601 357.745 254.674C357.081 256.116 356.134 257.512 355.961 259.091C355.885 259.786 356.493 260.472 357.065 260.874C357.991 261.526 359.176 259.81 359.444 259.346C361.141 256.403 358.219 252.598 356.216 255.268" fill="none" opacity="1" stroke="#eebf5b" stroke-linecap="round" stroke-linejoin="round" stroke-width="2.1"/>
<path d="M214.55 255.285C213.877 255.621 213.848 256.624 213.603 257.336C213.382 257.979 212.277 263.217 213.498 263.489C215.687 263.975 217.025 258.98 214.129 259.807" fill="none" opacity="1" stroke="#eebf5b" stroke-linecap="round" stroke-linejoin="round" stroke-width="2.1"/>
<path d="M337.728 254.219C338.355 254.219 342.127 254.312 342.146 254.331C342.282 254.467 341.577 256.428 341.552 256.521C341.111 258.174 340.814 260.075 340.141 261.644" fill="none" opacity="1" stroke="#eebf5b" stroke-linecap="round" stroke-linejoin="round" stroke-width="2.1"/>
<path d="M339.287 258.526C339.829 258.255 341.584 258.452 341.886 258.452" fill="none" opacity="1" stroke="#eebf5b" stroke-linecap="round" stroke-linejoin="round" stroke-width="2.1"/>
<path d="M84.0526 172.534C89.2293 167.357 92.8249 161.064 96.8851 154.974C97.1091 154.638 100.087 149.951 100.262 150.021C101.181 150.388 102.462 152.446 103.189 153.173C107.051 157.035 110.284 161.547 113.095 166.23C113.344 166.646 115.994 171.647 116.922 171.183C116.965 171.162 117.084 169.54 117.147 169.382C117.941 167.398 119.026 165.414 120.074 163.529C122.38 159.378 124.091 154.606 126.828 150.696C128.594 148.173 131.168 145.915 132.681 143.267C133.175 142.402 138.227 133.269 138.76 133.136C139.602 132.925 145.91 141.844 146.639 142.817C146.786 143.012 148.149 145.326 148.665 145.068C149.198 144.802 153.131 138.104 153.843 137.188C159.292 130.183 164.681 122.958 169.603 115.576C170.388 114.398 175.819 105.399 176.357 105.22C177.008 105.002 179.446 108.948 179.734 109.272C181.639 111.415 190.071 119.398 192.791 120.078C193.792 120.328 200.081 110.808 200.896 109.722C200.955 109.643 202.379 106.883 202.922 107.246C203.061 107.338 203.662 108.854 203.823 109.047C206.152 111.842 208.634 114.642 211.027 117.377C216.081 123.153 222.006 128.581 227.462 134.036C229.932 136.507 232.151 138.713 234.216 141.466C234.266 141.533 234.886 142.218 235.116 142.141C235.826 141.905 237.303 138.732 237.818 138.089C240.843 134.307 243.477 130.243 246.373 126.382C256.088 113.428 265.767 100.401 275.19 87.209C277.329 84.2138 281.004 75.0715 284.195 73.4759C284.608 73.2695 286.285 76.563 286.671 77.078C289.116 80.3382 291.392 83.8173 293.2 87.4341C293.456 87.946 294.493 90.3898 295.451 89.9106C295.505 89.8839 297.251 87.6603 297.478 87.4341C302.017 82.8951 305.257 77.4203 309.41 72.5754C310.016 71.8683 312.166 68.2979 313.012 68.2979C313.179 68.2979 313.175 68.5924 313.237 68.7482C314.244 71.2667 316.147 73.4482 317.514 75.7273C317.802 76.2069 319.475 80.8519 319.991 80.6802C321.095 80.312 325.409 71.6826 326.745 72.3503C327.07 72.5128 331.229 80.9898 331.923 82.031C336.701 89.1977 341.945 96.1674 345.206 104.319C346.144 106.664 349.033 109.352 349.033 111.973" fill="none" opacity="1" stroke="#2e6777" stroke-linecap="round" stroke-linejoin="round" stroke-width="3.19926"/>
<path d="M46.5233 6.08794C45.5014 5.67917 43.344 4.3556 42.5878 5.30084C41.5185 6.63751 42.6711 10.7542 42.7452 12.3848C42.85 14.69 42.3843 23.0649 43.5323 24.9784C44.0766 25.8855 46.773 25.1174 47.4678 24.9784" fill="none" opacity="1" stroke="#eebf5b" stroke-linecap="round" stroke-linejoin="round" stroke-width="1.54963"/>
<path d="M49.5143 10.3383C49.4618 10.0759 49.2853 9.29339 49.3569 9.55119C49.6907 10.753 50.0805 11.9443 50.3014 13.1719C50.4599 14.0521 50.4694 18.923 51.2459 19.3113" fill="none" opacity="1" stroke="#eebf5b" stroke-linecap="round" stroke-linejoin="round" stroke-width="1.54963"/>
<path d="M54.7092 14.7461C54.3308 13.9893 53.013 15.3285 52.5053 16.0054C50.6685 18.4545 52.2184 20.4316 54.5518 18.6816" fill="none" opacity="1" stroke="#eebf5b" stroke-linecap="round" stroke-linejoin="round" stroke-width="1.54963"/>
<path d="M56.9131 15.2183C56.9131 16.3266 56.821 17.7267 57.8576 18.5242C58.884 19.3137 59.6062 14.8333 59.7466 14.9035C60.5508 15.3055 59.9442 18.839 61.3208 18.839C62.1611 18.839 63.7688 15.1476 63.997 15.3757C64.7486 16.1274 64.1368 20.1567 66.2009 19.4687" fill="none" opacity="1" stroke="#eebf5b" stroke-linecap="round" stroke-linejoin="round" stroke-width="1.54963"/>
<path d="M70.4512 6.5602C70.4512 12.639 69.1703 18.7664 69.5067 24.821C69.5232 25.1173 69.9265 24.4012 70.1364 24.1913" fill="none" opacity="1" stroke="#eebf5b" stroke-linecap="round" stroke-linejoin="round" stroke-width="1.54963"/>
<path d="M75.1738 9.55119C75.1214 9.44624 75.0091 9.11924 75.0164 9.23635C75.1281 11.0239 75.2665 12.8114 75.4887 14.5886C75.6342 15.7529 75.8882 16.9013 76.1184 18.0519C76.5349 20.1345 77.6533 15.4544 78.0074 15.2183C78.441 14.9293 78.7746 20.1183 80.0539 18.839" fill="none" opacity="1" stroke="#eebf5b" stroke-linecap="round" stroke-linejoin="round" stroke-width="1.54963"/>
<path d="M79.8964 7.50472C79.2661 6.24409 88.393 6.70928 88.3972 6.71762C88.7791 7.48153 87.6841 11.4624 87.6101 12.2273C87.4557 13.8225 88.4816 22.1333 88.0823 22.9319C86.8692 25.3582 82.5751 22.6121 81.6281 24.5061" fill="none" opacity="1" stroke="#eebf5b" stroke-linecap="round" stroke-linejoin="round" stroke-width="1.54963"/>
<path d="M22.2806 14.1164C21.6298 16.0686 23.5213 18.0474 24.327 19.9409C24.7059 20.8312 25.4815 22.7745 26.2161 22.1448C26.4522 21.9424 31.411 11.6976 31.411 12.857" fill="none" opacity="1" stroke="#eebf5b" stroke-linecap="round" stroke-linejoin="round" stroke-width="2.09926"/>
<path d="M399.987 236.722C399.247 240.173 398.299 244.388 398.255 247.543C398.209 250.933 402.901 248.812 404.026 247.687" fill="none" opacity="1" stroke="#eebf5b" stroke-linecap="round" stroke-linejoin="round" stroke-width="1.54963"/>
<path d="M395.514 243.936C397.48 242.462 400.415 243.503 402.872 243.503C403.209 243.503 403.545 243.503 403.882 243.503" fill="none" opacity="1" stroke="#eebf5b" stroke-linecap="round" stroke-linejoin="round" stroke-width="1.54963"/>
</g>
</svg>
