<?xml version="1.0" encoding="UTF-8" standalone="no"?>
<!DOCTYPE svg PUBLIC "-//W3C//DTD SVG 1.1//EN" "http://www.w3.org/Graphics/SVG/1.1/DTD/svg11.dtd">
<!-- Created with Vectornator (http://vectornator.io/) -->
<svg height="100%" stroke-miterlimit="10" style="fill-rule:nonzero;clip-rule:evenodd;stroke-linecap:round;stroke-linejoin:round;" version="1.1" viewBox="0 0 119.07 53.865" width="100%" xml:space="preserve" xmlns="http://www.w3.org/2000/svg" xmlns:vectornator="http://vectornator.io" xmlns:xlink="http://www.w3.org/1999/xlink">
<defs/>
<path d="M0 0L119.07 0L119.07 53.865L0 53.865L0 0Z" fill="#ffffff" fill-rule="nonzero" opacity="1" stroke="none"/>
<g id="Ebene-1" vectornator:layerName="Ebene 1">
<g opacity="1" vectornator:layerName="Gruppieren 1">
<path d="M107.892 43.7821C95.3959 43.8134 82.8385 44.0283 70.3216 44.0292C58.8735 44.03 47.4511 44.0757 36.0811 45.024C28.4958 45.6566 20.8097 44.9299 13.2542 45.7699C11.5111 45.9637 9.75477 46.0447 7.99108 46.0634" fill="none" opacity="1" stroke="#daa987" stroke-linecap="round" stroke-linejoin="round" stroke-opacity="0.497747" stroke-width="6.02349" vectornator:layerName="Kurve 9"/>
<path d="M7.84081 42.7596C10.502 42.8387 13.1596 42.8959 15.7644 42.6063C23.1133 41.7892 30.8383 43.6503 38.1539 42.6047C42.8598 41.9321 49.0719 41.3479 53.8456 42.0296C57.969 42.6183 62.378 41.5374 66.4756 42.22C68.9456 42.6315 72.3919 42.8283 74.8956 42.4108C78.2347 41.8541 81.9176 42.8813 85.2292 42.2187C90.7721 41.1098 97.1529 41.4525 102.834 41.4521C104.103 41.452 105.957 41.2368 107.785 41.1851" fill="none" opacity="1" stroke="#daa987" stroke-linecap="round" stroke-linejoin="round" stroke-width="2.6489" vectornator:layerName="Kurve 10"/>
</g>
<path d="M26.8736 18.1518C28.5126 18.1518 30.1503 18.064 31.7886 18.0153C36.3764 17.879 35.4137 17.292 35.3383 21.2919C35.3258 21.9517 35.3383 22.6117 35.3383 23.2716C35.3383 23.9542 35.3383 24.6368 35.3383 25.3195C35.3383 26.3045 35.7663 30.359 35.4065 31.2584C35.3349 31.4374 33.3606 31.7713 33.2221 31.8045C30.9865 32.341 28.6218 32.5554 26.3275 32.5554C26.2153 32.5554 23.3922 32.389 23.3922 32.2141C23.3922 31.8077 24.204 29.5004 24.2796 29.074C24.7942 26.1735 25.0298 23.2493 25.4401 20.3363C25.4777 20.069 25.9179 16.8023 25.9179 17.0596" fill="none" opacity="1" stroke="#a3a3a3" stroke-linecap="round" stroke-linejoin="round" stroke-width="1.54963"/>
<path d="M34.5421 31.5114C37.3022 30.2913 39.3175 27.8327 41.6977 25.9926" fill="none" opacity="1" stroke="#a3a3a3" stroke-linecap="round" stroke-linejoin="round" stroke-width="1.54963"/>
<path d="M25.8548 32.6038C28.615 31.3837 30.6303 28.9251 33.0104 27.085" fill="none" opacity="1" stroke="#a3a3a3" stroke-linecap="round" stroke-linejoin="round" stroke-width="1.54963" vectornator:layerName="Kurve 7"/>
<path d="M36.124 21.3811C38.3431 18.9913 40.4763 16.4444 43.0869 14.4865" fill="none" opacity="1" stroke="#a3a3a3" stroke-linecap="round" stroke-linejoin="round" stroke-width="1.54963"/>
<path d="M42.4915 20.9401C43.6223 19.957 37.8852 22.5952 36.5781 23.4399" fill="none" opacity="1" stroke="#a3a3a3" stroke-linecap="round" stroke-linejoin="round" stroke-width="1.54963"/>
<path d="M27.7786 19.917C27.7786 23.2976 27.2377 26.6137 27.2377 29.9856" fill="none" opacity="1" stroke="#a3a3a3" stroke-linecap="round" stroke-linejoin="round" stroke-opacity="0.531532" stroke-width="5.94669"/>
<path d="M30.8742 7.622C31.4998 7.23098 31.8429 7.18417 32.4766 7.28978C32.6077 7.31163 32.8671 7.40665 32.9652 7.50474C33.0303 7.56988 33.2527 7.70016 33.1606 7.70016C32.5435 7.70016 31.9077 7.8565 31.3237 7.8565" fill="none" opacity="1" stroke="#d5694f" stroke-linecap="round" stroke-linejoin="round" stroke-opacity="0.513513" stroke-width="1.54963"/>
<path d="M29.4031 9.21423C28.9124 10.3592 28.2703 15.1617 30.1486 15.4507C31.9502 15.7279 34.1849 11.8789 34.385 10.3779C34.4673 9.76058 34.1668 9.28617 34.1668 8.72331" fill="none" opacity="1" stroke="#a3a3a3" stroke-linecap="round" stroke-linejoin="round" stroke-width="1.54963"/>
<path d="M34.6617 8.49426C34.6617 6.41103 31.8945 4.7932 30.2453 6.44238C29.9788 6.70892 28.9728 8.82415 29.19 9.04144C29.2535 9.10493 30.0768 8.90204 30.1671 8.8851C30.9353 8.74108 31.8093 8.78739 32.5903 8.78739C33.5373 8.78739 34.4782 8.68843 35.4239 8.6506C36.8062 8.5953 38.195 8.25976 39.5667 8.25976" fill="none" opacity="1" stroke="#d5694f" stroke-linecap="round" stroke-linejoin="round" stroke-width="1.54963"/>
<g opacity="1" vectornator:layerName="Gruppieren 2">
<path d="M47.0532 15.6834C47.0532 13.0247 49.2085 10.8694 51.8671 10.8694C54.5258 10.8694 56.6811 13.0247 56.6811 15.6834C56.6811 18.342 54.5258 20.4973 51.8671 20.4973C49.2085 20.4973 47.0532 18.342 47.0532 15.6834Z" fill="#ffffff" fill-rule="nonzero" opacity="1" stroke="#224767" stroke-linecap="round" stroke-linejoin="round" stroke-width="2.02876" vectornator:layerName="Oval 1"/>
<path d="M52.5214 11.2793C55.7207 12.8789 55.3384 16.6412 53.3811 19.0878C52.9965 19.5686 52.3263 19.8149 51.805 20.1624" fill="none" opacity="1" stroke="#224767" stroke-linecap="round" stroke-linejoin="round" stroke-opacity="0.538288" stroke-width="2.4" vectornator:layerName="Kurve 1"/>
</g>
<g opacity="0.397287" vectornator:layerName="Gruppieren 3">
<path d="M62.1115 18.0086C62.1115 15.35 64.2668 13.1947 66.9254 13.1947C69.5841 13.1947 71.7394 15.35 71.7394 18.0086C71.7394 20.6673 69.5841 22.8226 66.9254 22.8226C64.2668 22.8226 62.1115 20.6673 62.1115 18.0086Z" fill="#ffffff" fill-rule="nonzero" opacity="1" stroke="#224767" stroke-linecap="round" stroke-linejoin="round" stroke-width="2.02876" vectornator:layerName="Oval 1"/>
<path d="M67.5797 13.6045C70.779 15.2042 70.3967 18.9665 68.4394 21.4131C68.0548 21.8939 67.3846 22.1401 66.8633 22.4877" fill="none" opacity="1" stroke="#224767" stroke-linecap="round" stroke-linejoin="round" stroke-opacity="0.538288" stroke-width="2.4" vectornator:layerName="Kurve 1"/>
</g>
<g opacity="0.3" vectornator:layerName="Gruppieren 4">
<path d="M77.1315 23.7739C77.1315 21.1152 79.2868 18.96 81.9455 18.96C84.6041 18.96 86.7594 21.1152 86.7594 23.7739C86.7594 26.4326 84.6041 28.5879 81.9455 28.5879C79.2868 28.5879 77.1315 26.4326 77.1315 23.7739Z" fill="#ffffff" fill-rule="nonzero" opacity="1" stroke="#224767" stroke-linecap="round" stroke-linejoin="round" stroke-width="2.4" vectornator:layerName="Oval 1"/>
<path d="M82.5997 19.3698C85.7991 20.9695 85.4167 24.7318 83.4594 27.1784C83.0748 27.6592 82.4047 27.9054 81.8833 28.253" fill="none" opacity="1" stroke="#224767" stroke-linecap="round" stroke-linejoin="round" stroke-opacity="0.538288" stroke-width="2.4" vectornator:layerName="Kurve 1"/>
</g>
<g opacity="0.2" vectornator:layerName="Gruppieren 5">
<path d="M92.3328 33.6059C92.3328 30.9472 94.488 28.7919 97.1467 28.7919C99.8054 28.7919 101.961 30.9472 101.961 33.6059C101.961 36.2645 99.8054 38.4198 97.1467 38.4198C94.488 38.4198 92.3328 36.2645 92.3328 33.6059Z" fill="#ffffff" fill-rule="nonzero" opacity="1" stroke="#224767" stroke-linecap="round" stroke-linejoin="round" stroke-width="2.4" vectornator:layerName="Oval 1"/>
<path d="M97.801 29.2018C101 30.8014 100.618 34.5637 98.6606 37.0103C98.276 37.4911 97.6059 37.7374 97.0846 38.0849" fill="none" opacity="1" stroke="#224767" stroke-linecap="round" stroke-linejoin="round" stroke-opacity="0.538288" stroke-width="2.4" vectornator:layerName="Kurve 1"/>
</g>
<path d="M12.7366 34.9634C14.2769 34.1933 19.8692 34.8233 21.7885 34.7273C30.2106 34.3062 38.8712 34.3337 47.2913 34.3337" fill="none" opacity="1" stroke="#eebf5b" stroke-linecap="round" stroke-linejoin="round" stroke-width="2.4" vectornator:layerName="Kurve 2"/>
<path d="M41.2158 36.3789C41.422 36.3553 40.853 36.3326 40.7423 36.3511C40.4125 36.406 39.9536 36.9343 39.8509 37.2425C39.6098 37.9656 39.7235 38.9926 40.5751 39.2481C41.6916 39.583 42.6457 38.4953 42.525 37.4096C42.429 36.5456 41.0812 36.3944 41.2158 36.3789Z" fill="none" opacity="1" stroke="#a3a3a3" stroke-linecap="round" stroke-linejoin="round" stroke-width="1.5" vectornator:layerName="Kurve 4"/>
<path d="M19.2019 37.0892C19.4081 37.0655 18.8391 37.0429 18.7284 37.0613C18.3986 37.1163 17.9397 37.6446 17.837 37.9527C17.596 38.6758 17.7096 39.7028 18.5613 39.9583C19.6777 40.2932 20.6318 39.2056 20.5112 38.1198C20.4152 37.2558 19.0673 37.1046 19.2019 37.0892Z" fill="none" opacity="1" stroke="#a3a3a3" stroke-linecap="round" stroke-linejoin="round" stroke-width="1.5" vectornator:layerName="Kurve 5"/>
<path d="M27.8833 34.5945C29.8058 32.3239 31.2397 29.6808 32.9558 27.2505C33.01 27.1738 33.208 27.3582 33.1633 27.4407" fill="none" opacity="1" stroke="#a3a3a3" stroke-linecap="round" stroke-linejoin="round" stroke-width="1.54963" vectornator:layerName="Kurve 6"/>
<path d="M36.5706 33.5021C38.4931 31.2315 39.927 28.5884 41.6431 26.1581C41.6972 26.0814 41.8953 26.2658 41.8505 26.3483" fill="none" opacity="1" stroke="#a3a3a3" stroke-linecap="round" stroke-linejoin="round" stroke-width="1.54963"/>
</g>
</svg>
