<?xml version="1.0" encoding="UTF-8" standalone="no"?>
<!DOCTYPE svg PUBLIC "-//W3C//DTD SVG 1.1//EN" "http://www.w3.org/Graphics/SVG/1.1/DTD/svg11.dtd">
<!-- Created with Vectornator (http://vectornator.io/) -->
<svg height="100%" stroke-miterlimit="10" style="fill-rule:nonzero;clip-rule:evenodd;stroke-linecap:round;stroke-linejoin:round;" version="1.1" viewBox="0 0 133.245 65.205" width="100%" xml:space="preserve" xmlns="http://www.w3.org/2000/svg" xmlns:vectornator="http://vectornator.io" xmlns:xlink="http://www.w3.org/1999/xlink">
<defs/>
<path d="M0 0L133.245 0L133.245 65.205L0 65.205L0 0Z" fill="#ffffff" fill-rule="nonzero" opacity="1" stroke="none"/>
<clipPath id="ArtboardFrame">
<rect height="65.205" width="133.245" x="0" y="0"/>
</clipPath>
<g clip-path="url(#ArtboardFrame)" id="Ebene-2" vectornator:layerName="Ebene 2" visibility="hidden">
<path d="M121.287 121.408C126.986 123.308 134.464 123.542 138.307 128.667C141.509 132.936 136.195 134.611 135.303 138.178C134.663 140.738 136.272 143.096 135.804 145.437C135.31 147.908 131.246 149.512 129.797 151.444C127.737 154.191 127.509 157.477 124.541 159.704C118.397 164.312 110.236 164.103 103.515 167.463" fill="none" opacity="1" stroke="#4a6b5f" stroke-linecap="round" stroke-linejoin="round" stroke-width="3.19853"/>
<path d="M120.014 125.805C123.724 127.66 127.566 126.881 131.217 128.342C136.641 130.512 130.573 135.055 131.217 138.276C132.623 145.309 129.907 144.673 126.144 149.69C124.929 151.309 125.089 153.387 123.819 154.974C122.643 156.444 114.29 159.839 112.194 160.258C109.517 160.794 102.668 161.541 100.78 163.429" fill="none" opacity="1" stroke="#4a6b5f" stroke-linecap="round" stroke-linejoin="round" stroke-opacity="0.511261" stroke-width="8.14522"/>
</g>
<g id="Ebene-1" vectornator:layerName="Ebene 1">
<g opacity="1" vectornator:layerName="Gruppieren 1">
<path d="M120.201 52.7256C106.757 52.7266 93.2337 52.9756 79.757 52.9765C68.3089 52.9773 56.8865 53.0231 45.5166 53.9714C37.9312 54.604 30.2451 53.8773 22.6896 54.7173C17.5306 55.2909 12.2548 54.8762 7.01773 54.7832" fill="none" opacity="1" stroke="#daa987" stroke-linecap="round" stroke-linejoin="round" stroke-opacity="0.497747" stroke-width="6.02349" vectornator:layerName="Kurve 3"/>
<path d="M6.61858 52.0485C6.88222 52.0117 7.1438 51.9747 7.4031 51.9376C13.23 51.1048 19.3481 52.2042 25.1998 51.5536C32.5487 50.7366 40.2737 52.5977 47.5893 51.5521C52.2952 50.8795 58.5073 50.2953 63.281 50.9769C67.4044 51.5657 71.8134 50.4848 75.911 51.1674C78.381 51.5789 81.8273 51.7756 84.331 51.3582C87.6701 50.8014 91.353 51.8287 94.6646 51.1661C100.208 50.0571 106.588 50.3998 112.27 50.3995C114.885 50.3993 119.989 49.485 122.221 50.9729" fill="none" opacity="1" stroke="#daa987" stroke-linecap="round" stroke-linejoin="round" stroke-width="2.6489" vectornator:layerName="Kurve 4"/>
</g>
<path d="M36.2999 16.6517C37.9388 16.6517 39.5766 16.5639 41.2148 16.5152C45.8027 16.3789 44.84 15.7919 44.7645 19.7918C44.7521 20.4516 44.7645 21.1116 44.7645 21.7715C44.7645 22.4541 44.7645 23.1367 44.7645 23.8194C44.7645 24.8044 45.1926 28.8589 44.8328 29.7583C44.7612 29.9373 42.7868 30.2711 42.6484 30.3044C40.4128 30.8409 38.0481 31.0553 35.7538 31.0553C35.6415 31.0553 32.8185 30.8889 32.8185 30.714C32.8185 30.3076 33.6302 28.0003 33.7059 27.5738C34.2205 24.6734 34.4561 21.7492 34.8664 18.8361C34.904 18.5689 35.3442 15.3022 35.3442 15.5595" fill="none" opacity="1" stroke="#a3a3a3" stroke-linecap="round" stroke-linejoin="round" stroke-width="1.54963"/>
<path d="M36.0652 31.771C35.4584 34.6837 35.4587 37.6906 35.1095 40.6453C35.0985 40.7384 34.8364 40.6708 34.8364 40.577" fill="none" opacity="1" stroke="#a3a3a3" stroke-linecap="round" stroke-linejoin="round" stroke-width="1.54963"/>
<path d="M41.7485 31.493C41.2524 34.4697 42.2004 37.5041 42.4311 40.5037" fill="none" opacity="1" stroke="#a3a3a3" stroke-linecap="round" stroke-linejoin="round" stroke-width="1.54963"/>
<path d="M45.5503 19.881C47.7693 17.4912 49.9026 14.9443 52.5131 12.9864" fill="none" opacity="1" stroke="#a3a3a3" stroke-linecap="round" stroke-linejoin="round" stroke-width="1.54963"/>
<path d="M51.9177 19.44C53.0485 18.4569 47.3115 21.0951 46.0044 21.9398" fill="none" opacity="1" stroke="#a3a3a3" stroke-linecap="round" stroke-linejoin="round" stroke-width="1.54963"/>
<path d="M37.2049 18.4169C37.2049 21.7975 36.664 25.1135 36.664 28.4855" fill="none" opacity="1" stroke="#a3a3a3" stroke-linecap="round" stroke-linejoin="round" stroke-opacity="0.531532" stroke-width="5.94669"/>
<path d="M40.3005 6.12188C40.9261 5.73087 41.2692 5.68406 41.9029 5.78967C42.034 5.81152 42.2934 5.90654 42.3914 6.00463C42.4566 6.06977 42.679 6.20005 42.5869 6.20005C41.9698 6.20005 41.334 6.35639 40.7499 6.35639" fill="none" opacity="1" stroke="#d5694f" stroke-linecap="round" stroke-linejoin="round" stroke-opacity="0.513513" stroke-width="1.54963"/>
<path d="M38.8294 7.71412C38.3387 8.85906 37.6966 13.6616 39.5748 13.9506C41.3765 14.2278 43.6111 10.3788 43.8113 8.87777C43.8936 8.26047 43.5931 7.78606 43.5931 7.2232" fill="none" opacity="1" stroke="#a3a3a3" stroke-linecap="round" stroke-linejoin="round" stroke-width="1.54963"/>
<path d="M44.088 6.99415C44.088 4.91092 41.3207 3.29309 39.6716 4.94226C39.405 5.20881 38.399 7.32404 38.6163 7.54132C38.6798 7.60482 39.503 7.40193 39.5934 7.38499C40.3615 7.24096 41.2356 7.28728 42.0166 7.28728C42.9636 7.28728 43.9045 7.18831 44.8501 7.15049C46.2325 7.09519 47.6212 6.75965 48.993 6.75965" fill="none" opacity="1" stroke="#d5694f" stroke-linecap="round" stroke-linejoin="round" stroke-width="1.54963"/>
<g opacity="1" vectornator:layerName="Gruppieren 2">
<path d="M55.5431 16.4201C55.5431 13.7614 57.6984 11.6061 60.3571 11.6061C63.0157 11.6061 65.171 13.7614 65.171 16.4201C65.171 19.0788 63.0157 21.234 60.3571 21.234C57.6984 21.234 55.5431 19.0788 55.5431 16.4201Z" fill="#ffffff" fill-rule="nonzero" opacity="1" stroke="#224767" stroke-linecap="round" stroke-linejoin="round" stroke-width="2.02876" vectornator:layerName="Oval 1"/>
<path d="M61.0113 12.016C64.2107 13.6157 63.8283 17.3779 61.871 19.8246C61.4864 20.3053 60.8163 20.5516 60.2949 20.8991" fill="none" opacity="1" stroke="#224767" stroke-linecap="round" stroke-linejoin="round" stroke-opacity="0.538288" stroke-width="2.4" vectornator:layerName="Kurve 1"/>
</g>
<g opacity="0.397287" vectornator:layerName="Gruppieren 3">
<path d="M70.4854 18.1655C70.4854 15.5068 72.6407 13.3515 75.2994 13.3515C77.9581 13.3515 80.1133 15.5068 80.1133 18.1655C80.1133 20.8242 77.9581 22.9794 75.2994 22.9794C72.6407 22.9794 70.4854 20.8242 70.4854 18.1655Z" fill="#ffffff" fill-rule="nonzero" opacity="1" stroke="#224767" stroke-linecap="round" stroke-linejoin="round" stroke-width="2.02876" vectornator:layerName="Oval 1"/>
<path d="M75.9536 13.7614C79.153 15.3611 78.7706 19.1233 76.8133 21.57C76.4287 22.0507 75.7586 22.297 75.2373 22.6445" fill="none" opacity="1" stroke="#224767" stroke-linecap="round" stroke-linejoin="round" stroke-opacity="0.538288" stroke-width="2.4" vectornator:layerName="Kurve 1"/>
</g>
<g opacity="0.3" vectornator:layerName="Gruppieren 4">
<path d="M85.5054 22.4811C85.5054 19.8224 87.6607 17.6671 90.3194 17.6671C92.9781 17.6671 95.1334 19.8224 95.1334 22.4811C95.1334 25.1397 92.9781 27.295 90.3194 27.295C87.6607 27.295 85.5054 25.1397 85.5054 22.4811Z" fill="#ffffff" fill-rule="nonzero" opacity="1" stroke="#224767" stroke-linecap="round" stroke-linejoin="round" stroke-width="2.4" vectornator:layerName="Oval 1"/>
<path d="M90.9737 18.077C94.173 19.6766 93.7906 23.4389 91.8333 25.8855C91.4487 26.3663 90.7786 26.6126 90.2573 26.9601" fill="none" opacity="1" stroke="#224767" stroke-linecap="round" stroke-linejoin="round" stroke-opacity="0.538288" stroke-width="2.4" vectornator:layerName="Kurve 1"/>
</g>
<g opacity="0.2" vectornator:layerName="Gruppieren 5">
<path d="M101.171 29.5876C101.171 26.9289 103.326 24.7736 105.985 24.7736C108.643 24.7736 110.799 26.9289 110.799 29.5876C110.799 32.2462 108.643 34.4015 105.985 34.4015C103.326 34.4015 101.171 32.2462 101.171 29.5876Z" fill="#ffffff" fill-rule="nonzero" opacity="1" stroke="#224767" stroke-linecap="round" stroke-linejoin="round" stroke-width="2.4" vectornator:layerName="Oval 1"/>
<path d="M106.639 25.1835C109.838 26.7831 109.456 30.5454 107.498 32.992C107.114 33.4728 106.444 33.7191 105.922 34.0666" fill="none" opacity="1" stroke="#224767" stroke-linecap="round" stroke-linejoin="round" stroke-opacity="0.538288" stroke-width="2.4" vectornator:layerName="Kurve 1"/>
</g>
<g opacity="0.1" vectornator:layerName="Gruppieren 6">
<path d="M115.458 42.8811C115.458 40.2224 117.614 38.0671 120.272 38.0671C122.931 38.0671 125.086 40.2224 125.086 42.8811C125.086 45.5398 122.931 47.6951 120.272 47.6951C117.614 47.6951 115.458 45.5398 115.458 42.8811Z" fill="#ffffff" fill-rule="nonzero" opacity="1" stroke="#224767" stroke-linecap="round" stroke-linejoin="round" stroke-width="2.4" vectornator:layerName="Oval 1"/>
<path d="M120.927 38.477C124.126 40.0767 123.744 43.8389 121.786 46.2856C121.402 46.7663 120.732 47.0126 120.21 47.3602" fill="none" opacity="1" stroke="#224767" stroke-linecap="round" stroke-linejoin="round" stroke-opacity="0.538288" stroke-width="2.4" vectornator:layerName="Kurve 1"/>
</g>
<path d="M22.172 43.9108C23.7123 43.1407 29.3046 43.7706 31.2239 43.6747C39.646 43.2536 48.3067 43.2811 56.7267 43.2811" fill="none" opacity="1" stroke="#eebf5b" stroke-linecap="round" stroke-linejoin="round" stroke-width="2.4" vectornator:layerName="Kurve 2"/>
<path d="M50.6512 45.3263C50.8574 45.3027 50.2884 45.28 50.1777 45.2985C49.8479 45.3534 49.389 45.8817 49.2863 46.1898C49.0453 46.9129 49.1589 47.94 50.0105 48.1955C51.127 48.5304 52.0811 47.4427 51.9604 46.357C51.8644 45.493 50.5166 45.3417 50.6512 45.3263Z" fill="none" opacity="1" stroke="#a3a3a3" stroke-linecap="round" stroke-linejoin="round" stroke-width="1.5" vectornator:layerName="Kurve 4"/>
<path d="M28.6374 46.0365C28.8435 46.0129 28.2745 45.9902 28.1638 46.0087C27.834 46.0636 27.3751 46.5919 27.2724 46.9001C27.0314 47.6232 27.145 48.6502 27.9967 48.9057C29.1131 49.2406 30.0672 48.1529 29.9466 47.0672C29.8506 46.2032 28.5027 46.052 28.6374 46.0365Z" fill="none" opacity="1" stroke="#a3a3a3" stroke-linecap="round" stroke-linejoin="round" stroke-width="1.5" vectornator:layerName="Kurve 5"/>
</g>
<g id="Ebene-3" vectornator:layerName="Ebene 3"/>
<g clip-path="url(#ArtboardFrame)" id="Ebene-4" vectornator:layerName="Ebene 4">
<path d="M169.061 208.893C168.457 209.347 167.72 209.66 167.244 210.246C166.929 210.634 166.947 211.2 166.821 211.684C165.918 215.145 171.008 216.237 172.739 213.121C173.907 211.019 171.223 207.27 169.061 208.893Z" fill="none" opacity="1" stroke="#a3a3a3" stroke-linecap="round" stroke-linejoin="round" stroke-width="1.54963"/>
<path d="M169.526 215.826C169.526 217.264 169.442 218.7 169.442 220.138" fill="none" opacity="1" stroke="#a3a3a3" stroke-linecap="round" stroke-linejoin="round" stroke-width="1.54963"/>
<path d="M169.442 220.307C171.455 218.294 174.447 217.162 176.459 215.15" fill="none" opacity="1" stroke="#a3a3a3" stroke-linecap="round" stroke-linejoin="round" stroke-width="1.54963"/>
<path d="M168.765 220.307C168.681 220.307 168.583 220.353 168.512 220.307C166.683 219.134 164.902 217.888 163.101 216.672C162.66 216.374 161.372 215.45 161.748 215.826" fill="none" opacity="1" stroke="#a3a3a3" stroke-linecap="round" stroke-linejoin="round" stroke-width="1.54963"/>
<path d="M168.934 221.068C168.934 222.929 168.85 224.788 168.85 226.648" fill="none" opacity="1" stroke="#a3a3a3" stroke-linecap="round" stroke-linejoin="round" stroke-width="1.54963"/>
<path d="M168.427 227.24C167.801 229.119 166.814 230.857 165.975 232.651C165.367 233.953 164.748 235.251 164.115 236.541C163.865 237.051 163.608 237.886 163.608 237.048" fill="none" opacity="1" stroke="#a3a3a3" stroke-linecap="round" stroke-linejoin="round" stroke-width="1.54963"/>
<path d="M168.765 227.071C168.765 227.128 168.744 227.188 168.765 227.24C169.704 229.587 170.619 231.945 171.64 234.258C172.099 235.297 172.386 236.587 173.331 237.217C173.405 237.266 173.387 237.048 173.416 236.963" fill="none" opacity="1" stroke="#a3a3a3" stroke-linecap="round" stroke-linejoin="round" stroke-width="1.54963"/>
<path d="M170.452 211.445C170.404 211.492 170.357 211.539 170.31 211.586" fill="none" opacity="1" stroke="#a3a3a3" stroke-linecap="round" stroke-linejoin="round" stroke-opacity="0.533783" stroke-width="5.94669"/>
<path d="M53.4451 211.666C53.3724 211.677 53.4694 211.42 53.4017 211.449C52.4759 211.846 51.4671 212.163 50.7164 212.835C48.4563 214.857 51.4273 219.002 53.9215 218.725C57.9062 218.283 57.931 210.949 53.4451 211.666Z" fill="none" opacity="1" stroke="#a3a3a3" stroke-linecap="round" stroke-linejoin="round" stroke-width="1.54963"/>
<path d="M52.6655 219.375C51.4101 218.478 49.5372 222.303 49.1572 223.316C47.739 227.098 47.6037 232.169 48.8974 236.05C49.2969 237.248 50.4947 239.488 51.9292 239.775C53.685 240.126 55.7753 235.166 56.2603 233.711C57.2245 230.818 58.162 223.658 56.087 221.064C55.2769 220.051 53.6175 220.055 52.6655 219.375Z" fill="none" opacity="1" stroke="#a3a3a3" stroke-linecap="round" stroke-linejoin="round" stroke-width="1.54963"/>
<path d="M82.8101 210.28C82.3162 210.913 81.0828 210.448 80.5146 211.016C78.5995 212.931 79.0559 218.051 82.5069 217.859C85.237 217.707 88.8835 212.619 86.2317 210.409C85.7133 209.978 83.4568 209.45 82.8101 210.28Z" fill="none" opacity="1" stroke="#a3a3a3" stroke-linecap="round" stroke-linejoin="round" stroke-width="1.54963"/>
<path d="M81.1643 218.725C79.6752 218.596 78.5248 222.52 78.349 223.663C77.7273 227.704 78.3526 230.593 83.0267 230.593C86.5124 230.593 88.2857 224.306 87.0113 221.757C86.2555 220.246 85.2261 219.099 83.5464 218.725C82.2888 218.446 81.3699 218.743 81.1643 218.725Z" fill="none" opacity="1" stroke="#a3a3a3" stroke-linecap="round" stroke-linejoin="round" stroke-width="1.54963"/>
<path d="M79.8216 230.939C78.8226 232.937 78.7284 235.271 78.1758 237.436C78.0492 237.931 77.6186 239.405 77.7427 238.908" fill="none" opacity="1" stroke="#a3a3a3" stroke-linecap="round" stroke-linejoin="round" stroke-width="1.54963"/>
<path d="M84.326 230.766C84.9514 233.58 85.6912 236.419 87.1845 238.908" fill="none" opacity="1" stroke="#a3a3a3" stroke-linecap="round" stroke-linejoin="round" stroke-width="1.54963"/>
<path d="M125.501 215.685C126.562 215.837 123.374 216.331 122.599 217.071C122.066 217.58 122.229 218.503 122.166 219.237C122.043 220.669 123.788 221.774 125.024 221.836C126.783 221.924 128.878 220.118 128.663 218.284C128.555 217.368 127.994 216.302 127.103 215.945C126.901 215.865 124.274 215.511 125.501 215.685Z" fill="none" opacity="1" stroke="#a3a3a3" stroke-linecap="round" stroke-linejoin="round" stroke-width="1.54963"/>
<path d="M123.985 222.225C123.859 222.326 123.598 222.287 123.552 222.442C122.727 225.23 121.808 227.999 121.213 230.844C120.883 232.422 123.703 234.56 125.024 234.483C126.061 234.422 126.999 233.183 127.536 232.404C129.471 229.598 130.131 226.469 128.229 223.481C127.387 222.158 125.452 221.047 123.985 222.225Z" fill="none" opacity="1" stroke="#a3a3a3" stroke-linecap="round" stroke-linejoin="round" stroke-width="1.54963"/>
<path d="M122.686 234.742C121.735 237.356 121.418 240.159 120.866 242.885C120.77 243.36 120.78 243.614 120.78 243.231" fill="none" opacity="1" stroke="#a3a3a3" stroke-linecap="round" stroke-linejoin="round" stroke-width="1.54963"/>
<path d="M125.284 235.522C124.8 237.458 126.176 239.416 126.757 241.326C127.041 242.26 127.401 243.171 127.71 244.098" fill="none" opacity="1" stroke="#a3a3a3" stroke-linecap="round" stroke-linejoin="round" stroke-width="1.54963"/>
<path d="M121.733 226.427C120.239 227.621 118.61 228.861 117.748 230.584" fill="none" opacity="1" stroke="#a3a3a3" stroke-linecap="round" stroke-linejoin="round" stroke-width="1.54963"/>
<path d="M129.096 226.773C130.831 227.641 132.403 228.824 134.206 229.545" fill="none" opacity="1" stroke="#a3a3a3" stroke-linecap="round" stroke-linejoin="round" stroke-width="1.54963"/>
<path d="M248.411 199.751C247.468 201.166 247.278 202.981 247.046 204.666C246.899 205.726 247.006 206.818 247.182 207.874C247.363 208.959 249.272 208.439 249.776 208.079C251.448 206.885 252.78 204.768 252.78 202.686C252.78 201.192 251.963 198.725 250.118 199.956" fill="none" opacity="1" stroke="#a3a3a3" stroke-linecap="round" stroke-linejoin="round" stroke-width="1.54963"/>
<path d="M245.203 213.881C246.842 213.881 248.479 213.793 250.118 213.745C254.705 213.609 253.743 213.021 253.667 217.021C253.655 217.681 253.667 218.341 253.667 219.001C253.667 219.684 253.667 220.366 253.667 221.049C253.667 222.034 254.095 226.088 253.736 226.988C253.664 227.167 251.69 227.501 251.551 227.534C249.316 228.071 246.951 228.285 244.657 228.285C244.544 228.285 241.721 228.118 241.721 227.944C241.721 227.537 242.533 225.23 242.609 224.803C243.123 221.903 243.359 218.979 243.769 216.066C243.807 215.798 244.247 212.532 244.247 212.789" fill="none" opacity="1" stroke="#a3a3a3" stroke-linecap="round" stroke-linejoin="round" stroke-width="1.54963"/>
<path d="M243.769 234.77C243.162 237.683 243.163 240.689 242.813 243.644C242.802 243.737 242.54 243.67 242.54 243.576" fill="none" opacity="1" stroke="#a3a3a3" stroke-linecap="round" stroke-linejoin="round" stroke-width="1.54963"/>
<path d="M249.64 235.316C249.144 238.293 250.092 241.327 250.322 244.327" fill="none" opacity="1" stroke="#a3a3a3" stroke-linecap="round" stroke-linejoin="round" stroke-width="1.54963"/>
<path d="M257.9 215.724C260.119 213.335 262.252 210.788 264.862 208.83" fill="none" opacity="1" stroke="#a3a3a3" stroke-linecap="round" stroke-linejoin="round" stroke-width="1.54963"/>
<path d="M233.734 210.059C232.536 209.16 236.32 214.214 237.421 215.315" fill="none" opacity="1" stroke="#a3a3a3" stroke-linecap="round" stroke-linejoin="round" stroke-width="1.54963"/>
<path d="M199.354 213.2C199.354 215.969 201.254 218.402 202.243 220.989C203.307 223.771 204.43 226.498 205.509 229.28C206.051 230.677 206.523 232.064 207.142 233.425C207.329 233.836 207.394 235.057 207.645 234.681C208.785 232.97 209.409 230.759 210.283 228.903C212.09 225.063 213.99 221.241 215.936 217.471C216.608 216.17 217.233 215.127 218.071 213.954C218.18 213.802 218.426 213.607 218.322 213.452C218.132 213.167 214.887 213.912 214.554 213.954C210.88 214.413 207.069 213.468 203.374 213.326C201.614 213.258 200.06 212.836 198.349 212.572C198.14 212.54 196.332 212.387 196.967 212.07" fill="none" opacity="1" stroke="#a3a3a3" stroke-linecap="round" stroke-linejoin="round" stroke-width="1.54963"/>
<path d="M206.074 204.784C206.394 204.493 207.021 203.367 206.891 203.779C206.37 205.425 204.633 206.844 204.881 208.552C205.089 209.988 206.691 210.987 208.022 211.567C209.843 212.361 212.046 207.415 211.539 206.04C210.774 203.963 206.911 203.352 205.509 205.035C205.377 205.193 205.922 204.922 206.074 204.784Z" fill="none" opacity="1" stroke="#a3a3a3" stroke-linecap="round" stroke-linejoin="round" stroke-width="1.54963"/>
<path d="M211.486 232.143C212.217 235.433 213.22 238.658 214.167 241.893C214.301 242.349 214.419 242.82 214.654 243.233C214.735 243.374 214.654 242.908 214.654 242.746" fill="none" opacity="1" stroke="#a3a3a3" stroke-linecap="round" stroke-linejoin="round" stroke-width="1.54963"/>
<path d="M203.442 231.412C203.28 231.452 203.032 231.385 202.955 231.534C201.908 233.551 201.082 235.675 200.152 237.749C199.497 239.209 198.849 240.673 198.202 242.136C198.188 242.169 197.295 243.653 197.958 242.989" fill="none" opacity="1" stroke="#a3a3a3" stroke-linecap="round" stroke-linejoin="round" stroke-width="1.54963"/>
</g>
</svg>
