<?xml version="1.0" encoding="UTF-8" standalone="no"?>
<!DOCTYPE svg PUBLIC "-//W3C//DTD SVG 1.1//EN" "http://www.w3.org/Graphics/SVG/1.1/DTD/svg11.dtd">
<!-- Created with Vectornator (http://vectornator.io/) -->
<svg height="100%" stroke-miterlimit="10" style="fill-rule:nonzero;clip-rule:evenodd;stroke-linecap:round;stroke-linejoin:round;" version="1.1" viewBox="0 0 283.5 737.1" width="100%" xml:space="preserve" xmlns="http://www.w3.org/2000/svg" xmlns:vectornator="http://vectornator.io" xmlns:xlink="http://www.w3.org/1999/xlink">
<defs/>
<path d="M0 0L283.5 0L283.5 737.1L0 737.1L0 0Z" fill="#ffffff" fill-rule="nonzero" opacity="1" stroke="none"/>
<clipPath id="ArtboardFrame">
<rect height="737.1" width="283.5" x="0" y="0"/>
</clipPath>
<g clip-path="url(#ArtboardFrame)" id="Ebene-1" vectornator:layerName="Ebene 1">
<g opacity="1" vectornator:layerName="Kurve 174">
<path d="M23.484 23.7577C23.5274 36.0646 24.1988 226.576 24.1988 226.576" fill="none" stroke="#a3a3a3" stroke-linecap="butt" stroke-linejoin="round" stroke-width="2.6489"/>
<g fill="#a3a3a3" stroke="none">
<path d="M32.4823 31.2755L24.5014 21.591L23.472 20.3417L22.4513 21.5982L14.5389 31.3388C14.0777 31.9065 14.1641 32.7407 14.7318 33.2019C15.2996 33.6631 16.1337 33.5767 16.5949 33.0089L24.5073 23.2684L22.4572 23.2756L30.4381 32.9601C30.9033 33.5246 31.738 33.6051 32.3025 33.1399C32.867 32.6748 32.9475 31.84 32.4823 31.2755Z" fill="#a3a3a3"/>
</g>
</g>
<g opacity="1" vectornator:layerName="Linie 17">
<path d="M250.961 226.969C237.769 226.969 23.7811 226.969 23.7811 226.969" fill="none" stroke="#a3a3a3" stroke-linecap="butt" stroke-linejoin="round" stroke-width="2.6489"/>
<g fill="#a3a3a3" stroke="none">
<path d="M243.411 235.94L253.124 227.994L254.377 226.969L253.124 225.943L243.411 217.997C242.845 217.534 242.011 217.617 241.548 218.183C241.084 218.749 241.168 219.584 241.734 220.047L251.447 227.994L251.447 225.943L241.734 233.89C241.168 234.353 241.084 235.188 241.548 235.754C242.011 236.32 242.845 236.403 243.411 235.94Z" fill="#a3a3a3"/>
</g>
</g>
<path d="M233.126 208.982C233.729 212.604 229.383 222.292 236.19 218.888" fill="none" opacity="1" stroke="#224767" stroke-linecap="round" stroke-linejoin="round" stroke-width="2" vectornator:layerName="Kurve 48"/>
<path d="M230.266 213.884C229.924 213.884 230.945 213.978 231.287 213.986C232.683 214.021 234.226 213.362 235.475 213.986" fill="none" opacity="1" stroke="#224767" stroke-linecap="round" stroke-linejoin="round" stroke-width="2" vectornator:layerName="Kurve 49"/>
<path d="M625.872 541.147L626.375 541.649" fill="none" opacity="1" stroke="#224767" stroke-linecap="round" stroke-linejoin="round" stroke-width="1.54963" vectornator:layerName="Kurve 173"/>
<path d="M23.2625 59.4542C23.2625 59.4542 79.5939 56.9795 85.777 61.1616C120.152 84.4127 108.308 80.9883 153.552 101.995C198.797 123.001 233.193 127.748 233.193 127.748" fill="none" opacity="1" stroke="#eebf5b" stroke-linecap="butt" stroke-linejoin="round" stroke-width="3" vectornator:layerName="Kurve 175"/>
<path d="M84.3683 42.9768C84.3683 46.2123 84.3968 49.4286 84.7975 52.6343" fill="none" opacity="1" stroke="#d1d1d1" stroke-linecap="round" stroke-linejoin="round" stroke-width="2" vectornator:layerName="Kurve 176"/>
<path d="M85.2267 58.6434C84.0667 60.9633 85.4413 64.759 85.4413 67.4424" fill="none" opacity="1" stroke="#d1d1d1" stroke-linecap="round" stroke-linejoin="round" stroke-width="2" vectornator:layerName="Kurve 177"/>
<path d="M85.4413 78.8168C86.071 81.3355 85.8706 83.958 85.8706 86.5428" fill="none" opacity="1" stroke="#d1d1d1" stroke-linecap="round" stroke-linejoin="round" stroke-width="2" vectornator:layerName="Kurve 178"/>
<path d="M85.8706 94.4834C85.8706 96.99 86.0852 99.4871 86.0852 101.995" fill="none" opacity="1" stroke="#d1d1d1" stroke-linecap="round" stroke-linejoin="round" stroke-width="2" vectornator:layerName="Kurve 179"/>
<path d="M86.0852 109.935C86.0852 112.94 86.0852 115.944 86.0852 118.949" fill="none" opacity="1" stroke="#d1d1d1" stroke-linecap="round" stroke-linejoin="round" stroke-width="2" vectornator:layerName="Kurve 180"/>
<path d="M86.2998 127.748C85.4803 129.387 86.0852 132.242 86.0852 134.186" fill="none" opacity="1" stroke="#d1d1d1" stroke-linecap="round" stroke-linejoin="round" stroke-width="2" vectornator:layerName="Kurve 181"/>
<path d="M86.0852 142.556C86.0852 145.203 86.0852 147.85 86.0852 150.497" fill="none" opacity="1" stroke="#d1d1d1" stroke-linecap="round" stroke-linejoin="round" stroke-width="2" vectornator:layerName="Kurve 182"/>
<path d="M86.2998 158.223C86.2998 160.54 85.4667 164.497 86.5144 166.593" fill="none" opacity="1" stroke="#d1d1d1" stroke-linecap="round" stroke-linejoin="round" stroke-width="2" vectornator:layerName="Kurve 183"/>
<path d="M86.729 175.177C86.729 176.969 86.5144 178.75 86.5144 180.542" fill="none" opacity="1" stroke="#d1d1d1" stroke-linecap="round" stroke-linejoin="round" stroke-width="2" vectornator:layerName="Kurve 184"/>
<path d="M86.729 189.341C86.729 191.786 87.1582 194.203 87.1582 196.638" fill="none" opacity="1" stroke="#d1d1d1" stroke-linecap="round" stroke-linejoin="round" stroke-width="2" vectornator:layerName="Kurve 185"/>
<path d="M86.9436 203.935C86.9436 206.809 87.5875 209.646 87.5875 212.519" fill="none" opacity="1" stroke="#d1d1d1" stroke-linecap="round" stroke-linejoin="round" stroke-width="2" vectornator:layerName="Kurve 186"/>
<path d="M87.8021 219.601C87.2409 221.846 87.8021 224.8 87.8021 227.113" fill="none" opacity="1" stroke="#d1d1d1" stroke-linecap="round" stroke-linejoin="round" stroke-width="2" vectornator:layerName="Kurve 187"/>
<path d="M38.6562 30.9586C41.1424 32.2017 39.3503 36.3573 41.2315 37.6115C41.5568 37.8283 42.4792 34.9176 42.5192 34.8216C43.3405 32.8505 44.586 31.3994 45.7383 29.6709" fill="none" opacity="1" stroke="#224767" stroke-linecap="round" stroke-linejoin="round" stroke-width="2" vectornator:layerName="Kurve 188"/>
<g opacity="1" vectornator:layerName="Kurve 189">
<path d="M23.484 262.364C23.5274 274.671 24.1988 465.183 24.1988 465.183" fill="none" stroke="#a3a3a3" stroke-linecap="butt" stroke-linejoin="round" stroke-width="2.6489"/>
<g fill="#a3a3a3" stroke="none">
<path d="M32.4823 269.882L24.5014 260.198L23.472 258.948L22.4513 260.205L14.5389 269.945C14.0777 270.513 14.1641 271.347 14.7318 271.808C15.2996 272.27 16.1337 272.183 16.5949 271.615L24.5073 261.875L22.4572 261.882L30.4381 271.567C30.9033 272.131 31.738 272.212 32.3025 271.747C32.867 271.281 32.9475 270.447 32.4823 269.882Z" fill="#a3a3a3"/>
</g>
</g>
<g opacity="1" vectornator:layerName="Linie 18">
<path d="M250.961 465.575C237.769 465.575 23.7811 465.575 23.7811 465.575" fill="none" stroke="#a3a3a3" stroke-linecap="butt" stroke-linejoin="round" stroke-width="2.6489"/>
<g fill="#a3a3a3" stroke="none">
<path d="M243.411 474.547L253.124 466.6L254.377 465.575L253.124 464.55L243.411 456.603C242.845 456.14 242.011 456.224 241.548 456.79C241.084 457.356 241.168 458.19 241.734 458.653L251.447 466.6L251.447 464.55L241.734 472.497C241.168 472.96 241.084 473.794 241.548 474.36C242.011 474.927 242.845 475.01 243.411 474.547Z" fill="#a3a3a3"/>
</g>
</g>
<path d="M233.126 447.589C233.729 451.21 229.383 460.898 236.19 457.495" fill="none" opacity="1" stroke="#224767" stroke-linecap="round" stroke-linejoin="round" stroke-width="2" vectornator:layerName="Kurve 190"/>
<path d="M230.266 452.491C229.924 452.491 230.945 452.584 231.287 452.593C232.683 452.628 234.226 451.969 235.475 452.593" fill="none" opacity="1" stroke="#224767" stroke-linecap="round" stroke-linejoin="round" stroke-width="2" vectornator:layerName="Kurve 191"/>
<path d="M23.2625 298.061C23.2625 298.061 79.5939 295.586 85.777 299.768C120.152 323.019 181.262 465.183 181.262 465.183" fill="none" opacity="1" stroke="#eebf5b" stroke-linecap="butt" stroke-linejoin="round" stroke-width="3" vectornator:layerName="Kurve 192"/>
<path d="M84.3683 281.583C84.3683 284.819 84.3968 288.035 84.7975 291.241" fill="none" opacity="1" stroke="#d1d1d1" stroke-linecap="round" stroke-linejoin="round" stroke-width="2" vectornator:layerName="Kurve 193"/>
<path d="M85.2267 297.25C84.0667 299.57 85.4413 303.366 85.4413 306.049" fill="none" opacity="1" stroke="#d1d1d1" stroke-linecap="round" stroke-linejoin="round" stroke-width="2" vectornator:layerName="Kurve 194"/>
<path d="M85.4413 317.423C86.071 319.942 85.8706 322.565 85.8706 325.149" fill="none" opacity="1" stroke="#d1d1d1" stroke-linecap="round" stroke-linejoin="round" stroke-width="2" vectornator:layerName="Kurve 195"/>
<path d="M85.8706 333.09C85.8706 335.597 86.0852 338.094 86.0852 340.601" fill="none" opacity="1" stroke="#d1d1d1" stroke-linecap="round" stroke-linejoin="round" stroke-width="2" vectornator:layerName="Kurve 196"/>
<path d="M86.0852 348.542C86.0852 351.546 86.0852 354.551 86.0852 357.556" fill="none" opacity="1" stroke="#d1d1d1" stroke-linecap="round" stroke-linejoin="round" stroke-width="2" vectornator:layerName="Kurve 197"/>
<path d="M86.2998 366.355C85.4803 367.994 86.0852 370.849 86.0852 372.793" fill="none" opacity="1" stroke="#d1d1d1" stroke-linecap="round" stroke-linejoin="round" stroke-width="2" vectornator:layerName="Kurve 198"/>
<path d="M86.0852 381.163C86.0852 383.81 86.0852 386.457 86.0852 389.103" fill="none" opacity="1" stroke="#d1d1d1" stroke-linecap="round" stroke-linejoin="round" stroke-width="2" vectornator:layerName="Kurve 199"/>
<path d="M86.2998 396.829C86.2998 399.147 85.4667 403.104 86.5144 405.199" fill="none" opacity="1" stroke="#d1d1d1" stroke-linecap="round" stroke-linejoin="round" stroke-width="2" vectornator:layerName="Kurve 200"/>
<path d="M86.729 413.784C86.729 415.575 86.5144 417.356 86.5144 419.149" fill="none" opacity="1" stroke="#d1d1d1" stroke-linecap="round" stroke-linejoin="round" stroke-width="2" vectornator:layerName="Kurve 201"/>
<path d="M86.729 427.948C86.729 430.393 87.1582 432.809 87.1582 435.245" fill="none" opacity="1" stroke="#d1d1d1" stroke-linecap="round" stroke-linejoin="round" stroke-width="2" vectornator:layerName="Kurve 202"/>
<path d="M86.9436 442.541C86.9436 445.415 87.5875 448.253 87.5875 451.126" fill="none" opacity="1" stroke="#d1d1d1" stroke-linecap="round" stroke-linejoin="round" stroke-width="2" vectornator:layerName="Kurve 203"/>
<path d="M87.8021 458.208C87.2409 460.453 87.8021 463.407 87.8021 465.719" fill="none" opacity="1" stroke="#d1d1d1" stroke-linecap="round" stroke-linejoin="round" stroke-width="2" vectornator:layerName="Kurve 204"/>
<path d="M38.6562 269.565C41.1424 270.808 39.3503 274.964 41.2315 276.218C41.5568 276.435 42.4792 273.524 42.5192 273.428C43.3405 271.457 44.586 270.006 45.7383 268.277" fill="none" opacity="1" stroke="#224767" stroke-linecap="round" stroke-linejoin="round" stroke-width="2" vectornator:layerName="Kurve 205"/>
<g opacity="1" vectornator:layerName="Kurve 206">
<path d="M24.4203 507.396C24.4636 519.703 25.135 710.215 25.135 710.215" fill="none" stroke="#a3a3a3" stroke-linecap="butt" stroke-linejoin="round" stroke-width="2.6489"/>
<g fill="#a3a3a3" stroke="none">
<path d="M33.4186 514.914L25.4377 505.23L24.4082 503.98L23.3876 505.237L15.4752 514.977C15.014 515.545 15.1003 516.379 15.6681 516.84C16.2359 517.302 17.07 517.215 17.5312 516.647L25.4436 506.907L23.3935 506.914L31.3744 516.599C31.8395 517.163 32.6743 517.244 33.2388 516.778C33.8032 516.313 33.8838 515.479 33.4186 514.914Z" fill="#a3a3a3"/>
</g>
</g>
<g opacity="1" vectornator:layerName="Linie 19">
<path d="M251.897 710.607C238.706 710.607 24.7174 710.607 24.7174 710.607" fill="none" stroke="#a3a3a3" stroke-linecap="butt" stroke-linejoin="round" stroke-width="2.6489"/>
<g fill="#a3a3a3" stroke="none">
<path d="M244.348 719.579L254.06 711.632L255.313 710.607L254.06 709.582L244.348 701.635C243.781 701.172 242.947 701.256 242.484 701.822C242.021 702.388 242.104 703.222 242.67 703.685L252.383 711.632L252.383 709.582L242.67 717.529C242.104 717.992 242.021 718.826 242.484 719.392C242.947 719.959 243.781 720.042 244.348 719.579Z" fill="#a3a3a3"/>
</g>
</g>
<path d="M234.062 692.621C234.666 696.242 230.319 705.93 237.126 702.527" fill="none" opacity="1" stroke="#224767" stroke-linecap="round" stroke-linejoin="round" stroke-width="2" vectornator:layerName="Kurve 207"/>
<path d="M231.202 697.523C230.86 697.523 231.882 697.616 232.224 697.625C233.619 697.66 235.163 697.001 236.411 697.625" fill="none" opacity="1" stroke="#224767" stroke-linecap="round" stroke-linejoin="round" stroke-width="2" vectornator:layerName="Kurve 208"/>
<path d="M24.1988 543.093C24.1988 543.093 80.5302 540.618 86.7133 544.8C102.89 555.742 108.733 622.709 108.733 622.709L117.585 710.215" fill="none" opacity="1" stroke="#eebf5b" stroke-linecap="butt" stroke-linejoin="round" stroke-width="3" vectornator:layerName="Kurve 209"/>
<path d="M85.3045 526.615C85.3045 529.851 85.3331 533.067 85.7338 536.273" fill="none" opacity="1" stroke="#d1d1d1" stroke-linecap="round" stroke-linejoin="round" stroke-width="2" vectornator:layerName="Kurve 210"/>
<path d="M86.163 542.282C85.003 544.602 86.3776 548.398 86.3776 551.081" fill="none" opacity="1" stroke="#d1d1d1" stroke-linecap="round" stroke-linejoin="round" stroke-width="2" vectornator:layerName="Kurve 211"/>
<path d="M86.3776 562.455C87.0073 564.974 86.8068 567.597 86.8068 570.181" fill="none" opacity="1" stroke="#d1d1d1" stroke-linecap="round" stroke-linejoin="round" stroke-width="2" vectornator:layerName="Kurve 212"/>
<path d="M86.8068 578.122C86.8068 580.629 87.0214 583.126 87.0214 585.633" fill="none" opacity="1" stroke="#d1d1d1" stroke-linecap="round" stroke-linejoin="round" stroke-width="2" vectornator:layerName="Kurve 213"/>
<path d="M87.0214 593.574C87.0214 596.578 87.0214 599.583 87.0214 602.588" fill="none" opacity="1" stroke="#d1d1d1" stroke-linecap="round" stroke-linejoin="round" stroke-width="2" vectornator:layerName="Kurve 214"/>
<path d="M87.236 611.387C86.4166 613.026 87.0214 615.881 87.0214 617.825" fill="none" opacity="1" stroke="#d1d1d1" stroke-linecap="round" stroke-linejoin="round" stroke-width="2" vectornator:layerName="Kurve 215"/>
<path d="M87.0214 626.195C87.0214 628.842 87.0214 631.488 87.0214 634.135" fill="none" opacity="1" stroke="#d1d1d1" stroke-linecap="round" stroke-linejoin="round" stroke-width="2" vectornator:layerName="Kurve 216"/>
<path d="M87.236 641.861C87.236 644.179 86.4029 648.136 87.4507 650.231" fill="none" opacity="1" stroke="#d1d1d1" stroke-linecap="round" stroke-linejoin="round" stroke-width="2" vectornator:layerName="Kurve 217"/>
<path d="M87.6653 658.816C87.6653 660.607 87.4507 662.388 87.4507 664.181" fill="none" opacity="1" stroke="#d1d1d1" stroke-linecap="round" stroke-linejoin="round" stroke-width="2" vectornator:layerName="Kurve 218"/>
<path d="M87.6653 672.98C87.6653 675.425 88.0945 677.841 88.0945 680.277" fill="none" opacity="1" stroke="#d1d1d1" stroke-linecap="round" stroke-linejoin="round" stroke-width="2" vectornator:layerName="Kurve 219"/>
<path d="M87.8799 687.573C87.8799 690.447 88.5237 693.285 88.5237 696.158" fill="none" opacity="1" stroke="#d1d1d1" stroke-linecap="round" stroke-linejoin="round" stroke-width="2" vectornator:layerName="Kurve 220"/>
<path d="M88.7383 703.24C88.1771 705.485 88.7383 708.439 88.7383 710.751" fill="none" opacity="1" stroke="#d1d1d1" stroke-linecap="round" stroke-linejoin="round" stroke-width="2" vectornator:layerName="Kurve 221"/>
<path d="M39.5924 514.597C42.0787 515.84 40.2865 519.996 42.1678 521.25C42.493 521.467 43.4154 518.556 43.4554 518.46C44.2767 516.489 45.5222 515.038 46.6746 513.309" fill="none" opacity="1" stroke="#224767" stroke-linecap="round" stroke-linejoin="round" stroke-width="2" vectornator:layerName="Kurve 222"/>
</g>
</svg>
