<?xml version="1.0" encoding="UTF-8" standalone="no"?>
<!DOCTYPE svg PUBLIC "-//W3C//DTD SVG 1.1//EN" "http://www.w3.org/Graphics/SVG/1.1/DTD/svg11.dtd">
<!-- Created with Vectornator (http://vectornator.io/) -->
<svg height="100%" stroke-miterlimit="10" style="fill-rule:nonzero;clip-rule:evenodd;stroke-linecap:round;stroke-linejoin:round;" version="1.1" viewBox="0 0 425.25 623.7" width="100%" xml:space="preserve" xmlns="http://www.w3.org/2000/svg" xmlns:vectornator="http://vectornator.io" xmlns:xlink="http://www.w3.org/1999/xlink">
<defs/>
<g id="Ebene-1" vectornator:layerName="Ebene 1">
<path d="M38.0843 30.4408C38.0843 58.455 39.4244 86.3935 39.4244 114.42C39.4244 157.62 38.0843 200.759 38.0843 243.962" fill="none" opacity="1" stroke="#a3a3a3" stroke-linecap="round" stroke-linejoin="round" stroke-width="3.19853"/>
<path d="M36.7442 31.7809C35.2571 34.7553 34.4918 38.9564 32.724 41.6082C32.4762 41.9799 32.6608 40.7103 32.724 40.2681C33.1452 37.3194 33.0989 39.5901 34.0641 36.6946C34.4458 35.5493 34.5743 31.5258 35.8508 30.8875C37.4499 30.088 43.0843 36.7808 44.3381 38.0347" fill="none" opacity="1" stroke="#a3a3a3" stroke-linecap="round" stroke-linejoin="round" stroke-width="3.19853"/>
<g opacity="1">
<path d="M38.3914 244.654C38.9879 243.992 57.5234 244.061 60.0021 244.039C81.3413 243.855 102.689 244.314 124.065 244.13C157.157 243.845 190.439 243.665 223.499 244.131C251.63 244.528 279.868 243.407 307.995 243.832C326.647 244.113 345.544 243.937 364.196 243.776C372.028 243.709 382.209 242.682 389.744 243.985" fill="none" opacity="1" stroke="#a3a3a3" stroke-linecap="round" stroke-linejoin="round" stroke-width="3.19853"/>
<path d="M389.183 244.041C389.182 243.872 389.316 243.631 389.179 243.533C388.682 243.178 381.933 238.769 381.772 238.771C380.872 238.779 383.043 240.075 383.819 240.531C385.405 241.464 387.214 242.14 388.669 243.283C388.857 243.431 389.179 243.547 389.181 243.787C389.184 244.153 382.043 247.339 381.087 247.667" fill="none" opacity="1" stroke="#a3a3a3" stroke-linecap="round" stroke-linejoin="round" stroke-width="3.19853"/>
</g>
<g opacity="1">
<path d="M61.518 161.439C62.3788 159.717 63.1629 157.958 63.9769 156.214C66.1875 151.477 68.6297 146.934 71.6608 142.69C71.7499 142.566 73.1215 139.924 73.1976 139.924C73.4052 139.924 75.9544 145.85 76.2712 146.378C79.2584 151.357 82.9187 155.985 85.492 161.132" fill="none" opacity="1" stroke="#2e6777" stroke-linecap="round" stroke-linejoin="round" stroke-width="3.19853"/>
<path d="M85.1846 161.439C85.1846 158.311 88.4003 156.072 90.1024 153.448C91.8891 150.693 92.4094 149.604 94.4054 147.608" fill="none" opacity="1" stroke="#2e6777" stroke-linecap="round" stroke-linejoin="round" stroke-width="3.19853"/>
<path d="M92.8686 148.837C95.8844 150.848 98.1646 157.667 99.6305 160.824C102.545 167.101 105.627 173.323 108.544 179.573C109.362 181.327 114.351 191.934 114.998 190.638" fill="none" opacity="1" stroke="#2e6777" stroke-linecap="round" stroke-linejoin="round" stroke-width="3.19853"/>
<path d="M113.462 189.716C121.829 156.247 134.86 123.984 145.734 91.3612" fill="none" opacity="1" stroke="#2e6777" stroke-linecap="round" stroke-linejoin="round" stroke-width="3.19853"/>
<path d="M145.853 90.7465C147.833 96.6865 149.8 102.707 152 108.573C153.423 112.368 155.915 115.629 156.918 119.638" fill="none" opacity="1" stroke="#2e6777" stroke-linecap="round" stroke-linejoin="round" stroke-width="3.19853"/>
<path d="M156.303 119.946C158.027 113.049 165.193 107.86 169.212 102.119C169.417 101.826 172.319 97.201 172.593 97.201C173.015 97.201 172.798 98.0207 172.9 98.4305C173.163 99.4829 173.297 100.146 173.822 101.197C174.485 102.523 181.304 112.876 182.121 112.876C183.453 112.876 182.919 110.296 183.658 109.188C186.161 105.433 189.633 101.848 191.649 97.8157C191.752 97.6108 191.727 97.201 191.957 97.201C192.884 97.201 191.971 99.0871 192.264 99.9673C192.792 101.55 193.546 103.494 194.415 104.885C198.529 111.466 203.248 118.074 206.402 125.171C206.82 126.11 209.931 133.928 210.398 134.084C211.053 134.302 212.225 129.615 212.55 128.859C214.621 124.025 217.17 119.317 220.234 115.028C220.578 114.546 221.779 111.65 222.692 111.954C223.334 112.168 224.168 116.442 224.537 117.179C226.688 121.483 230.016 125.526 232.835 129.474C233.018 129.729 235.999 133.614 236.216 133.469C238.439 131.987 241.781 117.487 245.437 117.487C245.727 117.487 245.903 117.853 246.052 118.101C247.022 119.719 248.672 126.204 249.125 128.244C251.611 139.43 257.984 151.559 262.034 162.361C263.116 165.246 263.928 170.726 265.723 173.119C265.755 173.162 266.667 174.184 266.952 174.041C268.249 173.392 268.775 169.713 269.104 168.508C270.529 163.283 273.065 158.764 274.943 153.755C275.474 152.339 276.56 146.82 278.324 146.378C279.02 146.204 280.17 150.761 280.476 151.296C281.388 152.892 290.328 162.959 291.233 162.054C292.729 160.558 292.611 158.141 294 156.521C300.093 149.413 304.458 140.66 310.29 133.162C311.834 131.176 314.856 125.425 317.666 124.863C318.722 124.652 320.501 130.362 321.047 131.318C323.692 135.946 326.877 139.602 329.961 143.92C330.371 144.494 332.081 149.77 333.034 149.452C334.121 149.09 339.712 137.182 340.718 135.314C345.791 125.892 351.71 117.23 357.008 107.959C358.181 105.906 363.462 96.8943 365.307 95.9716" fill="none" opacity="1" stroke="#2e6777" stroke-linecap="round" stroke-linejoin="round" stroke-width="3.19853"/>
</g>
<path d="M83.9369 237.686C83.9369 241.686 83.9369 245.686 83.9369 249.686" fill="none" opacity="1" stroke="#eebf5b" stroke-linecap="round" stroke-linejoin="round" stroke-width="3.19853"/>
<path d="M344.79 237.186C345.448 241.791 345.609 246.054 345.609 250.822" fill="none" opacity="1" stroke="#eebf5b" stroke-linecap="round" stroke-linejoin="round" stroke-width="3.19853"/>
<path d="M219.654 237.731C219.654 236.822 219.654 239.55 219.654 240.459C219.654 243.913 219.654 247.368 219.654 250.822" fill="none" opacity="1" stroke="#eebf5b" stroke-linecap="round" stroke-linejoin="round" stroke-width="3.19853"/>
<path d="M32.5635 189.681C35.8006 188.062 39.7889 191.113 43.1999 189.408" fill="none" opacity="1" stroke="#eebf5b" stroke-linecap="round" stroke-linejoin="round" stroke-width="3.19853"/>
<path d="M33.6544 71.5896C35.6263 71.5896 45.109 69.4307 45.109 71.5896" fill="none" opacity="1" stroke="#eebf5b" stroke-linecap="round" stroke-linejoin="round" stroke-width="3.19853"/>
<path d="M7.16336 75.0035C8.65121 72.9205 9.2992 70.277 10.957 68.3266C11.5226 67.6613 10.6135 70.0403 10.5018 70.9063C10.4109 71.6104 10.3838 72.3216 10.35 73.0307C10.2613 74.8944 10.35 76.7782 10.35 78.6454" fill="none" opacity="1" stroke="#eebf5b" stroke-linecap="round" stroke-linejoin="round" stroke-width="2.09926"/>
<path d="M16.3441 69.7682C13.1097 70.7178 15.3669 73.3277 15.3577 73.7895C15.3393 74.7072 16.042 77.2849 17.6339 76.6727C21.6666 75.1216 22.0908 68.081 16.3441 69.7682Z" fill="none" opacity="1" stroke="#eebf5b" stroke-linecap="round" stroke-linejoin="round" stroke-width="2.09926"/>
<path d="M19.1783 186.085C18.3673 186.572 17.9294 187.733 18.0177 188.674C18.0688 189.219 20.458 189.209 20.3389 190.995C20.1962 193.135 17.3035 192.708 17.3035 192.156" fill="none" opacity="1" stroke="#eebf5b" stroke-linecap="round" stroke-linejoin="round" stroke-width="2.09926"/>
<path d="M18.107 186.442C18.5743 185.508 20.0493 185.661 21.0531 185.371C22.1949 185.04 23.3699 184.927 24.4455 184.389" fill="none" opacity="1" stroke="#eebf5b" stroke-linecap="round" stroke-linejoin="round" stroke-width="2.09926"/>
<path d="M73.1255 260.712C74.6786 259.417 75.5825 257.5 76.778 255.87C76.956 255.627 77.1277 255.365 77.3726 255.19C77.9787 254.757 77.1253 256.66 77.0329 257.399C76.8217 259.088 76.5232 260.874 76.5232 262.58" fill="none" opacity="1" stroke="#eebf5b" stroke-linecap="round" stroke-linejoin="round" stroke-width="2.1"/>
<path d="M81.28 255.19C80.6088 255.862 80.1532 257.001 80.4306 257.909C80.8017 259.123 83.2324 258.256 82.8939 260.287C82.7156 261.357 79.9209 262.643 79.9209 261.221" fill="none" opacity="1" stroke="#eebf5b" stroke-linecap="round" stroke-linejoin="round" stroke-width="2.1"/>
<path d="M80.5155 255.87C80.5155 254.635 84.1613 255.406 85.1025 254.936" fill="none" opacity="1" stroke="#eebf5b" stroke-linecap="round" stroke-linejoin="round" stroke-width="2.1"/>
<path d="M87.226 257.909C87.226 258.078 87.226 258.248 87.226 258.418" fill="none" opacity="1" stroke="#eebf5b" stroke-linecap="round" stroke-linejoin="round" stroke-width="2.1"/>
<path d="M87.1411 260.882C87.1411 260.995 87.1411 261.108 87.1411 261.221" fill="none" opacity="1" stroke="#eebf5b" stroke-linecap="round" stroke-linejoin="round" stroke-width="2.1"/>
<path d="M92.4925 255.445C92.3499 255.591 92.188 254.734 92.1527 254.936C91.8431 256.7 91.341 258.521 91.6431 260.287C91.753 260.929 92.6246 261.233 93.257 261.391C93.5631 261.468 94.398 260.491 94.5311 260.287C95.2249 259.223 95.9914 257.864 95.4655 256.549C95.0155 255.424 93.57 254.341 92.4925 255.445Z" fill="none" opacity="1" stroke="#eebf5b" stroke-linecap="round" stroke-linejoin="round" stroke-width="2.1"/>
<path d="M100.137 255.02C100.081 254.964 100.001 254.778 99.9675 254.851C99.3039 256.293 98.3567 257.689 98.1837 259.268C98.1075 259.963 98.716 260.649 99.2879 261.051C100.213 261.703 101.398 259.987 101.666 259.522C103.364 256.58 100.441 252.775 98.4385 255.445" fill="none" opacity="1" stroke="#eebf5b" stroke-linecap="round" stroke-linejoin="round" stroke-width="2.1"/>
<path d="M205.39 261.418C206.943 260.123 207.847 258.206 209.043 256.576C209.221 256.333 209.393 256.071 209.637 255.896C210.244 255.463 209.39 257.366 209.298 258.105C209.087 259.794 208.788 261.58 208.788 263.286" fill="none" opacity="1" stroke="#eebf5b" stroke-linecap="round" stroke-linejoin="round" stroke-width="2.1"/>
<path d="M219.491 258.615C219.491 258.784 219.491 258.954 219.491 259.124" fill="none" opacity="1" stroke="#eebf5b" stroke-linecap="round" stroke-linejoin="round" stroke-width="2.1"/>
<path d="M219.406 261.588C219.406 261.701 219.406 261.814 219.406 261.927" fill="none" opacity="1" stroke="#eebf5b" stroke-linecap="round" stroke-linejoin="round" stroke-width="2.1"/>
<path d="M224.757 256.151C224.615 256.297 224.453 255.44 224.418 255.642C224.108 257.406 223.606 259.227 223.908 260.993C224.018 261.635 224.889 261.939 225.522 262.097C225.828 262.174 226.663 261.197 226.796 260.993C227.49 259.929 228.256 258.57 227.73 257.255C227.28 256.13 225.835 255.047 224.757 256.151Z" fill="none" opacity="1" stroke="#eebf5b" stroke-linecap="round" stroke-linejoin="round" stroke-width="2.1"/>
<path d="M232.402 255.726C232.346 255.67 232.266 255.484 232.232 255.557C231.569 256.999 230.621 258.395 230.449 259.974C230.372 260.669 230.981 261.355 231.553 261.757C232.478 262.409 233.663 260.693 233.931 260.228C235.629 257.286 232.706 253.481 230.703 256.151" fill="none" opacity="1" stroke="#eebf5b" stroke-linecap="round" stroke-linejoin="round" stroke-width="2.1"/>
<path d="M330.903 260.535C332.456 259.24 333.36 257.323 334.555 255.693C334.733 255.45 334.905 255.188 335.15 255.013C335.756 254.58 334.902 256.483 334.81 257.222C334.599 258.911 334.3 260.697 334.3 262.403" fill="none" opacity="1" stroke="#eebf5b" stroke-linecap="round" stroke-linejoin="round" stroke-width="2.1"/>
<path d="M345.003 257.732C345.003 257.901 345.003 258.071 345.003 258.241" fill="none" opacity="1" stroke="#eebf5b" stroke-linecap="round" stroke-linejoin="round" stroke-width="2.1"/>
<path d="M344.918 260.705C344.918 260.818 344.918 260.931 344.918 261.044" fill="none" opacity="1" stroke="#eebf5b" stroke-linecap="round" stroke-linejoin="round" stroke-width="2.1"/>
<path d="M350.27 255.268C350.127 255.414 349.965 254.557 349.93 254.759C349.62 256.524 349.118 258.344 349.42 260.11C349.53 260.753 350.402 261.056 351.034 261.214C351.34 261.291 352.175 260.314 352.308 260.11C353.002 259.046 353.769 257.687 353.243 256.373C352.793 255.248 351.347 254.164 350.27 255.268Z" fill="none" opacity="1" stroke="#eebf5b" stroke-linecap="round" stroke-linejoin="round" stroke-width="2.1"/>
<path d="M357.915 254.844C357.858 254.787 357.778 254.601 357.745 254.674C357.081 256.116 356.134 257.512 355.961 259.091C355.885 259.786 356.493 260.472 357.065 260.874C357.991 261.526 359.176 259.81 359.444 259.346C361.141 256.403 358.219 252.598 356.216 255.268" fill="none" opacity="1" stroke="#eebf5b" stroke-linecap="round" stroke-linejoin="round" stroke-width="2.1"/>
<path d="M214.55 255.285C213.877 255.621 213.848 256.624 213.603 257.336C213.382 257.979 212.277 263.217 213.498 263.489C215.687 263.975 217.025 258.98 214.129 259.807" fill="none" opacity="1" stroke="#eebf5b" stroke-linecap="round" stroke-linejoin="round" stroke-width="2.1"/>
<path d="M337.728 254.219C338.355 254.219 342.127 254.312 342.146 254.331C342.282 254.467 341.577 256.428 341.552 256.521C341.111 258.174 340.814 260.075 340.141 261.644" fill="none" opacity="1" stroke="#eebf5b" stroke-linecap="round" stroke-linejoin="round" stroke-width="2.1"/>
<path d="M339.287 258.526C339.829 258.255 341.584 258.452 341.886 258.452" fill="none" opacity="1" stroke="#eebf5b" stroke-linecap="round" stroke-linejoin="round" stroke-width="2.1"/>
<path d="M29.1512 138.308C33.5795 138.308 38.0079 138.308 42.4362 138.308" fill="none" opacity="1" stroke="#d5694f" stroke-linecap="round" stroke-linejoin="round" stroke-width="3.19926"/>
<path d="M54.7943 137.999C57.9673 138.352 61.1826 138.144 64.3718 137.999" fill="none" opacity="1" stroke="#d5694f" stroke-linecap="round" stroke-linejoin="round" stroke-width="3.19926"/>
<path d="M75.4941 137.69C79.3057 137.69 83.1739 138.132 86.9253 137.381" fill="none" opacity="1" stroke="#d5694f" stroke-linecap="round" stroke-linejoin="round" stroke-width="3.19926"/>
<path d="M97.7387 137.69C100.828 137.69 103.918 137.69 107.007 137.69" fill="none" opacity="1" stroke="#d5694f" stroke-linecap="round" stroke-linejoin="round" stroke-width="3.19926"/>
<path d="M119.983 137.381C122.985 137.381 125.947 137.072 128.943 137.072" fill="none" opacity="1" stroke="#d5694f" stroke-linecap="round" stroke-linejoin="round" stroke-width="3.19926"/>
<path d="M142.846 136.146C145.935 136.146 149.025 136.146 152.114 136.146" fill="none" opacity="1" stroke="#d5694f" stroke-linecap="round" stroke-linejoin="round" stroke-width="3.19926"/>
<path d="M164.163 135.528C167.562 135.528 170.96 135.528 174.359 135.528" fill="none" opacity="1" stroke="#d5694f" stroke-linecap="round" stroke-linejoin="round" stroke-width="3.19926"/>
<path d="M189.498 135.528C192.478 135.741 195.469 135.837 198.457 135.837" fill="none" opacity="1" stroke="#d5694f" stroke-linecap="round" stroke-linejoin="round" stroke-width="3.19926"/>
<path d="M207.726 136.455C211.142 136.455 214.524 136.763 217.921 136.763" fill="none" opacity="1" stroke="#d5694f" stroke-linecap="round" stroke-linejoin="round" stroke-width="3.19926"/>
<path d="M234.605 136.763C237.803 136.763 240.983 137.072 244.182 137.072" fill="none" opacity="1" stroke="#d5694f" stroke-linecap="round" stroke-linejoin="round" stroke-width="3.19926"/>
<path d="M256.849 137.072C261.584 137.072 266.319 137.381 271.061 137.381" fill="none" opacity="1" stroke="#d5694f" stroke-linecap="round" stroke-linejoin="round" stroke-width="3.19926"/>
<path d="M285.273 136.763C289.392 136.763 293.512 136.763 297.631 136.763" fill="none" opacity="1" stroke="#d5694f" stroke-linecap="round" stroke-linejoin="round" stroke-width="3.19926"/>
<path d="M311.225 136.146C314.52 136.146 317.816 136.146 321.111 136.146" fill="none" opacity="1" stroke="#d5694f" stroke-linecap="round" stroke-linejoin="round" stroke-width="3.19926"/>
<path d="M331.925 135.219C336.043 135.219 340.158 135.528 344.283 135.528" fill="none" opacity="1" stroke="#d5694f" stroke-linecap="round" stroke-linejoin="round" stroke-width="3.19926"/>
<path d="M353.86 134.91C357.156 134.91 360.451 134.91 363.747 134.91" fill="none" opacity="1" stroke="#d5694f" stroke-linecap="round" stroke-linejoin="round" stroke-width="3.19926"/>
<path d="M370.853 134.292C374.973 134.292 379.091 134.509 383.211 134.601C383.939 134.617 386.025 134.584 385.373 134.91" fill="none" opacity="1" stroke="#d5694f" stroke-linecap="round" stroke-linejoin="round" stroke-width="3.19926"/>
<path d="M15.5955 134.236C15.4481 134.163 18.6674 132.728 18.8957 133.87C19.5663 137.223 18.4557 140.717 18.4557 144.064" fill="none" opacity="1" stroke="#d5694f" stroke-linecap="round" stroke-linejoin="round" stroke-width="2.5"/>
<path d="M16.4756 140.177C17.6378 139.015 19.4699 139.517 20.8759 139.517" fill="none" opacity="1" stroke="#d5694f" stroke-linecap="round" stroke-linejoin="round" stroke-width="2.5"/>
<path d="M41.7145 332.783C41.7145 360.797 43.0546 388.736 43.0546 416.762C43.0546 459.962 41.7145 503.101 41.7145 546.304" fill="none" opacity="1" stroke="#a3a3a3" stroke-linecap="round" stroke-linejoin="round" stroke-width="3.19853"/>
<path d="M40.3744 334.123C38.8872 337.097 38.122 341.298 36.3542 343.95C36.1064 344.322 36.291 343.052 36.3542 342.61C36.7754 339.661 36.7291 341.932 37.6942 339.037C38.076 337.891 38.2045 333.868 39.481 333.23C41.0801 332.43 46.7144 339.123 47.9683 340.377" fill="none" opacity="1" stroke="#a3a3a3" stroke-linecap="round" stroke-linejoin="round" stroke-width="3.19853"/>
<g opacity="1">
<path d="M42.0215 546.996C42.6181 546.334 61.1535 546.403 63.6323 546.381C84.9715 546.197 106.319 546.656 127.695 546.472C160.787 546.187 194.069 546.007 227.129 546.473C255.26 546.87 283.498 545.749 311.625 546.174C330.277 546.455 349.175 546.279 367.827 546.118C375.659 546.051 385.84 545.024 393.375 546.327" fill="none" opacity="1" stroke="#a3a3a3" stroke-linecap="round" stroke-linejoin="round" stroke-width="3.19853"/>
<path d="M392.813 546.383C392.812 546.214 392.947 545.973 392.809 545.875C392.312 545.52 385.563 541.112 385.402 541.113C384.502 541.121 386.673 542.417 387.449 542.873C389.035 543.806 390.844 544.482 392.299 545.625C392.487 545.773 392.809 545.889 392.811 546.129C392.814 546.495 385.673 549.681 384.717 550.009" fill="none" opacity="1" stroke="#a3a3a3" stroke-linecap="round" stroke-linejoin="round" stroke-width="3.19853"/>
</g>
<g opacity="1">
<path d="M65.1482 463.781C66.009 462.059 66.793 460.3 67.607 458.556C69.8177 453.819 72.2599 449.276 75.291 445.032C75.38 444.908 76.7517 442.266 76.8278 442.266C77.0354 442.266 79.5846 448.192 79.9014 448.72C82.8886 453.699 86.5488 458.327 89.1222 463.474" fill="none" opacity="1" stroke="#2e6777" stroke-linecap="round" stroke-linejoin="round" stroke-width="3.19853"/>
<path d="M88.8148 463.781C88.8148 460.653 92.0305 458.414 93.7326 455.79C95.5193 453.035 96.0396 451.946 98.0356 449.95" fill="none" opacity="1" stroke="#2e6777" stroke-linecap="round" stroke-linejoin="round" stroke-width="3.19853"/>
<path d="M96.4988 451.179C99.5146 453.19 101.795 460.009 103.261 463.166C106.175 469.443 109.257 475.665 112.174 481.915C112.992 483.669 117.981 494.276 118.629 492.98" fill="none" opacity="1" stroke="#2e6777" stroke-linecap="round" stroke-linejoin="round" stroke-width="3.19853"/>
<path d="M117.092 492.058C125.459 458.589 138.49 426.326 149.365 393.703" fill="none" opacity="1" stroke="#2e6777" stroke-linecap="round" stroke-linejoin="round" stroke-width="3.19853"/>
<path d="M149.483 393.089C151.463 399.029 153.43 405.049 155.63 410.915C157.053 414.71 159.546 417.971 160.548 421.98" fill="none" opacity="1" stroke="#2e6777" stroke-linecap="round" stroke-linejoin="round" stroke-width="3.19853"/>
<path d="M159.933 422.288C161.657 415.391 168.824 410.202 172.842 404.461C173.047 404.169 175.949 399.543 176.223 399.543C176.646 399.543 176.428 400.363 176.53 400.773C176.794 401.825 176.927 402.488 177.453 403.539C178.116 404.865 184.934 415.218 185.751 415.218C187.083 415.218 186.549 412.638 187.288 411.53C189.792 407.775 193.263 404.19 195.279 400.158C195.382 399.953 195.358 399.543 195.587 399.543C196.514 399.543 195.601 401.429 195.894 402.309C196.422 403.892 197.176 405.836 198.046 407.227C202.159 413.808 206.879 420.416 210.033 427.513C210.45 428.452 213.561 436.27 214.028 436.426C214.683 436.644 215.856 431.957 216.18 431.201C218.252 426.367 220.8 421.659 223.864 417.37C224.208 416.888 225.409 413.992 226.323 414.296C226.964 414.51 227.798 418.784 228.167 419.521C230.319 423.825 233.646 427.868 236.465 431.816C236.648 432.071 239.63 435.956 239.846 435.811C242.07 434.329 245.412 419.829 249.067 419.829C249.357 419.829 249.533 420.195 249.682 420.443C250.653 422.061 252.302 428.546 252.755 430.586C255.241 441.772 261.614 453.901 265.665 464.703C266.746 467.588 267.558 473.068 269.353 475.461C269.385 475.504 270.297 476.526 270.582 476.383C271.879 475.734 272.405 472.055 272.734 470.85C274.159 465.625 276.695 461.106 278.574 456.097C279.104 454.681 280.19 449.162 281.955 448.72C282.65 448.547 283.8 453.103 284.106 453.638C285.018 455.234 293.958 465.301 294.864 464.396C296.36 462.9 296.241 460.483 297.63 458.863C303.723 451.755 308.088 443.002 313.92 435.504C315.464 433.518 318.486 427.767 321.297 427.205C322.352 426.994 324.131 432.704 324.677 433.66C327.322 438.288 330.507 441.944 333.591 446.262C334.002 446.837 335.711 452.112 336.664 451.794C337.751 451.432 343.342 439.524 344.348 437.656C349.422 428.234 355.341 419.572 360.638 410.301C361.812 408.248 367.092 399.236 368.937 398.314" fill="none" opacity="1" stroke="#2e6777" stroke-linecap="round" stroke-linejoin="round" stroke-width="3.19853"/>
</g>
<path d="M87.5671 540.029C87.5671 544.029 87.5671 548.029 87.5671 552.029" fill="none" opacity="1" stroke="#eebf5b" stroke-linecap="round" stroke-linejoin="round" stroke-width="3.19853"/>
<path d="M348.421 539.528C349.078 544.133 349.239 548.396 349.239 553.164" fill="none" opacity="1" stroke="#eebf5b" stroke-linecap="round" stroke-linejoin="round" stroke-width="3.19853"/>
<path d="M223.285 540.073C223.285 539.164 223.285 541.892 223.285 542.801C223.285 546.255 223.285 549.71 223.285 553.164" fill="none" opacity="1" stroke="#eebf5b" stroke-linecap="round" stroke-linejoin="round" stroke-width="3.19853"/>
<path d="M36.1937 492.023C39.4308 490.404 43.4191 493.455 46.8301 491.75" fill="none" opacity="1" stroke="#eebf5b" stroke-linecap="round" stroke-linejoin="round" stroke-width="3.19853"/>
<path d="M37.2846 373.932C39.2565 373.932 48.7392 371.773 48.7392 373.932" fill="none" opacity="1" stroke="#eebf5b" stroke-linecap="round" stroke-linejoin="round" stroke-width="3.19853"/>
<path d="M10.7935 377.346C12.2814 375.263 12.9294 372.619 14.5872 370.669C15.1527 370.003 14.2437 372.382 14.132 373.248C14.0411 373.952 14.014 374.664 13.9802 375.373C13.8915 377.236 13.9802 379.12 13.9802 380.987" fill="none" opacity="1" stroke="#eebf5b" stroke-linecap="round" stroke-linejoin="round" stroke-width="2.09926"/>
<path d="M19.9742 372.11C16.7399 373.06 18.9971 375.67 18.9879 376.132C18.9695 377.049 19.6722 379.627 21.2641 379.015C25.2968 377.464 25.721 370.423 19.9742 372.11Z" fill="none" opacity="1" stroke="#eebf5b" stroke-linecap="round" stroke-linejoin="round" stroke-width="2.09926"/>
<path d="M22.8085 488.427C21.9975 488.914 21.5596 490.075 21.6479 491.016C21.699 491.561 24.0881 491.551 23.969 493.337C23.8264 495.477 20.9337 495.05 20.9337 494.498" fill="none" opacity="1" stroke="#eebf5b" stroke-linecap="round" stroke-linejoin="round" stroke-width="2.09926"/>
<path d="M21.7372 488.784C22.2045 487.85 23.6795 488.004 24.6832 487.713C25.825 487.382 27 487.269 28.0757 486.731" fill="none" opacity="1" stroke="#eebf5b" stroke-linecap="round" stroke-linejoin="round" stroke-width="2.09926"/>
<path d="M76.7557 563.054C78.3087 561.759 79.2127 559.842 80.4082 558.212C80.5862 557.969 80.7579 557.707 81.0028 557.532C81.6089 557.099 80.7554 559.002 80.663 559.741C80.4519 561.43 80.1534 563.216 80.1534 564.922" fill="none" opacity="1" stroke="#eebf5b" stroke-linecap="round" stroke-linejoin="round" stroke-width="2.1"/>
<path d="M84.9102 557.532C84.239 558.204 83.7834 559.343 84.0608 560.251C84.4319 561.465 86.8626 560.598 86.5241 562.629C86.3458 563.699 83.5511 564.986 83.5511 563.563" fill="none" opacity="1" stroke="#eebf5b" stroke-linecap="round" stroke-linejoin="round" stroke-width="2.1"/>
<path d="M84.1457 558.212C84.1457 556.977 87.7915 557.748 88.7326 557.278" fill="none" opacity="1" stroke="#eebf5b" stroke-linecap="round" stroke-linejoin="round" stroke-width="2.1"/>
<path d="M90.8562 560.251C90.8562 560.42 90.8562 560.59 90.8562 560.76" fill="none" opacity="1" stroke="#eebf5b" stroke-linecap="round" stroke-linejoin="round" stroke-width="2.1"/>
<path d="M90.7713 563.224C90.7713 563.337 90.7713 563.45 90.7713 563.563" fill="none" opacity="1" stroke="#eebf5b" stroke-linecap="round" stroke-linejoin="round" stroke-width="2.1"/>
<path d="M96.1227 557.787C95.9801 557.933 95.8182 557.076 95.7829 557.278C95.4733 559.042 94.9711 560.863 95.2733 562.629C95.3832 563.271 96.2548 563.575 96.8872 563.733C97.1932 563.81 98.0282 562.833 98.1613 562.629C98.8551 561.565 99.6215 560.206 99.0957 558.891C98.6457 557.766 97.2002 556.683 96.1227 557.787Z" fill="none" opacity="1" stroke="#eebf5b" stroke-linecap="round" stroke-linejoin="round" stroke-width="2.1"/>
<path d="M103.768 557.362C103.711 557.306 103.631 557.12 103.598 557.193C102.934 558.635 101.987 560.031 101.814 561.61C101.738 562.305 102.346 562.991 102.918 563.393C103.844 564.045 105.029 562.329 105.297 561.864C106.994 558.922 104.072 555.117 102.069 557.787" fill="none" opacity="1" stroke="#eebf5b" stroke-linecap="round" stroke-linejoin="round" stroke-width="2.1"/>
<path d="M209.02 563.76C210.574 562.465 211.478 560.548 212.673 558.918C212.851 558.675 213.023 558.413 213.268 558.238C213.874 557.805 213.02 559.708 212.928 560.447C212.717 562.136 212.418 563.922 212.418 565.628" fill="none" opacity="1" stroke="#eebf5b" stroke-linecap="round" stroke-linejoin="round" stroke-width="2.1"/>
<path d="M223.121 560.957C223.121 561.126 223.121 561.296 223.121 561.466" fill="none" opacity="1" stroke="#eebf5b" stroke-linecap="round" stroke-linejoin="round" stroke-width="2.1"/>
<path d="M223.036 563.93C223.036 564.043 223.036 564.156 223.036 564.269" fill="none" opacity="1" stroke="#eebf5b" stroke-linecap="round" stroke-linejoin="round" stroke-width="2.1"/>
<path d="M228.388 558.493C228.245 558.639 228.083 557.782 228.048 557.984C227.738 559.749 227.236 561.569 227.538 563.335C227.648 563.978 228.52 564.281 229.152 564.439C229.458 564.516 230.293 563.539 230.426 563.335C231.12 562.271 231.886 560.912 231.361 559.598C230.911 558.473 229.465 557.389 228.388 558.493Z" fill="none" opacity="1" stroke="#eebf5b" stroke-linecap="round" stroke-linejoin="round" stroke-width="2.1"/>
<path d="M236.032 558.069C235.976 558.012 235.896 557.826 235.863 557.899C235.199 559.341 234.252 560.737 234.079 562.316C234.003 563.011 234.611 563.697 235.183 564.099C236.108 564.751 237.293 563.035 237.561 562.571C239.259 559.628 236.336 555.823 234.334 558.493" fill="none" opacity="1" stroke="#eebf5b" stroke-linecap="round" stroke-linejoin="round" stroke-width="2.1"/>
<path d="M334.533 562.877C336.086 561.583 336.99 559.665 338.185 558.035C338.363 557.792 338.535 557.53 338.78 557.355C339.386 556.923 338.533 558.825 338.44 559.564C338.229 561.253 337.931 563.039 337.931 564.746" fill="none" opacity="1" stroke="#eebf5b" stroke-linecap="round" stroke-linejoin="round" stroke-width="2.1"/>
<path d="M348.633 560.074C348.633 560.244 348.633 560.413 348.633 560.583" fill="none" opacity="1" stroke="#eebf5b" stroke-linecap="round" stroke-linejoin="round" stroke-width="2.1"/>
<path d="M348.548 563.047C348.548 563.16 348.548 563.273 348.548 563.386" fill="none" opacity="1" stroke="#eebf5b" stroke-linecap="round" stroke-linejoin="round" stroke-width="2.1"/>
<path d="M353.9 557.61C353.757 557.756 353.595 556.9 353.56 557.101C353.25 558.866 352.748 560.686 353.05 562.452C353.16 563.095 354.032 563.398 354.664 563.556C354.97 563.633 355.805 562.656 355.939 562.452C356.632 561.388 357.399 560.029 356.873 558.715C356.423 557.59 354.977 556.506 353.9 557.61Z" fill="none" opacity="1" stroke="#eebf5b" stroke-linecap="round" stroke-linejoin="round" stroke-width="2.1"/>
<path d="M361.545 557.186C361.488 557.129 361.408 556.943 361.375 557.016C360.711 558.458 359.764 559.854 359.591 561.433C359.515 562.128 360.123 562.814 360.695 563.217C361.621 563.868 362.806 562.152 363.074 561.688C364.771 558.745 361.849 554.94 359.846 557.61" fill="none" opacity="1" stroke="#eebf5b" stroke-linecap="round" stroke-linejoin="round" stroke-width="2.1"/>
<path d="M218.18 557.627C217.507 557.963 217.478 558.966 217.234 559.678C217.012 560.321 215.907 565.559 217.128 565.831C219.317 566.317 220.655 561.322 217.759 562.149" fill="none" opacity="1" stroke="#eebf5b" stroke-linecap="round" stroke-linejoin="round" stroke-width="2.1"/>
<path d="M341.358 556.562C341.985 556.562 345.757 556.654 345.776 556.673C345.912 556.809 345.207 558.77 345.182 558.863C344.741 560.516 344.444 562.417 343.771 563.986" fill="none" opacity="1" stroke="#eebf5b" stroke-linecap="round" stroke-linejoin="round" stroke-width="2.1"/>
<path d="M342.918 560.868C343.459 560.597 345.214 560.794 345.516 560.794" fill="none" opacity="1" stroke="#eebf5b" stroke-linecap="round" stroke-linejoin="round" stroke-width="2.1"/>
<path d="M65.2466 464.458C65.2466 468.211 65.4631 471.958 65.4631 475.714" fill="none" opacity="1" stroke="#d5694f" stroke-linecap="round" stroke-linejoin="round" stroke-width="3.19926"/>
<path d="M66.1125 484.805C66.1125 487.476 65.896 490.143 65.896 492.814" fill="none" opacity="1" stroke="#d5694f" stroke-linecap="round" stroke-linejoin="round" stroke-width="3.19926"/>
<path d="M66.3289 502.555C66.3289 504.721 66.4621 506.885 66.5454 509.049" fill="none" opacity="1" stroke="#d5694f" stroke-linecap="round" stroke-linejoin="round" stroke-width="3.19926"/>
<path d="M66.1125 518.573C66.1125 520.903 66.0231 523.284 66.7619 525.5" fill="none" opacity="1" stroke="#d5694f" stroke-linecap="round" stroke-linejoin="round" stroke-width="3.19926"/>
<path d="M66.3289 533.942C66.3289 536.179 66.3289 538.416 66.3289 540.652" fill="none" opacity="1" stroke="#d5694f" stroke-linecap="round" stroke-linejoin="round" stroke-width="3.19926"/>
<path d="M65.896 551.259C65.896 553.497 66.0193 555.733 66.1125 557.969" fill="none" opacity="1" stroke="#d5694f" stroke-linecap="round" stroke-linejoin="round" stroke-width="3.19926"/>
<path d="M369.994 400.624C369.994 404.248 369.807 407.868 369.807 411.493" fill="none" opacity="1" stroke="#d5694f" stroke-linecap="round" stroke-linejoin="round" stroke-width="3.19926"/>
<path d="M369.994 421.986C369.994 424.936 369.864 427.86 369.619 430.793" fill="none" opacity="1" stroke="#d5694f" stroke-linecap="round" stroke-linejoin="round" stroke-width="3.19926"/>
<path d="M369.432 442.411C369.432 445.542 369.807 448.65 369.807 451.781" fill="none" opacity="1" stroke="#d5694f" stroke-linecap="round" stroke-linejoin="round" stroke-width="3.19926"/>
<path d="M369.994 461.899C370.144 464.441 370.182 466.838 370.182 469.395" fill="none" opacity="1" stroke="#d5694f" stroke-linecap="round" stroke-linejoin="round" stroke-width="3.19926"/>
<path d="M370.182 478.764C370.182 482.206 369.994 485.637 369.994 489.07" fill="none" opacity="1" stroke="#d5694f" stroke-linecap="round" stroke-linejoin="round" stroke-width="3.19926"/>
<path d="M370.369 498.065C370.369 500.867 370.675 503.867 370.931 506.685" fill="none" opacity="1" stroke="#d5694f" stroke-linecap="round" stroke-linejoin="round" stroke-width="3.19926"/>
<path d="M370.744 517.178C370.744 519.99 370.931 522.796 370.931 525.61" fill="none" opacity="1" stroke="#d5694f" stroke-linecap="round" stroke-linejoin="round" stroke-width="3.19926"/>
<path d="M370.931 535.167C370.931 537.917 371.119 540.662 371.119 543.412" fill="none" opacity="1" stroke="#d5694f" stroke-linecap="round" stroke-linejoin="round" stroke-width="3.19926"/>
<path d="M370.931 555.592C370.931 558.689 371.306 561.674 371.306 564.774" fill="none" opacity="1" stroke="#d5694f" stroke-linecap="round" stroke-linejoin="round" stroke-width="3.19926"/>
<path d="M371.119 572.082C371.119 574.145 371.306 576.203 371.306 578.266" fill="none" opacity="1" stroke="#d5694f" stroke-linecap="round" stroke-linejoin="round" stroke-width="3.19926"/>
<path d="M65.9903 568.142C65.9903 570.735 64.9249 575.428 66.1193 577.817" fill="none" opacity="1" stroke="#d5694f" stroke-linecap="round" stroke-linejoin="round" stroke-width="3.19926"/>
<path d="M53.7467 590.585C55.0306 589.044 56.2742 587.469 57.6053 585.968C59.3438 584.009 58.0591 588.077 57.9498 588.656C57.6555 590.215 56.8474 592.135 56.8474 593.755" fill="none" opacity="1" stroke="#d5694f" stroke-linecap="round" stroke-linejoin="round" stroke-width="2.5"/>
<path d="M61.6706 585.968C61.6706 587.2 60.9553 588.334 60.7749 589.551C60.5839 590.84 63.3637 589.296 63.8066 589" fill="none" opacity="1" stroke="#d5694f" stroke-linecap="round" stroke-linejoin="round" stroke-width="2.5"/>
<path d="M64.5646 585.831C64.0271 587.981 62.9109 591.167 62.9109 593.548" fill="none" opacity="1" stroke="#d5694f" stroke-linecap="round" stroke-linejoin="round" stroke-width="2.5"/>
<path d="M67.5964 592.101C67.5057 592.373 67.5274 592.235 67.5274 592.514" fill="none" opacity="1" stroke="#d5694f" stroke-linecap="round" stroke-linejoin="round" stroke-width="2.5"/>
<path d="M67.8004 588.523C67.8482 588.547 67.896 588.571 67.9438 588.595" fill="none" opacity="1" stroke="#d5694f" stroke-linecap="round" stroke-linejoin="round" stroke-width="2.5"/>
<path d="M73.1224 586.306C72.7931 587.294 72.2098 588.187 71.9004 589.181C71.5706 590.241 74.6012 589.335 74.1288 591.697C73.817 593.257 71.9305 594.633 71.0378 592.847" fill="none" opacity="1" stroke="#d5694f" stroke-linecap="round" stroke-linejoin="round" stroke-width="2.5"/>
<path d="M72.9787 585.874C74.3713 585.526 76.1479 585.731 77.6512 585.731" fill="none" opacity="1" stroke="#d5694f" stroke-linecap="round" stroke-linejoin="round" stroke-width="2.5"/>
<path d="M80.7063 588.175C79.719 588.553 78.3316 592.995 80.0234 593.207C83.4898 593.64 85.2728 586.425 80.7063 588.175Z" fill="none" opacity="1" stroke="#d5694f" stroke-linecap="round" stroke-linejoin="round" stroke-width="2.5"/>
<path d="M360.076 589.556C360.693 588.323 361.695 587.324 362.509 586.211C363.002 585.536 363.458 584.833 363.953 584.158C364.017 584.072 364.079 583.896 364.181 583.93C364.542 584.051 364.161 584.694 364.105 585.071C363.848 586.808 363.419 588.513 363.117 590.24C363.082 590.439 362.823 592.368 363.117 592.368" fill="none" opacity="1" stroke="#d5694f" stroke-linecap="round" stroke-linejoin="round" stroke-width="2.5"/>
<path d="M367.222 584.386C367.878 583.949 368.841 583.877 369.578 584.158C370.258 584.418 369.991 586.077 369.958 586.439C369.777 588.43 369.481 590.391 369.198 592.368" fill="none" opacity="1" stroke="#d5694f" stroke-linecap="round" stroke-linejoin="round" stroke-width="2.5"/>
<path d="M367.374 588.263C368.541 587.874 369.935 587.997 371.175 587.731" fill="none" opacity="1" stroke="#d5694f" stroke-linecap="round" stroke-linejoin="round" stroke-width="2.5"/>
<path d="M374.443 586.971C374.355 587.324 374.367 587.171 374.367 587.427" fill="none" opacity="1" stroke="#d5694f" stroke-linecap="round" stroke-linejoin="round" stroke-width="2.5"/>
<path d="M373.911 590.012C373.911 590.29 373.911 590.569 373.911 590.848" fill="none" opacity="1" stroke="#d5694f" stroke-linecap="round" stroke-linejoin="round" stroke-width="2.5"/>
<path d="M378.32 589.48C379.475 587.748 380.54 585.956 381.589 584.158C381.829 583.747 381.86 583.203 382.197 582.866C382.358 582.705 382.215 583.323 382.197 583.55C382.164 583.983 382.096 584.412 382.045 584.843C381.994 585.273 381.931 585.703 381.893 586.135C381.816 587.018 381.237 589.964 381.969 590.696" fill="none" opacity="1" stroke="#d5694f" stroke-linecap="round" stroke-linejoin="round" stroke-width="2.5"/>
<path d="M386.644 583.968C386.212 585.563 385.945 587.22 385.922 588.871C385.916 589.302 386.214 589.719 386.53 590.012C387.032 590.478 388.38 588.201 388.43 588.111C389.099 586.931 389.647 585.604 389.191 584.234C388.838 583.177 386.868 583.141 386.644 583.968Z" fill="none" opacity="1" stroke="#d5694f" stroke-linecap="round" stroke-linejoin="round" stroke-width="2.5"/>
<path d="M46.5233 6.08794C45.5014 5.67917 43.344 4.3556 42.5878 5.30084C41.5185 6.63751 42.6711 10.7542 42.7452 12.3848C42.85 14.69 42.3843 23.0649 43.5323 24.9784C44.0766 25.8855 46.773 25.1174 47.4678 24.9784" fill="none" opacity="1" stroke="#eebf5b" stroke-linecap="round" stroke-linejoin="round" stroke-width="1.54963"/>
<path d="M49.5143 10.3383C49.4618 10.0759 49.2853 9.29339 49.3569 9.55119C49.6907 10.753 50.0805 11.9443 50.3014 13.1719C50.4599 14.0521 50.4694 18.923 51.2459 19.3113" fill="none" opacity="1" stroke="#eebf5b" stroke-linecap="round" stroke-linejoin="round" stroke-width="1.54963"/>
<path d="M54.7092 14.7461C54.3308 13.9893 53.013 15.3285 52.5053 16.0054C50.6685 18.4545 52.2184 20.4316 54.5518 18.6816" fill="none" opacity="1" stroke="#eebf5b" stroke-linecap="round" stroke-linejoin="round" stroke-width="1.54963"/>
<path d="M56.9131 15.2183C56.9131 16.3266 56.821 17.7267 57.8576 18.5242C58.884 19.3137 59.6062 14.8333 59.7466 14.9035C60.5508 15.3055 59.9442 18.839 61.3208 18.839C62.1611 18.839 63.7688 15.1476 63.997 15.3757C64.7486 16.1274 64.1368 20.1567 66.2009 19.4687" fill="none" opacity="1" stroke="#eebf5b" stroke-linecap="round" stroke-linejoin="round" stroke-width="1.54963"/>
<path d="M70.4512 6.5602C70.4512 12.639 69.1703 18.7664 69.5067 24.821C69.5232 25.1173 69.9265 24.4012 70.1364 24.1913" fill="none" opacity="1" stroke="#eebf5b" stroke-linecap="round" stroke-linejoin="round" stroke-width="1.54963"/>
<path d="M75.1738 9.55119C75.1214 9.44624 75.0091 9.11924 75.0164 9.23635C75.1281 11.0239 75.2665 12.8114 75.4887 14.5886C75.6342 15.7529 75.8882 16.9013 76.1184 18.0519C76.5349 20.1345 77.6533 15.4544 78.0074 15.2183C78.441 14.9293 78.7746 20.1183 80.0539 18.839" fill="none" opacity="1" stroke="#eebf5b" stroke-linecap="round" stroke-linejoin="round" stroke-width="1.54963"/>
<path d="M79.8964 7.50472C79.2661 6.24409 88.393 6.70928 88.3972 6.71762C88.7791 7.48153 87.6841 11.4624 87.6101 12.2273C87.4557 13.8225 88.4816 22.1333 88.0823 22.9319C86.8692 25.3582 82.5751 22.6121 81.6281 24.5061" fill="none" opacity="1" stroke="#eebf5b" stroke-linecap="round" stroke-linejoin="round" stroke-width="1.54963"/>
<path d="M22.2806 14.1164C21.6298 16.0686 23.5213 18.0474 24.327 19.9409C24.7059 20.8312 25.4815 22.7745 26.2161 22.1448C26.4522 21.9424 31.411 11.6976 31.411 12.857" fill="none" opacity="1" stroke="#eebf5b" stroke-linecap="round" stroke-linejoin="round" stroke-width="2.09926"/>
<path d="M50.3415 310.179C49.3196 309.77 47.1622 308.447 46.406 309.392C45.3367 310.728 46.4893 314.845 46.5634 316.476C46.6682 318.781 46.2024 327.156 47.3505 329.069C47.8948 329.976 50.5912 329.208 51.286 329.069" fill="none" opacity="1" stroke="#eebf5b" stroke-linecap="round" stroke-linejoin="round" stroke-width="1.54963"/>
<path d="M53.3325 314.429C53.28 314.167 53.1035 313.384 53.1751 313.642C53.5089 314.844 53.8986 316.035 54.1196 317.263C54.278 318.143 54.2875 323.014 55.0641 323.402" fill="none" opacity="1" stroke="#eebf5b" stroke-linecap="round" stroke-linejoin="round" stroke-width="1.54963"/>
<path d="M58.5274 318.837C58.149 318.08 56.8311 319.419 56.3235 320.096C54.4867 322.545 56.0366 324.523 58.3699 322.772" fill="none" opacity="1" stroke="#eebf5b" stroke-linecap="round" stroke-linejoin="round" stroke-width="1.54963"/>
<path d="M60.7312 319.309C60.7312 320.417 60.6391 321.818 61.6758 322.615C62.7021 323.405 63.4244 318.924 63.5648 318.994C64.3689 319.396 63.7624 322.93 65.139 322.93C65.9793 322.93 67.587 319.239 67.8152 319.467C68.5668 320.218 67.955 324.248 70.0191 323.56" fill="none" opacity="1" stroke="#eebf5b" stroke-linecap="round" stroke-linejoin="round" stroke-width="1.54963"/>
<path d="M74.2694 310.651C74.2694 316.73 72.9885 322.857 73.3249 328.912C73.3413 329.208 73.7447 328.492 73.9546 328.282" fill="none" opacity="1" stroke="#eebf5b" stroke-linecap="round" stroke-linejoin="round" stroke-width="1.54963"/>
<path d="M78.992 313.642C78.9395 313.537 78.8273 313.21 78.8346 313.327C78.9463 315.115 79.0847 316.902 79.3069 318.68C79.4524 319.844 79.7064 320.992 79.9365 322.143C80.3531 324.225 81.4715 319.545 81.8256 319.309C82.2592 319.02 82.5928 324.209 83.8721 322.93" fill="none" opacity="1" stroke="#eebf5b" stroke-linecap="round" stroke-linejoin="round" stroke-width="1.54963"/>
<path d="M83.7146 311.596C83.0843 310.335 92.2112 310.8 92.2153 310.809C92.5973 311.572 91.5023 315.553 91.4282 316.318C91.2739 317.913 92.2998 326.224 91.9005 327.023C90.6873 329.449 86.3933 326.703 85.4463 328.597" fill="none" opacity="1" stroke="#eebf5b" stroke-linecap="round" stroke-linejoin="round" stroke-width="1.54963"/>
<path d="M26.0988 318.207C25.448 320.16 27.3395 322.138 28.1452 324.032C28.5241 324.922 29.2996 326.865 30.0343 326.236C30.2704 326.033 35.2291 315.788 35.2291 316.948" fill="none" opacity="1" stroke="#eebf5b" stroke-linecap="round" stroke-linejoin="round" stroke-width="2.09926"/>
<path d="M399.769 235.86C399.769 240.293 397.57 244.96 398.024 249.497C398.209 251.354 401.212 250.426 401.951 249.933" fill="none" opacity="1" stroke="#eebf5b" stroke-linecap="round" stroke-linejoin="round" stroke-width="2.09926"/>
<path d="M396.06 245.024C395.401 244.804 397.438 244.785 398.133 244.806C398.575 244.819 399.006 244.951 399.442 245.024" fill="none" opacity="1" stroke="#eebf5b" stroke-linecap="round" stroke-linejoin="round" stroke-width="2.09926"/>
<path d="M402.669 541.096C402.79 541.126 403.037 541.062 403.031 541.186C402.942 543.278 402.562 545.349 402.397 547.436C402.18 550.188 401.497 553.695 404.571 551.06" fill="none" opacity="1" stroke="#eebf5b" stroke-linecap="round" stroke-linejoin="round" stroke-width="2.09926"/>
<path d="M399.68 547.165C401.071 547.072 402.459 546.937 403.846 546.802" fill="none" opacity="1" stroke="#eebf5b" stroke-linecap="round" stroke-linejoin="round" stroke-width="2.09926"/>
</g>
</svg>
