<?xml version="1.0" encoding="UTF-8" standalone="no"?>
<!DOCTYPE svg PUBLIC "-//W3C//DTD SVG 1.1//EN" "http://www.w3.org/Graphics/SVG/1.1/DTD/svg11.dtd">
<!-- Created with Vectornator (http://vectornator.io/) -->
<svg height="100%" stroke-miterlimit="10" style="fill-rule:nonzero;clip-rule:evenodd;stroke-linecap:round;stroke-linejoin:round;" version="1.1" viewBox="0 0 425.25 283.5" width="100%" xml:space="preserve" xmlns="http://www.w3.org/2000/svg" xmlns:vectornator="http://vectornator.io" xmlns:xlink="http://www.w3.org/1999/xlink">
<defs/>
<g id="Ebene-1" vectornator:layerName="Ebene 1">
<path d="M38.0843 30.4408C38.0843 58.455 39.4244 86.3935 39.4244 114.42C39.4244 157.62 38.0843 200.759 38.0843 243.962" fill="none" opacity="1" stroke="#a3a3a3" stroke-linecap="round" stroke-linejoin="round" stroke-width="3.19853"/>
<path d="M36.7442 31.7809C35.2571 34.7553 34.4918 38.9564 32.724 41.6082C32.4762 41.9799 32.6608 40.7103 32.724 40.2681C33.1452 37.3194 33.0989 39.5901 34.0641 36.6946C34.4458 35.5493 34.5743 31.5258 35.8508 30.8875C37.4499 30.088 43.0843 36.7808 44.3381 38.0347" fill="none" opacity="1" stroke="#a3a3a3" stroke-linecap="round" stroke-linejoin="round" stroke-width="3.19853"/>
<g opacity="1">
<path d="M38.3914 244.654C38.9879 243.992 57.5234 244.061 60.0021 244.039C81.3413 243.855 102.689 244.314 124.065 244.13C157.157 243.845 190.439 243.665 223.499 244.131C251.63 244.528 279.868 243.407 307.995 243.832C326.647 244.113 345.544 243.937 364.196 243.776C372.028 243.709 382.209 242.682 389.744 243.985" fill="none" opacity="1" stroke="#a3a3a3" stroke-linecap="round" stroke-linejoin="round" stroke-width="3.19853"/>
<path d="M389.183 244.041C389.182 243.872 389.316 243.631 389.179 243.533C388.682 243.178 381.933 238.769 381.772 238.771C380.872 238.779 383.043 240.075 383.819 240.531C385.405 241.464 387.214 242.14 388.669 243.283C388.857 243.431 389.179 243.547 389.181 243.787C389.184 244.153 382.043 247.339 381.087 247.667" fill="none" opacity="1" stroke="#a3a3a3" stroke-linecap="round" stroke-linejoin="round" stroke-width="3.19853"/>
</g>
<g opacity="1">
<path d="M61.518 161.439C62.3788 159.717 63.1629 157.958 63.9769 156.214C66.1875 151.477 68.6297 146.934 71.6608 142.69C71.7499 142.566 73.1215 139.924 73.1976 139.924C73.4052 139.924 75.9544 145.85 76.2712 146.378C79.2584 151.357 82.9187 155.985 85.492 161.132" fill="none" opacity="1" stroke="#2e6777" stroke-linecap="round" stroke-linejoin="round" stroke-width="3.19853"/>
<path d="M85.1846 161.439C85.1846 158.311 88.4003 156.072 90.1024 153.448C91.8891 150.693 92.4094 149.604 94.4054 147.608" fill="none" opacity="1" stroke="#2e6777" stroke-linecap="round" stroke-linejoin="round" stroke-width="3.19853"/>
<path d="M92.8686 148.837C95.8844 150.848 98.1646 157.667 99.6305 160.824C102.545 167.101 105.627 173.323 108.544 179.573C109.362 181.327 114.351 191.934 114.998 190.638" fill="none" opacity="1" stroke="#2e6777" stroke-linecap="round" stroke-linejoin="round" stroke-width="3.19853"/>
<path d="M113.462 189.716C121.829 156.247 134.86 123.984 145.734 91.3612" fill="none" opacity="1" stroke="#2e6777" stroke-linecap="round" stroke-linejoin="round" stroke-width="3.19853"/>
<path d="M145.853 90.7465C147.833 96.6865 149.8 102.707 152 108.573C153.423 112.368 155.915 115.629 156.918 119.638" fill="none" opacity="1" stroke="#2e6777" stroke-linecap="round" stroke-linejoin="round" stroke-width="3.19853"/>
<path d="M156.303 119.946C158.027 113.049 165.193 107.86 169.212 102.119C169.417 101.826 172.319 97.201 172.593 97.201C173.015 97.201 172.798 98.0207 172.9 98.4305C173.163 99.4829 173.297 100.146 173.822 101.197C174.485 102.523 181.304 112.876 182.121 112.876C183.453 112.876 182.919 110.296 183.658 109.188C186.161 105.433 189.633 101.848 191.649 97.8157C191.752 97.6108 191.727 97.201 191.957 97.201C192.884 97.201 191.971 99.0871 192.264 99.9673C192.792 101.55 193.546 103.494 194.415 104.885C198.529 111.466 203.248 118.074 206.402 125.171C206.82 126.11 209.931 133.928 210.398 134.084C211.053 134.302 212.225 129.615 212.55 128.859C214.621 124.025 217.17 119.317 220.234 115.028C220.578 114.546 221.779 111.65 222.692 111.954C223.334 112.168 224.168 116.442 224.537 117.179C226.688 121.483 230.016 125.526 232.835 129.474C233.018 129.729 235.999 133.614 236.216 133.469C238.439 131.987 241.781 117.487 245.437 117.487C245.727 117.487 245.903 117.853 246.052 118.101C247.022 119.719 248.672 126.204 249.125 128.244C251.611 139.43 257.984 151.559 262.034 162.361C263.116 165.246 263.928 170.726 265.723 173.119C265.755 173.162 266.667 174.184 266.952 174.041C268.249 173.392 268.775 169.713 269.104 168.508C270.529 163.283 273.065 158.764 274.943 153.755C275.474 152.339 276.56 146.82 278.324 146.378C279.02 146.204 280.17 150.761 280.476 151.296C281.388 152.892 290.328 162.959 291.233 162.054C292.729 160.558 292.611 158.141 294 156.521C300.093 149.413 304.458 140.66 310.29 133.162C311.834 131.176 314.856 125.425 317.666 124.863C318.722 124.652 320.501 130.362 321.047 131.318C323.692 135.946 326.877 139.602 329.961 143.92C330.371 144.494 332.081 149.77 333.034 149.452C334.121 149.09 339.712 137.182 340.718 135.314C345.791 125.892 351.71 117.23 357.008 107.959C358.181 105.906 363.462 96.8943 365.307 95.9716" fill="none" opacity="1" stroke="#2e6777" stroke-linecap="round" stroke-linejoin="round" stroke-width="3.19853"/>
</g>
<path d="M18.2322 14.0923C18.893 16.0747 19.2079 19.7044 20.6867 21.1832C20.8305 21.3269 21.0503 21.5468 21.2322 21.4559C21.7372 21.2034 25.933 11.9154 26.9594 10.5468" fill="none" opacity="1" stroke="#eebf5b" stroke-linecap="round" stroke-linejoin="round" stroke-width="3.19853"/>
<path d="M83.9369 237.686C83.9369 241.686 83.9369 245.686 83.9369 249.686" fill="none" opacity="1" stroke="#eebf5b" stroke-linecap="round" stroke-linejoin="round" stroke-width="3.19853"/>
<path d="M344.79 237.186C345.448 241.791 345.609 246.054 345.609 250.822" fill="none" opacity="1" stroke="#eebf5b" stroke-linecap="round" stroke-linejoin="round" stroke-width="3.19853"/>
<path d="M219.654 237.731C219.654 236.822 219.654 239.55 219.654 240.459C219.654 243.913 219.654 247.368 219.654 250.822" fill="none" opacity="1" stroke="#eebf5b" stroke-linecap="round" stroke-linejoin="round" stroke-width="3.19853"/>
<path d="M32.5635 189.681C35.8006 188.062 39.7889 191.113 43.1999 189.408" fill="none" opacity="1" stroke="#eebf5b" stroke-linecap="round" stroke-linejoin="round" stroke-width="3.19853"/>
<path d="M33.6544 71.5896C35.6263 71.5896 45.109 69.4307 45.109 71.5896" fill="none" opacity="1" stroke="#eebf5b" stroke-linecap="round" stroke-linejoin="round" stroke-width="3.19853"/>
<path d="M7.16336 75.0035C8.65121 72.9205 9.2992 70.277 10.957 68.3266C11.5226 67.6613 10.6135 70.0403 10.5018 70.9063C10.4109 71.6104 10.3838 72.3216 10.35 73.0307C10.2613 74.8944 10.35 76.7782 10.35 78.6454" fill="none" opacity="1" stroke="#eebf5b" stroke-linecap="round" stroke-linejoin="round" stroke-width="2.09926"/>
<path d="M16.3441 69.7682C13.1097 70.7178 15.3669 73.3277 15.3577 73.7895C15.3393 74.7072 16.042 77.2849 17.6339 76.6727C21.6666 75.1216 22.0908 68.081 16.3441 69.7682Z" fill="none" opacity="1" stroke="#eebf5b" stroke-linecap="round" stroke-linejoin="round" stroke-width="2.09926"/>
<path d="M19.1783 186.085C18.3673 186.572 17.9294 187.733 18.0177 188.674C18.0688 189.219 20.458 189.209 20.3389 190.995C20.1962 193.135 17.3035 192.708 17.3035 192.156" fill="none" opacity="1" stroke="#eebf5b" stroke-linecap="round" stroke-linejoin="round" stroke-width="2.09926"/>
<path d="M18.107 186.442C18.5743 185.508 20.0493 185.661 21.0531 185.371C22.1949 185.04 23.3699 184.927 24.4455 184.389" fill="none" opacity="1" stroke="#eebf5b" stroke-linecap="round" stroke-linejoin="round" stroke-width="2.09926"/>
<path d="M73.1255 260.712C74.6786 259.417 75.5825 257.5 76.778 255.87C76.956 255.627 77.1277 255.365 77.3726 255.19C77.9787 254.757 77.1253 256.66 77.0329 257.399C76.8217 259.088 76.5232 260.874 76.5232 262.58" fill="none" opacity="1" stroke="#eebf5b" stroke-linecap="round" stroke-linejoin="round" stroke-width="2.1"/>
<path d="M81.28 255.19C80.6088 255.862 80.1532 257.001 80.4306 257.909C80.8017 259.123 83.2324 258.256 82.8939 260.287C82.7156 261.357 79.9209 262.643 79.9209 261.221" fill="none" opacity="1" stroke="#eebf5b" stroke-linecap="round" stroke-linejoin="round" stroke-width="2.1"/>
<path d="M80.5155 255.87C80.5155 254.635 84.1613 255.406 85.1025 254.936" fill="none" opacity="1" stroke="#eebf5b" stroke-linecap="round" stroke-linejoin="round" stroke-width="2.1"/>
<path d="M87.226 257.909C87.226 258.078 87.226 258.248 87.226 258.418" fill="none" opacity="1" stroke="#eebf5b" stroke-linecap="round" stroke-linejoin="round" stroke-width="2.1"/>
<path d="M87.1411 260.882C87.1411 260.995 87.1411 261.108 87.1411 261.221" fill="none" opacity="1" stroke="#eebf5b" stroke-linecap="round" stroke-linejoin="round" stroke-width="2.1"/>
<path d="M92.4925 255.445C92.3499 255.591 92.188 254.734 92.1527 254.936C91.8431 256.7 91.341 258.521 91.6431 260.287C91.753 260.929 92.6246 261.233 93.257 261.391C93.5631 261.468 94.398 260.491 94.5311 260.287C95.2249 259.223 95.9914 257.864 95.4655 256.549C95.0155 255.424 93.57 254.341 92.4925 255.445Z" fill="none" opacity="1" stroke="#eebf5b" stroke-linecap="round" stroke-linejoin="round" stroke-width="2.1"/>
<path d="M100.137 255.02C100.081 254.964 100.001 254.778 99.9675 254.851C99.3039 256.293 98.3567 257.689 98.1837 259.268C98.1075 259.963 98.716 260.649 99.2879 261.051C100.213 261.703 101.398 259.987 101.666 259.522C103.364 256.58 100.441 252.775 98.4385 255.445" fill="none" opacity="1" stroke="#eebf5b" stroke-linecap="round" stroke-linejoin="round" stroke-width="2.1"/>
<path d="M205.39 261.418C206.943 260.123 207.847 258.206 209.043 256.576C209.221 256.333 209.393 256.071 209.637 255.896C210.244 255.463 209.39 257.366 209.298 258.105C209.087 259.794 208.788 261.58 208.788 263.286" fill="none" opacity="1" stroke="#eebf5b" stroke-linecap="round" stroke-linejoin="round" stroke-width="2.1"/>
<path d="M219.491 258.615C219.491 258.784 219.491 258.954 219.491 259.124" fill="none" opacity="1" stroke="#eebf5b" stroke-linecap="round" stroke-linejoin="round" stroke-width="2.1"/>
<path d="M219.406 261.588C219.406 261.701 219.406 261.814 219.406 261.927" fill="none" opacity="1" stroke="#eebf5b" stroke-linecap="round" stroke-linejoin="round" stroke-width="2.1"/>
<path d="M224.757 256.151C224.615 256.297 224.453 255.44 224.418 255.642C224.108 257.406 223.606 259.227 223.908 260.993C224.018 261.635 224.889 261.939 225.522 262.097C225.828 262.174 226.663 261.197 226.796 260.993C227.49 259.929 228.256 258.57 227.73 257.255C227.28 256.13 225.835 255.047 224.757 256.151Z" fill="none" opacity="1" stroke="#eebf5b" stroke-linecap="round" stroke-linejoin="round" stroke-width="2.1"/>
<path d="M232.402 255.726C232.346 255.67 232.266 255.484 232.232 255.557C231.569 256.999 230.621 258.395 230.449 259.974C230.372 260.669 230.981 261.355 231.553 261.757C232.478 262.409 233.663 260.693 233.931 260.228C235.629 257.286 232.706 253.481 230.703 256.151" fill="none" opacity="1" stroke="#eebf5b" stroke-linecap="round" stroke-linejoin="round" stroke-width="2.1"/>
<path d="M330.903 260.535C332.456 259.24 333.36 257.323 334.555 255.693C334.733 255.45 334.905 255.188 335.15 255.013C335.756 254.58 334.902 256.483 334.81 257.222C334.599 258.911 334.3 260.697 334.3 262.403" fill="none" opacity="1" stroke="#eebf5b" stroke-linecap="round" stroke-linejoin="round" stroke-width="2.1"/>
<path d="M345.003 257.732C345.003 257.901 345.003 258.071 345.003 258.241" fill="none" opacity="1" stroke="#eebf5b" stroke-linecap="round" stroke-linejoin="round" stroke-width="2.1"/>
<path d="M344.918 260.705C344.918 260.818 344.918 260.931 344.918 261.044" fill="none" opacity="1" stroke="#eebf5b" stroke-linecap="round" stroke-linejoin="round" stroke-width="2.1"/>
<path d="M350.27 255.268C350.127 255.414 349.965 254.557 349.93 254.759C349.62 256.524 349.118 258.344 349.42 260.11C349.53 260.753 350.402 261.056 351.034 261.214C351.34 261.291 352.175 260.314 352.308 260.11C353.002 259.046 353.769 257.687 353.243 256.373C352.793 255.248 351.347 254.164 350.27 255.268Z" fill="none" opacity="1" stroke="#eebf5b" stroke-linecap="round" stroke-linejoin="round" stroke-width="2.1"/>
<path d="M357.915 254.844C357.858 254.787 357.778 254.601 357.745 254.674C357.081 256.116 356.134 257.512 355.961 259.091C355.885 259.786 356.493 260.472 357.065 260.874C357.991 261.526 359.176 259.81 359.444 259.346C361.141 256.403 358.219 252.598 356.216 255.268" fill="none" opacity="1" stroke="#eebf5b" stroke-linecap="round" stroke-linejoin="round" stroke-width="2.1"/>
<path d="M214.55 255.285C213.877 255.621 213.848 256.624 213.603 257.336C213.382 257.979 212.277 263.217 213.498 263.489C215.687 263.975 217.025 258.98 214.129 259.807" fill="none" opacity="1" stroke="#eebf5b" stroke-linecap="round" stroke-linejoin="round" stroke-width="2.1"/>
<path d="M337.728 254.219C338.355 254.219 342.127 254.312 342.146 254.331C342.282 254.467 341.577 256.428 341.552 256.521C341.111 258.174 340.814 260.075 340.141 261.644" fill="none" opacity="1" stroke="#eebf5b" stroke-linecap="round" stroke-linejoin="round" stroke-width="2.1"/>
<path d="M339.287 258.526C339.829 258.255 341.584 258.452 341.886 258.452" fill="none" opacity="1" stroke="#eebf5b" stroke-linecap="round" stroke-linejoin="round" stroke-width="2.1"/>
<path d="M41.6952 5.88661C40.4893 5.48463 38.2793 4.35321 37.3282 5.30433C37.3002 5.33235 37.7649 12.4678 37.7649 12.8739C37.7649 14.1355 37.7649 15.3971 37.7649 16.6587C37.7649 17.5347 37.1484 23.4661 37.4738 23.7915C38.0191 24.3368 40.3324 23.9705 40.9674 23.9371C41.9388 23.8859 42.8683 23.7873 43.7332 23.3548" fill="none" opacity="1" stroke="#eebf5b" stroke-linecap="round" stroke-linejoin="round" stroke-width="1.54963"/>
<path d="M46.499 10.3992C46.0211 9.44343 46.5805 12.535 46.6445 13.6017C46.7609 15.5413 46.9431 17.0511 46.6445 18.8422" fill="none" opacity="1" stroke="#eebf5b" stroke-linecap="round" stroke-linejoin="round" stroke-width="1.54963"/>
<path d="M49.2648 14.6207C48.1798 15.1632 47.5318 16.4058 47.0813 17.5321C46.5538 18.8508 49.3258 18.551 49.5559 18.551" fill="none" opacity="1" stroke="#eebf5b" stroke-linecap="round" stroke-linejoin="round" stroke-width="1.54963"/>
<path d="M52.7584 14.6207C51.6914 14.0872 52.0878 18.2218 52.904 17.6776C53.8244 17.064 53.9815 14.2935 54.3597 14.7663C54.8338 15.359 54.6459 17.3836 55.3786 17.8232C55.9876 18.1886 57.7548 12.3814 58.29 15.0574C58.3964 15.5894 58.4869 16.1244 58.5811 16.6587C58.7733 17.7475 58.6223 17.2188 58.8723 17.9688" fill="none" opacity="1" stroke="#eebf5b" stroke-linecap="round" stroke-linejoin="round" stroke-width="1.54963"/>
<path d="M65.8595 5.88661C65.8595 11.4694 63.9672 16.8583 63.9672 22.3358" fill="none" opacity="1" stroke="#eebf5b" stroke-linecap="round" stroke-linejoin="round" stroke-width="1.54963"/>
<path d="M69.2076 7.05115C70.2627 9.68892 70.0047 12.677 70.3722 15.4941C70.4743 16.2774 70.4344 17.1277 70.8089 17.8232C71.0172 18.2101 72.8892 14.3296 73.138 14.3296C73.4879 14.3296 74.1111 17.1493 74.3025 17.5321" fill="none" opacity="1" stroke="#eebf5b" stroke-linecap="round" stroke-linejoin="round" stroke-width="1.54963"/>
<path d="M75.3215 5.4499C77.8213 5.28324 79.2475 5.0695 82.0176 5.74104C82.4783 5.85271 81.872 8.27383 81.872 8.50683C81.872 10.0358 82.183 11.2394 82.5999 12.7283C84.5474 19.6837 83.8497 20.1523 77.2139 20.1523" fill="none" opacity="1" stroke="#eebf5b" stroke-linecap="round" stroke-linejoin="round" stroke-width="1.54963"/>
<path d="M403.261 236.59C403.261 236.016 403.285 237.738 403.261 238.311C403.165 240.607 402.97 242.898 402.878 245.194C402.791 247.381 402.361 253.505 406.129 253.034C407.803 252.825 407.671 252.699 408.424 251.695" fill="none" opacity="1" stroke="#eebf5b" stroke-linecap="round" stroke-linejoin="round" stroke-width="2.09926"/>
<path d="M397.333 245.959C400.385 244.433 404.109 245.386 407.468 245.386" fill="none" opacity="1" stroke="#eebf5b" stroke-linecap="round" stroke-linejoin="round" stroke-width="2.09926"/>
</g>
</svg>
