<?xml version="1.0" encoding="UTF-8" standalone="no"?>
<!DOCTYPE svg PUBLIC "-//W3C//DTD SVG 1.1//EN" "http://www.w3.org/Graphics/SVG/1.1/DTD/svg11.dtd">
<!-- Created with Vectornator (http://vectornator.io/) -->
<svg height="100%" stroke-miterlimit="10" style="fill-rule:nonzero;clip-rule:evenodd;stroke-linecap:round;stroke-linejoin:round;" version="1.1" viewBox="0 0 793.8 595.35" width="100%" xml:space="preserve" xmlns="http://www.w3.org/2000/svg" xmlns:vectornator="http://vectornator.io" xmlns:xlink="http://www.w3.org/1999/xlink">
<defs/>
<path d="M0 0L793.8 0L793.8 595.35L0 595.35L0 0Z" fill="#ffffff" fill-rule="nonzero" opacity="1" stroke="none"/>
<g id="Ebene-1" vectornator:layerName="Ebene 1">
<g opacity="1" vectornator:layerName="Linie 16">
<path d="M78.5042 58.3101C78.5476 70.6169 79.219 261.128 79.219 261.128" fill="none" stroke="#a3a3a3" stroke-linecap="butt" stroke-linejoin="round" stroke-width="2.6489"/>
<g fill="#a3a3a3" stroke="none">
<path d="M87.5025 65.8279L79.5216 56.1433L78.4921 54.8941L77.4715 56.1505L69.5591 65.8911C69.0979 66.4589 69.1843 67.293 69.752 67.7542C70.3198 68.2154 71.1539 68.129 71.6151 67.5613L79.5275 57.8207L77.4774 57.8279L85.4583 67.5125C85.9235 68.077 86.7582 68.1575 87.3227 67.6923C87.8872 67.2271 87.9677 66.3924 87.5025 65.8279Z" fill="#a3a3a3"/>
</g>
</g>
<path d="M152.861 181.741L216.355 180.796" fill="none" opacity="1" stroke="#eebf5b" stroke-linecap="butt" stroke-linejoin="round" stroke-width="2" vectornator:layerName="Kurve 31"/>
<g opacity="1" vectornator:layerName="Linie 17">
<path d="M334.926 261.521C320.76 261.521 78.8013 261.521 78.8013 261.521" fill="none" stroke="#a3a3a3" stroke-linecap="butt" stroke-linejoin="round" stroke-width="2.6489"/>
<g fill="#a3a3a3" stroke="none">
<path d="M327.377 270.493L337.09 262.546L338.342 261.521L337.09 260.496L327.377 252.549C326.811 252.086 325.976 252.169 325.513 252.735C325.05 253.302 325.133 254.136 325.7 254.599L335.412 262.546L335.412 260.496L325.7 268.442C325.133 268.906 325.05 269.74 325.513 270.306C325.976 270.872 326.811 270.956 327.377 270.493Z" fill="#a3a3a3"/>
</g>
</g>
<path d="M151.624 268.826C151.624 270.048 151.052 271.226 151.052 272.448C151.052 273.083 152.363 272.225 152.958 272.448C154.01 272.842 155.568 274.404 155.054 275.688C154.478 277.129 150.098 277.972 149.337 276.45" fill="none" opacity="1" stroke="#224767" stroke-linecap="round" stroke-linejoin="round" stroke-width="2" vectornator:layerName="Kurve 32"/>
<path d="M150.861 268.826C153.109 268.826 155.259 268.255 157.532 268.255" fill="none" opacity="1" stroke="#224767" stroke-linecap="round" stroke-linejoin="round" stroke-width="2" vectornator:layerName="Kurve 33"/>
<path d="M273.221 273.591C274.405 271.815 275.731 270.137 277.033 268.445C277.415 267.949 276.842 274.062 276.842 275.307" fill="none" opacity="1" stroke="#224767" stroke-linecap="round" stroke-linejoin="round" stroke-width="2" vectornator:layerName="Kurve 34"/>
<path d="M281.607 268.064C282.379 266.52 280.768 270.308 280.845 270.923C280.94 271.684 283.849 271.528 283.322 274.163C283.031 275.619 280.67 274.354 279.701 274.354" fill="none" opacity="1" stroke="#224767" stroke-linecap="round" stroke-linejoin="round" stroke-width="2" vectornator:layerName="Kurve 35"/>
<path d="M280.845 267.492C282.369 267.492 283.894 267.492 285.419 267.492" fill="none" opacity="1" stroke="#224767" stroke-linecap="round" stroke-linejoin="round" stroke-width="2" vectornator:layerName="Kurve 36"/>
<path d="M63.2051 258.124C61.6156 261.084 60.7614 266.626 65.0262 265.56C66.6239 265.16 67.1411 264.57 67.7577 263.132C69.777 258.42 64.7065 255.328 63.2051 258.124Z" fill="none" opacity="1" stroke="#224767" stroke-linecap="round" stroke-linejoin="round" stroke-width="2" vectornator:layerName="Kurve 37"/>
<path d="M44.0568 97.4772C45.4142 96.1198 47.7149 96.0158 48.3058 98.0842C48.9517 100.345 45.2708 102.522 45.2708 104.761C45.2708 106.079 49.8902 106.449 50.4304 105.368" fill="none" opacity="1" stroke="#224767" stroke-linecap="round" stroke-linejoin="round" stroke-width="2" vectornator:layerName="Kurve 38"/>
<path d="M54.2242 98.5394C56.6154 96.3067 50.775 106.865 56.1969 104.154C57.5872 103.459 59.2432 99.1033 57.7145 98.0842C56.3577 97.1797 51.9969 100.619 54.2242 98.5394Z" fill="none" opacity="1" stroke="#224767" stroke-linecap="round" stroke-linejoin="round" stroke-width="2" vectornator:layerName="Kurve 39"/>
<path d="M62.4188 97.6289C62.5786 97.635 62.5909 97.015 62.5705 97.1736C62.2976 99.3023 61.3938 101.418 61.66 103.547C61.6972 103.844 63.7215 104.793 64.3915 104.458C65.8136 103.747 67.5549 100.506 67.1231 98.9947C66.1652 95.6422 61.4522 97.5922 62.4188 97.6289Z" fill="none" opacity="1" stroke="#224767" stroke-linecap="round" stroke-linejoin="round" stroke-width="2" vectornator:layerName="Kurve 40"/>
<path d="M64.7621 36.8807C64.8632 37.083 65.0656 37.2615 65.0656 37.4877C65.0656 40.0189 64.8324 42.545 64.7621 45.0753C64.7366 45.991 64.6559 48.6262 65.0656 47.8068" fill="none" opacity="1" stroke="#224767" stroke-linecap="round" stroke-linejoin="round" stroke-width="2" vectornator:layerName="Kurve 41"/>
<path d="M63.5481 37.7912C65.4956 36.8174 67.784 37.1842 69.9216 37.1842" fill="none" opacity="1" stroke="#224767" stroke-linecap="round" stroke-linejoin="round" stroke-width="2" vectornator:layerName="Kurve 42"/>
<path d="M63.8516 42.3437C66.086 42.3437 68.2952 42.0402 70.5287 42.0402" fill="none" opacity="1" stroke="#224767" stroke-linecap="round" stroke-linejoin="round" stroke-width="2" vectornator:layerName="Kurve 43"/>
<path d="M78.4197 35.3632C72.4364 32.3715 75.0234 41.5782 74.7777 44.7718C74.7357 45.3181 73.9892 48.0706 74.4742 48.7173C75.1272 49.5879 77.8539 49.152 78.7232 48.7173" fill="none" opacity="1" stroke="#224767" stroke-linecap="round" stroke-linejoin="round" stroke-width="2" vectornator:layerName="Kurve 44"/>
<path d="M83.4228 36.8998C83.7483 39.1783 83.6196 41.4883 83.6196 43.7873" fill="none" opacity="1" stroke="#224767" stroke-linecap="round" stroke-linejoin="round" stroke-width="2" vectornator:layerName="Kurve 45"/>
<path d="M83.3244 37.0966C84.268 38.512 85.2462 39.9042 86.1778 41.3275C86.6311 42.0201 86.7522 43.193 87.5553 43.3937C87.8798 43.4749 87.7298 42.7435 87.7521 42.4098C87.8571 40.834 87.9262 39.2604 88.0473 37.6869C88.071 37.378 88.1457 36.1007 88.1457 36.4078" fill="none" opacity="1" stroke="#224767" stroke-linecap="round" stroke-linejoin="round" stroke-width="2" vectornator:layerName="Kurve 46"/>
<path d="M90.9007 33.2593C89.2495 33.2593 91.9642 33.7907 92.3766 33.8496C93.0204 33.9416 93.919 33.4082 94.3444 34.0464C94.7743 34.6912 94.1642 41.4444 94.246 42.5082C94.3214 43.4884 94.6923 46.0785 94.0492 46.9359C93.7103 47.3878 91.1177 47.4652 90.5071 47.5262C90.414 47.5356 88.9856 47.5262 89.5232 47.5262" fill="none" opacity="1" stroke="#224767" stroke-linecap="round" stroke-linejoin="round" stroke-width="2" vectornator:layerName="Kurve 47"/>
<path d="M349.675 256.05C350.279 259.672 345.932 269.36 352.739 265.956" fill="none" opacity="1" stroke="#224767" stroke-linecap="round" stroke-linejoin="round" stroke-width="2" vectornator:layerName="Kurve 48"/>
<path d="M346.816 260.952C346.474 260.952 347.495 261.046 347.837 261.054C349.232 261.089 350.776 260.43 352.024 261.054" fill="none" opacity="1" stroke="#224767" stroke-linecap="round" stroke-linejoin="round" stroke-width="2" vectornator:layerName="Kurve 49"/>
<path d="M361.726 254.212C361.171 253.287 360.003 252.082 358.867 252.271C358.161 252.389 358.715 253.702 358.765 254.416C358.914 256.576 358.969 258.677 358.969 260.85C358.969 261.565 358.969 262.28 358.969 262.995C358.969 263.442 358.787 268.294 359.071 268.407C360.259 268.882 362.48 268.407 363.769 268.407" fill="none" opacity="1" stroke="#224767" stroke-linecap="round" stroke-linejoin="round" stroke-width="2" vectornator:layerName="Kurve 50"/>
<path d="M368.773 259.42C368.389 258.266 365.763 259.429 366.016 260.441C366.145 260.96 370.064 263.709 368.058 263.709C367.451 263.709 366.825 263.669 366.22 263.709C365.57 263.753 365.137 263.975 364.586 263.607" fill="none" opacity="1" stroke="#224767" stroke-linecap="round" stroke-linejoin="round" stroke-width="2" vectornator:layerName="Kurve 51"/>
<path d="M370.611 252.986C370.611 252.078 375.953 252.514 376.739 252.986C376.941 253.107 376.793 253.372 376.739 253.497C375.872 255.52 376.168 258.183 375.922 260.339C375.658 262.653 375.718 264.956 375.718 267.284C375.718 267.483 376.026 268.856 375.718 268.918C374.752 269.111 373.03 268.612 371.939 268.612" fill="none" opacity="1" stroke="#224767" stroke-linecap="round" stroke-linejoin="round" stroke-width="2" vectornator:layerName="Kurve 52"/>
<path d="M209.619 101.061C207.577 101.061 205.572 100.918 203.551 100.693" fill="none" opacity="1" stroke="#d1d1d1" stroke-linecap="round" stroke-linejoin="round" stroke-width="2" vectornator:layerName="Kurve 53"/>
<path d="M196.564 100.877C194.541 100.877 192.519 100.877 190.496 100.877" fill="none" opacity="1" stroke="#d1d1d1" stroke-linecap="round" stroke-linejoin="round" stroke-width="2" vectornator:layerName="Kurve 54"/>
<path d="M183.509 101.061C181.349 101.061 179.222 101.03 177.073 101.245" fill="none" opacity="1" stroke="#d1d1d1" stroke-linecap="round" stroke-linejoin="round" stroke-width="2" vectornator:layerName="Kurve 55"/>
<path d="M169.534 101.061C167.45 101.061 165.366 101.061 163.282 101.061" fill="none" opacity="1" stroke="#d1d1d1" stroke-linecap="round" stroke-linejoin="round" stroke-width="2" vectornator:layerName="Kurve 56"/>
<path d="M158.869 101.061C157.15 101.061 155.444 100.877 153.721 100.877" fill="none" opacity="1" stroke="#d1d1d1" stroke-linecap="round" stroke-linejoin="round" stroke-width="2" vectornator:layerName="Kurve 57"/>
<path d="M146.55 100.877C144.879 100.877 143.236 100.786 141.585 101.061" fill="none" opacity="1" stroke="#d1d1d1" stroke-linecap="round" stroke-linejoin="round" stroke-width="2" vectornator:layerName="Kurve 58"/>
<path d="M136.436 101.061C134.046 101.061 131.656 101.061 129.265 101.061" fill="none" opacity="1" stroke="#d1d1d1" stroke-linecap="round" stroke-linejoin="round" stroke-width="2" vectornator:layerName="Kurve 59"/>
<path d="M122.83 100.877C120.969 100.877 119.121 101.245 117.313 101.245" fill="none" opacity="1" stroke="#d1d1d1" stroke-linecap="round" stroke-linejoin="round" stroke-width="2" vectornator:layerName="Kurve 60"/>
<path d="M109.59 100.877C107.833 100.291 105.892 100.877 104.074 100.877" fill="none" opacity="1" stroke="#d1d1d1" stroke-linecap="round" stroke-linejoin="round" stroke-width="2" vectornator:layerName="Kurve 61"/>
<path d="M98.7417 100.877C96.6479 100.877 94.5775 101.061 92.4899 101.061" fill="none" opacity="1" stroke="#d1d1d1" stroke-linecap="round" stroke-linejoin="round" stroke-width="2" vectornator:layerName="Kurve 62"/>
<path d="M87.3414 101.245C86.0579 100.603 83.7106 101.061 82.1928 101.061" fill="none" opacity="1" stroke="#d1d1d1" stroke-linecap="round" stroke-linejoin="round" stroke-width="2" vectornator:layerName="Kurve 63"/>
<g opacity="1" vectornator:layerName="Linie 18">
<path d="M452.796 58.3101C452.839 70.6169 453.51 261.128 453.51 261.128" fill="none" stroke="#a3a3a3" stroke-linecap="butt" stroke-linejoin="round" stroke-width="2.6489"/>
<g fill="#a3a3a3" stroke="none">
<path d="M461.794 65.8279L453.813 56.1433L452.783 54.8941L451.763 56.1505L443.85 65.8911C443.389 66.4589 443.476 67.293 444.043 67.7542C444.611 68.2154 445.445 68.129 445.906 67.5613L453.819 57.8207L451.769 57.8279L459.75 67.5125C460.215 68.077 461.05 68.1575 461.614 67.6923C462.179 67.2271 462.259 66.3924 461.794 65.8279Z" fill="#a3a3a3"/>
</g>
</g>
<path d="M527.029 261.521L527.341 261.487L654.14 100.673" fill="none" opacity="1" stroke="#eebf5b" stroke-linecap="butt" stroke-linejoin="round" stroke-width="2" vectornator:layerName="Kurve 64"/>
<g opacity="1" vectornator:layerName="Linie 19">
<path d="M709.218 261.521C695.051 261.521 453.093 261.521 453.093 261.521" fill="none" stroke="#a3a3a3" stroke-linecap="butt" stroke-linejoin="round" stroke-width="2.6489"/>
<g fill="#a3a3a3" stroke="none">
<path d="M701.668 270.493L711.381 262.546L712.634 261.521L711.381 260.496L701.668 252.549C701.102 252.086 700.268 252.169 699.805 252.735C699.341 253.302 699.425 254.136 699.991 254.599L709.704 262.546L709.704 260.496L699.991 268.442C699.425 268.906 699.341 269.74 699.805 270.306C700.268 270.872 701.102 270.956 701.668 270.493Z" fill="#a3a3a3"/>
</g>
</g>
<path d="M437.496 258.124C435.907 261.084 435.053 266.626 439.317 265.56C440.915 265.16 441.432 264.57 442.049 263.132C444.068 258.42 438.998 255.328 437.496 258.124Z" fill="none" opacity="1" stroke="#224767" stroke-linecap="round" stroke-linejoin="round" stroke-width="2" vectornator:layerName="Kurve 70"/>
<path d="M439.053 36.8807C439.155 37.083 439.357 37.2615 439.357 37.4877C439.357 40.0189 439.124 42.545 439.053 45.0753C439.028 45.991 438.947 48.6262 439.357 47.8068" fill="none" opacity="1" stroke="#224767" stroke-linecap="round" stroke-linejoin="round" stroke-width="2" vectornator:layerName="Kurve 74"/>
<path d="M437.839 37.7912C439.787 36.8174 442.075 37.1842 444.213 37.1842" fill="none" opacity="1" stroke="#224767" stroke-linecap="round" stroke-linejoin="round" stroke-width="2" vectornator:layerName="Kurve 75"/>
<path d="M438.143 42.3437C440.377 42.3437 442.587 42.0402 444.82 42.0402" fill="none" opacity="1" stroke="#224767" stroke-linecap="round" stroke-linejoin="round" stroke-width="2" vectornator:layerName="Kurve 76"/>
<path d="M452.711 35.3632C446.728 32.3715 449.315 41.5782 449.069 44.7718C449.027 45.3181 448.281 48.0706 448.766 48.7173C449.418 49.5879 452.145 49.152 453.015 48.7173" fill="none" opacity="1" stroke="#224767" stroke-linecap="round" stroke-linejoin="round" stroke-width="2" vectornator:layerName="Kurve 77"/>
<path d="M457.714 36.8998C458.04 39.1783 457.911 41.4883 457.911 43.7873" fill="none" opacity="1" stroke="#224767" stroke-linecap="round" stroke-linejoin="round" stroke-width="2" vectornator:layerName="Kurve 78"/>
<path d="M457.616 37.0966C458.559 38.512 459.538 39.9042 460.469 41.3275C460.922 42.0201 461.044 43.193 461.847 43.3937C462.171 43.4749 462.021 42.7435 462.043 42.4098C462.148 40.834 462.218 39.2604 462.339 37.6869C462.362 37.378 462.437 36.1007 462.437 36.4078" fill="none" opacity="1" stroke="#224767" stroke-linecap="round" stroke-linejoin="round" stroke-width="2" vectornator:layerName="Kurve 79"/>
<path d="M465.192 33.2593C463.541 33.2593 466.256 33.7907 466.668 33.8496C467.312 33.9416 468.21 33.4082 468.636 34.0464C469.066 34.6912 468.456 41.4444 468.537 42.5082C468.613 43.4884 468.984 46.0785 468.341 46.9359C468.002 47.3878 465.409 47.4652 464.798 47.5262C464.705 47.5356 463.277 47.5262 463.814 47.5262" fill="none" opacity="1" stroke="#224767" stroke-linecap="round" stroke-linejoin="round" stroke-width="2" vectornator:layerName="Kurve 80"/>
<path d="M723.967 256.05C724.57 259.672 720.224 269.36 727.031 265.956" fill="none" opacity="1" stroke="#224767" stroke-linecap="round" stroke-linejoin="round" stroke-width="2" vectornator:layerName="Kurve 81"/>
<path d="M721.107 260.952C720.765 260.952 721.786 261.046 722.128 261.054C723.524 261.089 725.067 260.43 726.316 261.054" fill="none" opacity="1" stroke="#224767" stroke-linecap="round" stroke-linejoin="round" stroke-width="2" vectornator:layerName="Kurve 82"/>
<path d="M736.018 254.212C735.463 253.287 734.294 252.082 733.158 252.271C732.452 252.389 733.007 253.702 733.056 254.416C733.205 256.576 733.26 258.677 733.26 260.85C733.26 261.565 733.26 262.28 733.26 262.995C733.26 263.442 733.078 268.294 733.362 268.407C734.55 268.882 736.772 268.407 738.06 268.407" fill="none" opacity="1" stroke="#224767" stroke-linecap="round" stroke-linejoin="round" stroke-width="2" vectornator:layerName="Kurve 83"/>
<path d="M743.064 259.42C742.68 258.266 740.054 259.429 740.307 260.441C740.437 260.96 744.355 263.709 742.35 263.709C741.742 263.709 741.116 263.669 740.511 263.709C739.861 263.753 739.429 263.975 738.877 263.607" fill="none" opacity="1" stroke="#224767" stroke-linecap="round" stroke-linejoin="round" stroke-width="2" vectornator:layerName="Kurve 84"/>
<path d="M744.903 252.986C744.903 252.078 750.244 252.514 751.03 252.986C751.232 253.107 751.084 253.372 751.03 253.497C750.164 255.52 750.46 258.183 750.213 260.339C749.949 262.653 750.009 264.956 750.009 267.284C750.009 267.483 750.317 268.856 750.009 268.918C749.043 269.111 747.321 268.612 746.23 268.612" fill="none" opacity="1" stroke="#224767" stroke-linecap="round" stroke-linejoin="round" stroke-width="2" vectornator:layerName="Kurve 85"/>
<path d="M583.911 101.061C581.869 101.061 579.863 100.918 577.843 100.693" fill="none" opacity="1" stroke="#d1d1d1" stroke-linecap="round" stroke-linejoin="round" stroke-width="2" vectornator:layerName="Kurve 86"/>
<path d="M570.855 100.877C568.833 100.877 566.81 100.877 564.787 100.877" fill="none" opacity="1" stroke="#d1d1d1" stroke-linecap="round" stroke-linejoin="round" stroke-width="2" vectornator:layerName="Kurve 87"/>
<path d="M557.8 101.061C555.64 101.061 553.514 101.03 551.364 101.245" fill="none" opacity="1" stroke="#d1d1d1" stroke-linecap="round" stroke-linejoin="round" stroke-width="2" vectornator:layerName="Kurve 88"/>
<path d="M543.825 101.061C541.742 101.061 539.658 101.061 537.574 101.061" fill="none" opacity="1" stroke="#d1d1d1" stroke-linecap="round" stroke-linejoin="round" stroke-width="2" vectornator:layerName="Kurve 89"/>
<path d="M637.11 101.52C635.068 101.52 633.063 101.377 631.042 101.152" fill="none" opacity="1" stroke="#d1d1d1" stroke-linecap="round" stroke-linejoin="round" stroke-width="2" vectornator:layerName="Kurve 103"/>
<path d="M624.055 101.336C622.032 101.336 620.01 101.336 617.987 101.336" fill="none" opacity="1" stroke="#d1d1d1" stroke-linecap="round" stroke-linejoin="round" stroke-width="2" vectornator:layerName="Kurve 104"/>
<path d="M611 101.52C608.84 101.52 606.713 101.489 604.564 101.704" fill="none" opacity="1" stroke="#d1d1d1" stroke-linecap="round" stroke-linejoin="round" stroke-width="2" vectornator:layerName="Kurve 105"/>
<path d="M597.025 101.52C594.941 101.52 592.857 101.52 590.773 101.52" fill="none" opacity="1" stroke="#d1d1d1" stroke-linecap="round" stroke-linejoin="round" stroke-width="2" vectornator:layerName="Kurve 106"/>
<path d="M533.161 101.061C531.442 101.061 529.735 100.877 528.012 100.877" fill="none" opacity="1" stroke="#d1d1d1" stroke-linecap="round" stroke-linejoin="round" stroke-width="2" vectornator:layerName="Kurve 90"/>
<path d="M520.841 100.877C519.17 100.877 517.527 100.786 515.876 101.061" fill="none" opacity="1" stroke="#d1d1d1" stroke-linecap="round" stroke-linejoin="round" stroke-width="2" vectornator:layerName="Kurve 91"/>
<path d="M510.728 101.061C508.337 101.061 505.947 101.061 503.557 101.061" fill="none" opacity="1" stroke="#d1d1d1" stroke-linecap="round" stroke-linejoin="round" stroke-width="2" vectornator:layerName="Kurve 92"/>
<path d="M164.843 396.607C162.801 396.607 160.796 396.463 158.775 396.239" fill="none" opacity="1" stroke="#d1d1d1" stroke-linecap="round" stroke-linejoin="round" stroke-width="2" vectornator:layerName="Kurve 199"/>
<path d="M151.788 396.423C149.765 396.423 147.742 396.423 145.72 396.423" fill="none" opacity="1" stroke="#d1d1d1" stroke-linecap="round" stroke-linejoin="round" stroke-width="2" vectornator:layerName="Kurve 200"/>
<path d="M138.733 396.607C136.572 396.607 134.446 396.576 132.297 396.791" fill="none" opacity="1" stroke="#d1d1d1" stroke-linecap="round" stroke-linejoin="round" stroke-width="2" vectornator:layerName="Kurve 201"/>
<path d="M204.299 397.251C202.139 397.251 200.013 397.22 197.864 397.435" fill="none" opacity="1" stroke="#d1d1d1" stroke-linecap="round" stroke-linejoin="round" stroke-width="2" vectornator:layerName="Kurve 208"/>
<path d="M124.758 396.607C122.674 396.607 120.59 396.607 118.506 396.607" fill="none" opacity="1" stroke="#d1d1d1" stroke-linecap="round" stroke-linejoin="round" stroke-width="2" vectornator:layerName="Kurve 202"/>
<path d="M191.932 397.066C189.772 397.066 187.646 397.035 185.497 397.25" fill="none" opacity="1" stroke="#d1d1d1" stroke-linecap="round" stroke-linejoin="round" stroke-width="2" vectornator:layerName="Kurve 203"/>
<path d="M177.958 397.066C175.874 397.066 173.79 397.066 171.706 397.066" fill="none" opacity="1" stroke="#d1d1d1" stroke-linecap="round" stroke-linejoin="round" stroke-width="2" vectornator:layerName="Kurve 204"/>
<path d="M114.093 396.607C112.374 396.607 110.668 396.423 108.945 396.423" fill="none" opacity="1" stroke="#d1d1d1" stroke-linecap="round" stroke-linejoin="round" stroke-width="2" vectornator:layerName="Kurve 205"/>
<path d="M101.773 396.423C100.103 396.423 98.4599 396.332 96.8087 396.607" fill="none" opacity="1" stroke="#d1d1d1" stroke-linecap="round" stroke-linejoin="round" stroke-width="2" vectornator:layerName="Kurve 206"/>
<path d="M101.623 546.109C101.623 546.109 123.925 553.686 150.348 516.187C176.771 478.688 189.701 396.211 207.316 396.115C224.932 396.019 234.17 476.099 258.561 513.502C282.952 550.905 304.879 545.726 304.879 545.726L101.623 546.109Z" fill="none" opacity="1" stroke="#eebf5b" stroke-linecap="butt" stroke-linejoin="round" stroke-width="2" vectornator:layerName="Kurve 177"/>
<path d="M91.6602 396.607C89.2698 396.607 86.8794 396.607 84.489 396.607" fill="none" opacity="1" stroke="#d1d1d1" stroke-linecap="round" stroke-linejoin="round" stroke-width="2" vectornator:layerName="Kurve 207"/>
<path d="M650.843 101.518C648.452 101.518 646.062 101.518 643.672 101.518" fill="none" opacity="1" stroke="#d1d1d1" stroke-linecap="round" stroke-linejoin="round" stroke-width="2" vectornator:layerName="Kurve 107"/>
<path d="M497.121 100.877C495.261 100.877 493.412 101.245 491.605 101.245" fill="none" opacity="1" stroke="#d1d1d1" stroke-linecap="round" stroke-linejoin="round" stroke-width="2" vectornator:layerName="Kurve 93"/>
<path d="M483.882 100.877C482.124 100.291 480.183 100.877 478.365 100.877" fill="none" opacity="1" stroke="#d1d1d1" stroke-linecap="round" stroke-linejoin="round" stroke-width="2" vectornator:layerName="Kurve 94"/>
<path d="M473.033 100.877C470.939 100.877 468.869 101.061 466.781 101.061" fill="none" opacity="1" stroke="#d1d1d1" stroke-linecap="round" stroke-linejoin="round" stroke-width="2" vectornator:layerName="Kurve 95"/>
<path d="M461.633 101.245C460.349 100.603 458.002 101.061 456.484 101.061" fill="none" opacity="1" stroke="#d1d1d1" stroke-linecap="round" stroke-linejoin="round" stroke-width="2" vectornator:layerName="Kurve 96"/>
<path d="M425.25 104.561C426.846 102.434 428.15 100.102 429.519 97.8213C429.691 97.5342 429.65 96.8168 429.968 96.9227C431.105 97.3016 430.087 99.3251 429.968 100.517C429.765 102.547 429.579 104.585 429.294 106.583C429.262 106.806 429.294 109.416 429.294 108.156" fill="none" opacity="1" stroke="#224767" stroke-linecap="round" stroke-linejoin="round" stroke-width="2" vectornator:layerName="Kurve 101"/>
<path d="M434.461 97.5967C435.013 95.9411 436.847 95.7693 437.831 97.1473C438.734 98.4109 435.286 99.5947 435.809 100.293C437.037 101.93 440.237 100.779 439.404 104.112C438.468 107.855 432.017 108.002 434.012 105.011" fill="none" opacity="1" stroke="#224767" stroke-linecap="round" stroke-linejoin="round" stroke-width="2" vectornator:layerName="Kurve 102"/>
<g opacity="1" vectornator:layerName="Linie 20">
<path d="M79.6688 343.175C79.7122 355.482 80.3836 545.994 80.3836 545.994" fill="none" stroke="#a3a3a3" stroke-linecap="butt" stroke-linejoin="round" stroke-width="2.6489"/>
<g fill="#a3a3a3" stroke="none">
<path d="M88.6671 350.693L80.6862 341.009L79.6568 339.759L78.6361 341.016L70.7237 350.756C70.2625 351.324 70.3489 352.158 70.9166 352.619C71.4844 353.081 72.3185 352.994 72.7797 352.426L80.6921 342.686L78.642 342.693L86.6229 352.378C87.0881 352.942 87.9228 353.023 88.4873 352.558C89.0518 352.092 89.1323 351.258 88.6671 350.693Z" fill="#a3a3a3"/>
</g>
</g>
<g opacity="1" vectornator:layerName="Linie 21">
<path d="M336.091 546.386C321.924 546.386 79.9659 546.386 79.9659 546.386" fill="none" stroke="#a3a3a3" stroke-linecap="butt" stroke-linejoin="round" stroke-width="2.6489"/>
<g fill="#a3a3a3" stroke="none">
<path d="M328.542 555.358L338.254 547.411L339.507 546.386L338.254 545.361L328.542 537.414C327.975 536.951 327.141 537.035 326.678 537.601C326.215 538.167 326.298 539.001 326.864 539.464L336.577 547.411L336.577 545.361L326.864 553.308C326.298 553.771 326.215 554.605 326.678 555.171C327.141 555.738 327.975 555.821 328.542 555.358Z" fill="#a3a3a3"/>
</g>
</g>
<path d="M64.3697 542.989C62.7802 545.95 61.926 551.491 66.1908 550.425C67.7885 550.026 68.3057 549.436 68.9223 547.997C70.9416 543.285 65.8711 540.193 64.3697 542.989Z" fill="none" opacity="1" stroke="#224767" stroke-linecap="round" stroke-linejoin="round" stroke-width="2" vectornator:layerName="Kurve 114"/>
<path d="M65.9267 321.746C66.0279 321.948 66.2302 322.127 66.2302 322.353C66.2302 324.884 65.997 327.41 65.9267 329.941C65.9013 330.856 65.8205 333.491 66.2302 332.672" fill="none" opacity="1" stroke="#224767" stroke-linecap="round" stroke-linejoin="round" stroke-width="2" vectornator:layerName="Kurve 118"/>
<path d="M64.7127 322.656C66.6602 321.683 68.9487 322.049 71.0863 322.049" fill="none" opacity="1" stroke="#224767" stroke-linecap="round" stroke-linejoin="round" stroke-width="2" vectornator:layerName="Kurve 119"/>
<path d="M65.0162 327.209C67.2506 327.209 69.4598 326.905 71.6933 326.905" fill="none" opacity="1" stroke="#224767" stroke-linecap="round" stroke-linejoin="round" stroke-width="2" vectornator:layerName="Kurve 120"/>
<path d="M79.5844 320.228C73.601 317.237 76.188 326.443 75.9423 329.637C75.9003 330.183 75.1538 332.936 75.6388 333.583C76.2918 334.453 79.0185 334.017 79.8879 333.583" fill="none" opacity="1" stroke="#224767" stroke-linecap="round" stroke-linejoin="round" stroke-width="2" vectornator:layerName="Kurve 121"/>
<path d="M84.5874 321.765C84.9129 324.044 84.7842 326.353 84.7842 328.653" fill="none" opacity="1" stroke="#224767" stroke-linecap="round" stroke-linejoin="round" stroke-width="2" vectornator:layerName="Kurve 122"/>
<path d="M84.489 321.962C85.4326 323.377 86.4108 324.769 87.3424 326.193C87.7958 326.885 87.9169 328.058 88.7199 328.259C89.0444 328.34 88.8945 327.609 88.9167 327.275C89.0218 325.699 89.0908 324.126 89.2119 322.552C89.2356 322.243 89.3103 320.966 89.3103 321.273" fill="none" opacity="1" stroke="#224767" stroke-linecap="round" stroke-linejoin="round" stroke-width="2" vectornator:layerName="Kurve 123"/>
<path d="M92.0653 318.124C90.4141 318.124 93.1288 318.656 93.5412 318.715C94.185 318.807 95.0836 318.273 95.509 318.912C95.9389 319.556 95.3288 326.31 95.4106 327.373C95.486 328.354 95.8569 330.944 95.2139 331.801C94.875 332.253 92.2823 332.33 91.6717 332.391C91.5786 332.401 90.1502 332.391 90.6878 332.391" fill="none" opacity="1" stroke="#224767" stroke-linecap="round" stroke-linejoin="round" stroke-width="2" vectornator:layerName="Kurve 124"/>
<path d="M350.84 540.915C351.444 544.537 347.097 554.225 353.904 550.821" fill="none" opacity="1" stroke="#224767" stroke-linecap="round" stroke-linejoin="round" stroke-width="2" vectornator:layerName="Kurve 125"/>
<path d="M347.98 545.817C347.638 545.817 348.66 545.911 349.002 545.919C350.397 545.954 351.941 545.295 353.189 545.919" fill="none" opacity="1" stroke="#224767" stroke-linecap="round" stroke-linejoin="round" stroke-width="2" vectornator:layerName="Kurve 126"/>
<path d="M362.891 539.077C362.336 538.152 361.167 536.947 360.031 537.136C359.325 537.254 359.88 538.567 359.929 539.281C360.078 541.441 360.134 543.542 360.134 545.715C360.134 546.43 360.134 547.145 360.134 547.86C360.134 548.307 359.951 553.159 360.236 553.273C361.423 553.748 363.645 553.273 364.934 553.273" fill="none" opacity="1" stroke="#224767" stroke-linecap="round" stroke-linejoin="round" stroke-width="2" vectornator:layerName="Kurve 127"/>
<path d="M369.938 544.285C369.553 543.131 366.927 544.294 367.18 545.307C367.31 545.825 371.228 548.575 369.223 548.575C368.616 548.575 367.99 548.534 367.385 548.575C366.735 548.618 366.302 548.84 365.751 548.473" fill="none" opacity="1" stroke="#224767" stroke-linecap="round" stroke-linejoin="round" stroke-width="2" vectornator:layerName="Kurve 128"/>
<path d="M371.776 537.851C371.776 536.943 377.117 537.38 377.904 537.851C378.105 537.972 377.957 538.237 377.904 538.362C377.037 540.385 377.333 543.049 377.087 545.205C376.822 547.518 376.882 549.821 376.882 552.149C376.882 552.348 377.19 553.722 376.882 553.783C375.916 553.976 374.195 553.477 373.104 553.477" fill="none" opacity="1" stroke="#224767" stroke-linecap="round" stroke-linejoin="round" stroke-width="2" vectornator:layerName="Kurve 129"/>
<path d="M207.415 396.698C207.415 398.198 207.089 399.625 207.415 401.104" fill="none" opacity="1" stroke="#d1d1d1" stroke-linecap="round" stroke-linejoin="round" stroke-width="2" vectornator:layerName="Kurve 178"/>
<path d="M207.838 408.929C207.838 411.112 207.627 413.294 207.627 415.486" fill="none" opacity="1" stroke="#d1d1d1" stroke-linecap="round" stroke-linejoin="round" stroke-width="2" vectornator:layerName="Kurve 179"/>
<path d="M207.627 422.888C207.627 425.074 207.627 427.259 207.627 429.445" fill="none" opacity="1" stroke="#d1d1d1" stroke-linecap="round" stroke-linejoin="round" stroke-width="2" vectornator:layerName="Kurve 180"/>
<path d="M207.415 435.578C207.415 437.623 207.415 439.667 207.415 441.712" fill="none" opacity="1" stroke="#d1d1d1" stroke-linecap="round" stroke-linejoin="round" stroke-width="2" vectornator:layerName="Kurve 181"/>
<path d="M207.204 451.441C207.204 452.851 207.204 454.261 207.204 455.671" fill="none" opacity="1" stroke="#d1d1d1" stroke-linecap="round" stroke-linejoin="round" stroke-width="2" vectornator:layerName="Kurve 182"/>
<path d="M207.415 463.708C206.965 465.509 207.204 467.363 207.204 469.207" fill="none" opacity="1" stroke="#d1d1d1" stroke-linecap="round" stroke-linejoin="round" stroke-width="2" vectornator:layerName="Kurve 183"/>
<path d="M206.992 478.724C206.992 480.487 206.992 482.249 206.992 484.012" fill="none" opacity="1" stroke="#d1d1d1" stroke-linecap="round" stroke-linejoin="round" stroke-width="2" vectornator:layerName="Kurve 184"/>
<path d="M206.992 492.26C206.992 494.587 206.992 496.913 206.992 499.24" fill="none" opacity="1" stroke="#d1d1d1" stroke-linecap="round" stroke-linejoin="round" stroke-width="2" vectornator:layerName="Kurve 185"/>
<path d="M206.781 508.123C206.781 510.027 206.781 511.93 206.781 513.834" fill="none" opacity="1" stroke="#d1d1d1" stroke-linecap="round" stroke-linejoin="round" stroke-width="2" vectornator:layerName="Kurve 186"/>
<path d="M206.569 520.813C206.569 523.069 206.569 525.325 206.569 527.581" fill="none" opacity="1" stroke="#d1d1d1" stroke-linecap="round" stroke-linejoin="round" stroke-width="2" vectornator:layerName="Kurve 187"/>
<path d="M206.781 535.83C206.781 538.579 206.781 541.329 206.781 544.078" fill="none" opacity="1" stroke="#d1d1d1" stroke-linecap="round" stroke-linejoin="round" stroke-width="2" vectornator:layerName="Kurve 188"/>
<path d="M198.287 553.339C198.287 557.217 197.209 558.909 201.551 557.462" fill="none" opacity="1" stroke="#224767" stroke-linecap="round" stroke-linejoin="round" stroke-width="2" vectornator:layerName="Kurve 189"/>
<path d="M201.379 552.995C200.346 555.062 201.035 558.288 201.035 560.725" fill="none" opacity="1" stroke="#224767" stroke-linecap="round" stroke-linejoin="round" stroke-width="2" vectornator:layerName="Kurve 190"/>
<path d="M204.299 559.351C204.563 559.879 204.365 559.624 204.987 560.038" fill="none" opacity="1" stroke="#224767" stroke-linecap="round" stroke-linejoin="round" stroke-width="2" vectornator:layerName="Kurve 191"/>
<path d="M208.079 552.48C208.079 551.598 209.501 551.513 209.968 552.136C210.763 553.196 210.083 554.598 209.281 555.4C209.167 555.515 208.848 555.609 208.938 555.744C209.184 556.114 210.335 556.133 210.655 556.774C212.035 559.533 210.014 559.351 208.25 559.351" fill="none" opacity="1" stroke="#224767" stroke-linecap="round" stroke-linejoin="round" stroke-width="2" vectornator:layerName="Kurve 192"/>
<path d="M214.091 553.339C212.084 555.346 215.844 556.3 216.152 558.149C216.369 559.446 213.919 560.425 213.919 559.008" fill="none" opacity="1" stroke="#224767" stroke-linecap="round" stroke-linejoin="round" stroke-width="2" vectornator:layerName="Kurve 193"/>
<path d="M214.091 553.511C215.292 552.91 216.961 553.622 218.214 552.995" fill="none" opacity="1" stroke="#224767" stroke-linecap="round" stroke-linejoin="round" stroke-width="2" vectornator:layerName="Kurve 194"/>
<path d="M112.567 554.198C112.567 553.216 114.244 552.539 115.144 552.652C116.896 552.871 114.249 555.465 114.285 555.572C114.404 555.93 116.092 555.721 116.518 556.431C118.485 559.709 115.759 560.038 113.082 560.038" fill="none" opacity="1" stroke="#224767" stroke-linecap="round" stroke-linejoin="round" stroke-width="2" vectornator:layerName="Kurve 195"/>
<path d="M119.954 560.21C120.166 560.847 119.963 560.806 120.469 560.554" fill="none" opacity="1" stroke="#224767" stroke-linecap="round" stroke-linejoin="round" stroke-width="2" vectornator:layerName="Kurve 196"/>
<path d="M125.623 552.48C125.623 550.001 122.106 552.465 123.218 553.854C124.169 555.044 125.5 553.536 125.794 552.652C125.904 552.321 125.81 551.309 125.966 551.621C126.695 553.078 126.138 557.116 126.138 558.836" fill="none" opacity="1" stroke="#224767" stroke-linecap="round" stroke-linejoin="round" stroke-width="2" vectornator:layerName="Kurve 197"/>
<path d="M129.488 554.799C129.526 554.787 129.569 554.673 129.574 554.713C129.72 555.912 129.357 557.251 129.917 558.321C130.156 558.777 130.979 558.497 131.463 558.321C132.635 557.895 132.323 554.629 131.807 553.854C130.532 551.942 128.438 555.129 129.488 554.799Z" fill="none" opacity="1" stroke="#224767" stroke-linecap="round" stroke-linejoin="round" stroke-width="2" vectornator:layerName="Kurve 198"/>
<path d="M46.5011 392.256C45.9194 392.546 44.655 394.187 45.3205 394.853C46.5646 396.097 50.0831 394.948 49.0984 398.395C48.4573 400.639 43.3481 400.534 44.1399 398.159" fill="none" opacity="1" stroke="#224767" stroke-linecap="round" stroke-linejoin="round" stroke-width="2" vectornator:layerName="Kurve 209"/>
<path d="M46.5011 391.311C47.9976 390.563 50.5595 391.547 52.4041 391.547" fill="none" opacity="1" stroke="#224767" stroke-linecap="round" stroke-linejoin="round" stroke-width="2" vectornator:layerName="Kurve 210"/>
<path d="M55.4736 390.131C54.4025 392.273 58.107 390.403 58.7792 391.075C59.03 391.326 56.2227 399.771 57.8348 398.159" fill="none" opacity="1" stroke="#224767" stroke-linecap="round" stroke-linejoin="round" stroke-width="2" vectornator:layerName="Kurve 211"/>
<path d="M57.1264 395.325C57.1264 394.612 55.7141 395.089 55.0014 395.089C54.5226 395.089 55.9393 395.325 56.4181 395.325C56.8116 395.325 57.2051 395.325 57.5986 395.325C57.8348 395.325 58.5431 395.325 58.307 395.325C57.3625 395.325 57.1264 396.034 57.1264 395.325Z" fill="none" opacity="1" stroke="#224767" stroke-linecap="round" stroke-linejoin="round" stroke-width="2" vectornator:layerName="Kurve 212"/>
<path d="M61.1404 398.867C61.4552 399.497 61.2191 399.418 61.8488 399.103" fill="none" opacity="1" stroke="#224767" stroke-linecap="round" stroke-linejoin="round" stroke-width="2" vectornator:layerName="Kurve 213"/>
<path d="M65.0469 394.212C63.9789 394.212 66.3094 392.482 67.0484 391.71C67.538 391.2 67.9607 390.602 68.5495 390.209C69.0144 389.899 68.452 391.323 68.3827 391.877C68.3203 392.377 68.2411 392.876 68.2159 393.378C68.1275 395.147 68.2159 396.943 68.2159 398.716" fill="none" opacity="1" stroke="#224767" stroke-linecap="round" stroke-linejoin="round" stroke-width="2" vectornator:layerName="Kurve 238"/>
<path d="M645.488 270.278C644.673 268.647 648.037 267.19 648.504 268.358C649.327 270.415 646.661 272.853 645.9 274.528C645.78 274.791 645.385 275.19 645.625 275.351C646.35 275.833 648.163 275.328 649.053 275.625" fill="none" opacity="1" stroke="#224767" stroke-linecap="round" stroke-linejoin="round" stroke-width="2" vectornator:layerName="Kurve 239"/>
<path d="M652.618 275.625C652.828 276.046 652.698 275.814 653.029 276.31" fill="none" opacity="1" stroke="#224767" stroke-linecap="round" stroke-linejoin="round" stroke-width="2" vectornator:layerName="Kurve 240"/>
<path d="M660.04 267.698C659.471 266.455 657.187 268.183 657.187 269.306C657.187 271.697 660.713 272.372 660.196 275.22C660.031 276.126 657.935 276.935 657.498 275.842C656.276 272.787 661.257 270.355 660.04 267.698Z" fill="none" opacity="1" stroke="#224767" stroke-linecap="round" stroke-linejoin="round" stroke-width="2" vectornator:layerName="Kurve 241"/>
<path d="M523.648 269.894C522.761 268.119 527.279 267.767 527.602 269.062C528.106 271.078 526.902 273.533 525.729 275.096C525.417 275.513 523.648 276.707 523.648 277.177C523.648 277.408 524.639 276.516 526.354 276.345C527.429 276.237 531.109 275.868 531.556 276.761" fill="none" opacity="1" stroke="#224767" stroke-linecap="round" stroke-linejoin="round" stroke-width="2" vectornator:layerName="Kurve 242"/>
<path d="M153.721 181.489L153.721 261.521" fill="none" opacity="1" stroke="#f6deaa" stroke-dasharray="5.0" stroke-linecap="butt" stroke-linejoin="round" stroke-width="2" vectornator:layerName="Linie 22"/>
<path d="M279.133 100.747L279.701 260.515" fill="none" opacity="1" stroke="#f6deaa" stroke-dasharray="5.0" stroke-linecap="butt" stroke-linejoin="round" stroke-width="2" vectornator:layerName="Linie 23"/>
<path d="M216.355 104.528L216.163 178.154" fill="none" opacity="1" stroke="#f6deaa" stroke-dasharray="5.0" stroke-linecap="butt" stroke-linejoin="round" stroke-width="2" vectornator:layerName="Linie 25"/>
<path d="M653.253 101.753L653.822 261.521" fill="none" opacity="1" stroke="#f6deaa" stroke-dasharray="5.0" stroke-linecap="butt" stroke-linejoin="round" stroke-width="2" vectornator:layerName="Linie 24"/>
<path d="M216.691 101.266L279.996 101.266" fill="none" opacity="1" stroke="#eebf5b" stroke-linecap="butt" stroke-linejoin="round" stroke-width="2" vectornator:layerName="Kurve 243"/>
<path d="M325.268 55.0257C327.162 51.2374 330.745 48.5513 333.74 45.5564C336.622 42.6742 334.737 60.5428 334.737 62.5014" fill="none" opacity="1" stroke="#a3a3a3" stroke-linecap="round" stroke-linejoin="round" stroke-width="4.74816" vectornator:layerName="Kurve 244"/>
<path d="M701.958 50.0045C701.958 49.3464 701.383 48.3498 701.958 48.0302C704.687 46.5143 707.776 44.4847 710.842 45.0688C712.53 45.3902 712.323 48.2868 712.323 50.0045C712.323 52.5753 703.594 60.2004 705.907 61.3566C709.627 63.2165 716.973 60.3695 721.207 60.3695" fill="none" opacity="1" stroke="#a3a3a3" stroke-linecap="round" stroke-linejoin="round" stroke-width="4.74816" vectornator:layerName="Kurve 245"/>
<path d="M324.872 344.665C326.254 341.9 330.202 341.154 333.262 340.717C334.212 340.581 335.173 341.417 335.73 342.197C338.003 345.38 330.795 348.862 330.795 351.081C330.795 352.594 335.783 352.357 336.717 354.536C340.232 362.738 329.638 362.102 325.365 359.966" fill="none" opacity="1" stroke="#a3a3a3" stroke-linecap="round" stroke-linejoin="round" stroke-width="4.74816" vectornator:layerName="Kurve 246"/>
</g>
</svg>
