<?xml version="1.0" encoding="UTF-8" standalone="no"?>
<!DOCTYPE svg PUBLIC "-//W3C//DTD SVG 1.1//EN" "http://www.w3.org/Graphics/SVG/1.1/DTD/svg11.dtd">
<!-- Created with Vectornator (http://vectornator.io/) -->
<svg height="100%" stroke-miterlimit="10" style="fill-rule:nonzero;clip-rule:evenodd;stroke-linecap:round;stroke-linejoin:round;" version="1.1" viewBox="0 0 113.4 56.7" width="100%" xml:space="preserve" xmlns="http://www.w3.org/2000/svg" xmlns:vectornator="http://vectornator.io" xmlns:xlink="http://www.w3.org/1999/xlink">
<defs/>
<path d="M0 0L113.4 0L113.4 56.7L0 56.7L0 0Z" fill="#ffffff" fill-rule="nonzero" opacity="1" stroke="none"/>
<clipPath id="ArtboardFrame">
<rect height="56.7" width="113.4" x="0" y="0"/>
</clipPath>
<g clip-path="url(#ArtboardFrame)" id="Ebene-2" vectornator:layerName="Ebene 2" visibility="hidden">
<path d="M121.287 121.408C126.986 123.308 134.464 123.542 138.307 128.667C141.509 132.936 136.195 134.611 135.303 138.178C134.663 140.738 136.272 143.096 135.804 145.437C135.31 147.908 131.246 149.512 129.797 151.444C127.737 154.191 127.509 157.477 124.541 159.704C118.397 164.312 110.236 164.103 103.515 167.463" fill="none" opacity="1" stroke="#4a6b5f" stroke-linecap="round" stroke-linejoin="round" stroke-width="3.19853"/>
<path d="M120.014 125.805C123.724 127.66 127.566 126.881 131.217 128.342C136.641 130.512 130.573 135.055 131.217 138.276C132.623 145.309 129.907 144.673 126.144 149.69C124.929 151.309 125.089 153.387 123.819 154.974C122.643 156.444 114.29 159.839 112.194 160.258C109.517 160.794 102.668 161.541 100.78 163.429" fill="none" opacity="1" stroke="#4a6b5f" stroke-linecap="round" stroke-linejoin="round" stroke-opacity="0.511261" stroke-width="8.14522"/>
</g>
<g id="Ebene-1" vectornator:layerName="Ebene 1">
<g opacity="1" vectornator:layerName="Gruppieren 1">
<path d="M47.3764 48.0028C43.581 48.1501 39.7905 48.3658 36.0057 48.6814C28.4203 49.3141 20.7342 48.5873 13.1787 49.4274C10.822 49.6894 8.44097 49.7452 6.05037 49.7196" fill="none" opacity="1" stroke="#daa987" stroke-linecap="round" stroke-linejoin="round" stroke-opacity="0.497747" stroke-width="6.02349" vectornator:layerName="Kurve 15"/>
<path d="M6.50569 46.3792C9.58665 46.4695 12.6732 46.599 15.689 46.2637C23.0378 45.4466 30.7629 47.3077 38.0784 46.2621C41.0349 45.8396 44.5858 45.4519 48.001 45.3911" fill="none" opacity="1" stroke="#daa987" stroke-linecap="round" stroke-linejoin="round" stroke-width="2.6489" vectornator:layerName="Kurve 16"/>
</g>
<path d="M16.6053 20.0536C18.2442 20.0536 19.882 19.9658 21.5202 19.9171C26.1081 19.7808 25.1454 19.1938 25.0699 23.1938C25.0575 23.8535 25.0699 24.5135 25.0699 25.1734C25.0699 25.856 25.0699 26.5387 25.0699 27.2213C25.0699 28.2063 25.4979 32.2608 25.1382 33.1602C25.0666 33.3392 23.0922 33.6731 22.9538 33.7063C20.7181 34.2428 18.3534 34.4572 16.0592 34.4572C15.9469 34.4572 13.1238 34.2908 13.1238 34.1159C13.1238 33.7096 13.9356 31.4022 14.0113 30.9758C14.5259 28.0753 14.7614 25.1511 15.1717 22.2381C15.2094 21.9708 15.6496 18.7041 15.6496 18.9614" fill="none" opacity="1" stroke="#a3a3a3" stroke-linecap="round" stroke-linejoin="round" stroke-width="1.54963"/>
<path d="M16.3705 35.1729C15.7637 38.0856 15.764 41.0926 15.4149 44.0472C15.4038 44.1403 15.1418 44.0727 15.1418 43.9789" fill="none" opacity="1" stroke="#a3a3a3" stroke-linecap="round" stroke-linejoin="round" stroke-width="1.54963"/>
<path d="M22.0539 34.8949C21.5578 37.8716 22.5058 40.906 22.7365 43.9056" fill="none" opacity="1" stroke="#a3a3a3" stroke-linecap="round" stroke-linejoin="round" stroke-width="1.54963"/>
<path d="M25.8557 23.2829C28.0747 20.8931 30.208 18.3462 32.8185 16.3883" fill="none" opacity="1" stroke="#a3a3a3" stroke-linecap="round" stroke-linejoin="round" stroke-width="1.54963"/>
<path d="M32.2231 22.8419C33.3539 21.8588 27.6168 24.497 26.3098 25.3418" fill="none" opacity="1" stroke="#a3a3a3" stroke-linecap="round" stroke-linejoin="round" stroke-width="1.54963"/>
<path d="M17.5102 21.8189C17.5102 25.1994 16.9694 28.5155 16.9694 31.8874" fill="none" opacity="1" stroke="#a3a3a3" stroke-linecap="round" stroke-linejoin="round" stroke-opacity="0.531532" stroke-width="5.94669"/>
<path d="M20.6059 9.5238C21.2315 9.13279 21.5746 9.08598 22.2083 9.19159C22.3394 9.21344 22.5987 9.30846 22.6968 9.40655C22.762 9.47169 22.9844 9.60197 22.8922 9.60197C22.2751 9.60197 21.6394 9.7583 21.0553 9.7583" fill="none" opacity="1" stroke="#d5694f" stroke-linecap="round" stroke-linejoin="round" stroke-opacity="0.513513" stroke-width="1.54963"/>
<path d="M19.1347 11.116C18.644 12.261 18.0019 17.0635 19.8802 17.3525C21.6819 17.6297 23.9165 13.7807 24.1166 12.2797C24.1989 11.6624 23.8984 11.188 23.8984 10.6251" fill="none" opacity="1" stroke="#a3a3a3" stroke-linecap="round" stroke-linejoin="round" stroke-width="1.54963"/>
<path d="M24.3934 10.3961C24.3934 8.31284 21.6261 6.69501 19.9769 8.34418C19.7104 8.61072 18.7044 10.726 18.9217 10.9432C18.9852 11.0067 19.8084 10.8039 19.8988 10.7869C20.6669 10.6429 21.541 10.6892 22.322 10.6892C23.2689 10.6892 24.2099 10.5902 25.1555 10.5524C26.5379 10.4971 27.9266 10.1616 29.2984 10.1616" fill="none" opacity="1" stroke="#d5694f" stroke-linecap="round" stroke-linejoin="round" stroke-width="1.54963"/>
<g opacity="1" vectornator:layerName="Gruppieren 2">
<path d="M35.8485 19.822C35.8485 17.1633 38.0038 15.008 40.6624 15.008C43.3211 15.008 45.4764 17.1633 45.4764 19.822C45.4764 22.4807 43.3211 24.636 40.6624 24.636C38.0038 24.636 35.8485 22.4807 35.8485 19.822Z" fill="#ffffff" fill-rule="nonzero" opacity="1" stroke="#224767" stroke-linecap="round" stroke-linejoin="round" stroke-width="2.02876" vectornator:layerName="Oval 1"/>
<path d="M41.3167 15.4179C44.516 17.0176 44.1337 20.7798 42.1764 23.2265C41.7918 23.7072 41.1217 23.9535 40.6003 24.3011" fill="none" opacity="1" stroke="#224767" stroke-linecap="round" stroke-linejoin="round" stroke-opacity="0.538288" stroke-width="2.4" vectornator:layerName="Kurve 1"/>
</g>
<g opacity="1" vectornator:layerName="Gruppieren 3">
<path d="M104.006 47.7064C100.21 47.8537 96.4197 48.0693 92.6349 48.385C85.0496 49.0176 77.3635 48.2909 69.808 49.1309C67.4513 49.3929 65.0702 49.4487 62.6796 49.4232" fill="none" opacity="1" stroke="#daa987" stroke-linecap="round" stroke-linejoin="round" stroke-opacity="0.497747" stroke-width="6.02349" vectornator:layerName="Kurve 15"/>
<path d="M63.1349 46.0827C66.2159 46.173 69.3024 46.3025 72.3182 45.9672C79.6671 45.1502 87.3921 47.0113 94.7077 45.9657C97.6641 45.5431 101.215 45.1555 104.63 45.0946" fill="none" opacity="1" stroke="#daa987" stroke-linecap="round" stroke-linejoin="round" stroke-width="2.6489" vectornator:layerName="Kurve 16"/>
</g>
<path d="M73.2345 19.7572C74.8735 19.7572 76.5112 19.6693 78.1495 19.6207C82.7373 19.4844 81.7746 18.8974 81.6992 22.8973C81.6867 23.5571 81.6992 24.2171 81.6992 24.8769C81.6992 25.5596 81.6992 26.2422 81.6992 26.9248C81.6992 27.9099 82.1272 31.9644 81.7674 32.8637C81.6958 33.0427 79.7215 33.3766 79.583 33.4098C77.3474 33.9464 74.9827 34.1607 72.6884 34.1607C72.5762 34.1607 69.7531 33.9943 69.7531 33.8194C69.7531 33.4131 70.5649 31.1057 70.6405 30.6793C71.1551 27.7789 71.3907 24.8547 71.801 21.9416C71.8386 21.6744 72.2788 18.4077 72.2788 18.665" fill="none" opacity="1" stroke="#a3a3a3" stroke-linecap="round" stroke-linejoin="round" stroke-width="1.54963" vectornator:layerName="Kurve 1"/>
<path d="M72.9998 34.8765C72.393 37.7891 72.3933 40.7961 72.0441 43.7507C72.0331 43.8439 71.7711 43.7763 71.7711 43.6825" fill="none" opacity="1" stroke="#a3a3a3" stroke-linecap="round" stroke-linejoin="round" stroke-width="1.54963" vectornator:layerName="Kurve 2"/>
<path d="M78.6831 34.5984C78.187 37.5751 79.135 40.6095 79.3658 43.6092" fill="none" opacity="1" stroke="#a3a3a3" stroke-linecap="round" stroke-linejoin="round" stroke-width="1.54963" vectornator:layerName="Kurve 3"/>
<path d="M82.4849 22.9864C83.576 21.8114 86.6422 20.662 86.613 20.5568C86.5875 20.4651 87.9947 18.3048 88.9068 16.6715" fill="none" opacity="1" stroke="#a3a3a3" stroke-linecap="round" stroke-linejoin="round" stroke-width="1.54963" vectornator:layerName="Kurve 4"/>
<path d="M89.7025 20.8839C90.3756 20.2987 86.3718 24.1398 86.3407 24.1541C86.2612 24.1906 83.4681 24.7034 82.939 25.0453" fill="none" opacity="1" stroke="#a3a3a3" stroke-linecap="round" stroke-linejoin="round" stroke-width="1.54963" vectornator:layerName="Kurve 5"/>
<path d="M74.1395 21.5224C74.1395 24.903 73.5986 28.219 73.5986 31.591" fill="none" opacity="1" stroke="#a3a3a3" stroke-linecap="round" stroke-linejoin="round" stroke-opacity="0.531532" stroke-width="5.94669" vectornator:layerName="Kurve 6"/>
<path d="M77.2351 9.22735C77.8607 8.83634 78.2038 8.78953 78.8375 8.89514C78.9686 8.91699 79.228 9.01201 79.3261 9.1101C79.3912 9.17524 79.6136 9.30552 79.5215 9.30552C78.9044 9.30552 78.2686 9.46186 77.6846 9.46186" fill="none" opacity="1" stroke="#d5694f" stroke-linecap="round" stroke-linejoin="round" stroke-opacity="0.513513" stroke-width="1.54963" vectornator:layerName="Kurve 7"/>
<path d="M75.764 10.8196C75.2733 11.9645 74.6312 16.7671 76.5095 17.056C78.3111 17.3332 80.5457 13.4842 80.7459 11.9832C80.8282 11.3659 80.5277 10.8915 80.5277 10.3287" fill="none" opacity="1" stroke="#a3a3a3" stroke-linecap="round" stroke-linejoin="round" stroke-width="1.54963" vectornator:layerName="Kurve 8"/>
<path d="M81.0226 10.0996C81.0226 8.01639 78.2554 6.39856 76.6062 8.04773C76.3396 8.31428 75.3337 10.4295 75.5509 10.6468C75.6144 10.7103 76.4377 10.5074 76.528 10.4905C77.2962 10.3464 78.1702 10.3928 78.9512 10.3928C79.8982 10.3928 80.8391 10.2938 81.7848 10.256C83.1671 10.2007 84.5559 9.86512 85.9276 9.86512" fill="none" opacity="1" stroke="#d5694f" stroke-linecap="round" stroke-linejoin="round" stroke-width="1.54963" vectornator:layerName="Kurve 9"/>
<g opacity="1" vectornator:layerName="Gruppieren 4">
<path d="M92.4777 19.5256C92.4777 16.8669 94.633 14.7116 97.2917 14.7116C99.9504 14.7116 102.106 16.8669 102.106 19.5256C102.106 22.1842 99.9504 24.3395 97.2917 24.3395C94.633 24.3395 92.4777 22.1842 92.4777 19.5256Z" fill="#ffffff" fill-rule="nonzero" opacity="1" stroke="#224767" stroke-linecap="round" stroke-linejoin="round" stroke-width="2.02876" vectornator:layerName="Oval 1"/>
<path d="M97.9459 15.1215C101.145 16.7211 100.763 20.4834 98.8056 22.93C98.421 23.4108 97.7509 23.657 97.2296 24.0046" fill="none" opacity="1" stroke="#224767" stroke-linecap="round" stroke-linejoin="round" stroke-opacity="0.538288" stroke-width="2.4" vectornator:layerName="Kurve 1"/>
</g>
<path d="M50.8385 18.0004C49.8208 18.1276 48.8002 18.2309 47.7804 18.3402" fill="none" opacity="1" stroke="#224767" stroke-linecap="round" stroke-linejoin="round" stroke-opacity="0.538288" stroke-width="1" vectornator:layerName="Kurve 10"/>
<path d="M51.1783 20.1241C50.13 20.1241 49.0838 20.209 48.0352 20.209" fill="none" opacity="1" stroke="#224767" stroke-linecap="round" stroke-linejoin="round" stroke-opacity="0.538288" stroke-width="1" vectornator:layerName="Kurve 11"/>
<path d="M50.8385 22.3327C49.9798 22.1181 49.0848 22.0907 48.2051 21.9929" fill="none" opacity="1" stroke="#224767" stroke-linecap="round" stroke-linejoin="round" stroke-opacity="0.538288" stroke-width="1" vectornator:layerName="Kurve 12"/>
<path d="M107.79 17.7051C106.772 17.8323 105.752 17.9356 104.732 18.0449" fill="none" opacity="1" stroke="#224767" stroke-linecap="round" stroke-linejoin="round" stroke-opacity="0.538288" stroke-width="1" vectornator:layerName="Kurve 13"/>
<path d="M108.13 19.8288C107.082 19.8288 106.035 19.9137 104.987 19.9137" fill="none" opacity="1" stroke="#224767" stroke-linecap="round" stroke-linejoin="round" stroke-opacity="0.538288" stroke-width="1" vectornator:layerName="Kurve 14"/>
<path d="M107.79 22.0374C106.931 21.8227 106.036 21.7953 105.157 21.6976" fill="none" opacity="1" stroke="#224767" stroke-linecap="round" stroke-linejoin="round" stroke-opacity="0.538288" stroke-width="1" vectornator:layerName="Kurve 15"/>
</g>
<g id="Ebene-3" vectornator:layerName="Ebene 3"/>
<g clip-path="url(#ArtboardFrame)" id="Ebene-4" vectornator:layerName="Ebene 4">
<path d="M169.061 208.893C168.457 209.347 167.72 209.66 167.244 210.246C166.929 210.634 166.947 211.2 166.821 211.684C165.918 215.145 171.008 216.237 172.739 213.121C173.907 211.019 171.223 207.27 169.061 208.893Z" fill="none" opacity="1" stroke="#a3a3a3" stroke-linecap="round" stroke-linejoin="round" stroke-width="1.54963"/>
<path d="M169.526 215.826C169.526 217.264 169.442 218.7 169.442 220.138" fill="none" opacity="1" stroke="#a3a3a3" stroke-linecap="round" stroke-linejoin="round" stroke-width="1.54963"/>
<path d="M169.442 220.307C171.455 218.294 174.447 217.162 176.459 215.15" fill="none" opacity="1" stroke="#a3a3a3" stroke-linecap="round" stroke-linejoin="round" stroke-width="1.54963"/>
<path d="M168.765 220.307C168.681 220.307 168.583 220.353 168.512 220.307C166.683 219.134 164.902 217.888 163.101 216.672C162.66 216.374 161.372 215.45 161.748 215.826" fill="none" opacity="1" stroke="#a3a3a3" stroke-linecap="round" stroke-linejoin="round" stroke-width="1.54963"/>
<path d="M168.934 221.068C168.934 222.929 168.85 224.788 168.85 226.648" fill="none" opacity="1" stroke="#a3a3a3" stroke-linecap="round" stroke-linejoin="round" stroke-width="1.54963"/>
<path d="M168.427 227.24C167.801 229.119 166.814 230.857 165.975 232.651C165.367 233.953 164.748 235.251 164.115 236.541C163.865 237.051 163.608 237.886 163.608 237.048" fill="none" opacity="1" stroke="#a3a3a3" stroke-linecap="round" stroke-linejoin="round" stroke-width="1.54963"/>
<path d="M168.765 227.071C168.765 227.128 168.744 227.188 168.765 227.24C169.704 229.587 170.619 231.945 171.64 234.258C172.099 235.297 172.386 236.587 173.331 237.217C173.405 237.266 173.387 237.048 173.416 236.963" fill="none" opacity="1" stroke="#a3a3a3" stroke-linecap="round" stroke-linejoin="round" stroke-width="1.54963"/>
<path d="M170.452 211.445C170.404 211.492 170.357 211.539 170.31 211.586" fill="none" opacity="1" stroke="#a3a3a3" stroke-linecap="round" stroke-linejoin="round" stroke-opacity="0.533783" stroke-width="5.94669"/>
<path d="M53.4451 211.666C53.3724 211.677 53.4694 211.42 53.4017 211.449C52.4759 211.846 51.4671 212.163 50.7164 212.835C48.4563 214.857 51.4273 219.002 53.9215 218.725C57.9062 218.283 57.931 210.949 53.4451 211.666Z" fill="none" opacity="1" stroke="#a3a3a3" stroke-linecap="round" stroke-linejoin="round" stroke-width="1.54963"/>
<path d="M52.6655 219.375C51.4101 218.478 49.5372 222.303 49.1572 223.316C47.739 227.098 47.6037 232.169 48.8974 236.05C49.2969 237.248 50.4947 239.488 51.9292 239.775C53.685 240.126 55.7753 235.166 56.2603 233.711C57.2245 230.818 58.162 223.658 56.087 221.064C55.2769 220.051 53.6175 220.055 52.6655 219.375Z" fill="none" opacity="1" stroke="#a3a3a3" stroke-linecap="round" stroke-linejoin="round" stroke-width="1.54963"/>
<path d="M82.8101 210.28C82.3162 210.913 81.0828 210.448 80.5146 211.016C78.5995 212.931 79.0559 218.051 82.5069 217.859C85.237 217.707 88.8835 212.619 86.2317 210.409C85.7133 209.978 83.4568 209.45 82.8101 210.28Z" fill="none" opacity="1" stroke="#a3a3a3" stroke-linecap="round" stroke-linejoin="round" stroke-width="1.54963"/>
<path d="M81.1643 218.725C79.6752 218.596 78.5248 222.52 78.349 223.663C77.7273 227.704 78.3526 230.593 83.0267 230.593C86.5124 230.593 88.2857 224.306 87.0113 221.757C86.2555 220.246 85.2261 219.099 83.5464 218.725C82.2888 218.446 81.3699 218.743 81.1643 218.725Z" fill="none" opacity="1" stroke="#a3a3a3" stroke-linecap="round" stroke-linejoin="round" stroke-width="1.54963"/>
<path d="M79.8216 230.939C78.8226 232.937 78.7284 235.271 78.1758 237.436C78.0492 237.931 77.6186 239.405 77.7427 238.908" fill="none" opacity="1" stroke="#a3a3a3" stroke-linecap="round" stroke-linejoin="round" stroke-width="1.54963"/>
<path d="M84.326 230.766C84.9514 233.58 85.6912 236.419 87.1845 238.908" fill="none" opacity="1" stroke="#a3a3a3" stroke-linecap="round" stroke-linejoin="round" stroke-width="1.54963"/>
<path d="M125.501 215.685C126.562 215.837 123.374 216.331 122.599 217.071C122.066 217.58 122.229 218.503 122.166 219.237C122.043 220.669 123.788 221.774 125.024 221.836C126.783 221.924 128.878 220.118 128.663 218.284C128.555 217.368 127.994 216.302 127.103 215.945C126.901 215.865 124.274 215.511 125.501 215.685Z" fill="none" opacity="1" stroke="#a3a3a3" stroke-linecap="round" stroke-linejoin="round" stroke-width="1.54963"/>
<path d="M123.985 222.225C123.859 222.326 123.598 222.287 123.552 222.442C122.727 225.23 121.808 227.999 121.213 230.844C120.883 232.422 123.703 234.56 125.024 234.483C126.061 234.422 126.999 233.183 127.536 232.404C129.471 229.598 130.131 226.469 128.229 223.481C127.387 222.158 125.452 221.047 123.985 222.225Z" fill="none" opacity="1" stroke="#a3a3a3" stroke-linecap="round" stroke-linejoin="round" stroke-width="1.54963"/>
<path d="M122.686 234.742C121.735 237.356 121.418 240.159 120.866 242.885C120.77 243.36 120.78 243.614 120.78 243.231" fill="none" opacity="1" stroke="#a3a3a3" stroke-linecap="round" stroke-linejoin="round" stroke-width="1.54963"/>
<path d="M125.284 235.522C124.8 237.458 126.176 239.416 126.757 241.326C127.041 242.26 127.401 243.171 127.71 244.098" fill="none" opacity="1" stroke="#a3a3a3" stroke-linecap="round" stroke-linejoin="round" stroke-width="1.54963"/>
<path d="M121.733 226.427C120.239 227.621 118.61 228.861 117.748 230.584" fill="none" opacity="1" stroke="#a3a3a3" stroke-linecap="round" stroke-linejoin="round" stroke-width="1.54963"/>
<path d="M129.096 226.773C130.831 227.641 132.403 228.824 134.206 229.545" fill="none" opacity="1" stroke="#a3a3a3" stroke-linecap="round" stroke-linejoin="round" stroke-width="1.54963"/>
<path d="M248.411 199.751C247.468 201.166 247.278 202.981 247.046 204.666C246.899 205.726 247.006 206.818 247.182 207.874C247.363 208.959 249.272 208.439 249.776 208.079C251.448 206.885 252.78 204.768 252.78 202.686C252.78 201.192 251.963 198.725 250.118 199.956" fill="none" opacity="1" stroke="#a3a3a3" stroke-linecap="round" stroke-linejoin="round" stroke-width="1.54963"/>
<path d="M245.203 213.881C246.842 213.881 248.479 213.793 250.118 213.745C254.705 213.609 253.743 213.021 253.667 217.021C253.655 217.681 253.667 218.341 253.667 219.001C253.667 219.684 253.667 220.366 253.667 221.049C253.667 222.034 254.095 226.088 253.736 226.988C253.664 227.167 251.69 227.501 251.551 227.534C249.316 228.071 246.951 228.285 244.657 228.285C244.544 228.285 241.721 228.118 241.721 227.944C241.721 227.537 242.533 225.23 242.609 224.803C243.123 221.903 243.359 218.979 243.769 216.066C243.807 215.798 244.247 212.532 244.247 212.789" fill="none" opacity="1" stroke="#a3a3a3" stroke-linecap="round" stroke-linejoin="round" stroke-width="1.54963"/>
<path d="M243.769 234.77C243.162 237.683 243.163 240.689 242.813 243.644C242.802 243.737 242.54 243.67 242.54 243.576" fill="none" opacity="1" stroke="#a3a3a3" stroke-linecap="round" stroke-linejoin="round" stroke-width="1.54963"/>
<path d="M249.64 235.316C249.144 238.293 250.092 241.327 250.322 244.327" fill="none" opacity="1" stroke="#a3a3a3" stroke-linecap="round" stroke-linejoin="round" stroke-width="1.54963"/>
<path d="M257.9 215.724C260.119 213.335 262.252 210.788 264.862 208.83" fill="none" opacity="1" stroke="#a3a3a3" stroke-linecap="round" stroke-linejoin="round" stroke-width="1.54963"/>
<path d="M233.734 210.059C232.536 209.16 236.32 214.214 237.421 215.315" fill="none" opacity="1" stroke="#a3a3a3" stroke-linecap="round" stroke-linejoin="round" stroke-width="1.54963"/>
<path d="M199.354 213.2C199.354 215.969 201.254 218.402 202.243 220.989C203.307 223.771 204.43 226.498 205.509 229.28C206.051 230.677 206.523 232.064 207.142 233.425C207.329 233.836 207.394 235.057 207.645 234.681C208.785 232.97 209.409 230.759 210.283 228.903C212.09 225.063 213.99 221.241 215.936 217.471C216.608 216.17 217.233 215.127 218.071 213.954C218.18 213.802 218.426 213.607 218.322 213.452C218.132 213.167 214.887 213.912 214.554 213.954C210.88 214.413 207.069 213.468 203.374 213.326C201.614 213.258 200.06 212.836 198.349 212.572C198.14 212.54 196.332 212.387 196.967 212.07" fill="none" opacity="1" stroke="#a3a3a3" stroke-linecap="round" stroke-linejoin="round" stroke-width="1.54963"/>
<path d="M206.074 204.784C206.394 204.493 207.021 203.367 206.891 203.779C206.37 205.425 204.633 206.844 204.881 208.552C205.089 209.988 206.691 210.987 208.022 211.567C209.843 212.361 212.046 207.415 211.539 206.04C210.774 203.963 206.911 203.352 205.509 205.035C205.377 205.193 205.922 204.922 206.074 204.784Z" fill="none" opacity="1" stroke="#a3a3a3" stroke-linecap="round" stroke-linejoin="round" stroke-width="1.54963"/>
<path d="M211.486 232.143C212.217 235.433 213.22 238.658 214.167 241.893C214.301 242.349 214.419 242.82 214.654 243.233C214.735 243.374 214.654 242.908 214.654 242.746" fill="none" opacity="1" stroke="#a3a3a3" stroke-linecap="round" stroke-linejoin="round" stroke-width="1.54963"/>
<path d="M203.442 231.412C203.28 231.452 203.032 231.385 202.955 231.534C201.908 233.551 201.082 235.675 200.152 237.749C199.497 239.209 198.849 240.673 198.202 242.136C198.188 242.169 197.295 243.653 197.958 242.989" fill="none" opacity="1" stroke="#a3a3a3" stroke-linecap="round" stroke-linejoin="round" stroke-width="1.54963"/>
</g>
</svg>
