<?xml version="1.0" encoding="UTF-8" standalone="no"?>
<!DOCTYPE svg PUBLIC "-//W3C//DTD SVG 1.1//EN" "http://www.w3.org/Graphics/SVG/1.1/DTD/svg11.dtd">
<!-- Created with Vectornator (http://vectornator.io/) -->
<svg height="100%" stroke-miterlimit="10" style="fill-rule:nonzero;clip-rule:evenodd;stroke-linecap:round;stroke-linejoin:round;" version="1.1" viewBox="0 0 425.25 283.5" width="100%" xml:space="preserve" xmlns="http://www.w3.org/2000/svg" xmlns:vectornator="http://vectornator.io" xmlns:xlink="http://www.w3.org/1999/xlink">
<defs/>
<g id="Ebene-1" vectornator:layerName="Ebene 1">
<path d="M38.0843 30.4408C38.0843 58.455 39.4244 86.3935 39.4244 114.42C39.4244 157.62 38.0843 200.759 38.0843 243.962" fill="none" opacity="1" stroke="#a3a3a3" stroke-linecap="round" stroke-linejoin="round" stroke-width="3.19853"/>
<path d="M36.7442 31.7809C35.2571 34.7553 34.4918 38.9564 32.724 41.6082C32.4762 41.9799 32.6608 40.7103 32.724 40.2681C33.1452 37.3194 33.0989 39.5901 34.0641 36.6946C34.4458 35.5493 34.5743 31.5258 35.8508 30.8875C37.4499 30.088 43.0843 36.7808 44.3381 38.0347" fill="none" opacity="1" stroke="#a3a3a3" stroke-linecap="round" stroke-linejoin="round" stroke-width="3.19853"/>
<g opacity="1">
<path d="M38.3914 244.654C38.9879 243.992 57.5234 244.061 60.0021 244.039C81.3413 243.855 102.689 244.314 124.065 244.13C157.157 243.845 190.439 243.665 223.499 244.131C251.63 244.528 279.868 243.407 307.995 243.832C326.647 244.113 345.544 243.937 364.196 243.776C372.028 243.709 382.209 242.682 389.744 243.985" fill="none" opacity="1" stroke="#a3a3a3" stroke-linecap="round" stroke-linejoin="round" stroke-width="3.19853"/>
<path d="M389.183 244.041C389.182 243.872 389.316 243.631 389.179 243.533C388.682 243.178 381.933 238.769 381.772 238.771C380.872 238.779 383.043 240.075 383.819 240.531C385.405 241.464 387.214 242.14 388.669 243.283C388.857 243.431 389.179 243.547 389.181 243.787C389.184 244.153 382.043 247.339 381.087 247.667" fill="none" opacity="1" stroke="#a3a3a3" stroke-linecap="round" stroke-linejoin="round" stroke-width="3.19853"/>
</g>
<path d="M99.1369 237.816C99.1369 241.816 99.1369 245.816 99.1369 249.816" fill="none" opacity="1" stroke="#eebf5b" stroke-linecap="round" stroke-linejoin="round" stroke-width="3.19853"/>
<path d="M335.791 236.25C336.449 240.855 336.609 245.118 336.609 249.886" fill="none" opacity="1" stroke="#eebf5b" stroke-linecap="round" stroke-linejoin="round" stroke-width="3.19853"/>
<path d="M219.654 237.731C219.654 236.822 219.654 239.55 219.654 240.459C219.654 243.913 219.654 247.368 219.654 250.822" fill="none" opacity="1" stroke="#eebf5b" stroke-linecap="round" stroke-linejoin="round" stroke-width="3.19853"/>
<path d="M32.5635 189.681C35.8006 188.062 39.7889 191.113 43.1999 189.408" fill="none" opacity="1" stroke="#eebf5b" stroke-linecap="round" stroke-linejoin="round" stroke-width="3.19853"/>
<path d="M33.6544 71.5896C35.6263 71.5896 45.109 69.4307 45.109 71.5896" fill="none" opacity="1" stroke="#eebf5b" stroke-linecap="round" stroke-linejoin="round" stroke-width="3.19853"/>
<path d="M7.16336 75.0035C8.65121 72.9205 9.2992 70.277 10.957 68.3266C11.5226 67.6613 10.6135 70.0403 10.5018 70.9063C10.4109 71.6104 10.3838 72.3216 10.35 73.0307C10.2613 74.8944 10.35 76.7782 10.35 78.6454" fill="none" opacity="1" stroke="#eebf5b" stroke-linecap="round" stroke-linejoin="round" stroke-width="2.09926"/>
<path d="M16.3441 69.7682C13.1097 70.7178 15.3669 73.3277 15.3577 73.7895C15.3393 74.7072 16.042 77.2849 17.6339 76.6727C21.6666 75.1216 22.0908 68.081 16.3441 69.7682Z" fill="none" opacity="1" stroke="#eebf5b" stroke-linecap="round" stroke-linejoin="round" stroke-width="2.09926"/>
<path d="M19.1783 186.085C18.3673 186.572 17.9294 187.733 18.0177 188.674C18.0688 189.219 20.458 189.209 20.3389 190.995C20.1962 193.135 17.3035 192.708 17.3035 192.156" fill="none" opacity="1" stroke="#eebf5b" stroke-linecap="round" stroke-linejoin="round" stroke-width="2.09926"/>
<path d="M18.107 186.442C18.5743 185.508 20.0493 185.661 21.0531 185.371C22.1949 185.04 23.3699 184.927 24.4455 184.389" fill="none" opacity="1" stroke="#eebf5b" stroke-linecap="round" stroke-linejoin="round" stroke-width="2.09926"/>
<path d="M88.3255 260.841C89.8786 259.547 90.7825 257.63 91.978 256C92.156 255.757 92.3277 255.495 92.5726 255.32C93.1787 254.887 92.3253 256.79 92.2329 257.529C92.0217 259.218 91.7232 261.003 91.7232 262.71" fill="none" opacity="1" stroke="#eebf5b" stroke-linecap="round" stroke-linejoin="round" stroke-width="2.1"/>
<path d="M102.426 258.038C102.426 258.208 102.426 258.378 102.426 258.548" fill="none" opacity="1" stroke="#eebf5b" stroke-linecap="round" stroke-linejoin="round" stroke-width="2.1"/>
<path d="M102.341 261.011C102.341 261.125 102.341 261.238 102.341 261.351" fill="none" opacity="1" stroke="#eebf5b" stroke-linecap="round" stroke-linejoin="round" stroke-width="2.1"/>
<path d="M107.693 255.575C107.55 255.721 107.388 254.864 107.353 255.065C107.043 256.83 106.541 258.651 106.843 260.417C106.953 261.059 107.825 261.363 108.457 261.521C108.763 261.598 109.598 260.621 109.731 260.417C110.425 259.353 111.191 257.994 110.666 256.679C110.216 255.554 108.77 254.471 107.693 255.575Z" fill="none" opacity="1" stroke="#eebf5b" stroke-linecap="round" stroke-linejoin="round" stroke-width="2.1"/>
<path d="M115.337 255.15C115.281 255.094 115.201 254.908 115.168 254.98C114.504 256.423 113.557 257.819 113.384 259.397C113.308 260.093 113.916 260.779 114.488 261.181C115.413 261.832 116.598 260.117 116.866 259.652C118.564 256.71 115.641 252.905 113.639 255.575" fill="none" opacity="1" stroke="#eebf5b" stroke-linecap="round" stroke-linejoin="round" stroke-width="2.1"/>
<path d="M205.39 261.418C206.943 260.123 207.847 258.206 209.043 256.576C209.221 256.333 209.393 256.071 209.637 255.896C210.244 255.463 209.39 257.366 209.298 258.105C209.087 259.794 208.788 261.58 208.788 263.286" fill="none" opacity="1" stroke="#eebf5b" stroke-linecap="round" stroke-linejoin="round" stroke-width="2.1"/>
<path d="M219.491 258.615C219.491 258.784 219.491 258.954 219.491 259.124" fill="none" opacity="1" stroke="#eebf5b" stroke-linecap="round" stroke-linejoin="round" stroke-width="2.1"/>
<path d="M219.406 261.588C219.406 261.701 219.406 261.814 219.406 261.927" fill="none" opacity="1" stroke="#eebf5b" stroke-linecap="round" stroke-linejoin="round" stroke-width="2.1"/>
<path d="M224.757 256.151C224.615 256.297 224.453 255.44 224.418 255.642C224.108 257.406 223.606 259.227 223.908 260.993C224.018 261.635 224.889 261.939 225.522 262.097C225.828 262.174 226.663 261.197 226.796 260.993C227.49 259.929 228.256 258.57 227.73 257.255C227.28 256.13 225.835 255.047 224.757 256.151Z" fill="none" opacity="1" stroke="#eebf5b" stroke-linecap="round" stroke-linejoin="round" stroke-width="2.1"/>
<path d="M232.402 255.726C232.346 255.67 232.266 255.484 232.232 255.557C231.569 256.999 230.621 258.395 230.449 259.974C230.372 260.669 230.981 261.355 231.553 261.757C232.478 262.409 233.663 260.693 233.931 260.228C235.629 257.286 232.706 253.481 230.703 256.151" fill="none" opacity="1" stroke="#eebf5b" stroke-linecap="round" stroke-linejoin="round" stroke-width="2.1"/>
<path d="M321.903 259.599C323.456 258.305 324.36 256.387 325.556 254.757C325.734 254.514 325.905 254.252 326.15 254.077C326.756 253.645 325.903 255.547 325.81 256.286C325.599 257.975 325.301 259.761 325.301 261.467" fill="none" opacity="1" stroke="#eebf5b" stroke-linecap="round" stroke-linejoin="round" stroke-width="2.1"/>
<path d="M336.004 256.796C336.004 256.966 336.004 257.135 336.004 257.305" fill="none" opacity="1" stroke="#eebf5b" stroke-linecap="round" stroke-linejoin="round" stroke-width="2.1"/>
<path d="M335.919 259.769C335.919 259.882 335.919 259.995 335.919 260.108" fill="none" opacity="1" stroke="#eebf5b" stroke-linecap="round" stroke-linejoin="round" stroke-width="2.1"/>
<path d="M341.27 254.332C341.127 254.478 340.966 253.622 340.93 253.823C340.621 255.588 340.119 257.408 340.421 259.174C340.531 259.817 341.402 260.12 342.035 260.278C342.341 260.355 343.176 259.378 343.309 259.174C344.002 258.11 344.769 256.751 344.243 255.437C343.793 254.312 342.348 253.228 341.27 254.332Z" fill="none" opacity="1" stroke="#eebf5b" stroke-linecap="round" stroke-linejoin="round" stroke-width="2.1"/>
<path d="M348.915 253.908C348.858 253.851 348.779 253.665 348.745 253.738C348.081 255.18 347.134 256.576 346.961 258.155C346.885 258.85 347.494 259.536 348.066 259.939C348.991 260.59 350.176 258.874 350.444 258.41C352.141 255.467 349.219 251.662 347.216 254.332" fill="none" opacity="1" stroke="#eebf5b" stroke-linecap="round" stroke-linejoin="round" stroke-width="2.1"/>
<g opacity="1">
<path d="M70.7263 95.9954C72.7968 93.2348 75.3796 90.9912 77.722 88.4815C79.9919 86.0495 82.0079 81.4157 84.9768 79.9312C87.0064 78.9164 90.8143 84.2142 91.9725 85.3723C95.8398 89.2397 99.7553 93.1552 103.632 97.0318C105.397 98.7969 107.334 103.139 109.85 103.768C111.79 104.253 119.907 93.8699 122.805 93.1453C123.442 92.9861 124.39 95.3098 124.619 95.9954C125.924 99.9113 128.269 103.319 130.578 106.618C137.493 116.496 144.169 126.936 150.011 137.451C150.516 138.361 154.329 145.973 155.452 145.224C155.829 144.973 156.435 143.154 156.747 142.633C157.32 141.679 167.292 129.272 167.629 129.16C168.005 129.035 170.333 132.123 170.739 132.528C171.95 133.74 180.945 141.443 181.88 140.82C183.876 139.489 185.116 136.579 187.062 135.119C191.303 131.938 196.291 127.996 199.499 123.719C200.046 122.989 204.314 117.706 204.94 118.019C206.696 118.897 210.9 126.31 213.749 126.31C214.942 126.31 217.141 122.329 217.895 121.387C219.273 119.664 227.721 110.898 229.295 110.505C230.621 110.173 239.294 119.665 241.732 119.055C244.157 118.449 245.448 114.772 247.432 113.355C253.47 109.042 259.293 103.97 265.051 99.3637C266.502 98.2024 271.663 91.754 273.083 92.1089C275.812 92.7912 278.164 96.588 280.338 98.3273C287.632 104.163 294.569 111.634 302.62 116.464C304.16 117.388 306.997 113.11 308.029 111.301" fill="none" opacity="1" stroke="#2e6777" stroke-linecap="round" stroke-linejoin="round" stroke-width="3.19926"/>
<path d="M308.579 111.282C309.359 112.842 312.094 114.56 313.502 115.687C317.105 118.569 320.571 122.496 323.866 125.792C337.028 138.953 350.798 151.687 363.768 164.657" fill="none" opacity="1" stroke="#2e6777" stroke-linecap="round" stroke-linejoin="round" stroke-width="3.19926"/>
</g>
<path d="M95.3424 258.851C96.0045 258.023 96.7062 257.228 97.3781 256.408C97.6993 256.016 97.8022 255.027 98.2829 255.187C98.4501 255.243 98.3734 257.206 98.3734 257.223C98.3734 258.582 97.4411 261.375 98.1019 262.697" fill="none" opacity="1" stroke="#eebf5b" stroke-linecap="round" stroke-linejoin="round" stroke-width="2.1"/>
<path d="M212.264 256.626C212.264 255.96 213.432 255.892 214.094 255.828C214.755 255.764 214.729 256.37 214.751 256.72C214.898 259.063 211.876 260.882 212.123 263.102C212.146 263.307 215.885 263.557 216.112 263.102" fill="none" opacity="1" stroke="#eebf5b" stroke-linecap="round" stroke-linejoin="round" stroke-width="2.1"/>
<path d="M329.091 254.818C329.091 253.832 331.562 253.775 331.915 254.716C332.243 255.591 332.083 256.763 331.37 257.404C331.11 257.639 330.824 257.873 330.486 257.948C330.34 257.981 329.91 257.95 330.044 258.016C330.849 258.419 332.053 258.283 332.153 259.582C332.311 261.64 328.495 262.32 328.172 260.058" fill="none" opacity="1" stroke="#eebf5b" stroke-linecap="round" stroke-linejoin="round" stroke-width="2.1"/>
<path d="M46.5233 6.08794C45.5014 5.67917 43.344 4.3556 42.5878 5.30084C41.5185 6.63751 42.6711 10.7542 42.7452 12.3848C42.85 14.69 42.3843 23.0649 43.5323 24.9784C44.0766 25.8855 46.773 25.1174 47.4678 24.9784" fill="none" opacity="1" stroke="#eebf5b" stroke-linecap="round" stroke-linejoin="round" stroke-width="1.54963"/>
<path d="M49.5143 10.3383C49.4618 10.0759 49.2853 9.29339 49.3569 9.55119C49.6907 10.753 50.0805 11.9443 50.3014 13.1719C50.4599 14.0521 50.4694 18.923 51.2459 19.3113" fill="none" opacity="1" stroke="#eebf5b" stroke-linecap="round" stroke-linejoin="round" stroke-width="1.54963"/>
<path d="M54.7092 14.7461C54.3308 13.9893 53.013 15.3285 52.5053 16.0054C50.6685 18.4545 52.2184 20.4316 54.5518 18.6816" fill="none" opacity="1" stroke="#eebf5b" stroke-linecap="round" stroke-linejoin="round" stroke-width="1.54963"/>
<path d="M56.9131 15.2183C56.9131 16.3266 56.821 17.7267 57.8576 18.5242C58.884 19.3137 59.6062 14.8333 59.7466 14.9035C60.5508 15.3055 59.9442 18.839 61.3208 18.839C62.1611 18.839 63.7688 15.1476 63.997 15.3757C64.7486 16.1274 64.1368 20.1567 66.2009 19.4687" fill="none" opacity="1" stroke="#eebf5b" stroke-linecap="round" stroke-linejoin="round" stroke-width="1.54963"/>
<path d="M70.4512 6.5602C70.4512 12.639 69.1703 18.7664 69.5067 24.821C69.5232 25.1173 69.9265 24.4012 70.1364 24.1913" fill="none" opacity="1" stroke="#eebf5b" stroke-linecap="round" stroke-linejoin="round" stroke-width="1.54963"/>
<path d="M75.1738 9.55119C75.1214 9.44624 75.0091 9.11924 75.0164 9.23635C75.1281 11.0239 75.2665 12.8114 75.4887 14.5886C75.6342 15.7529 75.8882 16.9013 76.1184 18.0519C76.5349 20.1345 77.6533 15.4544 78.0074 15.2183C78.441 14.9293 78.7746 20.1183 80.0539 18.839" fill="none" opacity="1" stroke="#eebf5b" stroke-linecap="round" stroke-linejoin="round" stroke-width="1.54963"/>
<path d="M79.8964 7.50472C79.2661 6.24409 88.393 6.70928 88.3972 6.71762C88.7791 7.48153 87.6841 11.4624 87.6101 12.2273C87.4557 13.8225 88.4816 22.1333 88.0823 22.9319C86.8692 25.3582 82.5751 22.6121 81.6281 24.5061" fill="none" opacity="1" stroke="#eebf5b" stroke-linecap="round" stroke-linejoin="round" stroke-width="1.54963"/>
<path d="M22.2806 14.1164C21.6298 16.0686 23.5213 18.0474 24.327 19.9409C24.7059 20.8312 25.4815 22.7745 26.2161 22.1448C26.4522 21.9424 31.411 11.6976 31.411 12.857" fill="none" opacity="1" stroke="#eebf5b" stroke-linecap="round" stroke-linejoin="round" stroke-width="2.09926"/>
<path d="M399.215 237.711C399.305 237.741 399.49 237.706 399.485 237.801C399.366 239.817 399.093 241.822 398.855 243.827C398.677 245.335 398.341 246.821 398.136 248.325C398.123 248.414 398.084 248.521 398.136 248.595C399.221 250.146 401.446 249.522 402.633 248.505" fill="none" opacity="1" stroke="#eebf5b" stroke-linecap="round" stroke-linejoin="round" stroke-width="2.09926"/>
<path d="M395.527 244.097C397.687 244.097 399.845 244.211 402.003 244.277" fill="none" opacity="1" stroke="#eebf5b" stroke-linecap="round" stroke-linejoin="round" stroke-width="2.09926"/>
</g>
</svg>
