<?xml version="1.0" encoding="UTF-8" standalone="no"?>
<!DOCTYPE svg PUBLIC "-//W3C//DTD SVG 1.1//EN" "http://www.w3.org/Graphics/SVG/1.1/DTD/svg11.dtd">
<!-- Created with Vectornator (http://vectornator.io/) -->
<svg height="100%" stroke-miterlimit="10" style="fill-rule:nonzero;clip-rule:evenodd;stroke-linecap:round;stroke-linejoin:round;" version="1.1" viewBox="0 0 425.25 595.35" width="100%" xml:space="preserve" xmlns="http://www.w3.org/2000/svg" xmlns:vectornator="http://vectornator.io" xmlns:xlink="http://www.w3.org/1999/xlink">
<defs/>
<g id="Ebene-1" vectornator:layerName="Ebene 1">
<path d="M38.0843 30.4408C38.0843 58.455 39.4244 86.3935 39.4244 114.42C39.4244 157.62 38.0843 200.759 38.0843 243.962" fill="none" opacity="1" stroke="#a3a3a3" stroke-linecap="round" stroke-linejoin="round" stroke-width="3.19853"/>
<path d="M36.7442 31.7809C35.2571 34.7553 34.4918 38.9564 32.724 41.6082C32.4762 41.9799 32.6608 40.7103 32.724 40.2681C33.1452 37.3194 33.0989 39.5901 34.0641 36.6946C34.4458 35.5493 34.5743 31.5258 35.8508 30.8875C37.4499 30.088 43.0843 36.7808 44.3381 38.0347" fill="none" opacity="1" stroke="#a3a3a3" stroke-linecap="round" stroke-linejoin="round" stroke-width="3.19853"/>
<g opacity="1">
<path d="M38.3914 244.654C38.9879 243.992 57.5234 244.061 60.0021 244.039C81.3413 243.855 102.689 244.314 124.065 244.13C157.157 243.845 190.439 243.665 223.499 244.131C251.63 244.528 279.868 243.407 307.995 243.832C326.647 244.113 345.544 243.937 364.196 243.776C372.028 243.709 382.209 242.682 389.744 243.985" fill="none" opacity="1" stroke="#a3a3a3" stroke-linecap="round" stroke-linejoin="round" stroke-width="3.19853"/>
<path d="M389.183 244.041C389.182 243.872 389.316 243.631 389.179 243.533C388.682 243.178 381.933 238.769 381.772 238.771C380.872 238.779 383.043 240.075 383.819 240.531C385.405 241.464 387.214 242.14 388.669 243.283C388.857 243.431 389.179 243.547 389.181 243.787C389.184 244.153 382.043 247.339 381.087 247.667" fill="none" opacity="1" stroke="#a3a3a3" stroke-linecap="round" stroke-linejoin="round" stroke-width="3.19853"/>
</g>
<path d="M99.1369 237.816C99.1369 241.816 99.1369 245.816 99.1369 249.816" fill="none" opacity="1" stroke="#eebf5b" stroke-linecap="round" stroke-linejoin="round" stroke-width="3.19853"/>
<path d="M335.791 236.25C336.449 240.855 336.609 245.118 336.609 249.886" fill="none" opacity="1" stroke="#eebf5b" stroke-linecap="round" stroke-linejoin="round" stroke-width="3.19853"/>
<path d="M219.654 237.731C219.654 236.822 219.654 239.55 219.654 240.459C219.654 243.913 219.654 247.368 219.654 250.822" fill="none" opacity="1" stroke="#eebf5b" stroke-linecap="round" stroke-linejoin="round" stroke-width="3.19853"/>
<path d="M32.5635 189.681C35.8006 188.062 39.7889 191.113 43.1999 189.408" fill="none" opacity="1" stroke="#eebf5b" stroke-linecap="round" stroke-linejoin="round" stroke-width="3.19853"/>
<path d="M33.6544 71.5896C35.6263 71.5896 45.109 69.4307 45.109 71.5896" fill="none" opacity="1" stroke="#eebf5b" stroke-linecap="round" stroke-linejoin="round" stroke-width="3.19853"/>
<path d="M7.16336 75.0035C8.65121 72.9205 9.2992 70.277 10.957 68.3266C11.5226 67.6613 10.6135 70.0403 10.5018 70.9063C10.4109 71.6104 10.3838 72.3216 10.35 73.0307C10.2613 74.8944 10.35 76.7782 10.35 78.6454" fill="none" opacity="1" stroke="#eebf5b" stroke-linecap="round" stroke-linejoin="round" stroke-width="2.09926"/>
<path d="M16.3441 69.7682C13.1097 70.7178 15.3669 73.3277 15.3577 73.7895C15.3393 74.7072 16.042 77.2849 17.6339 76.6727C21.6666 75.1216 22.0908 68.081 16.3441 69.7682Z" fill="none" opacity="1" stroke="#eebf5b" stroke-linecap="round" stroke-linejoin="round" stroke-width="2.09926"/>
<path d="M19.1783 186.085C18.3673 186.572 17.9294 187.733 18.0177 188.674C18.0688 189.219 20.458 189.209 20.3389 190.995C20.1962 193.135 17.3035 192.708 17.3035 192.156" fill="none" opacity="1" stroke="#eebf5b" stroke-linecap="round" stroke-linejoin="round" stroke-width="2.09926"/>
<path d="M18.107 186.442C18.5743 185.508 20.0493 185.661 21.0531 185.371C22.1949 185.04 23.3699 184.927 24.4455 184.389" fill="none" opacity="1" stroke="#eebf5b" stroke-linecap="round" stroke-linejoin="round" stroke-width="2.09926"/>
<path d="M88.3255 260.841C89.8786 259.547 90.7825 257.63 91.978 256C92.156 255.757 92.3277 255.495 92.5726 255.32C93.1787 254.887 92.3253 256.79 92.2329 257.529C92.0217 259.218 91.7232 261.003 91.7232 262.71" fill="none" opacity="1" stroke="#eebf5b" stroke-linecap="round" stroke-linejoin="round" stroke-width="2.1"/>
<path d="M102.426 258.038C102.426 258.208 102.426 258.378 102.426 258.548" fill="none" opacity="1" stroke="#eebf5b" stroke-linecap="round" stroke-linejoin="round" stroke-width="2.1"/>
<path d="M102.341 261.011C102.341 261.125 102.341 261.238 102.341 261.351" fill="none" opacity="1" stroke="#eebf5b" stroke-linecap="round" stroke-linejoin="round" stroke-width="2.1"/>
<path d="M107.693 255.575C107.55 255.721 107.388 254.864 107.353 255.065C107.043 256.83 106.541 258.651 106.843 260.417C106.953 261.059 107.825 261.363 108.457 261.521C108.763 261.598 109.598 260.621 109.731 260.417C110.425 259.353 111.191 257.994 110.666 256.679C110.216 255.554 108.77 254.471 107.693 255.575Z" fill="none" opacity="1" stroke="#eebf5b" stroke-linecap="round" stroke-linejoin="round" stroke-width="2.1"/>
<path d="M115.337 255.15C115.281 255.094 115.201 254.908 115.168 254.98C114.504 256.423 113.557 257.819 113.384 259.397C113.308 260.093 113.916 260.779 114.488 261.181C115.413 261.832 116.598 260.117 116.866 259.652C118.564 256.71 115.641 252.905 113.639 255.575" fill="none" opacity="1" stroke="#eebf5b" stroke-linecap="round" stroke-linejoin="round" stroke-width="2.1"/>
<path d="M205.39 261.418C206.943 260.123 207.847 258.206 209.043 256.576C209.221 256.333 209.393 256.071 209.637 255.896C210.244 255.463 209.39 257.366 209.298 258.105C209.087 259.794 208.788 261.58 208.788 263.286" fill="none" opacity="1" stroke="#eebf5b" stroke-linecap="round" stroke-linejoin="round" stroke-width="2.1"/>
<path d="M219.491 258.615C219.491 258.784 219.491 258.954 219.491 259.124" fill="none" opacity="1" stroke="#eebf5b" stroke-linecap="round" stroke-linejoin="round" stroke-width="2.1"/>
<path d="M219.406 261.588C219.406 261.701 219.406 261.814 219.406 261.927" fill="none" opacity="1" stroke="#eebf5b" stroke-linecap="round" stroke-linejoin="round" stroke-width="2.1"/>
<path d="M224.757 256.151C224.615 256.297 224.453 255.44 224.418 255.642C224.108 257.406 223.606 259.227 223.908 260.993C224.018 261.635 224.889 261.939 225.522 262.097C225.828 262.174 226.663 261.197 226.796 260.993C227.49 259.929 228.256 258.57 227.73 257.255C227.28 256.13 225.835 255.047 224.757 256.151Z" fill="none" opacity="1" stroke="#eebf5b" stroke-linecap="round" stroke-linejoin="round" stroke-width="2.1"/>
<path d="M232.402 255.726C232.346 255.67 232.266 255.484 232.232 255.557C231.569 256.999 230.621 258.395 230.449 259.974C230.372 260.669 230.981 261.355 231.553 261.757C232.478 262.409 233.663 260.693 233.931 260.228C235.629 257.286 232.706 253.481 230.703 256.151" fill="none" opacity="1" stroke="#eebf5b" stroke-linecap="round" stroke-linejoin="round" stroke-width="2.1"/>
<path d="M321.903 259.599C323.456 258.305 324.36 256.387 325.556 254.757C325.734 254.514 325.905 254.252 326.15 254.077C326.756 253.645 325.903 255.547 325.81 256.286C325.599 257.975 325.301 259.761 325.301 261.467" fill="none" opacity="1" stroke="#eebf5b" stroke-linecap="round" stroke-linejoin="round" stroke-width="2.1"/>
<path d="M336.004 256.796C336.004 256.966 336.004 257.135 336.004 257.305" fill="none" opacity="1" stroke="#eebf5b" stroke-linecap="round" stroke-linejoin="round" stroke-width="2.1"/>
<path d="M335.919 259.769C335.919 259.882 335.919 259.995 335.919 260.108" fill="none" opacity="1" stroke="#eebf5b" stroke-linecap="round" stroke-linejoin="round" stroke-width="2.1"/>
<path d="M341.27 254.332C341.127 254.478 340.966 253.622 340.93 253.823C340.621 255.588 340.119 257.408 340.421 259.174C340.531 259.817 341.402 260.12 342.035 260.278C342.341 260.355 343.176 259.378 343.309 259.174C344.002 258.11 344.769 256.751 344.243 255.437C343.793 254.312 342.348 253.228 341.27 254.332Z" fill="none" opacity="1" stroke="#eebf5b" stroke-linecap="round" stroke-linejoin="round" stroke-width="2.1"/>
<path d="M348.915 253.908C348.858 253.851 348.779 253.665 348.745 253.738C348.081 255.18 347.134 256.576 346.961 258.155C346.885 258.85 347.494 259.536 348.066 259.939C348.991 260.59 350.176 258.874 350.444 258.41C352.141 255.467 349.219 251.662 347.216 254.332" fill="none" opacity="1" stroke="#eebf5b" stroke-linecap="round" stroke-linejoin="round" stroke-width="2.1"/>
<g opacity="1">
<path d="M70.7608 93.6252C72.8312 90.8646 75.4141 88.621 77.7565 86.1113C80.0263 83.6793 82.0424 79.0454 85.0112 77.561C87.0408 76.5462 90.8488 81.844 92.0069 83.0021C95.8743 86.8695 99.7898 90.785 103.666 94.6616C105.431 96.4267 107.369 100.769 109.885 101.398C111.825 101.883 119.941 91.4997 122.84 90.7751C123.476 90.6159 124.425 92.9396 124.653 93.6252C125.959 97.5411 128.303 100.949 130.613 104.248C137.527 114.126 144.204 124.566 150.045 135.081C150.551 135.991 154.363 143.603 155.486 142.854C155.863 142.603 156.469 140.784 156.782 140.263C157.354 139.309 167.327 126.902 167.664 126.79C168.04 126.665 170.368 129.753 170.773 130.158C171.985 131.37 180.98 139.072 181.914 138.449C183.911 137.119 185.15 134.209 187.096 132.749C191.338 129.568 196.325 125.626 199.533 121.349C200.08 120.619 204.349 115.336 204.974 115.649C206.731 116.527 210.934 123.94 213.784 123.94C214.977 123.94 217.176 119.959 217.929 119.017C219.307 117.294 227.756 108.528 229.329 108.135C230.655 107.803 239.328 117.294 241.766 116.685C244.192 116.079 245.482 112.402 247.466 110.985C253.505 106.672 259.328 101.6 265.085 96.9935C266.537 95.8322 271.698 89.3838 273.117 89.7387C275.846 90.4209 278.198 94.2178 280.372 95.9571C287.667 101.793 294.604 109.264 302.655 114.094C304.195 115.018 307.031 110.739 308.063 108.931" fill="none" opacity="1" stroke="#2e6777" stroke-linecap="round" stroke-linejoin="round" stroke-width="3.19926"/>
<path d="M308.614 108.912C309.394 110.472 312.128 112.19 313.537 113.317C317.14 116.199 320.605 120.126 323.901 123.422C337.062 136.583 350.833 149.317 363.802 162.286" fill="none" opacity="1" stroke="#2e6777" stroke-linecap="round" stroke-linejoin="round" stroke-width="3.19926"/>
</g>
<path d="M95.3424 258.851C96.0045 258.023 96.7062 257.228 97.3781 256.408C97.6993 256.016 97.8022 255.027 98.2829 255.187C98.4501 255.243 98.3734 257.206 98.3734 257.223C98.3734 258.582 97.4411 261.375 98.1019 262.697" fill="none" opacity="1" stroke="#eebf5b" stroke-linecap="round" stroke-linejoin="round" stroke-width="2.1"/>
<path d="M212.264 256.626C212.264 255.96 213.432 255.892 214.094 255.828C214.755 255.764 214.729 256.37 214.751 256.72C214.898 259.063 211.876 260.882 212.123 263.102C212.146 263.307 215.885 263.557 216.112 263.102" fill="none" opacity="1" stroke="#eebf5b" stroke-linecap="round" stroke-linejoin="round" stroke-width="2.1"/>
<path d="M329.091 254.818C329.091 253.832 331.562 253.775 331.915 254.716C332.243 255.591 332.083 256.763 331.37 257.404C331.11 257.639 330.824 257.873 330.486 257.948C330.34 257.981 329.91 257.95 330.044 258.016C330.849 258.419 332.053 258.283 332.153 259.582C332.311 261.64 328.495 262.32 328.172 260.058" fill="none" opacity="1" stroke="#eebf5b" stroke-linecap="round" stroke-linejoin="round" stroke-width="2.1"/>
<path d="M34.646 121.806C37.8755 121.806 40.9977 121.598 44.124 120.903" fill="none" opacity="1" stroke="#d0453b" stroke-linecap="round" stroke-linejoin="round" stroke-width="3.19926"/>
<path d="M54.3799 121.021C57.2618 121.021 60.1437 121.021 63.0255 121.021" fill="none" opacity="1" stroke="#d0453b" stroke-linecap="round" stroke-linejoin="round" stroke-width="3.19926"/>
<path d="M71.6712 121.367C74.7837 121.367 77.8961 121.367 81.0086 121.367" fill="none" opacity="1" stroke="#d0453b" stroke-linecap="round" stroke-linejoin="round" stroke-width="3.19926"/>
<path d="M89.3084 121.713C93.1125 121.713 96.9166 121.713 100.721 121.713" fill="none" opacity="1" stroke="#d0453b" stroke-linecap="round" stroke-linejoin="round" stroke-width="3.19926"/>
<path d="M110.75 121.713C113.093 122.494 115.572 122.058 118.012 122.058" fill="none" opacity="1" stroke="#d0453b" stroke-linecap="round" stroke-linejoin="round" stroke-width="3.19926"/>
<path d="M128.387 122.058C130.923 122.058 133.459 122.058 135.995 122.058" fill="none" opacity="1" stroke="#d0453b" stroke-linecap="round" stroke-linejoin="round" stroke-width="3.19926"/>
<path d="M146.716 122.404C149.943 122.404 153.171 122.404 156.399 122.404" fill="none" opacity="1" stroke="#d0453b" stroke-linecap="round" stroke-linejoin="round" stroke-width="3.19926"/>
<path d="M167.119 123.096C169.971 122.526 172.868 122.75 175.765 122.75" fill="none" opacity="1" stroke="#d0453b" stroke-linecap="round" stroke-linejoin="round" stroke-width="3.19926"/>
<path d="M186.832 122.75C189.829 122.75 192.826 122.75 195.823 122.75" fill="none" opacity="1" stroke="#d0453b" stroke-linecap="round" stroke-linejoin="round" stroke-width="3.19926"/>
<path d="M207.235 122.75C210.578 122.75 213.921 122.75 217.264 122.75" fill="none" opacity="1" stroke="#d0453b" stroke-linecap="round" stroke-linejoin="round" stroke-width="3.19926"/>
<path d="M223.835 123.096C226.948 123.096 230.06 123.096 233.172 123.096" fill="none" opacity="1" stroke="#d0453b" stroke-linecap="round" stroke-linejoin="round" stroke-width="3.19926"/>
<path d="M241.818 123.096C245.392 123.096 248.965 123.096 252.539 123.096" fill="none" opacity="1" stroke="#d0453b" stroke-linecap="round" stroke-linejoin="round" stroke-width="3.19926"/>
<path d="M261.184 123.788C263.692 122.952 266.827 123.442 269.484 123.442" fill="none" opacity="1" stroke="#d0453b" stroke-linecap="round" stroke-linejoin="round" stroke-width="3.19926"/>
<path d="M277.438 123.788C280.781 123.788 284.124 123.788 287.467 123.788" fill="none" opacity="1" stroke="#d0453b" stroke-linecap="round" stroke-linejoin="round" stroke-width="3.19926"/>
<path d="M295.421 124.133C297.842 124.133 300.263 124.133 302.684 124.133" fill="none" opacity="1" stroke="#d0453b" stroke-linecap="round" stroke-linejoin="round" stroke-width="3.19926"/>
<path d="M313.75 124.133C315.398 122.485 319.648 123.788 322.05 123.788" fill="none" opacity="1" stroke="#d0453b" stroke-linecap="round" stroke-linejoin="round" stroke-width="3.19926"/>
<path d="M331.733 124.133C334.995 123.046 338.694 123.442 342.108 123.442" fill="none" opacity="1" stroke="#d0453b" stroke-linecap="round" stroke-linejoin="round" stroke-width="3.19926"/>
<path d="M350.408 124.479C353.076 123.145 356.197 124.133 359.053 124.133" fill="none" opacity="1" stroke="#d0453b" stroke-linecap="round" stroke-linejoin="round" stroke-width="3.19926"/>
<path d="M18.6927 117.446C17.6654 117.332 16.3266 118.041 16.0275 119.031C15.9035 119.441 20.522 122.967 21.0697 123.857C22.3712 125.972 19.869 128.202 17.6842 127.674C10.8729 126.03 24.6243 117.446 17.108 117.446" fill="none" opacity="1" stroke="#d0453b" stroke-linecap="round" stroke-linejoin="round" stroke-width="2.09926"/>
<path d="M39.1486 327.048C39.1486 355.062 40.4887 383.001 40.4887 411.027C40.4887 454.227 39.1486 497.367 39.1486 540.569" fill="none" opacity="1" stroke="#a3a3a3" stroke-linecap="round" stroke-linejoin="round" stroke-width="3.19853"/>
<path d="M37.8085 328.388C36.3213 331.363 35.5561 335.564 33.7882 338.215C33.5405 338.587 33.7251 337.318 33.7882 336.875C34.2095 333.927 34.1632 336.197 35.1283 333.302C35.5101 332.157 35.6386 328.133 36.9151 327.495C38.5142 326.695 44.1485 333.388 45.4024 334.642" fill="none" opacity="1" stroke="#a3a3a3" stroke-linecap="round" stroke-linejoin="round" stroke-width="3.19853"/>
<g opacity="1">
<path d="M39.4556 541.261C40.0522 540.599 58.5876 540.668 61.0664 540.646C82.4056 540.463 103.753 540.922 125.129 540.737C158.222 540.452 191.503 540.272 224.563 540.738C252.694 541.135 280.932 540.014 309.059 540.439C327.711 540.72 346.609 540.544 365.261 540.383C373.093 540.316 383.274 539.289 390.809 540.592" fill="none" opacity="1" stroke="#a3a3a3" stroke-linecap="round" stroke-linejoin="round" stroke-width="3.19853"/>
<path d="M390.247 540.648C390.246 540.479 390.381 540.239 390.243 540.14C389.746 539.785 382.997 535.377 382.836 535.378C381.936 535.386 384.108 536.682 384.883 537.138C386.469 538.071 388.278 538.747 389.733 539.891C389.921 540.039 390.243 540.155 390.245 540.394C390.248 540.761 383.107 543.946 382.151 544.274" fill="none" opacity="1" stroke="#a3a3a3" stroke-linecap="round" stroke-linejoin="round" stroke-width="3.19853"/>
</g>
<path d="M100.201 534.424C100.201 538.424 100.201 542.424 100.201 546.424" fill="none" opacity="1" stroke="#eebf5b" stroke-linecap="round" stroke-linejoin="round" stroke-width="3.19853"/>
<path d="M336.855 532.857C337.513 537.462 337.673 541.725 337.673 546.494" fill="none" opacity="1" stroke="#eebf5b" stroke-linecap="round" stroke-linejoin="round" stroke-width="3.19853"/>
<path d="M220.719 534.339C220.719 533.43 220.719 536.157 220.719 537.066C220.719 540.52 220.719 543.975 220.719 547.43" fill="none" opacity="1" stroke="#eebf5b" stroke-linecap="round" stroke-linejoin="round" stroke-width="3.19853"/>
<path d="M33.6278 486.288C36.8649 484.669 40.8532 487.721 44.2642 486.015" fill="none" opacity="1" stroke="#eebf5b" stroke-linecap="round" stroke-linejoin="round" stroke-width="3.19853"/>
<path d="M34.7187 368.197C36.6906 368.197 46.1733 366.038 46.1733 368.197" fill="none" opacity="1" stroke="#eebf5b" stroke-linecap="round" stroke-linejoin="round" stroke-width="3.19853"/>
<path d="M8.22764 371.611C9.71548 369.528 10.3635 366.884 12.0213 364.934C12.5868 364.268 11.6778 366.647 11.5661 367.514C11.4752 368.218 11.4481 368.929 11.4143 369.638C11.3256 371.502 11.4143 373.385 11.4143 375.253" fill="none" opacity="1" stroke="#eebf5b" stroke-linecap="round" stroke-linejoin="round" stroke-width="2.09926"/>
<path d="M17.4083 366.375C14.174 367.325 16.4312 369.935 16.422 370.397C16.4036 371.314 17.1063 373.892 18.6982 373.28C22.7309 371.729 23.1551 364.688 17.4083 366.375Z" fill="none" opacity="1" stroke="#eebf5b" stroke-linecap="round" stroke-linejoin="round" stroke-width="2.09926"/>
<path d="M20.2426 482.692C19.4316 483.179 18.9937 484.34 19.082 485.281C19.1331 485.826 21.5222 485.816 21.4031 487.602C21.2605 489.742 18.3678 489.315 18.3678 488.763" fill="none" opacity="1" stroke="#eebf5b" stroke-linecap="round" stroke-linejoin="round" stroke-width="2.09926"/>
<path d="M19.1713 483.049C19.6386 482.115 21.1136 482.269 22.1173 481.978C23.2591 481.648 24.4341 481.534 25.5098 480.996" fill="none" opacity="1" stroke="#eebf5b" stroke-linecap="round" stroke-linejoin="round" stroke-width="2.09926"/>
<path d="M89.3898 557.449C90.9428 556.154 91.8468 554.237 93.0423 552.607C93.2203 552.364 93.392 552.102 93.6369 551.927C94.243 551.494 93.3895 553.397 93.2972 554.136C93.086 555.825 92.7875 557.611 92.7875 559.317" fill="none" opacity="1" stroke="#eebf5b" stroke-linecap="round" stroke-linejoin="round" stroke-width="2.1"/>
<path d="M103.49 554.646C103.49 554.815 103.49 554.985 103.49 555.155" fill="none" opacity="1" stroke="#eebf5b" stroke-linecap="round" stroke-linejoin="round" stroke-width="2.1"/>
<path d="M103.405 557.619C103.405 557.732 103.405 557.845 103.405 557.958" fill="none" opacity="1" stroke="#eebf5b" stroke-linecap="round" stroke-linejoin="round" stroke-width="2.1"/>
<path d="M108.757 552.182C108.614 552.328 108.452 551.471 108.417 551.673C108.107 553.437 107.605 555.258 107.907 557.024C108.017 557.666 108.889 557.97 109.521 558.128C109.827 558.205 110.662 557.228 110.795 557.024C111.489 555.96 112.256 554.601 111.73 553.286C111.28 552.161 109.834 551.078 108.757 552.182Z" fill="none" opacity="1" stroke="#eebf5b" stroke-linecap="round" stroke-linejoin="round" stroke-width="2.1"/>
<path d="M116.402 551.757C116.345 551.701 116.265 551.515 116.232 551.588C115.568 553.03 114.621 554.426 114.448 556.005C114.372 556.7 114.98 557.386 115.552 557.788C116.478 558.44 117.663 556.724 117.931 556.259C119.628 553.317 116.706 549.512 114.703 552.182" fill="none" opacity="1" stroke="#eebf5b" stroke-linecap="round" stroke-linejoin="round" stroke-width="2.1"/>
<path d="M206.455 558.025C208.008 556.731 208.912 554.813 210.107 553.183C210.285 552.94 210.457 552.679 210.702 552.504C211.308 552.071 210.454 553.973 210.362 554.712C210.151 556.401 209.852 558.187 209.852 559.894" fill="none" opacity="1" stroke="#eebf5b" stroke-linecap="round" stroke-linejoin="round" stroke-width="2.1"/>
<path d="M220.555 555.222C220.555 555.392 220.555 555.562 220.555 555.731" fill="none" opacity="1" stroke="#eebf5b" stroke-linecap="round" stroke-linejoin="round" stroke-width="2.1"/>
<path d="M220.47 558.195C220.47 558.308 220.47 558.421 220.47 558.535" fill="none" opacity="1" stroke="#eebf5b" stroke-linecap="round" stroke-linejoin="round" stroke-width="2.1"/>
<path d="M225.822 552.758C225.679 552.905 225.517 552.048 225.482 552.249C225.172 554.014 224.67 555.834 224.972 557.6C225.082 558.243 225.954 558.546 226.586 558.704C226.892 558.781 227.727 557.804 227.86 557.6C228.554 556.536 229.32 555.177 228.795 553.863C228.345 552.738 226.899 551.655 225.822 552.758Z" fill="none" opacity="1" stroke="#eebf5b" stroke-linecap="round" stroke-linejoin="round" stroke-width="2.1"/>
<path d="M233.466 552.334C233.41 552.277 233.33 552.091 233.297 552.164C232.633 553.606 231.686 555.002 231.513 556.581C231.437 557.276 232.045 557.962 232.617 558.365C233.543 559.016 234.727 557.3 234.995 556.836C236.693 553.894 233.77 550.088 231.768 552.758" fill="none" opacity="1" stroke="#eebf5b" stroke-linecap="round" stroke-linejoin="round" stroke-width="2.1"/>
<path d="M322.967 556.206C324.52 554.912 325.424 552.994 326.62 551.364C326.798 551.122 326.97 550.86 327.214 550.685C327.821 550.252 326.967 552.154 326.875 552.893C326.664 554.582 326.365 556.368 326.365 558.075" fill="none" opacity="1" stroke="#eebf5b" stroke-linecap="round" stroke-linejoin="round" stroke-width="2.1"/>
<path d="M337.068 553.403C337.068 553.573 337.068 553.743 337.068 553.913" fill="none" opacity="1" stroke="#eebf5b" stroke-linecap="round" stroke-linejoin="round" stroke-width="2.1"/>
<path d="M336.983 556.376C336.983 556.489 336.983 556.602 336.983 556.716" fill="none" opacity="1" stroke="#eebf5b" stroke-linecap="round" stroke-linejoin="round" stroke-width="2.1"/>
<path d="M342.334 550.94C342.192 551.086 342.03 550.229 341.995 550.43C341.685 552.195 341.183 554.015 341.485 555.781C341.595 556.424 342.466 556.727 343.099 556.886C343.405 556.962 344.24 555.985 344.373 555.781C345.067 554.718 345.833 553.358 345.307 552.044C344.857 550.919 343.412 549.836 342.334 550.94Z" fill="none" opacity="1" stroke="#eebf5b" stroke-linecap="round" stroke-linejoin="round" stroke-width="2.1"/>
<path d="M349.979 550.515C349.923 550.458 349.843 550.272 349.809 550.345C349.146 551.787 348.199 553.184 348.026 554.762C347.949 555.457 348.558 556.143 349.13 556.546C350.055 557.197 351.24 555.481 351.508 555.017C353.206 552.075 350.283 548.269 348.28 550.94" fill="none" opacity="1" stroke="#eebf5b" stroke-linecap="round" stroke-linejoin="round" stroke-width="2.1"/>
<g opacity="1">
<path d="M71.8251 390.232C73.8955 387.472 76.4784 385.228 78.8207 382.719C81.0906 380.287 83.1067 375.653 86.0755 374.168C88.1051 373.153 91.9131 378.451 93.0712 379.609C96.9386 383.477 100.854 387.392 104.731 391.269C106.496 393.034 108.433 397.376 110.949 398.005C112.889 398.49 121.005 388.107 123.904 387.382C124.541 387.223 125.489 389.547 125.718 390.232C127.023 394.148 129.367 397.556 131.677 400.855C138.591 410.733 145.268 421.173 151.109 431.688C151.615 432.598 155.427 440.21 156.551 439.461C156.927 439.21 157.533 437.391 157.846 436.87C158.418 435.916 168.391 423.509 168.728 423.397C169.104 423.272 171.432 426.36 171.837 426.765C173.049 427.977 182.044 435.68 182.979 435.057C184.975 433.726 186.215 430.816 188.161 429.356C192.402 426.175 197.39 422.233 200.597 417.956C201.145 417.226 205.413 411.943 206.038 412.256C207.795 413.134 211.999 420.547 214.848 420.547C216.041 420.547 218.24 416.566 218.993 415.624C220.372 413.901 228.82 405.135 230.394 404.742C231.72 404.41 240.393 413.902 242.831 413.292C245.256 412.686 246.546 409.009 248.531 407.592C254.569 403.279 260.392 398.207 266.149 393.601C267.601 392.439 272.762 385.991 274.182 386.346C276.911 387.028 279.262 390.825 281.436 392.564C288.731 398.4 295.668 405.871 303.719 410.701C305.259 411.625 308.096 407.347 309.128 405.538" fill="none" opacity="1" stroke="#2e6777" stroke-linecap="round" stroke-linejoin="round" stroke-width="3.19926"/>
<path d="M309.678 405.519C310.458 407.079 313.193 408.797 314.601 409.924C318.204 412.806 321.67 416.733 324.965 420.029C338.127 433.19 351.897 445.925 364.866 458.894" fill="none" opacity="1" stroke="#2e6777" stroke-linecap="round" stroke-linejoin="round" stroke-width="3.19926"/>
</g>
<path d="M96.4066 555.458C97.0688 554.631 97.7704 553.835 98.4424 553.016C98.7636 552.624 98.8665 551.634 99.3472 551.794C99.5144 551.85 99.4376 553.813 99.4376 553.83C99.4376 555.189 98.5053 557.982 99.1662 559.304" fill="none" opacity="1" stroke="#eebf5b" stroke-linecap="round" stroke-linejoin="round" stroke-width="2.1"/>
<path d="M213.328 553.233C213.328 552.567 214.496 552.499 215.158 552.435C215.82 552.371 215.794 552.977 215.816 553.327C215.962 555.67 212.941 557.49 213.187 559.71C213.21 559.914 216.949 560.164 217.177 559.71" fill="none" opacity="1" stroke="#eebf5b" stroke-linecap="round" stroke-linejoin="round" stroke-width="2.1"/>
<path d="M330.155 551.425C330.155 550.439 332.626 550.382 332.979 551.323C333.307 552.199 333.147 553.37 332.435 554.011C332.174 554.246 331.889 554.48 331.55 554.556C331.405 554.588 330.974 554.557 331.108 554.624C331.913 555.027 333.117 554.89 333.217 556.189C333.376 558.248 329.56 558.928 329.237 556.665" fill="none" opacity="1" stroke="#eebf5b" stroke-linecap="round" stroke-linejoin="round" stroke-width="2.1"/>
<path d="M71.7918 396.896C71.7918 399.378 71.7918 401.859 71.7918 404.341" fill="none" opacity="1" stroke="#d0453b" stroke-linecap="round" stroke-linejoin="round" stroke-width="2.6489"/>
<path d="M71.7918 413.364C72.4914 416.162 72.0174 419.07 72.0174 421.937" fill="none" opacity="1" stroke="#d0453b" stroke-linecap="round" stroke-linejoin="round" stroke-width="2.6489"/>
<path d="M71.7918 432.088C71.7918 433.968 71.7918 435.848 71.7918 437.728" fill="none" opacity="1" stroke="#d0453b" stroke-linecap="round" stroke-linejoin="round" stroke-width="2.6489"/>
<path d="M72.0174 444.947C72.232 447.522 72.243 450.026 72.243 452.617" fill="none" opacity="1" stroke="#d0453b" stroke-linecap="round" stroke-linejoin="round" stroke-width="2.6489"/>
<path d="M72.0174 460.738C72.0174 463.37 72.0174 466.002 72.0174 468.634" fill="none" opacity="1" stroke="#d0453b" stroke-linecap="round" stroke-linejoin="round" stroke-width="2.6489"/>
<path d="M72.0174 475.853C72.0174 477.958 72.0174 480.064 72.0174 482.169" fill="none" opacity="1" stroke="#d0453b" stroke-linecap="round" stroke-linejoin="round" stroke-width="2.6489"/>
<path d="M71.7918 491.87C71.7918 494.226 71.8991 496.533 71.5662 498.863" fill="none" opacity="1" stroke="#d0453b" stroke-linecap="round" stroke-linejoin="round" stroke-width="2.6489"/>
<path d="M71.3407 506.984C71.3407 508.939 71.3407 510.894 71.3407 512.85" fill="none" opacity="1" stroke="#d0453b" stroke-linecap="round" stroke-linejoin="round" stroke-width="2.6489"/>
<path d="M70.8895 522.55C70.8895 524.806 70.8895 527.062 70.8895 529.318" fill="none" opacity="1" stroke="#d0453b" stroke-linecap="round" stroke-linejoin="round" stroke-width="2.6489"/>
<path d="M71.1151 536.988C71.1151 538.946 70.8895 540.895 70.8895 542.853" fill="none" opacity="1" stroke="#d0453b" stroke-linecap="round" stroke-linejoin="round" stroke-width="2.6489"/>
<path d="M365.285 465.476C365.594 468.256 365.615 471.046 365.962 473.822" fill="none" opacity="1" stroke="#d0453b" stroke-linecap="round" stroke-linejoin="round" stroke-width="2.6489"/>
<path d="M365.962 481.041C365.962 483.208 365.498 485.516 366.187 487.583" fill="none" opacity="1" stroke="#d0453b" stroke-linecap="round" stroke-linejoin="round" stroke-width="2.6489"/>
<path d="M365.736 493.9C365.736 496.092 365.42 498.28 365.059 500.442" fill="none" opacity="1" stroke="#d0453b" stroke-linecap="round" stroke-linejoin="round" stroke-width="2.6489"/>
<path d="M365.511 506.759C365.511 509.771 365.285 512.772 365.285 515.782" fill="none" opacity="1" stroke="#d0453b" stroke-linecap="round" stroke-linejoin="round" stroke-width="2.6489"/>
<path d="M365.285 522.099C366.193 523.915 365.366 526.161 365.285 528.19" fill="none" opacity="1" stroke="#d0453b" stroke-linecap="round" stroke-linejoin="round" stroke-width="2.6489"/>
<path d="M365.059 535.409C365.059 538.731 365.059 542.033 365.059 545.335" fill="none" opacity="1" stroke="#d0453b" stroke-linecap="round" stroke-linejoin="round" stroke-width="2.6489"/>
<path d="M70.8895 548.267C70.8895 550.676 71.1151 553.077 71.1151 555.486" fill="none" opacity="1" stroke="#d0453b" stroke-linecap="round" stroke-linejoin="round" stroke-width="2.6489"/>
<path d="M71.5662 563.833C71.5662 566.089 71.5662 568.345 71.5662 570.601" fill="none" opacity="1" stroke="#d0453b" stroke-linecap="round" stroke-linejoin="round" stroke-width="2.6489"/>
<path d="M364.383 552.553C364.94 556.174 364.834 559.715 364.834 563.382" fill="none" opacity="1" stroke="#d0453b" stroke-linecap="round" stroke-linejoin="round" stroke-width="2.6489"/>
<path d="M58.0462 581.52C58.4702 580.035 59.4779 578.777 60.3435 577.499C60.6148 577.099 60.2887 582.449 60.5733 583.587" fill="none" opacity="1" stroke="#d0453b" stroke-linecap="round" stroke-linejoin="round" stroke-width="2.09926"/>
<path d="M64.1917 578.188C63.352 579.311 62.0753 583.773 64.1342 583.932C68.1905 584.244 67.4733 573.799 64.1917 578.188Z" fill="none" opacity="1" stroke="#d0453b" stroke-linecap="round" stroke-linejoin="round" stroke-width="2.09926"/>
<path d="M69.7628 579.567C69.8011 579.643 69.8394 579.72 69.8777 579.797" fill="none" opacity="1" stroke="#d0453b" stroke-linecap="round" stroke-linejoin="round" stroke-width="2.09926"/>
<path d="M70.1673 582.838C70.0831 582.838 69.9988 582.838 69.9146 582.838" fill="none" opacity="1" stroke="#d0453b" stroke-linecap="round" stroke-linejoin="round" stroke-width="2.09926"/>
<path d="M74.5902 576.772C75.723 577.338 74.7707 579.299 74.8429 580.563C74.9446 582.343 78.147 580.924 78.8867 580.184" fill="none" opacity="1" stroke="#d0453b" stroke-linecap="round" stroke-linejoin="round" stroke-width="2.09926"/>
<path d="M78.0021 576.646C78.0021 578.878 78.0021 581.111 78.0021 583.343" fill="none" opacity="1" stroke="#d0453b" stroke-linecap="round" stroke-linejoin="round" stroke-width="2.09926"/>
<path d="M82.6778 576.898C81.989 578.046 81.3852 579.541 81.7932 580.816C81.8545 581.007 84.9857 580.111 84.6997 581.827C84.5628 582.648 81.9196 585.227 81.9196 583.09" fill="none" opacity="1" stroke="#d0453b" stroke-linecap="round" stroke-linejoin="round" stroke-width="2.09926"/>
<path d="M82.1723 577.783C83.3931 576.806 85.3942 576.393 86.9743 576.393" fill="none" opacity="1" stroke="#d0453b" stroke-linecap="round" stroke-linejoin="round" stroke-width="2.09926"/>
<path d="M355.069 577.662C355.639 575.952 356.508 574.34 357.487 572.827C357.726 572.457 357.596 573.704 357.596 574.145C357.596 574.695 357.596 575.244 357.596 575.794C357.596 576.929 357.596 578.065 357.596 579.2" fill="none" opacity="1" stroke="#d0453b" stroke-linecap="round" stroke-linejoin="round" stroke-width="2.09926"/>
<path d="M360.869 572.44C361.581 571.193 363.369 570.933 363.875 572.551C364.156 573.45 363.343 574.706 362.428 574.889C362.318 574.911 362.094 574.889 362.094 574.889C362.094 574.889 363.358 574.705 363.875 575.001C364.578 575.402 364.957 576.57 364.765 577.338C364.425 578.701 361.831 579.708 361.092 578.229" fill="none" opacity="1" stroke="#d0453b" stroke-linecap="round" stroke-linejoin="round" stroke-width="2.09926"/>
<path d="M367.66 575.112C367.66 575.26 367.66 575.409 367.66 575.557" fill="none" opacity="1" stroke="#d0453b" stroke-linecap="round" stroke-linejoin="round" stroke-width="2.09926"/>
<path d="M367.994 577.895C367.994 578.006 367.994 578.118 367.994 578.229" fill="none" opacity="1" stroke="#d0453b" stroke-linecap="round" stroke-linejoin="round" stroke-width="2.09926"/>
<path d="M370.443 577.895C371.005 576.209 372.168 574.787 373.004 573.219C373.881 571.574 372.861 577.165 373.338 578.118" fill="none" opacity="1" stroke="#d0453b" stroke-linecap="round" stroke-linejoin="round" stroke-width="2.09926"/>
<path d="M377.457 571.995C376.743 571.995 376.387 573.177 376.455 573.887C376.479 574.14 379.083 574.336 379.238 575.891C379.457 578.082 376.736 579.182 376.344 578.006" fill="none" opacity="1" stroke="#d0453b" stroke-linecap="round" stroke-linejoin="round" stroke-width="2.09926"/>
<path d="M377.123 571.772C378.593 571.282 380.14 571.104 381.687 571.104" fill="none" opacity="1" stroke="#d0453b" stroke-linecap="round" stroke-linejoin="round" stroke-width="2.09926"/>
<path d="M46.5233 6.08794C45.5014 5.67917 43.344 4.3556 42.5878 5.30084C41.5185 6.63751 42.6711 10.7542 42.7452 12.3848C42.85 14.69 42.3843 23.0649 43.5323 24.9784C44.0766 25.8855 46.773 25.1174 47.4678 24.9784" fill="none" opacity="1" stroke="#eebf5b" stroke-linecap="round" stroke-linejoin="round" stroke-width="1.54963"/>
<path d="M49.5143 10.3383C49.4618 10.0759 49.2853 9.29339 49.3569 9.55119C49.6907 10.753 50.0805 11.9443 50.3014 13.1719C50.4599 14.0521 50.4694 18.923 51.2459 19.3113" fill="none" opacity="1" stroke="#eebf5b" stroke-linecap="round" stroke-linejoin="round" stroke-width="1.54963"/>
<path d="M54.7092 14.7461C54.3308 13.9893 53.013 15.3285 52.5053 16.0054C50.6685 18.4545 52.2184 20.4316 54.5518 18.6816" fill="none" opacity="1" stroke="#eebf5b" stroke-linecap="round" stroke-linejoin="round" stroke-width="1.54963"/>
<path d="M56.9131 15.2183C56.9131 16.3266 56.821 17.7267 57.8576 18.5242C58.884 19.3137 59.6062 14.8333 59.7466 14.9035C60.5508 15.3055 59.9442 18.839 61.3208 18.839C62.1611 18.839 63.7688 15.1476 63.997 15.3757C64.7486 16.1274 64.1368 20.1567 66.2009 19.4687" fill="none" opacity="1" stroke="#eebf5b" stroke-linecap="round" stroke-linejoin="round" stroke-width="1.54963"/>
<path d="M70.4512 6.5602C70.4512 12.639 69.1703 18.7664 69.5067 24.821C69.5232 25.1173 69.9265 24.4012 70.1364 24.1913" fill="none" opacity="1" stroke="#eebf5b" stroke-linecap="round" stroke-linejoin="round" stroke-width="1.54963"/>
<path d="M75.1738 9.55119C75.1214 9.44624 75.0091 9.11924 75.0164 9.23635C75.1281 11.0239 75.2665 12.8114 75.4887 14.5886C75.6342 15.7529 75.8882 16.9013 76.1184 18.0519C76.5349 20.1345 77.6533 15.4544 78.0074 15.2183C78.441 14.9293 78.7746 20.1183 80.0539 18.839" fill="none" opacity="1" stroke="#eebf5b" stroke-linecap="round" stroke-linejoin="round" stroke-width="1.54963"/>
<path d="M79.8964 7.50472C79.2661 6.24409 88.393 6.70928 88.3972 6.71762C88.7791 7.48153 87.6841 11.4624 87.6101 12.2273C87.4557 13.8225 88.4816 22.1333 88.0823 22.9319C86.8692 25.3582 82.5751 22.6121 81.6281 24.5061" fill="none" opacity="1" stroke="#eebf5b" stroke-linecap="round" stroke-linejoin="round" stroke-width="1.54963"/>
<path d="M22.2806 14.1164C21.6298 16.0686 23.5213 18.0474 24.327 19.9409C24.7059 20.8312 25.4815 22.7745 26.2161 22.1448C26.4522 21.9424 31.411 11.6976 31.411 12.857" fill="none" opacity="1" stroke="#eebf5b" stroke-linecap="round" stroke-linejoin="round" stroke-width="2.09926"/>
<path d="M46.5233 304.179C45.5014 303.77 43.344 302.447 42.5878 303.392C41.5185 304.728 42.6711 308.845 42.7452 310.476C42.85 312.781 42.3843 321.156 43.5323 323.069C44.0766 323.976 46.773 323.208 47.4678 323.069" fill="none" opacity="1" stroke="#eebf5b" stroke-linecap="round" stroke-linejoin="round" stroke-width="1.54963"/>
<path d="M49.5143 308.429C49.4618 308.167 49.2853 307.384 49.3569 307.642C49.6907 308.844 50.0805 310.035 50.3014 311.263C50.4599 312.143 50.4694 317.014 51.2459 317.402" fill="none" opacity="1" stroke="#eebf5b" stroke-linecap="round" stroke-linejoin="round" stroke-width="1.54963"/>
<path d="M54.7092 312.837C54.3308 312.08 53.013 313.419 52.5053 314.096C50.6685 316.545 52.2184 318.523 54.5518 316.772" fill="none" opacity="1" stroke="#eebf5b" stroke-linecap="round" stroke-linejoin="round" stroke-width="1.54963"/>
<path d="M56.9131 313.309C56.9131 314.417 56.821 315.818 57.8576 316.615C58.884 317.405 59.6062 312.924 59.7466 312.994C60.5508 313.396 59.9442 316.93 61.3208 316.93C62.1611 316.93 63.7688 313.239 63.997 313.467C64.7486 314.218 64.1368 318.248 66.2009 317.56" fill="none" opacity="1" stroke="#eebf5b" stroke-linecap="round" stroke-linejoin="round" stroke-width="1.54963"/>
<path d="M70.4512 304.651C70.4512 310.73 69.1703 316.857 69.5067 322.912C69.5232 323.208 69.9265 322.492 70.1364 322.282" fill="none" opacity="1" stroke="#eebf5b" stroke-linecap="round" stroke-linejoin="round" stroke-width="1.54963"/>
<path d="M75.1738 307.642C75.1214 307.537 75.0091 307.21 75.0164 307.327C75.1281 309.115 75.2665 310.902 75.4887 312.68C75.6342 313.844 75.8882 314.992 76.1184 316.143C76.5349 318.225 77.6533 313.545 78.0074 313.309C78.441 313.02 78.7746 318.209 80.0539 316.93" fill="none" opacity="1" stroke="#eebf5b" stroke-linecap="round" stroke-linejoin="round" stroke-width="1.54963"/>
<path d="M79.8964 305.596C79.2661 304.335 88.393 304.8 88.3972 304.809C88.7791 305.572 87.6841 309.553 87.6101 310.318C87.4557 311.913 88.4816 320.224 88.0823 321.023C86.8692 323.449 82.5751 320.703 81.6281 322.597" fill="none" opacity="1" stroke="#eebf5b" stroke-linecap="round" stroke-linejoin="round" stroke-width="1.54963"/>
<path d="M22.2806 312.207C21.6298 314.16 23.5213 316.138 24.327 318.032C24.7059 318.922 25.4815 320.865 26.2161 320.236C26.4522 320.033 31.411 309.788 31.411 310.948" fill="none" opacity="1" stroke="#eebf5b" stroke-linecap="round" stroke-linejoin="round" stroke-width="2.09926"/>
<path d="M399.059 234.312C399.969 238.859 398.312 243.646 399.059 248.221C399.236 249.302 401.421 249.101 402.332 248.494" fill="none" opacity="1" stroke="#eebf5b" stroke-linecap="round" stroke-linejoin="round" stroke-width="1.54963"/>
<path d="M395.241 242.494C397.852 242.121 400.512 242.221 403.15 242.221" fill="none" opacity="1" stroke="#eebf5b" stroke-linecap="round" stroke-linejoin="round" stroke-width="1.54963"/>
<path d="M399.355 534.299C399.355 535.361 395.997 549.943 402.694 545.478" fill="none" opacity="1" stroke="#eebf5b" stroke-linecap="round" stroke-linejoin="round" stroke-width="1.54963"/>
<path d="M396.306 541.122C398.003 541.122 399.698 540.985 401.388 540.832" fill="none" opacity="1" stroke="#eebf5b" stroke-linecap="round" stroke-linejoin="round" stroke-width="1.54963"/>
</g>
</svg>
