<?xml version="1.0" encoding="UTF-8" standalone="no"?>
<!DOCTYPE svg PUBLIC "-//W3C//DTD SVG 1.1//EN" "http://www.w3.org/Graphics/SVG/1.1/DTD/svg11.dtd">
<!-- Created with Vectornator (http://vectornator.io/) -->
<svg height="100%" stroke-miterlimit="10" style="fill-rule:nonzero;clip-rule:evenodd;stroke-linecap:round;stroke-linejoin:round;" version="1.1" viewBox="0 0 340.2 524.475" width="100%" xml:space="preserve" xmlns="http://www.w3.org/2000/svg" xmlns:vectornator="http://vectornator.io" xmlns:xlink="http://www.w3.org/1999/xlink">
<defs/>
<g id="Ebene-5" vectornator:layerName="Ebene 5">
<path d="M37.0413 32.4613L93.2392 32.4613L93.2392 492.789L37.0413 492.789L37.0413 32.4613Z" fill="#e9b0a2" fill-opacity="0.215734" fill-rule="nonzero" opacity="1" stroke="none"/>
<path d="M186.567 32.8156L242.327 32.8156L242.327 492.598L186.567 492.598L186.567 32.8156Z" fill="#e9b0a2" fill-opacity="0.215734" fill-rule="nonzero" opacity="1" stroke="none"/>
</g>
<g id="Ebene-1" vectornator:layerName="Ebene 1">
<path d="M70.1075 502.438C70.8587 502.062 72.3929 500.975 73.3612 501.846C73.8497 502.286 70.3309 506.892 69.9596 507.466C69.6918 507.88 68.6046 508.493 69.0723 508.649C70.0089 508.961 72.4717 508.058 73.657 508.058" fill="none" opacity="1" stroke="#eebf5b" stroke-linecap="round" stroke-linejoin="round" stroke-width="2.09926"/>
<path d="M108.265 500.071C108.684 499.234 108.2 501.947 108.265 502.881C108.294 503.302 108.431 503.747 108.708 504.064C109.38 504.833 111.327 503.495 111.962 503.177" fill="none" opacity="1" stroke="#eebf5b" stroke-linecap="round" stroke-linejoin="round" stroke-width="2.09926"/>
<path d="M111.37 499.628C111.37 502.393 111.075 505.143 111.075 507.91" fill="none" opacity="1" stroke="#eebf5b" stroke-linecap="round" stroke-linejoin="round" stroke-width="2.09926"/>
<path d="M148.344 500.811C147.795 499.438 146.132 502.951 145.682 504.36C145.349 505.403 145.285 506.913 146.126 507.614C149.03 510.034 152.128 501.591 146.865 505.1" fill="none" opacity="1" stroke="#eebf5b" stroke-linecap="round" stroke-linejoin="round" stroke-width="2.09926"/>
<path d="M186.501 500.589C186.485 500.607 186.526 500.513 186.501 500.515C185.612 500.589 184.42 500.133 183.839 500.811C183.2 501.556 187.098 504.392 187.241 505.396C187.393 506.457 185.34 508.995 184.283 507.762C183.108 506.391 187.108 502.208 187.685 500.959C188.309 499.606 187.06 499.986 186.501 500.589Z" fill="none" opacity="1" stroke="#eebf5b" stroke-linecap="round" stroke-linejoin="round" stroke-width="2.09926"/>
<path d="M216.968 507.022C217.66 504.945 219.056 503.154 220.37 501.402C220.579 501.123 220.295 502.097 220.222 502.438C220.146 502.789 219.97 503.117 219.926 503.473C219.783 504.618 219.886 506.042 220.074 507.17" fill="none" opacity="1" stroke="#eebf5b" stroke-linecap="round" stroke-linejoin="round" stroke-width="2.09926"/>
<path d="M223.18 502.216C223.104 502.469 222.297 507.946 224.954 507.614C226.152 507.464 227.062 505.987 227.469 505.1C229.221 501.275 224.467 497.885 223.18 502.216Z" fill="none" opacity="1" stroke="#eebf5b" stroke-linecap="round" stroke-linejoin="round" stroke-width="2.09926"/>
<path d="M253.794 506.874C254.361 504.607 255.793 502.635 257.048 500.663C257.18 500.455 257.078 501.158 257.048 501.402C256.979 501.949 256.8 502.48 256.752 503.029C256.694 503.693 256.339 506.816 257.048 507.17" fill="none" opacity="1" stroke="#eebf5b" stroke-linecap="round" stroke-linejoin="round" stroke-width="2.09926"/>
<path d="M259.414 501.994C260.687 501.23 261.501 500.637 263.407 500.811C263.86 500.852 263.355 501.758 263.111 502.142C262.611 502.928 260.078 506.094 260.449 507.022C260.649 507.521 265.61 506.095 266.365 505.987" fill="none" opacity="1" stroke="#eebf5b" stroke-linecap="round" stroke-linejoin="round" stroke-width="2.09926"/>
<path d="M19.4388 449.387C18.9025 448.314 19.4064 451.785 19.4388 452.984C19.4604 453.783 19.2328 454.61 19.4388 455.382C19.7609 456.59 23.6633 454.793 24.0642 454.526" fill="none" opacity="1" stroke="#eebf5b" stroke-linecap="round" stroke-linejoin="round" stroke-width="2.09926"/>
<path d="M23.2076 449.387C23.2076 449.272 23.2131 448.93 23.2076 449.044C23.1451 450.357 23.0974 451.671 23.0363 452.984C22.9516 454.804 22.2916 458.347 23.2076 460.179" fill="none" opacity="1" stroke="#eebf5b" stroke-linecap="round" stroke-linejoin="round" stroke-width="2.09926"/>
<path d="M21.7515 411.613C20.8292 411.79 20.5219 413.374 20.8093 414.268C21.2948 415.779 23.3681 416.729 23.5502 418.551C23.7225 420.273 21.0388 420.464 19.9528 419.921C16.9183 418.404 29.1765 410.185 21.7515 411.613Z" fill="none" opacity="1" stroke="#eebf5b" stroke-linecap="round" stroke-linejoin="round" stroke-width="2.09926"/>
<path d="M12.5865 380.52C13.0573 378.637 14.1508 376.925 15.3274 375.381C15.5039 375.149 15.4816 375.947 15.4987 376.238C15.5389 376.922 15.4987 377.608 15.4987 378.293C15.4987 379.886 15.3565 381.522 15.67 383.09" fill="none" opacity="1" stroke="#eebf5b" stroke-linecap="round" stroke-linejoin="round" stroke-width="2.09926"/>
<path d="M18.7536 377.437C19.0759 376.47 22.2946 374.471 22.5224 376.066C22.6901 377.24 19.2827 382.407 20.4667 382.576C21.6164 382.74 22.4054 381.891 23.5502 381.891" fill="none" opacity="1" stroke="#eebf5b" stroke-linecap="round" stroke-linejoin="round" stroke-width="2.09926"/>
<path d="M13.5318 344.926C15.3689 342.63 16.9041 340.104 18.7064 337.78C18.8595 337.583 18.6292 338.274 18.5832 338.52C18.4761 339.09 18.4251 339.67 18.3368 340.245C18.0763 341.937 17.9671 343.582 17.9671 345.296" fill="none" opacity="1" stroke="#eebf5b" stroke-linecap="round" stroke-linejoin="round" stroke-width="2.09926"/>
<path d="M23.1418 337.904C22.9775 337.945 22.6844 337.861 22.6489 338.027C22.1707 340.259 21.7314 342.522 21.6633 344.803C21.6469 345.354 22.0302 345.875 22.4025 346.282C23.5786 347.565 26.7192 340.712 23.3882 342.585C22.9832 342.813 22.7134 343.226 22.4025 343.571C22.3411 343.639 22.3204 343.735 22.2793 343.817" fill="none" opacity="1" stroke="#eebf5b" stroke-linecap="round" stroke-linejoin="round" stroke-width="2.09926"/>
<path d="M13.5629 303.204C13.5164 303.065 13.2819 302.825 13.4235 302.786C14.7857 302.41 16.2043 301.902 17.605 302.089C18.3094 302.183 17.5282 303.591 16.7687 304.877C15.2261 307.487 12.2054 310.262 17.8838 308.64" fill="none" opacity="1" stroke="#eebf5b" stroke-linecap="round" stroke-linejoin="round" stroke-width="2.09926"/>
<path d="M23.041 302.577C21.875 303.125 21.2648 304.704 21.229 305.992C21.1778 307.835 23.039 308.242 24.2954 307.943C28.906 306.845 27.0105 300.709 23.041 302.577Z" fill="none" opacity="1" stroke="#eebf5b" stroke-linecap="round" stroke-linejoin="round" stroke-width="2.09926"/>
<path d="M304.584 488.344C304.339 490.305 302.055 499.702 306.722 495.968" fill="none" opacity="1" stroke="#eebf5b" stroke-linecap="round" stroke-linejoin="round" stroke-width="2.09926"/>
<path d="M301.423 492.807C301.33 492.807 301.052 492.821 301.144 492.807C302.289 492.639 303.435 492.478 304.584 492.342C304.719 492.326 306.462 492.008 306.629 492.342" fill="none" opacity="1" stroke="#eebf5b" stroke-linecap="round" stroke-linejoin="round" stroke-width="2.09926"/>
<path d="M314.346 486.578C313.679 485.91 312.68 485.575 311.743 485.462C311.247 485.403 311.874 486.453 311.929 486.95C312.066 488.18 312.022 489.543 312.022 490.762C312.022 492.742 310.905 500.943 315.462 498.665" fill="none" opacity="1" stroke="#eebf5b" stroke-linecap="round" stroke-linejoin="round" stroke-width="2.09926"/>
<path d="M320.576 491.32C319.962 490.706 318.772 491.074 317.972 491.413C317.77 491.498 317.852 491.846 317.879 492.063C318.004 493.065 321.373 492.543 320.947 494.388C320.698 495.47 317.6 496.095 317.6 495.132" fill="none" opacity="1" stroke="#eebf5b" stroke-linecap="round" stroke-linejoin="round" stroke-width="2.09926"/>
<path d="M321.691 486.95C321.691 486.761 325.078 485.821 325.875 486.299C326.031 486.393 325.689 490.962 325.689 491.506C325.689 492.337 326.563 498.52 325.968 498.758C325.077 499.114 323.587 498.944 322.621 498.944" fill="none" opacity="1" stroke="#eebf5b" stroke-linecap="round" stroke-linejoin="round" stroke-width="2.09926"/>
<path d="M34.1037 268.93C33.5042 268.631 32.3756 267.977 31.7414 268.294C31.0555 268.637 32 269.806 32.1048 270.566C32.2154 271.368 32.5179 273.664 32.5591 274.2C32.6218 275.016 32.6144 275.836 32.6499 276.653C32.6714 277.147 32.4864 280.066 33.1042 280.56C33.6591 281.004 35.2032 280.56 35.8299 280.56" fill="none" opacity="1" stroke="#eebf5b" stroke-linecap="round" stroke-linejoin="round" stroke-width="2.09926"/>
<path d="M36.7385 272.02C37.1234 273.559 37.2327 275.183 37.8288 276.653C37.9897 277.05 38.5532 276.131 38.7374 275.745C38.9146 275.373 39.4698 272.684 39.8277 272.565C40.049 272.491 40.4552 275.918 40.8271 276.29C41.3621 276.825 43.0655 273.176 43.0985 273.201C43.9984 273.876 43.3577 275.602 44.5522 276.199" fill="none" opacity="1" stroke="#eebf5b" stroke-linecap="round" stroke-linejoin="round" stroke-width="2.09926"/>
<path d="M44.8248 269.112C45.0164 268.346 49.8424 267.588 50.8214 268.567C51.5097 269.255 50.5174 272.544 50.6397 273.473C51.2632 278.212 53.822 279.833 47.914 279.833" fill="none" opacity="1" stroke="#eebf5b" stroke-linecap="round" stroke-linejoin="round" stroke-width="2.09926"/>
</g>
<clipPath id="ArtboardFrame">
<rect height="524.475" width="340.2" x="0" y="0"/>
</clipPath>
<g clip-path="url(#ArtboardFrame)" id="Ebene-2" vectornator:layerName="Ebene 2">
<path d="M36.5627 397.37L93.6874 342.554" fill="none" opacity="1" stroke="#2e6777" stroke-linecap="butt" stroke-linejoin="round" stroke-width="2.6489"/>
<path d="M186.692 387.532L91.9681 342.145" fill="none" opacity="1" stroke="#2e6777" stroke-linecap="butt" stroke-linejoin="round" stroke-width="2.6489"/>
<path d="M242.782 446.056L186.009 386.469" fill="none" opacity="1" stroke="#2e6777" stroke-linecap="butt" stroke-linejoin="round" stroke-width="2.6489"/>
<path d="M30.7313 453.973L294.6 454.547" fill="none" opacity="1" stroke="#a3a3a3" stroke-linecap="butt" stroke-linejoin="round" stroke-opacity="0.197404" stroke-width="0.579909"/>
<path d="M29.7753 416.687L293.644 417.261" fill="none" opacity="1" stroke="#a3a3a3" stroke-linecap="butt" stroke-linejoin="round" stroke-opacity="0.197404" stroke-width="0.579909"/>
<path d="M30.7313 378.828L294.6 379.402" fill="none" opacity="1" stroke="#a3a3a3" stroke-linecap="butt" stroke-linejoin="round" stroke-opacity="0.197404" stroke-width="0.579909"/>
<path d="M30.1577 342.116L294.027 342.689" fill="none" opacity="1" stroke="#a3a3a3" stroke-linecap="butt" stroke-linejoin="round" stroke-opacity="0.197404" stroke-width="0.579909"/>
<path d="M30.3489 304.065L294.218 304.639" fill="none" opacity="1" stroke="#a3a3a3" stroke-linecap="butt" stroke-linejoin="round" stroke-opacity="0.197404" stroke-width="0.579909"/>
<path d="M72.3774 496.917L73.7159 294.235" fill="none" opacity="1" stroke="#a3a3a3" stroke-linecap="butt" stroke-linejoin="round" stroke-opacity="0.197404" stroke-width="0.579909"/>
<path d="M109.854 496.917L111.193 294.235" fill="none" opacity="1" stroke="#a3a3a3" stroke-linecap="butt" stroke-linejoin="round" stroke-opacity="0.197404" stroke-width="0.579909"/>
<path d="M147.523 496.917L148.861 294.235" fill="none" opacity="1" stroke="#a3a3a3" stroke-linecap="butt" stroke-linejoin="round" stroke-opacity="0.197404" stroke-width="0.579909"/>
<path d="M185.532 496.917L186.871 294.235" fill="none" opacity="1" stroke="#a3a3a3" stroke-linecap="butt" stroke-linejoin="round" stroke-opacity="0.197404" stroke-width="0.579909"/>
<path d="M222.895 496.917L224.233 294.235" fill="none" opacity="1" stroke="#a3a3a3" stroke-linecap="butt" stroke-linejoin="round" stroke-opacity="0.197404" stroke-width="0.579909"/>
<path d="M260.257 496.917L261.596 294.235" fill="none" opacity="1" stroke="#a3a3a3" stroke-linecap="butt" stroke-linejoin="round" stroke-opacity="0.197404" stroke-width="0.579909"/>
<g opacity="1">
<path d="M36.0723 289.32C36.1157 301.627 36.7871 492.138 36.7871 492.138" fill="none" stroke="#a3a3a3" stroke-linecap="butt" stroke-linejoin="round" stroke-width="2.6489"/>
<g fill="#a3a3a3" stroke="none">
<path d="M45.0706 296.838L37.0897 287.153L36.0603 285.904L35.0396 287.161L27.1272 296.901C26.666 297.469 26.7524 298.303 27.3202 298.764C27.8879 299.225 28.722 299.139 29.1832 298.571L37.0957 288.831L35.0455 288.838L43.0264 298.523C43.4916 299.087 44.3263 299.168 44.8908 298.702C45.4553 298.237 45.5358 297.402 45.0706 296.838Z" fill="#a3a3a3"/>
</g>
</g>
<g opacity="1">
<path d="M292.495 492.531C278.328 492.531 36.3695 492.531 36.3695 492.531" fill="none" stroke="#a3a3a3" stroke-linecap="butt" stroke-linejoin="round" stroke-width="2.6489"/>
<g fill="#a3a3a3" stroke="none">
<path d="M284.945 501.503L294.658 493.556L295.911 492.531L294.658 491.506L284.945 483.559C284.379 483.096 283.544 483.179 283.081 483.746C282.618 484.312 282.702 485.146 283.268 485.609L292.98 493.556L292.98 491.506L283.268 499.453C282.702 499.916 282.618 500.75 283.081 501.316C283.544 501.882 284.379 501.966 284.945 501.503Z" fill="#a3a3a3"/>
</g>
</g>
<path d="M33.0285 397.256C33.0285 395.235 34.6669 393.597 36.688 393.597C38.709 393.597 40.3474 395.235 40.3474 397.256C40.3474 399.277 38.709 400.915 36.688 400.915C34.6669 400.915 33.0285 399.277 33.0285 397.256Z" fill="#ffffff" fill-rule="nonzero" opacity="1" stroke="#d5694f" stroke-linecap="round" stroke-linejoin="round" stroke-width="2.09926"/>
<path d="M89.3162 342.27C89.3162 340.249 90.9546 338.611 92.9756 338.611C94.9967 338.611 96.6351 340.249 96.6351 342.27C96.6351 344.291 94.9967 345.93 92.9756 345.93C90.9546 345.93 89.3162 344.291 89.3162 342.27Z" fill="#ffffff" fill-rule="nonzero" opacity="1" stroke="#d5694f" stroke-linecap="round" stroke-linejoin="round" stroke-width="2.09926"/>
<path d="M182.56 386.327C182.56 384.306 184.198 382.667 186.219 382.667C188.24 382.667 189.879 384.306 189.879 386.327C189.879 388.348 188.24 389.986 186.219 389.986C184.198 389.986 182.56 388.348 182.56 386.327Z" fill="#ffffff" fill-rule="nonzero" opacity="1" stroke="#d5694f" stroke-linecap="round" stroke-linejoin="round" stroke-width="2.09926"/>
<path d="M239.123 446.138C239.123 444.117 240.761 442.479 242.782 442.479C244.803 442.479 246.442 444.117 246.442 446.138C246.442 448.159 244.803 449.797 242.782 449.797C240.761 449.797 239.123 448.159 239.123 446.138Z" fill="#ffffff" fill-rule="nonzero" opacity="1" stroke="#d5694f" stroke-linecap="round" stroke-linejoin="round" stroke-width="2.09926"/>
<path d="M-22.0801 237.305L-20.7532 237.494" fill="none" opacity="1" stroke="#2e6777" stroke-linecap="butt" stroke-linejoin="round" stroke-width="2.09926"/>
<path d="M44.3328 398.144C46.0954 398.144 47.8471 398.225 49.5989 398.006" fill="none" opacity="1" stroke="#d5694f" stroke-linecap="round" stroke-linejoin="round" stroke-width="1.54963"/>
<path d="M53.0635 398.283C54.3107 398.283 55.558 398.283 56.8052 398.283" fill="none" opacity="1" stroke="#d5694f" stroke-linecap="round" stroke-linejoin="round" stroke-width="1.54963"/>
<path d="M62.0713 397.729C63.4037 397.562 64.7489 397.515 66.0902 397.451" fill="none" opacity="1" stroke="#d5694f" stroke-linecap="round" stroke-linejoin="round" stroke-width="1.54963"/>
<path d="M72.1878 397.451C73.3064 397.451 74.4017 397.313 75.5138 397.313" fill="none" opacity="1" stroke="#d5694f" stroke-linecap="round" stroke-linejoin="round" stroke-width="1.54963"/>
<path d="M81.1956 396.897C82.27 397.255 83.4091 397.378 84.5216 397.59" fill="none" opacity="1" stroke="#d5694f" stroke-linecap="round" stroke-linejoin="round" stroke-width="1.54963"/>
<path d="M87.4318 397.036C88.2649 396.619 90.2432 396.759 91.0349 396.759" fill="none" opacity="1" stroke="#d5694f" stroke-linecap="round" stroke-linejoin="round" stroke-width="1.54963"/>
<path d="M93.9451 395.234C93.9451 385.213 94.026 375.497 93.2522 365.439C92.8075 359.658 93.7901 353.561 92.8365 347.839C92.6219 346.552 91.0912 350.572 90.8963 351.027C90.6834 351.523 89.9597 352.933 90.342 352.551C91.4444 351.449 92.3324 346.322 93.9451 349.225C94.35 349.954 94.8562 350.686 95.1924 351.442C95.5467 352.239 95.911 353.018 96.301 353.798" fill="none" opacity="1" stroke="#d5694f" stroke-linecap="round" stroke-linejoin="round" stroke-width="1.54963"/>
<path d="M99.3498 372.922C100.651 372.922 101.939 372.668 103.23 372.507" fill="none" opacity="1" stroke="#d5694f" stroke-linecap="round" stroke-linejoin="round" stroke-width="1.54963"/>
<path d="M101.429 370.428C101.429 372.888 101.332 371.545 101.844 374.447" fill="none" opacity="1" stroke="#d5694f" stroke-linecap="round" stroke-linejoin="round" stroke-width="1.54963"/>
<path d="M109.466 367.518C107.851 369.133 105.935 377.456 109.605 375.417C111.802 374.196 110.033 370.874 108.08 373.477" fill="none" opacity="1" stroke="#d5694f" stroke-linecap="round" stroke-linejoin="round" stroke-width="1.54963"/>
<path d="M112.654 372.23C112.25 371.422 112.523 375.876 113.069 375.694C114.113 375.346 113.773 372.17 115.01 371.675C115.644 371.421 115.728 374.709 116.118 375.001C116.418 375.226 118.291 371.555 118.613 372.091C119.409 373.418 118.749 375.137 119.999 376.387" fill="none" opacity="1" stroke="#d5694f" stroke-linecap="round" stroke-linejoin="round" stroke-width="1.54963"/>
<path d="M97.2619 343.082C99.0633 342.857 100.887 342.835 102.702 342.835" fill="none" opacity="1" stroke="#d5694f" stroke-linecap="round" stroke-linejoin="round" stroke-width="1.54963"/>
<path d="M109.379 343.082C110.709 342.418 112.345 342.835 113.831 342.835" fill="none" opacity="1" stroke="#d5694f" stroke-linecap="round" stroke-linejoin="round" stroke-width="1.54963"/>
<path d="M118.777 342.588C120.508 342.588 122.239 342.588 123.97 342.588" fill="none" opacity="1" stroke="#d5694f" stroke-linecap="round" stroke-linejoin="round" stroke-width="1.54963"/>
<path d="M128.916 342.835C130.564 342.835 132.213 342.835 133.862 342.835" fill="none" opacity="1" stroke="#d5694f" stroke-linecap="round" stroke-linejoin="round" stroke-width="1.54963"/>
<path d="M139.797 342.34C141.693 342.34 143.589 342.34 145.485 342.34" fill="none" opacity="1" stroke="#d5694f" stroke-linecap="round" stroke-linejoin="round" stroke-width="1.54963"/>
<path d="M151.914 342.588C153.318 342.588 154.718 342.735 156.118 342.835" fill="none" opacity="1" stroke="#d5694f" stroke-linecap="round" stroke-linejoin="round" stroke-width="1.54963"/>
<path d="M161.064 342.588C162.383 342.588 163.702 342.588 165.021 342.588" fill="none" opacity="1" stroke="#d5694f" stroke-linecap="round" stroke-linejoin="round" stroke-width="1.54963"/>
<path d="M170.956 342.34C172.534 341.814 174.251 342.093 175.902 342.093" fill="none" opacity="1" stroke="#d5694f" stroke-linecap="round" stroke-linejoin="round" stroke-width="1.54963"/>
<path d="M181.342 342.34C182.744 342.34 184.145 342.34 185.546 342.34" fill="none" opacity="1" stroke="#d5694f" stroke-linecap="round" stroke-linejoin="round" stroke-width="1.54963"/>
<path d="M186.288 343.082C186.288 352.358 188.111 362.652 186.288 371.768C186.093 372.746 186.178 381.276 186.041 381.413C185.672 381.782 185.78 380.395 185.546 379.929C185.181 379.197 184.711 378.62 184.31 377.951C184.082 377.57 183.815 376.27 183.815 376.714C183.815 377.375 184.503 377.994 184.804 378.445C187.54 382.549 186.92 377.192 188.761 374.736C188.872 374.589 189.091 374.571 189.256 374.489" fill="none" opacity="1" stroke="#d5694f" stroke-linecap="round" stroke-linejoin="round" stroke-width="1.54963"/>
<path d="M194.696 361.382C196.922 361.382 199.148 361.382 201.373 361.382" fill="none" opacity="1" stroke="#d5694f" stroke-linecap="round" stroke-linejoin="round" stroke-width="1.54963"/>
<path d="M210.276 357.178C207.237 357.178 212.535 360.967 212.254 362.371C211.996 363.662 208.792 363.542 208.792 362.371" fill="none" opacity="1" stroke="#d5694f" stroke-linecap="round" stroke-linejoin="round" stroke-width="1.54963"/>
<path d="M209.534 357.425C210.389 355.715 213.15 357.472 214.727 356.683" fill="none" opacity="1" stroke="#d5694f" stroke-linecap="round" stroke-linejoin="round" stroke-width="1.54963"/>
<path d="M215.469 360.393C215.469 361.314 215.445 363.064 215.716 363.608C215.738 363.652 217.59 359.68 218.684 359.898C219.919 360.145 219.358 362.461 220.168 362.866C221.148 363.356 222.013 359.922 222.641 360.393C223.521 361.053 223.56 362.796 224.372 363.608" fill="none" opacity="1" stroke="#d5694f" stroke-linecap="round" stroke-linejoin="round" stroke-width="1.54963"/>
<path d="M190.007 386.022C191.648 386.022 193.29 386.022 194.931 386.022" fill="none" opacity="1" stroke="#d5694f" stroke-linecap="round" stroke-linejoin="round" stroke-width="1.54963"/>
<path d="M200.045 386.211C201.308 386.211 202.57 386.211 203.833 386.211" fill="none" opacity="1" stroke="#d5694f" stroke-linecap="round" stroke-linejoin="round" stroke-width="1.54963"/>
<path d="M209.326 386.022C210.547 385.411 212.46 385.832 213.871 385.832" fill="none" opacity="1" stroke="#d5694f" stroke-linecap="round" stroke-linejoin="round" stroke-width="1.54963"/>
<path d="M220.501 385.832C221.44 384.893 224.003 385.453 225.425 385.453" fill="none" opacity="1" stroke="#d5694f" stroke-linecap="round" stroke-linejoin="round" stroke-width="1.54963"/>
<path d="M231.297 385.264C233.064 385.264 234.832 385.264 236.6 385.264" fill="none" opacity="1" stroke="#d5694f" stroke-linecap="round" stroke-linejoin="round" stroke-width="1.54963"/>
<path d="M240.577 385.453C242.058 384.96 243.751 385.264 245.313 385.264" fill="none" opacity="1" stroke="#d5694f" stroke-linecap="round" stroke-linejoin="round" stroke-width="1.54963"/>
<path d="M244.744 385.832C244.744 399.86 243.987 413.701 243.987 427.691C243.987 430.911 243.797 434.113 243.797 437.35C243.797 437.675 243.927 440.148 243.797 440.191C243.232 440.38 242.627 438.42 242.472 438.108C242.025 437.215 240.767 435.646 240.767 435.646C240.767 435.646 242.076 441.402 243.608 440.381C245.122 439.371 244.898 435.285 246.828 434.32" fill="none" opacity="1" stroke="#d5694f" stroke-linecap="round" stroke-linejoin="round" stroke-width="1.54963"/>
<path d="M249.669 411.781C251.927 411.781 255.172 410.711 257.245 411.402" fill="none" opacity="1" stroke="#d5694f" stroke-linecap="round" stroke-linejoin="round" stroke-width="1.54963"/>
<path d="M265.297 406.962C263.766 407.983 262.968 413.59 264.412 415.276C265.758 416.846 267.915 412.233 266.004 412.446C265.49 412.503 264.869 412.882 264.589 413.33C264.421 413.599 264.353 413.92 264.235 414.214" fill="none" opacity="1" stroke="#d5694f" stroke-linecap="round" stroke-linejoin="round" stroke-width="1.54963"/>
<path d="M269.011 411.915C269.529 412.951 269.48 414.194 269.896 415.276C270.048 415.673 270.445 414.609 270.603 414.214C270.767 413.806 271.732 410.817 272.372 411.03C273.225 411.315 272.403 414.284 273.256 414.568C273.65 414.699 275.344 411.119 275.556 411.384C276.556 412.635 275.812 414.831 277.678 415.453" fill="none" opacity="1" stroke="#d5694f" stroke-linecap="round" stroke-linejoin="round" stroke-width="1.54963"/>
</g>
<g id="Ebene-3" vectornator:layerName="Ebene 3">
<path d="M73.4526 264.608C73.5163 266.074 73.5756 267.541 73.6438 269.006C73.7008 270.231 73.1209 273.188 74.2174 272.639" fill="none" opacity="1" stroke="#d5694f" stroke-linecap="round" stroke-linejoin="round" stroke-width="2.09926"/>
<path d="M69.246 264.608C71.7601 263.351 74.8515 264.169 77.6592 264.035" fill="none" opacity="1" stroke="#d5694f" stroke-linecap="round" stroke-linejoin="round" stroke-width="2.09926"/>
<path d="M69.859 273.453C73.3422 273.066 76.8271 272.58 80.3353 272.58" fill="none" opacity="1" stroke="#d5694f" stroke-linecap="round" stroke-linejoin="round" stroke-width="2.09926"/>
<path d="M146.022 263.555C146.348 264.532 147.162 272.455 147.768 271.848" fill="none" opacity="1" stroke="#d5694f" stroke-linecap="round" stroke-linejoin="round" stroke-width="2.09926"/>
<path d="M149.733 263.773C149.382 266.578 149.405 269.611 151.042 272.067" fill="none" opacity="1" stroke="#d5694f" stroke-linecap="round" stroke-linejoin="round" stroke-width="2.09926"/>
<path d="M142.53 262.245C146.07 261.36 149.799 261.561 153.443 261.372C154.463 261.319 155.585 261.134 156.498 261.59" fill="none" opacity="1" stroke="#d5694f" stroke-linecap="round" stroke-linejoin="round" stroke-width="2.09926"/>
<path d="M142.967 273.595C142.821 273.595 142.385 273.587 142.53 273.595C144.13 273.675 145.73 273.769 147.332 273.813C148.802 273.853 157.537 272.834 157.59 272.94" fill="none" opacity="1" stroke="#d5694f" stroke-linecap="round" stroke-linejoin="round" stroke-width="2.09926"/>
<path d="M211.377 264.46C212.68 267.066 211.737 270.277 211.813 273.19" fill="none" opacity="1" stroke="#d5694f" stroke-linecap="round" stroke-linejoin="round" stroke-width="2.09926"/>
<path d="M214.214 263.15C215.516 265.754 214.449 269.159 214.869 272.099" fill="none" opacity="1" stroke="#d5694f" stroke-linecap="round" stroke-linejoin="round" stroke-width="2.09926"/>
<path d="M216.833 262.714C218.321 265.69 217.925 269.444 217.925 272.754" fill="none" opacity="1" stroke="#d5694f" stroke-linecap="round" stroke-linejoin="round" stroke-width="2.09926"/>
<path d="M208.321 262.059C208.249 261.914 207.945 261.662 208.103 261.623C209.89 261.176 211.729 260.953 213.559 260.75C216.488 260.424 219.037 260.313 221.853 260.313" fill="none" opacity="1" stroke="#d5694f" stroke-linecap="round" stroke-linejoin="round" stroke-width="2.09926"/>
<path d="M208.976 275.154C212.3 274.323 215.819 274.775 219.234 274.5C221.25 274.337 223.887 273.408 226 273.408" fill="none" opacity="1" stroke="#d5694f" stroke-linecap="round" stroke-linejoin="round" stroke-width="2.09926"/>
</g>
<g id="Ebene-4" vectornator:layerName="Ebene 4">
<path d="M10.8701 230.598C12.3442 230.598 13.8157 230.476 15.2881 230.406" fill="none" opacity="1" stroke="#eebf5b" stroke-linecap="round" stroke-linejoin="round" stroke-width="2.09926"/>
<path d="M18.7457 227.141C19.2119 226.208 20.9424 226.001 21.8192 226.564C22.7756 227.179 19.113 234.119 19.5141 234.44C20.7419 235.422 22.7121 234.056 23.9321 234.056" fill="none" opacity="1" stroke="#eebf5b" stroke-linecap="round" stroke-linejoin="round" stroke-width="2.09926"/>
<path d="M10.678 192.373C12.2983 191.293 14.495 191.493 16.4407 191.412" fill="none" opacity="1" stroke="#eebf5b" stroke-linecap="round" stroke-linejoin="round" stroke-width="2.09926"/>
<path d="M20.4745 191.989C21.6698 190.793 22.3918 189.188 23.548 187.955C23.8815 187.599 24.0837 188.813 24.1242 189.299C24.1614 189.746 24.1242 190.196 24.1242 190.644C24.1242 192.479 23.7366 194.667 24.3163 196.407" fill="none" opacity="1" stroke="#eebf5b" stroke-linecap="round" stroke-linejoin="round" stroke-width="2.09926"/>
<path d="M20.7627 153.571C20.3967 153.692 20.1405 152.503 19.8983 152.803C19.173 153.701 18.9295 154.928 18.7457 156.068C18.5409 157.338 18.7433 159.486 20.0904 160.294C22.8186 161.931 26.0142 151.83 20.7627 153.571Z" fill="none" opacity="1" stroke="#eebf5b" stroke-linecap="round" stroke-linejoin="round" stroke-width="2.09926"/>
<path d="M15.6723 119.379C17.0733 117.278 18.1299 114.961 19.5141 112.848C19.5624 112.774 19.6982 114.321 19.7062 114.385C19.8106 115.22 19.8983 115.669 19.8983 116.498C19.8983 118.415 20.0904 120.328 20.0904 122.26" fill="none" opacity="1" stroke="#eebf5b" stroke-linecap="round" stroke-linejoin="round" stroke-width="2.09926"/>
<path d="M15.8644 78.0801C16.7075 75.9724 19.1124 76.752 19.322 78.8485C19.5381 81.0096 16.3541 83.4964 16.8249 85.3795C16.8596 85.5184 17.0659 85.5716 17.209 85.5716C18.8617 85.5716 20.9441 84.5578 22.5875 85.3795" fill="none" opacity="1" stroke="#eebf5b" stroke-linecap="round" stroke-linejoin="round" stroke-width="2.09926"/>
<path d="M17.763 40.4535C17.2569 39.4414 19.9102 39.2737 21.0198 39.4956C21.7283 39.6373 22.1517 40.4271 22.5525 41.0283C23.2717 42.1071 22.8539 43.1901 21.7861 43.9019C21.3109 44.2188 20.7838 44.4561 20.2535 44.6683C20.1349 44.7157 19.7426 44.6683 19.8703 44.6683C27.9091 44.6683 21.9602 49.1965 18.1461 47.9251" fill="none" opacity="1" stroke="#eebf5b" stroke-linecap="round" stroke-linejoin="round" stroke-width="2.09926"/>
<path d="M33.9247 6.67126C32.7316 6.07472 31.2844 6.07987 29.9539 6.17491C29.1246 6.23414 30.0654 7.8366 30.2021 8.65666C30.4768 10.305 30.4949 11.9923 30.6984 13.6202C30.9214 15.4043 30.9537 17.7894 30.6984 19.5764C30.6388 19.994 30.0586 20.6606 30.4502 20.8173C31.9531 21.4184 33.7409 20.3209 35.1656 20.3209" fill="none" opacity="1" stroke="#eebf5b" stroke-linecap="round" stroke-linejoin="round" stroke-width="2.09926"/>
<path d="M36.6546 12.6275C36.6546 13.5142 36.7617 14.2623 36.9028 15.1092C37.5482 18.9813 37.985 12.5431 39.6327 12.1311C40.6747 11.8706 40.5124 15.1993 41.1218 15.6056C42.2677 16.3695 41.9087 12.228 43.1072 12.6275C43.7072 12.8275 44.65 15.6157 44.8444 16.1019" fill="none" opacity="1" stroke="#eebf5b" stroke-linecap="round" stroke-linejoin="round" stroke-width="2.09926"/>
<path d="M71.3342 164.27C72.3491 163.255 76.9933 161.475 75.9706 164.543C75.2367 166.745 72.5473 169.029 72.6978 169.179C73.1793 169.661 77.661 169.507 78.1524 169.179" fill="none" opacity="1" stroke="#eebf5b" stroke-linecap="round" stroke-linejoin="round" stroke-width="2.09926"/>
<path d="M109.516 161.816C109.516 163.687 109.502 167.48 109.789 168.088C109.903 168.33 114.233 165.866 114.698 165.634" fill="none" opacity="1" stroke="#eebf5b" stroke-linecap="round" stroke-linejoin="round" stroke-width="2.09926"/>
<path d="M113.061 161.543C113.061 164.428 111.509 170.543 113.061 170.543" fill="none" opacity="1" stroke="#eebf5b" stroke-linecap="round" stroke-linejoin="round" stroke-width="2.09926"/>
<path d="M148.789 159.361C147.926 161.95 148.019 164.86 148.516 167.543C148.743 168.771 151.376 166.124 151.516 165.634C152.242 163.093 149.834 163.271 148.789 165.361" fill="none" opacity="1" stroke="#eebf5b" stroke-linecap="round" stroke-linejoin="round" stroke-width="2.09926"/>
<path d="M187.516 161.543C187.806 162.32 184.709 160.147 183.971 162.361C183.39 164.103 187.916 164.294 188.607 165.906C189.572 168.158 187.095 171.679 185.334 170.27C181.857 167.488 188.975 164.167 189.698 162.361C190.246 160.99 187.218 160.742 187.516 161.543Z" fill="none" opacity="1" stroke="#eebf5b" stroke-linecap="round" stroke-linejoin="round" stroke-width="2.09926"/>
<path d="M219.815 166.633C220.586 165.091 221.067 163.419 221.737 161.83C221.786 161.711 221.745 162.086 221.737 162.214C221.713 162.567 221.671 162.918 221.64 163.271C221.607 163.655 221.558 164.038 221.544 164.424C221.499 165.703 221.42 167.125 221.833 168.363" fill="none" opacity="1" stroke="#eebf5b" stroke-linecap="round" stroke-linejoin="round" stroke-width="2.09926"/>
<path d="M225.964 162.79C225.904 162.829 225.797 162.627 225.772 162.694C225.448 163.569 225.119 164.459 225.003 165.384C224.996 165.441 224.942 167.92 225.868 168.074C228.6 168.53 229.095 160.777 225.964 162.79Z" fill="none" opacity="1" stroke="#eebf5b" stroke-linecap="round" stroke-linejoin="round" stroke-width="2.09926"/>
<path d="M256.324 166.153C256.899 164.716 257.599 163.332 258.245 161.926C258.577 161.204 258.341 163.501 258.341 163.655C258.341 164.909 258.034 166.672 258.437 167.882" fill="none" opacity="1" stroke="#eebf5b" stroke-linecap="round" stroke-linejoin="round" stroke-width="2.09926"/>
<path d="M261.8 162.406C261.972 161.718 263.139 161.527 263.818 161.733C264.137 161.831 264.085 162.36 264.106 162.694C264.156 163.5 261.506 167.015 262.088 167.306C263.267 167.895 264.766 166.243 265.931 166.825" fill="none" opacity="1" stroke="#eebf5b" stroke-linecap="round" stroke-linejoin="round" stroke-width="2.09926"/>
<path d="M303.882 149.884C304.726 152.837 299.969 163.495 307.043 159.958" fill="none" opacity="1" stroke="#eebf5b" stroke-linecap="round" stroke-linejoin="round" stroke-width="2.09926"/>
<path d="M302.203 155.415C301.596 155.577 299.775 155.914 300.327 155.612C301.224 155.123 302.273 154.929 303.29 154.822C303.7 154.779 302.602 155.309 302.203 155.415Z" fill="none" opacity="1" stroke="#eebf5b" stroke-linecap="round" stroke-linejoin="round" stroke-width="2.09926"/>
<path d="M31.6807 117.027L295.55 117.6" fill="none" opacity="1" stroke="#a3a3a3" stroke-linecap="butt" stroke-linejoin="round" stroke-opacity="0.197404" stroke-width="0.579909"/>
<path d="M316.128 149.687C315.292 148.851 314.762 148.23 313.166 148.107C312.443 148.051 313.117 149.557 313.166 150.279C313.258 151.661 313.363 153.043 313.363 154.427C313.363 156.337 313.363 158.246 313.363 160.155C313.363 160.353 313.186 160.659 313.363 160.748C314.285 161.209 315.986 160.342 316.918 160.155" fill="none" opacity="1" stroke="#eebf5b" stroke-linecap="round" stroke-linejoin="round" stroke-width="2.09926"/>
<path d="M322.844 152.452C321.761 151.911 320.253 152.898 319.486 153.835C319.381 153.964 323.632 155.616 322.844 156.797C322.321 157.582 318.894 157.494 318.894 156.797" fill="none" opacity="1" stroke="#eebf5b" stroke-linecap="round" stroke-linejoin="round" stroke-width="2.09926"/>
<path d="M324.226 149.094C325.272 147.7 327.62 148.04 329.362 148.107C329.599 148.116 329.812 148.312 329.954 148.502C330.464 149.181 328.449 153.287 328.374 154.032C327.854 159.239 330.995 160.55 325.017 160.55" fill="none" opacity="1" stroke="#eebf5b" stroke-linecap="round" stroke-linejoin="round" stroke-width="2.09926"/>
<path d="M31.2982 42.2638L295.167 42.8374" fill="none" opacity="1" stroke="#a3a3a3" stroke-linecap="butt" stroke-linejoin="round" stroke-opacity="0.197404" stroke-width="0.579909"/>
<path d="M37.2024 80.1187L93.3682 79.9809" fill="none" opacity="1" stroke="#2e6777" stroke-linecap="butt" stroke-linejoin="round" stroke-width="2.6489"/>
<path d="M31.6807 192.172L295.55 192.746" fill="none" opacity="1" stroke="#a3a3a3" stroke-linecap="butt" stroke-linejoin="round" stroke-opacity="0.197404" stroke-width="0.579909"/>
<path d="M30.7246 154.886L294.594 155.46" fill="none" opacity="1" stroke="#a3a3a3" stroke-linecap="butt" stroke-linejoin="round" stroke-opacity="0.197404" stroke-width="0.579909"/>
<path d="M31.107 80.3145L294.976 80.8881" fill="none" opacity="1" stroke="#a3a3a3" stroke-linecap="butt" stroke-linejoin="round" stroke-opacity="0.197404" stroke-width="0.579909"/>
<path d="M73.3267 235.116L74.6652 32.4337" fill="none" opacity="1" stroke="#a3a3a3" stroke-linecap="butt" stroke-linejoin="round" stroke-opacity="0.197404" stroke-width="0.579909"/>
<path d="M110.804 235.116L112.142 32.4337" fill="none" opacity="1" stroke="#a3a3a3" stroke-linecap="butt" stroke-linejoin="round" stroke-opacity="0.197404" stroke-width="0.579909"/>
<path d="M148.472 235.116L149.811 32.4337" fill="none" opacity="1" stroke="#a3a3a3" stroke-linecap="butt" stroke-linejoin="round" stroke-opacity="0.197404" stroke-width="0.579909"/>
<path d="M186.482 235.116L187.82 32.4337" fill="none" opacity="1" stroke="#a3a3a3" stroke-linecap="butt" stroke-linejoin="round" stroke-opacity="0.197404" stroke-width="0.579909"/>
<path d="M223.844 235.116L225.183 32.4337" fill="none" opacity="1" stroke="#a3a3a3" stroke-linecap="butt" stroke-linejoin="round" stroke-opacity="0.197404" stroke-width="0.579909"/>
<path d="M261.207 235.116L262.545 32.4337" fill="none" opacity="1" stroke="#a3a3a3" stroke-linecap="butt" stroke-linejoin="round" stroke-opacity="0.197404" stroke-width="0.579909"/>
<g opacity="1">
<path d="M37.0216 27.5188C37.065 39.8257 37.7364 230.337 37.7364 230.337" fill="none" stroke="#a3a3a3" stroke-linecap="butt" stroke-linejoin="round" stroke-width="2.6489"/>
<g fill="#a3a3a3" stroke="none">
<path d="M46.0199 35.0367L38.0391 25.3521L37.0096 24.1029L35.9889 25.3593L28.0765 35.0999C27.6153 35.6677 27.7017 36.5018 28.2695 36.963C28.8372 37.4242 29.6714 37.3378 30.1326 36.77L38.045 27.0295L35.9948 27.0367L43.9757 36.7213C44.4409 37.2857 45.2756 37.3662 45.8401 36.9011C46.4046 36.4359 46.4851 35.6012 46.0199 35.0367Z" fill="#a3a3a3"/>
</g>
</g>
<g opacity="1">
<path d="M292.986 154.972C278.82 154.972 36.861 154.972 36.861 154.972" fill="none" stroke="#a3a3a3" stroke-linecap="butt" stroke-linejoin="round" stroke-width="2.6489"/>
<g fill="#a3a3a3" stroke="none">
<path d="M285.437 163.944L295.149 155.997L296.402 154.972L295.149 153.947L285.437 146.001C284.87 145.537 284.036 145.621 283.573 146.187C283.11 146.753 283.193 147.587 283.759 148.051L293.472 155.997L293.472 153.947L283.759 161.894C283.193 162.357 283.11 163.192 283.573 163.758C284.036 164.324 284.87 164.407 285.437 163.944Z" fill="#a3a3a3"/>
</g>
</g>
<path d="M33.7647 80.363C33.7647 78.3419 35.403 76.7035 37.4241 76.7035C39.4452 76.7035 41.0836 78.3419 41.0836 80.363C41.0836 82.384 39.4452 84.0224 37.4241 84.0224C35.403 84.0224 33.7647 82.384 33.7647 80.363Z" fill="#ffffff" fill-rule="nonzero" opacity="1" stroke="#d5694f" stroke-linecap="round" stroke-linejoin="round" stroke-width="2.09926"/>
<path d="M31.6401 229.499L295.509 230.073" fill="none" opacity="1" stroke="#a3a3a3" stroke-linecap="butt" stroke-linejoin="round" stroke-opacity="0.197404" stroke-width="0.579909"/>
<path d="M91.9895 192.081L184.387 192.044" fill="none" opacity="1" stroke="#2e6777" stroke-linecap="butt" stroke-linejoin="round" stroke-width="2.6489"/>
<path d="M92.1588 79.757L92.2587 192.156" fill="none" opacity="1" stroke="#2e6777" stroke-linecap="butt" stroke-linejoin="round" stroke-width="2.6489"/>
<path d="M88.7508 80.526C88.7508 78.5049 90.3892 76.8665 92.4103 76.8665C94.4314 76.8665 96.0697 78.5049 96.0697 80.526C96.0697 82.5471 94.4314 84.1855 92.4103 84.1855C90.3892 84.1855 88.7508 82.5471 88.7508 80.526Z" fill="#ffffff" fill-rule="nonzero" opacity="1" stroke="#d5694f" stroke-linecap="round" stroke-linejoin="round" stroke-width="2.09926"/>
<path d="M88.5949 191.644C88.5949 189.623 90.2333 187.984 92.2543 187.984C94.2754 187.984 95.9138 189.623 95.9138 191.644C95.9138 193.665 94.2754 195.303 92.2543 195.303C90.2333 195.303 88.5949 193.665 88.5949 191.644Z" fill="#ffffff" fill-rule="nonzero" opacity="1" stroke="#d5694f" stroke-linecap="round" stroke-linejoin="round" stroke-width="2.09926"/>
<path d="M186.548 191.888L186.412 229.404" fill="none" opacity="1" stroke="#2e6777" stroke-linecap="butt" stroke-linejoin="round" stroke-width="2.6489"/>
<path d="M242.707 229.96L186.583 229.697" fill="none" opacity="1" stroke="#2e6777" stroke-linecap="butt" stroke-linejoin="round" stroke-width="2.6489"/>
<path d="M183.015 192.994C183.015 190.973 184.653 189.334 186.674 189.334C188.695 189.334 190.334 190.973 190.334 192.994C190.334 195.015 188.695 196.653 186.674 196.653C184.653 196.653 183.015 195.015 183.015 192.994Z" fill="#ffffff" fill-rule="nonzero" opacity="1" stroke="#d5694f" stroke-linecap="round" stroke-linejoin="round" stroke-width="2.09926"/>
<path d="M183.004 230.047C183.004 228.026 184.642 226.388 186.663 226.388C188.685 226.388 190.323 228.026 190.323 230.047C190.323 232.068 188.685 233.706 186.663 233.706C184.642 233.706 183.004 232.068 183.004 230.047Z" fill="#ffffff" fill-rule="nonzero" opacity="1" stroke="#d5694f" stroke-linecap="round" stroke-linejoin="round" stroke-width="2.09926"/>
<path d="M238.642 230.303C238.642 228.282 240.28 226.643 242.301 226.643C244.322 226.643 245.961 228.282 245.961 230.303C245.961 232.324 244.322 233.962 242.301 233.962C240.28 233.962 238.642 232.324 238.642 230.303Z" fill="#ffffff" fill-rule="nonzero" opacity="1" stroke="#d5694f" stroke-linecap="round" stroke-linejoin="round" stroke-width="2.09926"/>
<path d="M19.4958 12.4294C19.0552 11.5483 19.9376 13.8016 19.9998 13.9415C20.2763 14.5635 21.0411 17.1806 21.7639 17.4697C22.7821 17.877 23.7289 12.581 24.7881 12.0514" fill="none" opacity="1" stroke="#eebf5b" stroke-linecap="round" stroke-linejoin="round" stroke-width="2.09926"/>
<path d="M50.0282 8.66182C49.6665 11.5553 49.1971 14.4354 48.6812 17.3054C48.5601 17.979 47.9515 19.628 47.9515 20.673" fill="none" opacity="1" stroke="#eebf5b" stroke-linecap="round" stroke-linejoin="round" stroke-width="2.09926"/>
<path d="M54.8551 12.4223C54.8551 12.3426 52.1489 12.0052 52.9468 13.601C53.18 14.0673 54.6852 14.2237 55.0796 14.6674C56.3536 16.1006 53.8381 16.9776 52.7784 16.1828" fill="none" opacity="1" stroke="#eebf5b" stroke-linecap="round" stroke-linejoin="round" stroke-width="2.09926"/>
<path d="M57.2125 7.70766C57.9792 7.1965 59.0413 7.4124 59.9627 7.42702C62.1674 7.46202 61.3941 8.36389 61.3097 10.1772C61.2669 11.0989 61.2177 12.2917 61.2536 13.2081C61.3135 14.7355 62.1317 17.4394 61.5342 18.9331C61.4889 19.0464 58.2789 19.8823 58.2789 19.3821" fill="none" opacity="1" stroke="#eebf5b" stroke-linecap="round" stroke-linejoin="round" stroke-width="2.09926"/>
<path d="M21.4922 272.447C23.2203 274.175 24.6829 276.621 25.8124 278.88" fill="none" opacity="1" stroke="#eebf5b" stroke-linecap="round" stroke-linejoin="round" stroke-width="1.8991"/>
<path d="M26.6765 272.159C26.2434 272.448 21.1082 278.945 21.1082 279.936" fill="none" opacity="1" stroke="#eebf5b" stroke-linecap="round" stroke-linejoin="round" stroke-width="1.8991"/>
</g>
</svg>
