<?xml version="1.0" encoding="UTF-8" standalone="no"?>
<!DOCTYPE svg PUBLIC "-//W3C//DTD SVG 1.1//EN" "http://www.w3.org/Graphics/SVG/1.1/DTD/svg11.dtd">
<!-- Created with Vectornator (http://vectornator.io/) -->
<svg height="100%" stroke-miterlimit="10" style="fill-rule:nonzero;clip-rule:evenodd;stroke-linecap:round;stroke-linejoin:round;" version="1.1" viewBox="0 0 246.645 155.925" width="100%" xml:space="preserve" xmlns="http://www.w3.org/2000/svg" xmlns:vectornator="http://vectornator.io" xmlns:xlink="http://www.w3.org/1999/xlink">
<defs/>
<g id="Ebene-1" vectornator:layerName="Ebene 1">
<path d="M7.21817 49.6676C19.6808 46.552 33.1261 46.5537 45.9202 46.5537C55.0362 46.5537 64.1799 46.3625 73.2785 46.7761C91.0968 47.586 108.851 45.7368 126.661 47.2209C133.332 47.7769 140.911 46.6262 147.569 45.8864C159.744 44.5335 172.029 44.5524 184.269 43.4397C195.893 42.383 207.806 43.955 219.412 44.3294C225.842 44.5368 232.278 44.7454 238.715 44.925" fill="none" opacity="1" stroke="#224767" stroke-linecap="round" stroke-linejoin="round" stroke-width="3.19853"/>
<path d="M91.6876 42.6352C91.1742 42.6352 86.6367 34.2072 85.4067 32.2391C84.0604 30.0852 82.5567 26.5736 80.8584 24.8752C80.6437 24.6605 78.8546 23.3325 79.1257 22.9259C79.4311 22.4678 87.7223 23.7923 88.872 23.7923C98.6151 23.7923 108.35 23.3591 118.111 23.3591C129.024 23.3591 139.929 23.1425 150.815 23.1425C153.717 23.1425 156.576 22.4928 159.479 22.4928C159.623 22.4928 159.866 22.3558 159.912 22.4928C159.942 22.5815 156.531 27.6422 156.23 28.124C153.223 32.9357 150.324 37.554 147.783 42.6352" fill="none" opacity="1" stroke="#a3a3a3" stroke-linecap="round" stroke-linejoin="round" stroke-width="3.19853"/>
<path d="M89.54 20.4547C89.3299 17.7235 89.3515 14.9697 89.54 12.2369C89.5597 11.951 89.4454 7.01404 89.54 6.9195C91.2161 5.24331 96.7659 6.59447 98.9662 6.1944C99.4662 6.10351 105.915 4.92536 106.217 5.2276C106.977 5.98773 106.459 9.14855 106.459 10.0616C106.459 13.4454 106.459 16.8292 106.459 20.213" fill="none" opacity="1" stroke="#a3a3a3" stroke-linecap="round" stroke-linejoin="round" stroke-width="3.19853"/>
<path d="M86.9975 28.1144C88.4196 27.8299 89.8984 28.1473 91.3484 28.1144C95.6129 28.0174 99.8354 27.6793 104.111 27.6793C106.591 27.6793 109.195 28.1315 111.652 27.8243C117.088 27.1449 122.704 27.2442 128.186 27.2442C130.048 27.2442 132.736 27.7021 134.567 27.2442C137.504 26.51 140.708 27.2371 143.704 26.8091C147.371 26.2852 151.226 25.9389 155.016 25.9389" fill="none" opacity="1" stroke="#a3a3a3" stroke-linecap="round" stroke-linejoin="round" stroke-opacity="0.533784" stroke-width="6.49632"/>
<path d="M7.85942 52.9853C8.33407 52.036 10.3715 52.5672 11.2382 52.6635C14.4274 53.0179 18.4806 52.5891 21.6964 52.3417C35.9382 51.2462 50.3359 51.8973 64.6553 51.2155C81.587 50.4092 98.5474 50.377 115.498 49.6065C121.226 49.3461 126.993 49.827 132.714 49.4456C167.084 47.1543 201.527 47.0322 236.008 47.0322" fill="none" opacity="1" stroke="#224767" stroke-linecap="round" stroke-linejoin="round" stroke-opacity="0.538288" stroke-width="5.99693"/>
<path d="M4.9491 134.948C14.5117 133.21 24.3455 133.945 34.0053 133.574C51.4459 132.903 68.9623 132.985 86.4243 132.985C113.288 132.985 140.075 133.26 166.918 133.967C189.46 134.56 212.086 133.378 234.65 133.378" fill="none" opacity="1" stroke="#4a6b5f" stroke-linecap="round" stroke-linejoin="round" stroke-width="3.19853"/>
<path d="M4.9491 138.482C6.47116 137.721 8.59407 138.193 10.2499 138.089C16.1029 137.724 21.8063 137.304 27.7229 137.304C35.0694 137.304 42.6 136.539 49.9077 135.93C56.804 135.355 63.8143 136.227 70.7182 135.733C87.7631 134.516 105.126 135.106 122.156 136.322C133.608 137.14 145.521 134.899 156.905 136.322C166.037 137.464 175.405 136.343 184.587 137.108C200.958 138.472 217.803 137.5 234.258 137.5" fill="none" opacity="1" stroke="#4a6b5f" stroke-linecap="round" stroke-linejoin="round" stroke-opacity="0.507395" stroke-width="5.94669"/>
<path d="M126.823 69.7499C122.05 76.1083 114.669 73.9492 109.759 69.6808" fill="none" opacity="1" stroke="#eebf5b" stroke-linecap="round" stroke-linejoin="round" stroke-width="1.85252"/>
<path d="M130.184 81.185C122.239 85.9158 114.753 87.8379 107.078 81.1653" fill="none" opacity="1" stroke="#eebf5b" stroke-linecap="round" stroke-linejoin="round" stroke-width="1.85252"/>
<path d="M134.266 91.3401C123.907 97.5086 115.419 101.679 105.239 92.8279" fill="none" opacity="1" stroke="#eebf5b" stroke-linecap="round" stroke-linejoin="round" stroke-width="1.85252"/>
<path d="M137.333 105.221C133.893 109.498 130.38 111.124 126.332 112.607C117.746 115.752 110.458 112.877 102.384 108.216" fill="none" opacity="1" stroke="#eebf5b" stroke-linecap="round" stroke-linejoin="round" stroke-width="2.6489"/>
<path d="M134.936 104.584C133.362 105.853 131.822 107.377 130.232 108.477C128.356 109.774 125.937 110.07 123.928 110.351C117.482 111.255 110.979 110.035 104.863 106.837" fill="none" opacity="1" stroke="#eebf5b" stroke-linecap="round" stroke-linejoin="round" stroke-opacity="0.497746" stroke-width="5.8611"/>
<path d="M97.7732 11.1391C94.4916 11.4059 94.8324 15.9582 97.7732 15.7131C100.509 15.4851 100.898 10.8852 97.7732 11.1391Z" fill="none" opacity="1" stroke="#a3a3a3" stroke-linecap="round" stroke-linejoin="round" stroke-width="2.18449"/>
</g>
</svg>
