<?xml version="1.0" encoding="UTF-8" standalone="no"?>
<!DOCTYPE svg PUBLIC "-//W3C//DTD SVG 1.1//EN" "http://www.w3.org/Graphics/SVG/1.1/DTD/svg11.dtd">
<!-- Created with Vectornator (http://vectornator.io/) -->
<svg height="100%" stroke-miterlimit="10" style="fill-rule:nonzero;clip-rule:evenodd;stroke-linecap:round;stroke-linejoin:round;" version="1.1" viewBox="0 0 141.75 161.595" width="100%" xml:space="preserve" xmlns="http://www.w3.org/2000/svg" xmlns:vectornator="http://vectornator.io" xmlns:xlink="http://www.w3.org/1999/xlink">
<defs/>
<path d="M0 0L141.75 0L141.75 161.595L0 161.595L0 0Z" fill="#ffffff" fill-rule="nonzero" opacity="1" stroke="none"/>
<g id="Ebene-1" vectornator:layerName="Ebene 1">
<path d="M108.794 67.2556C104.498 66.519 100.077 67.0381 95.7183 67.0961" fill="none" opacity="1" stroke="#224767" stroke-linecap="round" stroke-linejoin="round" stroke-opacity="0.538288" stroke-width="2.09926" vectornator:layerName="Kurve 23"/>
<path d="M110.922 61.7579C111.143 61.7105 111.813 61.6169 111.587 61.6157C108.986 61.6016 106.385 61.7613 103.784 61.7194C101.007 61.6747 101.174 61.6731 99.509 61.2427" fill="none" opacity="1" stroke="#224767" stroke-linecap="round" stroke-linejoin="round" stroke-opacity="0.538288" stroke-width="2.09926" vectornator:layerName="Kurve 24"/>
<path d="M108.649 55.5342C104.902 56.3355 101.017 56.2576 97.1887 56.4203" fill="none" opacity="1" stroke="#224767" stroke-linecap="round" stroke-linejoin="round" stroke-opacity="0.538288" stroke-width="2.09926" vectornator:layerName="Kurve 25"/>
<g opacity="1" vectornator:layerName="Gruppieren 2">
<path d="M74.7467 61.3949C74.7467 56.8097 78.4637 53.0927 83.0488 53.0927C87.634 53.0927 91.351 56.8097 91.351 61.3949C91.351 65.98 87.634 69.6971 83.0488 69.6971C78.4637 69.6971 74.7467 65.98 74.7467 61.3949Z" fill="#ffffff" fill-rule="nonzero" opacity="1" stroke="#224767" stroke-linecap="round" stroke-linejoin="round" stroke-width="3.03909" vectornator:layerName="Oval 1"/>
<path d="M83.0488 54.2691C83.6671 54.2691 84.1159 54.807 84.6644 54.9818C88.9542 56.3487 90.1412 62.1244 87.6055 65.3563C86.9163 66.2347 86.6514 67.5348 85.5757 68.049" fill="none" opacity="1" stroke="#224767" stroke-linecap="round" stroke-linejoin="round" stroke-opacity="0.538288" stroke-width="4.05836" vectornator:layerName="Kurve 27"/>
</g>
<g opacity="1" vectornator:layerName="Gruppieren 4">
<path d="M15.2534 6.91556C15.2534 41.6283 15.3719 76.4868 13.7936 111.21C13.1372 125.65 14.118 140.308 14.118 154.679" fill="none" opacity="1" stroke="#4a6b5f" stroke-linecap="round" stroke-linejoin="round" stroke-width="2.6489" vectornator:layerName="Kurve 30"/>
<path d="M12.3338 7.88876C11.0353 10.4859 12.4199 14.4228 12.0094 17.2963C11.0323 24.136 12.216 31.2145 11.3606 38.0579C10.7 43.3425 10.7751 49.1706 11.3606 54.4401C11.7527 57.9689 11.336 61.5957 11.5228 65.1452C11.8329 71.0371 11.9943 77.111 11.685 82.9872C11.0687 94.698 11.7677 106.481 11.0362 118.185C10.3241 129.578 10.063 141.216 10.063 152.571" fill="none" opacity="1" stroke="#4a6b5f" stroke-linecap="round" stroke-linejoin="round" stroke-opacity="0.495495" stroke-width="5.39706" vectornator:layerName="Kurve 31"/>
</g>
<path d="M70.0952 61.784C59.332 61.784 48.5111 61.6226 37.8066 61.6226" fill="none" opacity="1" stroke="#d0453b" stroke-linecap="round" stroke-linejoin="round" stroke-width="2" vectornator:layerName="Kurve 32"/>
<path d="M41.0148 57.3178C40.3314 57.3178 40.0026 58.2425 39.5651 58.7675C36.8196 62.0621 37.4398 62.1139 39.7032 65.6706C40.0508 66.2168 40.4458 67.8106 41.2909 67.8106" fill="none" opacity="1" stroke="#d0453b" stroke-linecap="round" stroke-linejoin="round" stroke-width="2" vectornator:layerName="Kurve 33"/>
<path d="M38.4769 112.427C42.7763 113.144 47.1948 112.605 51.5529 112.528" fill="none" opacity="1" stroke="#224767" stroke-linecap="round" stroke-linejoin="round" stroke-opacity="0.538288" stroke-width="2.09926" vectornator:layerName="Kurve 36"/>
<path d="M36.3734 117.934C36.1519 117.982 35.4822 118.079 35.709 118.079C38.31 118.081 40.9101 117.91 43.5109 117.94C46.2885 117.973 46.1214 117.975 47.7882 118.398" fill="none" opacity="1" stroke="#224767" stroke-linecap="round" stroke-linejoin="round" stroke-opacity="0.538288" stroke-width="2.09926" vectornator:layerName="Kurve 37"/>
<path d="M38.6733 124.147C42.4166 123.329 46.3025 123.39 50.1299 123.21" fill="none" opacity="1" stroke="#224767" stroke-linecap="round" stroke-linejoin="round" stroke-opacity="0.538288" stroke-width="2.09926" vectornator:layerName="Kurve 38"/>
<g opacity="1" vectornator:layerName="Gruppieren 3">
<path d="M72.5496 118.136C72.57 122.721 68.8695 126.455 64.2844 126.475C59.6993 126.495 55.9658 122.795 55.9454 118.21C55.925 113.625 59.6255 109.891 64.2106 109.871C68.7957 109.85 72.5292 113.551 72.5496 118.136Z" fill="#ffffff" fill-rule="nonzero" opacity="1" stroke="#224767" stroke-linecap="round" stroke-linejoin="round" stroke-width="3.03909" vectornator:layerName="Oval 1"/>
<path d="M64.2792 125.299C63.6609 125.301 63.2097 124.765 62.6605 124.593C58.3647 123.245 57.1519 117.475 59.6733 114.232C60.3586 113.35 60.6177 112.049 61.6911 111.53" fill="none" opacity="1" stroke="#224767" stroke-linecap="round" stroke-linejoin="round" stroke-opacity="0.538288" stroke-width="4.05836" vectornator:layerName="Kurve 27"/>
</g>
<path d="M80.6937 119.072C82.1066 119.779 84.9583 119.138 86.3303 119.072C90.1834 118.889 94.082 119.601 97.9557 119.601C99.3487 119.601 101.456 118.973 102.712 119.601" fill="none" opacity="1" stroke="#d0453b" stroke-linecap="round" stroke-linejoin="round" stroke-width="2" vectornator:layerName="Kurve 39"/>
<path d="M99.3648 115.373C99.3648 118.194 102.057 118.09 103.064 119.601C103.164 119.751 102.537 120.304 102.535 120.305C101.471 121.157 99.8079 122.59 99.1887 123.828" fill="none" opacity="1" stroke="#d0453b" stroke-linecap="round" stroke-linejoin="round" stroke-width="2" vectornator:layerName="Kurve 40"/>
<path d="M45.1495 47.2618C45.4676 46.1482 47.4906 44.7839 48.3608 46.2342C48.9396 47.1988 46.5606 49.1867 46.5625 49.1886C47.375 50.0011 49.5533 48.7104 50.1592 50.73C50.9131 53.2433 46.8882 54.0101 45.5348 52.6568" fill="none" opacity="1" stroke="#d0453b" stroke-linecap="round" stroke-linejoin="round" stroke-width="1.5" vectornator:layerName="Kurve 41"/>
<path d="M53.242 47.6471C53.3465 47.817 51.3183 53.2619 54.655 52.7853C56.8261 52.4751 57.1309 48.0911 55.6826 47.0049C55.2747 46.6989 52.9508 47.1738 53.242 47.6471Z" fill="none" opacity="1" stroke="#d0453b" stroke-linecap="round" stroke-linejoin="round" stroke-width="1.5" vectornator:layerName="Kurve 42"/>
<path d="M59.6647 43.2797C59.6647 44.249 59.6102 45.7355 60.3069 46.3626C60.4111 46.4563 61.5808 43.0335 61.7199 42.8944C61.7933 42.821 61.9815 45.5931 62.4907 45.7203C63.6642 46.0137 63.9909 41.6705 64.289 44.9496C64.3088 45.1671 64.3904 45.3752 64.4174 45.5919C64.4976 46.2334 64.3002 45.7428 64.5459 46.2342" fill="none" opacity="1" stroke="#d0453b" stroke-linecap="round" stroke-linejoin="round" stroke-width="1.5" vectornator:layerName="Kurve 43"/>
<path d="M69.684 42.1237C67.68 44.6287 66.8926 48.4772 65.4451 51.3723" fill="none" opacity="1" stroke="#d0453b" stroke-linecap="round" stroke-linejoin="round" stroke-width="1.5" vectornator:layerName="Kurve 44"/>
<path d="M70.5832 49.317C70.5832 48.3534 69.2913 48.8877 69.0418 49.5739C68.7541 50.3649 71.6752 51.1145 71.4824 52.2715C71.3397 53.1273 68.7931 53.0622 68.1426 53.1706" fill="none" opacity="1" stroke="#d0453b" stroke-linecap="round" stroke-linejoin="round" stroke-width="1.5" vectornator:layerName="Kurve 45"/>
<path d="M82.0631 104.767C82.0631 103.192 84.2697 104.015 84.8891 104.511C86.2635 105.61 78.243 112.72 84.7606 110.548" fill="none" opacity="1" stroke="#d0453b" stroke-linecap="round" stroke-linejoin="round" stroke-width="1.5" vectornator:layerName="Kurve 46"/>
<path d="M89.7061 105.41C87.8152 105.397 86.9103 110.44 90.1557 110.034C91.9143 109.814 92.5816 106.294 91.4402 105.153C91.1117 104.824 90.9748 105.418 89.7061 105.41Z" fill="none" opacity="1" stroke="#d0453b" stroke-linecap="round" stroke-linejoin="round" stroke-width="1.5" vectornator:layerName="Kurve 47"/>
<path d="M94.78 101.941C94.5713 101.524 94.384 105.086 95.1653 105.281C95.8613 105.455 96.4942 101.785 96.5783 101.813C97.3554 102.072 96.5992 104.136 97.349 104.511C97.88 104.776 99.3441 101.119 99.6612 102.07C99.8727 102.704 99.7897 102.818 99.7897 103.611C99.7897 103.954 99.8124 104.297 99.7897 104.639C99.7695 104.941 99.704 105.238 99.6612 105.538" fill="none" opacity="1" stroke="#d0453b" stroke-linecap="round" stroke-linejoin="round" stroke-width="1.5" vectornator:layerName="Kurve 48"/>
<path d="M106.212 98.3448C103.736 100.821 102.377 106.18 101.46 109.392" fill="none" opacity="1" stroke="#d0453b" stroke-linecap="round" stroke-linejoin="round" stroke-width="1.5" vectornator:layerName="Kurve 49"/>
<path d="M108.268 106.437C107.419 105.589 106.179 106.801 105.827 107.593C105.701 107.876 109.02 108.714 108.781 109.906C108.589 110.866 105.779 111.037 105.056 110.676" fill="none" opacity="1" stroke="#d0453b" stroke-linecap="round" stroke-linejoin="round" stroke-width="1.5" vectornator:layerName="Kurve 50"/>
<path d="M74.7413 107.979C76.1248 108.44 77.6504 108.236 79.1087 108.236" fill="none" opacity="1" stroke="#d0453b" stroke-linecap="round" stroke-linejoin="round" stroke-width="1.5" vectornator:layerName="Kurve 51"/>
<path d="M41.1065 13.4063C40.9813 13.4063 40.6057 13.4063 40.7309 13.4063C43.9028 13.4063 47.0765 13.2982 50.2465 13.4063C54.4251 13.5487 58.5923 13.9277 62.767 14.1575C65.9697 14.3338 69.1996 14.4143 72.4078 14.5331C73.4752 14.5727 74.5138 14.7568 75.4127 14.1575" fill="none" opacity="1" stroke="#d1d1d1" stroke-linecap="round" stroke-linejoin="round" stroke-width="2" vectornator:layerName="Kurve 52"/>
<path d="M43.9863 10.4014C44.0796 10.2147 44.4871 9.81706 44.4871 10.0257C44.4871 10.1702 40.6877 12.5852 40.2301 12.9055C39.5096 13.4098 38.4569 14.2624 38.4772 14.2827C39.7708 15.5763 44.7375 15.9452 44.7375 17.7885" fill="none" opacity="1" stroke="#d1d1d1" stroke-linecap="round" stroke-linejoin="round" stroke-width="2" vectornator:layerName="Kurve 53"/>
<path d="M86.1768 11.6343C86.6433 13.9665 88.1732 15.881 89.5731 17.7476" fill="none" opacity="1" stroke="#d1d1d1" stroke-linecap="round" stroke-linejoin="round" stroke-width="1.5" vectornator:layerName="Kurve 54"/>
<path d="M90.2524 11.9739C88.2247 13.3256 87.1712 15.8219 86.007 17.9174" fill="none" opacity="1" stroke="#d1d1d1" stroke-linecap="round" stroke-linejoin="round" stroke-width="1.5" vectornator:layerName="Kurve 55"/>
<path d="M92.9694 15.2003C94.2648 15.8481 95.9792 15.0949 97.3845 14.8607" fill="none" opacity="1" stroke="#d1d1d1" stroke-linecap="round" stroke-linejoin="round" stroke-width="1.5" vectornator:layerName="Kurve 56"/>
<path d="M104.177 10.6154C104.177 12.8396 103.142 14.9453 102.479 17.0683" fill="none" opacity="1" stroke="#d1d1d1" stroke-linecap="round" stroke-linejoin="round" stroke-width="1.5" vectornator:layerName="Kurve 57"/>
<path d="M104.177 8.40779C103.142 10.4785 105.474 14.3431 106.724 16.2192" fill="none" opacity="1" stroke="#d1d1d1" stroke-linecap="round" stroke-linejoin="round" stroke-width="1.5" vectornator:layerName="Kurve 58"/>
<path d="M102.649 14.1815C103.807 14.4711 105.039 14.0493 106.215 13.8418" fill="none" opacity="1" stroke="#d1d1d1" stroke-linecap="round" stroke-linejoin="round" stroke-width="1.5" vectornator:layerName="Kurve 59"/>
<path d="M111.139 13.672C107.159 13.672 109.252 18.6064 112.328 17.0683" fill="none" opacity="1" stroke="#d1d1d1" stroke-linecap="round" stroke-linejoin="round" stroke-width="1.5" vectornator:layerName="Kurve 60"/>
<path d="M114.196 9.42667C114.196 11.3334 114.163 13.6647 114.536 15.3702C115.141 18.138 116.25 13.8471 116.743 14.0116C117.499 14.2637 117.069 16.389 118.272 16.389" fill="none" opacity="1" stroke="#d1d1d1" stroke-linecap="round" stroke-linejoin="round" stroke-width="1.5" vectornator:layerName="Kurve 61"/>
<path d="M122.687 12.9928C122.131 12.7148 120.336 12.8767 120.819 13.8418C121.216 14.6352 125.357 17.2381 121.838 17.2381C120.93 17.2381 120.999 17.0734 120.309 16.7287" fill="none" opacity="1" stroke="#d1d1d1" stroke-linecap="round" stroke-linejoin="round" stroke-width="1.5" vectornator:layerName="Kurve 62"/>
<path d="M125.574 15.3702C126.378 15.3702 129.487 14.5317 128.461 13.1626C127.264 11.5673 123.388 16.5589 127.951 16.5589C128.574 16.5589 129.199 16.6208 129.819 16.5589C130.439 16.4968 131.128 16.329 131.687 16.0494" fill="none" opacity="1" stroke="#d1d1d1" stroke-linecap="round" stroke-linejoin="round" stroke-width="1.5" vectornator:layerName="Kurve 63"/>
</g>
</svg>
