<?xml version="1.0" encoding="UTF-8" standalone="no"?>
<!DOCTYPE svg PUBLIC "-//W3C//DTD SVG 1.1//EN" "http://www.w3.org/Graphics/SVG/1.1/DTD/svg11.dtd">
<!-- Created with Vectornator (http://vectornator.io/) -->
<svg height="100%" stroke-miterlimit="10" style="fill-rule:nonzero;clip-rule:evenodd;stroke-linecap:round;stroke-linejoin:round;" version="1.1" viewBox="0 0 368.55 340.2" width="100%" xml:space="preserve" xmlns="http://www.w3.org/2000/svg" xmlns:vectornator="http://vectornator.io" xmlns:xlink="http://www.w3.org/1999/xlink">
<defs/>
<path d="M0 0L368.55 0L368.55 340.2L0 340.2L0 0Z" fill="#ffffff" fill-rule="nonzero" opacity="1" stroke="none"/>
<g id="Ebene-1" vectornator:layerName="Ebene 1">
<path d="M36.1133 61.8902C36.1133 59.5665 35.9912 57.1223 35.7987 54.8119C35.5044 51.2806 36.035 47.739 35.7987 44.1944C35.5948 41.1354 35.4194 37.7124 35.7987 34.678C36.1544 31.8326 35.6983 28.8137 35.8774 25.9481C36.051 23.1691 35.956 20.3173 35.956 17.5327C35.956 16.3848 35.749 15.0077 36.1133 13.9149" fill="none" opacity="1" stroke="#d1d1d1" stroke-linecap="round" stroke-linejoin="round" stroke-width="1.07138" vectornator:layerName="Kurve 7"/>
<path d="M54.5956 62.6767C54.5956 59.1715 54.6966 55.4407 54.2023 51.9806C53.9698 50.3528 54.1561 48.6359 53.8877 47.0257C53.648 45.587 53.9798 43.9815 54.1237 42.5428C54.3466 40.3138 54.3926 38.0901 54.5956 35.8577C54.9419 32.0477 54.3504 28.1982 54.7529 24.3751C55.0395 21.6522 54.4125 18.9187 54.7529 16.1957C54.8485 15.4306 54.4003 13.8743 54.9888 13.2857" fill="none" opacity="1" stroke="#d1d1d1" stroke-linecap="round" stroke-linejoin="round" stroke-width="1.07138" vectornator:layerName="Kurve 8"/>
<path d="M73.5497 62.7553C73.5497 60.7392 73.517 58.6724 73.2352 56.6994C72.7216 53.1046 73.4008 49.0382 73.1565 45.3741C72.6876 38.3406 72.9308 31.2829 73.707 24.2965C73.9823 21.8187 74.0216 19.3326 74.0216 16.8249C74.0216 15.7627 73.7788 14.1646 74.2576 13.2071" fill="none" opacity="1" stroke="#d1d1d1" stroke-linecap="round" stroke-linejoin="round" stroke-width="1.07138" vectornator:layerName="Kurve 9"/>
<path d="M92.032 62.9913C92.032 58.7079 92.2034 54.2084 91.8747 49.9357C91.7926 48.8685 91.6344 47.7903 91.7174 46.7111C91.872 44.7015 91.6416 42.6641 91.7961 40.6552C92.0875 36.8671 92.1893 33.0793 92.1893 29.2513C92.1893 26.9147 92.3264 24.7169 92.5039 22.4089C92.6144 20.9719 92.379 19.508 92.5826 18.0833C92.7606 16.8372 92.8972 15.7592 92.8972 14.4655C92.8972 14.205 92.7591 12.6951 92.8972 12.9711" fill="none" opacity="1" stroke="#d1d1d1" stroke-linecap="round" stroke-linejoin="round" stroke-width="1.07138" vectornator:layerName="Kurve 10"/>
<path d="M124.242 61.0043C122.879 56.9435 121.61 52.6234 119.939 48.6774C119.521 47.6918 119.028 46.72 118.763 45.6705C118.271 43.7161 117.404 41.858 116.911 39.9043C115.982 36.2204 114.873 32.5971 113.655 28.968C112.911 26.7529 112.342 24.6257 111.776 22.3812C111.424 20.9837 110.734 19.6708 110.474 18.2553C110.246 17.0174 110.033 15.9519 109.621 14.7255C109.538 14.4786 108.927 13.0911 109.146 13.3088" fill="none" opacity="1" stroke="#d1d1d1" stroke-linecap="round" stroke-linejoin="round" stroke-width="1.07138" vectornator:layerName="Kurve 11"/>
<g opacity="1" vectornator:layerName="Gruppieren 7">
<g opacity="1" vectornator:layerName="Gruppieren 2">
<path d="M28.5215 71.8038C28.5215 67.528 31.9877 64.0617 36.2636 64.0617C40.5394 64.0617 44.0057 67.528 44.0057 71.8038C44.0057 76.0797 40.5394 79.5459 36.2636 79.5459C31.9877 79.5459 28.5215 76.0797 28.5215 71.8038Z" fill="#ffffff" fill-rule="nonzero" opacity="1" stroke="#224767" stroke-linecap="round" stroke-linejoin="round" stroke-width="3.26277" vectornator:layerName="Oval 1"/>
<path d="M37.3158 64.7209C42.4612 67.2936 41.8462 73.3443 38.6984 77.2791C38.0798 78.0523 37.0021 78.4484 36.1637 79.0073" fill="none" opacity="1" stroke="#224767" stroke-linecap="round" stroke-linejoin="round" stroke-opacity="0.538288" stroke-width="3.85983" vectornator:layerName="Kurve 1"/>
</g>
<g opacity="1" vectornator:layerName="Gruppieren 3">
<path d="M47.0867 71.8038C47.0867 67.528 50.553 64.0617 54.8288 64.0617C59.1046 64.0617 62.5709 67.528 62.5709 71.8038C62.5709 76.0797 59.1046 79.5459 54.8288 79.5459C50.553 79.5459 47.0867 76.0797 47.0867 71.8038Z" fill="#ffffff" fill-rule="nonzero" opacity="1" stroke="#224767" stroke-linecap="round" stroke-linejoin="round" stroke-width="3.26277" vectornator:layerName="Oval 1"/>
<path d="M55.881 64.7209C61.0264 67.2936 60.4115 73.3443 57.2636 77.2791C56.645 78.0523 55.5673 78.4484 54.7289 79.0073" fill="none" opacity="1" stroke="#224767" stroke-linecap="round" stroke-linejoin="round" stroke-opacity="0.538288" stroke-width="3.85983" vectornator:layerName="Kurve 1"/>
</g>
<g opacity="1" vectornator:layerName="Gruppieren 4">
<path d="M65.7651 71.8038C65.7651 67.528 69.2314 64.0617 73.5072 64.0617C77.7831 64.0617 81.2493 67.528 81.2493 71.8038C81.2493 76.0797 77.7831 79.5459 73.5072 79.5459C69.2314 79.5459 65.7651 76.0797 65.7651 71.8038Z" fill="#ffffff" fill-rule="nonzero" opacity="1" stroke="#224767" stroke-linecap="round" stroke-linejoin="round" stroke-width="3.26277" vectornator:layerName="Oval 1"/>
<path d="M74.5594 64.7209C79.7048 67.2936 79.0899 73.3443 75.942 77.2791C75.3235 78.0523 74.2458 78.4484 73.4073 79.0073" fill="none" opacity="1" stroke="#224767" stroke-linecap="round" stroke-linejoin="round" stroke-opacity="0.538288" stroke-width="3.85983" vectornator:layerName="Kurve 1"/>
</g>
<g opacity="1" vectornator:layerName="Gruppieren 5">
<path d="M84.3303 71.8038C84.3303 67.528 87.7966 64.0617 92.0724 64.0617C96.3483 64.0617 99.8146 67.528 99.8146 71.8038C99.8146 76.0797 96.3483 79.5459 92.0724 79.5459C87.7966 79.5459 84.3303 76.0797 84.3303 71.8038Z" fill="#ffffff" fill-rule="nonzero" opacity="1" stroke="#224767" stroke-linecap="round" stroke-linejoin="round" stroke-width="3.26277" vectornator:layerName="Oval 1"/>
<path d="M93.1247 64.7209C98.2701 67.2936 97.6551 73.3443 94.5072 77.2791C93.8887 78.0523 92.811 78.4484 91.9725 79.0073" fill="none" opacity="1" stroke="#224767" stroke-linecap="round" stroke-linejoin="round" stroke-opacity="0.538288" stroke-width="3.85983" vectornator:layerName="Kurve 1"/>
</g>
</g>
<g opacity="1" vectornator:layerName="Gruppieren 8">
<path d="M119.221 68.7464C119.221 64.4705 122.687 61.0043 126.963 61.0043C131.239 61.0043 134.705 64.4705 134.705 68.7464C134.705 73.0222 131.239 76.4885 126.963 76.4885C122.687 76.4885 119.221 73.0222 119.221 68.7464Z" fill="#ffffff" fill-rule="nonzero" opacity="1" stroke="#224767" stroke-linecap="round" stroke-linejoin="round" stroke-width="3.26277" vectornator:layerName="Oval 1"/>
<path d="M128.016 61.6634C133.161 64.2361 132.546 70.2868 129.398 74.2217C128.78 74.9949 127.702 75.3909 126.863 75.9499" fill="none" opacity="1" stroke="#224767" stroke-linecap="round" stroke-linejoin="round" stroke-opacity="0.538288" stroke-width="3.85983" vectornator:layerName="Kurve 1"/>
</g>
<path d="M139.535 56.4029C139.759 56.2911 139.734 56.2828 139.535 56.4816C138.828 57.1894 138.12 57.8972 137.412 58.6051C137.176 58.841 136.94 59.0769 136.704 59.3129" fill="none" opacity="1" stroke="#224767" stroke-linecap="round" stroke-linejoin="round" stroke-opacity="0.289319" stroke-width="1.07138" vectornator:layerName="Kurve 12"/>
<path d="M144.883 57.6613C143.018 59.26 140.719 60.3313 138.985 62.0656" fill="none" opacity="1" stroke="#224767" stroke-linecap="round" stroke-linejoin="round" stroke-opacity="0.289319" stroke-width="1.07138" vectornator:layerName="Kurve 13"/>
<path d="M144.176 63.6385C142.935 64.1701 141.71 64.7363 140.479 65.2901" fill="none" opacity="1" stroke="#224767" stroke-linecap="round" stroke-linejoin="round" stroke-opacity="0.289319" stroke-width="1.07138" vectornator:layerName="Kurve 14"/>
<path d="M30.9849 14.0993C47.23 14.0993 63.4862 14.2734 79.6246 12.9285C82.5189 12.6873 85.4543 12.9571 88.3521 12.7156C94.374 12.2138 100.797 12.6092 106.871 12.6092C109.009 12.6092 111.135 12.9285 113.257 12.9285C113.664 12.9285 116.808 12.9285 115.705 12.9285" fill="none" opacity="1" stroke="#a3a3a3" stroke-linecap="round" stroke-linejoin="round" stroke-width="2.35836" vectornator:layerName="Kurve 15"/>
<path d="M66.0113 308.623C66.0113 305.118 66.1124 301.387 65.6181 297.927C65.3855 296.299 65.5718 294.582 65.3035 292.972C65.0637 291.533 65.3955 289.928 65.5394 288.489C65.7623 286.26 65.8084 284.037 66.0113 281.804C66.3577 277.994 65.7662 274.145 66.1686 270.322C66.4552 267.599 65.8282 264.865 66.1686 262.142C66.2642 261.377 65.816 259.821 66.4045 259.232" fill="none" opacity="1" stroke="#d1d1d1" stroke-linecap="round" stroke-linejoin="round" stroke-width="1.07138" vectornator:layerName="Kurve 48"/>
<path d="M84.9655 308.702C84.9655 306.686 84.9327 304.619 84.6509 302.646C84.1373 299.051 84.8165 294.985 84.5722 291.321C84.1033 284.287 84.3465 277.229 85.1228 270.243C85.3981 267.765 85.4374 265.279 85.4374 262.771C85.4374 261.709 85.1946 260.111 85.6733 259.154" fill="none" opacity="1" stroke="#d1d1d1" stroke-linecap="round" stroke-linejoin="round" stroke-width="1.07138" vectornator:layerName="Kurve 49"/>
<path d="M103.448 308.938C103.448 304.654 103.619 300.155 103.29 295.882C103.208 294.815 103.05 293.737 103.133 292.658C103.288 290.648 103.057 288.611 103.212 286.602C103.503 282.814 103.605 279.026 103.605 275.198C103.605 272.861 103.742 270.663 103.92 268.355C104.03 266.918 103.795 265.454 103.998 264.03C104.176 262.784 104.313 261.706 104.313 260.412C104.313 260.151 104.175 258.642 104.313 258.918" fill="none" opacity="1" stroke="#d1d1d1" stroke-linecap="round" stroke-linejoin="round" stroke-width="1.07138" vectornator:layerName="Kurve 50"/>
<path d="M135.658 306.951C134.295 302.89 133.026 298.57 131.354 294.624C130.937 293.638 130.444 292.666 130.179 291.617C129.686 289.663 128.819 287.804 128.327 285.851C127.398 282.167 126.289 278.544 125.071 274.914C124.327 272.699 123.758 270.572 123.192 268.328C122.839 266.93 122.15 265.617 121.89 264.202C121.662 262.964 121.449 261.898 121.037 260.672C120.954 260.425 120.343 259.038 120.561 259.255" fill="none" opacity="1" stroke="#d1d1d1" stroke-linecap="round" stroke-linejoin="round" stroke-width="1.07138" vectornator:layerName="Kurve 51"/>
<g opacity="1" vectornator:layerName="Gruppieren 3">
<path d="M58.5024 317.75C58.5024 313.474 61.9687 310.008 66.2445 310.008C70.5204 310.008 73.9866 313.474 73.9866 317.75C73.9866 322.026 70.5204 325.492 66.2445 325.492C61.9687 325.492 58.5024 322.026 58.5024 317.75Z" fill="#ffffff" fill-rule="nonzero" opacity="1" stroke="#224767" stroke-linecap="round" stroke-linejoin="round" stroke-width="3.26277" vectornator:layerName="Oval 1"/>
<path d="M67.2968 310.667C72.4421 313.24 71.8272 319.291 68.6793 323.226C68.0608 323.999 66.9831 324.395 66.1446 324.954" fill="none" opacity="1" stroke="#224767" stroke-linecap="round" stroke-linejoin="round" stroke-opacity="0.538288" stroke-width="3.85983" vectornator:layerName="Kurve 1"/>
</g>
<g opacity="1" vectornator:layerName="Gruppieren 4">
<path d="M77.1808 317.75C77.1808 313.474 80.6471 310.008 84.923 310.008C89.1988 310.008 92.6651 313.474 92.6651 317.75C92.6651 322.026 89.1988 325.492 84.923 325.492C80.6471 325.492 77.1808 322.026 77.1808 317.75Z" fill="#ffffff" fill-rule="nonzero" opacity="1" stroke="#224767" stroke-linecap="round" stroke-linejoin="round" stroke-width="3.26277" vectornator:layerName="Oval 1"/>
<path d="M85.9752 310.667C91.1206 313.24 90.5056 319.291 87.3577 323.226C86.7392 323.999 85.6615 324.395 84.823 324.954" fill="none" opacity="1" stroke="#224767" stroke-linecap="round" stroke-linejoin="round" stroke-opacity="0.538288" stroke-width="3.85983" vectornator:layerName="Kurve 1"/>
</g>
<g opacity="1" vectornator:layerName="Gruppieren 5">
<path d="M95.7461 317.75C95.7461 313.474 99.2123 310.008 103.488 310.008C107.764 310.008 111.23 313.474 111.23 317.75C111.23 322.026 107.764 325.492 103.488 325.492C99.2123 325.492 95.7461 322.026 95.7461 317.75Z" fill="#ffffff" fill-rule="nonzero" opacity="1" stroke="#224767" stroke-linecap="round" stroke-linejoin="round" stroke-width="3.26277" vectornator:layerName="Oval 1"/>
<path d="M104.54 310.667C109.686 313.24 109.071 319.291 105.923 323.226C105.304 323.999 104.227 324.395 103.388 324.954" fill="none" opacity="1" stroke="#224767" stroke-linecap="round" stroke-linejoin="round" stroke-opacity="0.538288" stroke-width="3.85983" vectornator:layerName="Kurve 1"/>
</g>
<g opacity="1" vectornator:layerName="Gruppieren 21">
<path d="M130.637 314.693C130.637 310.417 134.103 306.951 138.379 306.951C142.655 306.951 146.121 310.417 146.121 314.693C146.121 318.969 142.655 322.435 138.379 322.435C134.103 322.435 130.637 318.969 130.637 314.693Z" fill="#ffffff" fill-rule="nonzero" opacity="1" stroke="#224767" stroke-linecap="round" stroke-linejoin="round" stroke-width="3.26277" vectornator:layerName="Oval 1"/>
<path d="M139.431 307.61C144.577 310.183 143.962 316.233 140.814 320.168C140.195 320.941 139.118 321.337 138.279 321.896" fill="none" opacity="1" stroke="#224767" stroke-linecap="round" stroke-linejoin="round" stroke-opacity="0.538288" stroke-width="3.85983" vectornator:layerName="Kurve 1"/>
</g>
<path d="M150.951 302.349C151.175 302.238 151.15 302.229 150.951 302.428C150.243 303.136 149.535 303.844 148.828 304.552C148.592 304.787 148.356 305.023 148.12 305.259" fill="none" opacity="1" stroke="#224767" stroke-linecap="round" stroke-linejoin="round" stroke-opacity="0.289319" stroke-width="1.07138" vectornator:layerName="Kurve 52"/>
<path d="M156.299 303.608C154.434 305.206 152.135 306.278 150.401 308.012" fill="none" opacity="1" stroke="#224767" stroke-linecap="round" stroke-linejoin="round" stroke-opacity="0.289319" stroke-width="1.07138" vectornator:layerName="Kurve 53"/>
<path d="M155.591 309.585C154.351 310.117 153.126 310.683 151.895 311.237" fill="none" opacity="1" stroke="#224767" stroke-linecap="round" stroke-linejoin="round" stroke-opacity="0.289319" stroke-width="1.07138" vectornator:layerName="Kurve 54"/>
<path d="M32.3855 307.772C33.7485 303.711 35.0178 299.391 36.689 295.445C37.1064 294.459 37.5995 293.487 37.8642 292.438C38.3571 290.483 39.2239 288.625 39.7167 286.672C40.6458 282.988 41.7546 279.364 42.9727 275.735C43.7162 273.52 44.2856 271.393 44.8517 269.149C45.2042 267.751 45.8932 266.438 46.1536 265.023C46.3813 263.785 46.5949 262.719 47.0066 261.493C47.0894 261.246 47.7007 259.858 47.4821 260.076" fill="none" opacity="1" stroke="#d1d1d1" stroke-linecap="round" stroke-linejoin="round" stroke-width="1.07138" vectornator:layerName="Kurve 56"/>
<g opacity="1" vectornator:layerName="Gruppieren 22">
<path d="M37.4065 315.514C37.4065 311.238 33.9402 307.772 29.6644 307.772C25.3885 307.772 21.9223 311.238 21.9223 315.514C21.9223 319.79 25.3885 323.256 29.6644 323.256C33.9402 323.256 37.4065 319.79 37.4065 315.514Z" fill="#ffffff" fill-rule="nonzero" opacity="1" stroke="#224767" stroke-linecap="round" stroke-linejoin="round" stroke-width="3.26277" vectornator:layerName="Oval 1"/>
<path d="M28.6121 308.431C23.4667 311.003 24.0817 317.054 27.2296 320.989C27.8481 321.762 28.9258 322.158 29.7643 322.717" fill="none" opacity="1" stroke="#224767" stroke-linecap="round" stroke-linejoin="round" stroke-opacity="0.538288" stroke-width="3.85983" vectornator:layerName="Kurve 1"/>
</g>
<path d="M17.0923 303.17C16.8686 303.058 16.8935 303.05 17.0923 303.249C17.8001 303.957 18.5079 304.665 19.2157 305.372C19.4517 305.608 19.6876 305.844 19.9236 306.08" fill="none" opacity="1" stroke="#224767" stroke-linecap="round" stroke-linejoin="round" stroke-opacity="0.289319" stroke-width="1.07138" vectornator:layerName="Kurve 57"/>
<path d="M11.7442 304.429C13.6094 306.027 15.9086 307.099 17.6428 308.833" fill="none" opacity="1" stroke="#224767" stroke-linecap="round" stroke-linejoin="round" stroke-opacity="0.289319" stroke-width="1.07138" vectornator:layerName="Kurve 58"/>
<path d="M12.452 310.406C13.6925 310.937 14.9178 311.504 16.1485 312.057" fill="none" opacity="1" stroke="#224767" stroke-linecap="round" stroke-linejoin="round" stroke-opacity="0.289319" stroke-width="1.07138" vectornator:layerName="Kurve 59"/>
<path d="M42.4006 260.046C58.6458 260.046 74.9019 260.22 91.0403 258.875C93.9346 258.634 96.87 258.904 99.7678 258.662C105.79 258.16 112.213 258.556 118.287 258.556C120.425 258.556 122.551 258.875 124.673 258.875C125.08 258.875 128.224 258.875 127.121 258.875" fill="none" opacity="1" stroke="#a3a3a3" stroke-linecap="round" stroke-linejoin="round" stroke-width="2.35836" vectornator:layerName="Kurve 55"/>
<path d="M276.696 308.623C276.696 305.118 276.797 301.387 276.303 297.927C276.07 296.299 276.256 294.582 275.988 292.972C275.748 291.533 276.08 289.928 276.224 288.489C276.447 286.26 276.493 284.037 276.696 281.804C277.042 277.994 276.451 274.145 276.853 270.322C277.14 267.599 276.513 264.865 276.853 262.142C276.949 261.377 276.501 259.821 277.089 259.232" fill="none" opacity="1" stroke="#d1d1d1" stroke-linecap="round" stroke-linejoin="round" stroke-width="1.07138" vectornator:layerName="Kurve 60"/>
<path d="M295.65 308.702C295.65 306.686 295.617 304.619 295.336 302.646C294.822 299.051 295.501 294.985 295.257 291.321C294.788 284.287 295.031 277.229 295.807 270.243C296.083 267.765 296.122 265.279 296.122 262.771C296.122 261.709 295.879 260.111 296.358 259.154" fill="none" opacity="1" stroke="#d1d1d1" stroke-linecap="round" stroke-linejoin="round" stroke-width="1.07138" vectornator:layerName="Kurve 61"/>
<path d="M314.132 308.938C314.132 304.654 314.304 300.155 313.975 295.882C313.893 294.815 313.735 293.737 313.818 292.658C313.972 290.648 313.742 288.611 313.896 286.602C314.188 282.814 314.29 279.026 314.29 275.198C314.29 272.861 314.427 270.663 314.604 268.355C314.715 266.918 314.479 265.454 314.683 264.03C314.861 262.784 314.998 261.706 314.998 260.412C314.998 260.151 314.86 258.642 314.998 258.918" fill="none" opacity="1" stroke="#d1d1d1" stroke-linecap="round" stroke-linejoin="round" stroke-width="1.07138" vectornator:layerName="Kurve 62"/>
<path d="M346.343 306.951C344.98 302.89 343.71 298.57 342.039 294.624C341.622 293.638 341.129 292.666 340.864 291.617C340.371 289.663 339.504 287.804 339.011 285.851C338.082 282.167 336.974 278.544 335.755 274.914C335.012 272.699 334.442 270.572 333.876 268.328C333.524 266.93 332.835 265.617 332.574 264.202C332.347 262.964 332.133 261.898 331.722 260.672C331.639 260.425 331.027 259.038 331.246 259.255" fill="none" opacity="1" stroke="#d1d1d1" stroke-linecap="round" stroke-linejoin="round" stroke-width="1.07138" vectornator:layerName="Kurve 63"/>
<g opacity="1" vectornator:layerName="Gruppieren 26">
<path d="M269.187 317.75C269.187 313.474 272.653 310.008 276.929 310.008C281.205 310.008 284.671 313.474 284.671 317.75C284.671 322.026 281.205 325.492 276.929 325.492C272.653 325.492 269.187 322.026 269.187 317.75Z" fill="#ffffff" fill-rule="nonzero" opacity="1" stroke="#224767" stroke-linecap="round" stroke-linejoin="round" stroke-width="3.26277" vectornator:layerName="Oval 1"/>
<path d="M277.981 310.667C283.127 313.24 282.512 319.291 279.364 323.226C278.745 323.999 277.668 324.395 276.829 324.954" fill="none" opacity="1" stroke="#224767" stroke-linecap="round" stroke-linejoin="round" stroke-opacity="0.538288" stroke-width="3.85983" vectornator:layerName="Kurve 1"/>
</g>
<g opacity="1" vectornator:layerName="Gruppieren 27">
<path d="M287.866 317.75C287.866 313.474 291.332 310.008 295.608 310.008C299.883 310.008 303.35 313.474 303.35 317.75C303.35 322.026 299.883 325.492 295.608 325.492C291.332 325.492 287.866 322.026 287.866 317.75Z" fill="#ffffff" fill-rule="nonzero" opacity="1" stroke="#224767" stroke-linecap="round" stroke-linejoin="round" stroke-width="3.26277" vectornator:layerName="Oval 1"/>
<path d="M296.66 310.667C301.805 313.24 301.19 319.291 298.042 323.226C297.424 323.999 296.346 324.395 295.508 324.954" fill="none" opacity="1" stroke="#224767" stroke-linecap="round" stroke-linejoin="round" stroke-opacity="0.538288" stroke-width="3.85983" vectornator:layerName="Kurve 1"/>
</g>
<g opacity="1" vectornator:layerName="Gruppieren 28">
<path d="M306.431 317.75C306.431 313.474 309.897 310.008 314.173 310.008C318.449 310.008 321.915 313.474 321.915 317.75C321.915 322.026 318.449 325.492 314.173 325.492C309.897 325.492 306.431 322.026 306.431 317.75Z" fill="#ffffff" fill-rule="nonzero" opacity="1" stroke="#224767" stroke-linecap="round" stroke-linejoin="round" stroke-width="3.26277" vectornator:layerName="Oval 1"/>
<path d="M315.225 310.667C320.37 313.24 319.756 319.291 316.608 323.226C315.989 323.999 314.911 324.395 314.073 324.954" fill="none" opacity="1" stroke="#224767" stroke-linecap="round" stroke-linejoin="round" stroke-opacity="0.538288" stroke-width="3.85983" vectornator:layerName="Kurve 1"/>
</g>
<g opacity="1" vectornator:layerName="Gruppieren 29">
<path d="M341.322 314.693C341.322 310.417 344.788 306.951 349.064 306.951C353.34 306.951 356.806 310.417 356.806 314.693C356.806 318.969 353.34 322.435 349.064 322.435C344.788 322.435 341.322 318.969 341.322 314.693Z" fill="#ffffff" fill-rule="nonzero" opacity="1" stroke="#224767" stroke-linecap="round" stroke-linejoin="round" stroke-width="3.26277" vectornator:layerName="Oval 1"/>
<path d="M350.116 307.61C355.261 310.183 354.646 316.233 351.498 320.168C350.88 320.941 349.802 321.337 348.964 321.896" fill="none" opacity="1" stroke="#224767" stroke-linecap="round" stroke-linejoin="round" stroke-opacity="0.538288" stroke-width="3.85983" vectornator:layerName="Kurve 1"/>
</g>
<path d="M252.866 325.414C253.089 325.526 253.064 325.534 252.866 325.335C252.158 324.627 251.45 323.919 250.742 323.212C250.506 322.976 250.27 322.74 250.034 322.504" fill="none" opacity="1" stroke="#224767" stroke-linecap="round" stroke-linejoin="round" stroke-opacity="0.289319" stroke-width="1.07138" vectornator:layerName="Kurve 64"/>
<path d="M258.214 324.155C256.349 322.557 254.049 321.485 252.315 319.751" fill="none" opacity="1" stroke="#224767" stroke-linecap="round" stroke-linejoin="round" stroke-opacity="0.289319" stroke-width="1.07138" vectornator:layerName="Kurve 65"/>
<path d="M257.506 318.178C256.265 317.647 255.04 317.08 253.809 316.527" fill="none" opacity="1" stroke="#224767" stroke-linecap="round" stroke-linejoin="round" stroke-opacity="0.289319" stroke-width="1.07138" vectornator:layerName="Kurve 66"/>
<path d="M243.07 307.772C244.433 303.711 245.702 299.391 247.374 295.445C247.791 294.459 248.284 293.487 248.549 292.438C249.042 290.483 249.909 288.625 250.401 286.672C251.33 282.988 252.439 279.364 253.657 275.735C254.401 273.52 254.97 271.393 255.536 269.149C255.889 267.751 256.578 266.438 256.838 265.023C257.066 263.785 257.28 262.719 257.691 261.493C257.774 261.246 258.385 259.858 258.167 260.076" fill="none" opacity="1" stroke="#d1d1d1" stroke-linecap="round" stroke-linejoin="round" stroke-width="1.07138" vectornator:layerName="Kurve 67"/>
<g opacity="1" vectornator:layerName="Gruppieren 30">
<path d="M248.091 315.514C248.091 311.238 244.625 307.772 240.349 307.772C236.073 307.772 232.607 311.238 232.607 315.514C232.607 319.79 236.073 323.256 240.349 323.256C244.625 323.256 248.091 319.79 248.091 315.514Z" fill="#ffffff" fill-rule="nonzero" opacity="1" stroke="#224767" stroke-linecap="round" stroke-linejoin="round" stroke-width="3.26277" vectornator:layerName="Oval 1"/>
<path d="M239.297 308.431C234.151 311.003 234.766 317.054 237.914 320.989C238.533 321.762 239.61 322.158 240.449 322.717" fill="none" opacity="1" stroke="#224767" stroke-linecap="round" stroke-linejoin="round" stroke-opacity="0.538288" stroke-width="3.85983" vectornator:layerName="Kurve 1"/>
</g>
<path d="M338.752 327.66C338.528 327.772 338.553 327.78 338.752 327.581C339.46 326.874 340.167 326.166 340.875 325.458C341.111 325.222 341.347 324.986 341.583 324.75" fill="none" opacity="1" stroke="#224767" stroke-linecap="round" stroke-linejoin="round" stroke-opacity="0.289319" stroke-width="1.07138" vectornator:layerName="Kurve 68"/>
<path d="M333.404 326.402C335.269 324.803 337.568 323.732 339.302 321.997" fill="none" opacity="1" stroke="#224767" stroke-linecap="round" stroke-linejoin="round" stroke-opacity="0.289319" stroke-width="1.07138" vectornator:layerName="Kurve 69"/>
<path d="M334.112 320.425C335.352 319.893 336.577 319.327 337.808 318.773" fill="none" opacity="1" stroke="#224767" stroke-linecap="round" stroke-linejoin="round" stroke-opacity="0.289319" stroke-width="1.07138" vectornator:layerName="Kurve 70"/>
<path d="M253.085 260.046C269.33 260.046 285.587 260.22 301.725 258.875C304.619 258.634 307.555 258.904 310.452 258.662C316.474 258.16 322.897 258.556 328.972 258.556C331.11 258.556 333.235 258.875 335.358 258.875C335.765 258.875 338.908 258.875 337.806 258.875" fill="none" opacity="1" stroke="#a3a3a3" stroke-linecap="round" stroke-linejoin="round" stroke-width="2.35836" vectornator:layerName="Kurve 71"/>
<path d="M45.8774 179.787C45.8774 177.463 45.7554 175.019 45.5628 172.709C45.2686 169.177 45.7991 165.636 45.5628 162.091C45.3589 159.032 45.1835 155.609 45.5628 152.575C45.9185 149.729 45.4624 146.71 45.6415 143.845C45.8152 141.066 45.7201 138.214 45.7201 135.43C45.7201 134.282 45.5132 132.905 45.8774 131.812" fill="none" opacity="1" stroke="#d1d1d1" stroke-linecap="round" stroke-linejoin="round" stroke-width="1.07138" vectornator:layerName="Kurve 27"/>
<path d="M64.3597 180.573C64.3597 177.068 64.4608 173.338 63.9665 169.877C63.7339 168.25 63.9202 166.533 63.6519 164.923C63.4121 163.484 63.7439 161.878 63.8878 160.44C64.1107 158.211 64.1568 155.987 64.3597 153.755C64.7061 149.944 64.1146 146.095 64.517 142.272C64.8036 139.549 64.1766 136.816 64.517 134.093C64.6126 133.327 64.1644 131.771 64.7529 131.183" fill="none" opacity="1" stroke="#d1d1d1" stroke-linecap="round" stroke-linejoin="round" stroke-width="1.07138" vectornator:layerName="Kurve 28"/>
<path d="M134.006 178.901C132.643 174.84 131.374 170.52 129.703 166.574C129.285 165.589 128.792 164.617 128.528 163.567C128.035 161.613 127.168 159.755 126.675 157.801C125.746 154.117 124.637 150.494 123.419 146.865C122.676 144.65 122.106 142.522 121.54 140.278C121.188 138.881 120.499 137.568 120.238 136.152C120.01 134.914 119.797 133.849 119.385 132.622C119.302 132.375 118.691 130.988 118.91 131.206" fill="none" opacity="1" stroke="#d1d1d1" stroke-linecap="round" stroke-linejoin="round" stroke-width="1.07138" vectornator:layerName="Kurve 31"/>
<path d="M117.805 178.901C116.442 174.84 115.172 170.52 113.501 166.574C113.084 165.589 112.591 164.617 112.326 163.567C111.833 161.613 110.966 159.755 110.474 157.801C109.544 154.117 108.436 150.494 107.218 146.865C106.474 144.65 105.905 142.522 105.339 140.278C104.986 138.881 104.297 137.568 104.037 136.152C103.809 134.914 103.595 133.849 103.184 132.622C103.101 132.375 102.49 130.988 102.708 131.206" fill="none" opacity="1" stroke="#d1d1d1" stroke-linecap="round" stroke-linejoin="round" stroke-width="1.07138" vectornator:layerName="Kurve 36"/>
<path d="M99.1652 179.737C97.8022 175.677 96.5329 171.356 94.8617 167.41C94.4443 166.425 93.9512 165.453 93.6865 164.403C93.1936 162.449 92.3268 160.591 91.8341 158.637C90.9049 154.953 89.7962 151.33 88.5781 147.701C87.8346 145.486 87.2651 143.359 86.699 141.114C86.3466 139.717 85.6575 138.404 85.3971 136.988C85.1694 135.75 84.9558 134.685 84.5442 133.458C84.4613 133.212 83.85 131.824 84.0687 132.042" fill="none" opacity="1" stroke="#d1d1d1" stroke-linecap="round" stroke-linejoin="round" stroke-width="1.07138" vectornator:layerName="Kurve 37"/>
<g opacity="1" vectornator:layerName="Gruppieren 2">
<path d="M38.2856 189.701C38.2856 185.425 41.7519 181.959 46.0277 181.959C50.3035 181.959 53.7698 185.425 53.7698 189.701C53.7698 193.976 50.3035 197.443 46.0277 197.443C41.7519 197.443 38.2856 193.976 38.2856 189.701Z" fill="#ffffff" fill-rule="nonzero" opacity="1" stroke="#224767" stroke-linecap="round" stroke-linejoin="round" stroke-width="3.26277" vectornator:layerName="Oval 1"/>
<path d="M47.0799 182.618C52.2253 185.19 51.6104 191.241 48.4625 195.176C47.8439 195.949 46.7662 196.345 45.9278 196.904" fill="none" opacity="1" stroke="#224767" stroke-linecap="round" stroke-linejoin="round" stroke-opacity="0.538288" stroke-width="3.85983" vectornator:layerName="Kurve 1"/>
</g>
<g opacity="1" vectornator:layerName="Gruppieren 3">
<path d="M56.8508 189.701C56.8508 185.425 60.3171 181.959 64.5929 181.959C68.8688 181.959 72.335 185.425 72.335 189.701C72.335 193.976 68.8688 197.443 64.5929 197.443C60.3171 197.443 56.8508 193.976 56.8508 189.701Z" fill="#ffffff" fill-rule="nonzero" opacity="1" stroke="#224767" stroke-linecap="round" stroke-linejoin="round" stroke-width="3.26277" vectornator:layerName="Oval 1"/>
<path d="M65.6451 182.618C70.7905 185.19 70.1756 191.241 67.0277 195.176C66.4092 195.949 65.3315 196.345 64.493 196.904" fill="none" opacity="1" stroke="#224767" stroke-linecap="round" stroke-linejoin="round" stroke-opacity="0.538288" stroke-width="3.85983" vectornator:layerName="Kurve 1"/>
</g>
<g opacity="1" vectornator:layerName="Gruppieren 12">
<path d="M128.985 186.643C128.985 182.367 132.452 178.901 136.727 178.901C141.003 178.901 144.47 182.367 144.47 186.643C144.47 190.919 141.003 194.385 136.727 194.385C132.452 194.385 128.985 190.919 128.985 186.643Z" fill="#ffffff" fill-rule="nonzero" opacity="1" stroke="#224767" stroke-linecap="round" stroke-linejoin="round" stroke-width="3.26277" vectornator:layerName="Oval 1"/>
<path d="M137.78 179.56C142.925 182.133 142.31 188.184 139.162 192.118C138.544 192.892 137.466 193.288 136.628 193.847" fill="none" opacity="1" stroke="#224767" stroke-linecap="round" stroke-linejoin="round" stroke-opacity="0.538288" stroke-width="3.85983" vectornator:layerName="Kurve 1"/>
</g>
<path d="M151.015 177.137C151.26 177.086 151.238 177.072 150.995 177.213C150.13 177.716 149.264 178.219 148.399 178.722C148.11 178.89 147.822 179.058 147.533 179.226" fill="none" opacity="1" stroke="#224767" stroke-linecap="round" stroke-linejoin="round" stroke-opacity="0.289319" stroke-width="1.07138" vectornator:layerName="Kurve 32"/>
<path d="M155.863 179.722C153.651 180.79 151.154 181.237 149.034 182.47" fill="none" opacity="1" stroke="#224767" stroke-linecap="round" stroke-linejoin="round" stroke-opacity="0.289319" stroke-width="1.07138" vectornator:layerName="Kurve 33"/>
<path d="M153.65 185.319C152.315 185.515 150.985 185.749 149.654 185.97" fill="none" opacity="1" stroke="#224767" stroke-linecap="round" stroke-linejoin="round" stroke-opacity="0.289319" stroke-width="1.07138" vectornator:layerName="Kurve 34"/>
<g opacity="1" vectornator:layerName="Gruppieren 13">
<path d="M110.233 188.316C110.233 184.04 113.699 180.573 117.975 180.573C122.251 180.573 125.717 184.04 125.717 188.316C125.717 192.591 122.251 196.058 117.975 196.058C113.699 196.058 110.233 192.591 110.233 188.316Z" fill="#ffffff" fill-rule="nonzero" opacity="1" stroke="#224767" stroke-linecap="round" stroke-linejoin="round" stroke-width="3.26277" vectornator:layerName="Oval 1"/>
<path d="M119.027 181.233C124.173 183.805 123.558 189.856 120.41 193.791C119.791 194.564 118.714 194.96 117.875 195.519" fill="none" opacity="1" stroke="#224767" stroke-linecap="round" stroke-linejoin="round" stroke-opacity="0.538288" stroke-width="3.85983" vectornator:layerName="Kurve 1"/>
</g>
<g opacity="1" vectornator:layerName="Gruppieren 14">
<path d="M91.5935 189.277C91.5935 185.002 95.0597 181.535 99.3356 181.535C103.611 181.535 107.078 185.002 107.078 189.277C107.078 193.553 103.611 197.02 99.3356 197.02C95.0597 197.02 91.5935 193.553 91.5935 189.277Z" fill="#ffffff" fill-rule="nonzero" opacity="1" stroke="#224767" stroke-linecap="round" stroke-linejoin="round" stroke-width="3.26277" vectornator:layerName="Oval 1"/>
<path d="M100.388 182.194C105.533 184.767 104.918 190.818 101.77 194.753C101.152 195.526 100.074 195.922 99.2356 196.481" fill="none" opacity="1" stroke="#224767" stroke-linecap="round" stroke-linejoin="round" stroke-opacity="0.538288" stroke-width="3.85983" vectornator:layerName="Kurve 1"/>
</g>
<path d="M40.749 131.996C56.9941 131.996 73.2503 132.17 89.3887 130.825C92.283 130.584 95.2184 130.854 98.1162 130.612C104.138 130.111 110.561 130.506 116.635 130.506C118.773 130.506 120.899 130.825 123.021 130.825C123.429 130.825 126.572 130.825 125.469 130.825" fill="none" opacity="1" stroke="#a3a3a3" stroke-linecap="round" stroke-linejoin="round" stroke-width="2.35836" vectornator:layerName="Kurve 35"/>
<path d="M333.554 179.787C333.554 177.463 333.676 175.019 333.869 172.709C334.163 169.177 333.632 165.636 333.869 162.091C334.073 159.032 334.248 155.609 333.869 152.575C333.513 149.729 333.969 146.71 333.79 143.845C333.616 141.066 333.711 138.214 333.711 135.43C333.711 134.282 333.918 132.905 333.554 131.812" fill="none" opacity="1" stroke="#d1d1d1" stroke-linecap="round" stroke-linejoin="round" stroke-width="1.07138" vectornator:layerName="Kurve 38"/>
<path d="M315.072 180.573C315.072 177.068 314.971 173.338 315.465 169.877C315.698 168.25 315.511 166.533 315.78 164.923C316.019 163.484 315.688 161.878 315.544 160.44C315.321 158.211 315.275 155.987 315.072 153.755C314.725 149.944 315.317 146.095 314.914 142.272C314.628 139.549 315.255 136.816 314.914 134.093C314.819 133.327 315.267 131.771 314.679 131.183" fill="none" opacity="1" stroke="#d1d1d1" stroke-linecap="round" stroke-linejoin="round" stroke-width="1.07138" vectornator:layerName="Kurve 39"/>
<path d="M245.425 178.901C246.788 174.84 248.057 170.52 249.729 166.574C250.146 165.589 250.639 164.617 250.904 163.567C251.397 161.613 252.264 159.755 252.756 157.801C253.685 154.117 254.794 150.494 256.012 146.865C256.756 144.65 257.325 142.522 257.891 140.278C258.244 138.881 258.933 137.568 259.193 136.152C259.421 134.914 259.635 133.849 260.046 132.622C260.129 132.375 260.74 130.988 260.522 131.206" fill="none" opacity="1" stroke="#d1d1d1" stroke-linecap="round" stroke-linejoin="round" stroke-width="1.07138" vectornator:layerName="Kurve 40"/>
<path d="M261.627 178.901C262.99 174.84 264.259 170.52 265.93 166.574C266.348 165.589 266.841 164.617 267.105 163.567C267.598 161.613 268.465 159.755 268.958 157.801C269.887 154.117 270.996 150.494 272.214 146.865C272.957 144.65 273.527 142.522 274.093 140.278C274.445 138.881 275.134 137.568 275.395 136.152C275.622 134.914 275.836 133.849 276.248 132.622C276.331 132.375 276.942 130.988 276.723 131.206" fill="none" opacity="1" stroke="#d1d1d1" stroke-linecap="round" stroke-linejoin="round" stroke-width="1.07138" vectornator:layerName="Kurve 41"/>
<path d="M280.266 179.737C281.629 175.677 282.899 171.356 284.57 167.41C284.987 166.425 285.48 165.453 285.745 164.403C286.238 162.449 287.105 160.591 287.597 158.637C288.527 154.953 289.635 151.33 290.853 147.701C291.597 145.486 292.166 143.359 292.732 141.114C293.085 139.717 293.774 138.404 294.034 136.988C294.262 135.75 294.476 134.685 294.887 133.458C294.97 133.212 295.581 131.824 295.363 132.042" fill="none" opacity="1" stroke="#d1d1d1" stroke-linecap="round" stroke-linejoin="round" stroke-width="1.07138" vectornator:layerName="Kurve 42"/>
<g opacity="1" vectornator:layerName="Gruppieren 15">
<path d="M341.146 189.701C341.146 185.425 337.68 181.959 333.404 181.959C329.128 181.959 325.662 185.425 325.662 189.701C325.662 193.976 329.128 197.443 333.404 197.443C337.68 197.443 341.146 193.976 341.146 189.701Z" fill="#ffffff" fill-rule="nonzero" opacity="1" stroke="#224767" stroke-linecap="round" stroke-linejoin="round" stroke-width="3.26277" vectornator:layerName="Oval 1"/>
<path d="M332.352 182.618C327.206 185.19 327.821 191.241 330.969 195.176C331.588 195.949 332.665 196.345 333.504 196.904" fill="none" opacity="1" stroke="#224767" stroke-linecap="round" stroke-linejoin="round" stroke-opacity="0.538288" stroke-width="3.85983" vectornator:layerName="Kurve 1"/>
</g>
<g opacity="1" vectornator:layerName="Gruppieren 16">
<path d="M322.581 189.701C322.581 185.425 319.114 181.959 314.839 181.959C310.563 181.959 307.096 185.425 307.096 189.701C307.096 193.976 310.563 197.443 314.839 197.443C319.114 197.443 322.581 193.976 322.581 189.701Z" fill="#ffffff" fill-rule="nonzero" opacity="1" stroke="#224767" stroke-linecap="round" stroke-linejoin="round" stroke-width="3.26277" vectornator:layerName="Oval 1"/>
<path d="M313.786 182.618C308.641 185.19 309.256 191.241 312.404 195.176C313.022 195.949 314.1 196.345 314.938 196.904" fill="none" opacity="1" stroke="#224767" stroke-linecap="round" stroke-linejoin="round" stroke-opacity="0.538288" stroke-width="3.85983" vectornator:layerName="Kurve 1"/>
</g>
<g opacity="1" vectornator:layerName="Gruppieren 17">
<path d="M250.446 186.643C250.446 182.367 246.98 178.901 242.704 178.901C238.428 178.901 234.962 182.367 234.962 186.643C234.962 190.919 238.428 194.385 242.704 194.385C246.98 194.385 250.446 190.919 250.446 186.643Z" fill="#ffffff" fill-rule="nonzero" opacity="1" stroke="#224767" stroke-linecap="round" stroke-linejoin="round" stroke-width="3.26277" vectornator:layerName="Oval 1"/>
<path d="M241.652 179.56C236.506 182.133 237.121 188.184 240.269 192.118C240.888 192.892 241.965 193.288 242.804 193.847" fill="none" opacity="1" stroke="#224767" stroke-linecap="round" stroke-linejoin="round" stroke-opacity="0.538288" stroke-width="3.85983" vectornator:layerName="Kurve 1"/>
</g>
<path d="M294.726 198.11C294.971 198.161 294.949 198.176 294.706 198.034C293.841 197.531 292.976 197.028 292.11 196.525C291.822 196.357 291.533 196.189 291.245 196.022" fill="none" opacity="1" stroke="#224767" stroke-linecap="round" stroke-linejoin="round" stroke-opacity="0.289319" stroke-width="1.07138" vectornator:layerName="Kurve 43"/>
<path d="M299.575 195.526C297.363 194.457 294.866 194.01 292.746 192.777" fill="none" opacity="1" stroke="#224767" stroke-linecap="round" stroke-linejoin="round" stroke-opacity="0.289319" stroke-width="1.07138" vectornator:layerName="Kurve 44"/>
<path d="M297.361 189.928C296.026 189.732 294.697 189.498 293.365 189.277" fill="none" opacity="1" stroke="#224767" stroke-linecap="round" stroke-linejoin="round" stroke-opacity="0.289319" stroke-width="1.07138" vectornator:layerName="Kurve 45"/>
<g opacity="1" vectornator:layerName="Gruppieren 18">
<path d="M269.198 188.316C269.198 184.04 265.732 180.573 261.456 180.573C257.18 180.573 253.714 184.04 253.714 188.316C253.714 192.591 257.18 196.058 261.456 196.058C265.732 196.058 269.198 192.591 269.198 188.316Z" fill="#ffffff" fill-rule="nonzero" opacity="1" stroke="#224767" stroke-linecap="round" stroke-linejoin="round" stroke-width="3.26277" vectornator:layerName="Oval 1"/>
<path d="M260.404 181.233C255.259 183.805 255.874 189.856 259.022 193.791C259.64 194.564 260.718 194.96 261.556 195.519" fill="none" opacity="1" stroke="#224767" stroke-linecap="round" stroke-linejoin="round" stroke-opacity="0.538288" stroke-width="3.85983" vectornator:layerName="Kurve 1"/>
</g>
<g opacity="1" vectornator:layerName="Gruppieren 19">
<path d="M287.838 189.277C287.838 185.002 284.372 181.535 280.096 181.535C275.82 181.535 272.354 185.002 272.354 189.277C272.354 193.553 275.82 197.02 280.096 197.02C284.372 197.02 287.838 193.553 287.838 189.277Z" fill="#ffffff" fill-rule="nonzero" opacity="1" stroke="#224767" stroke-linecap="round" stroke-linejoin="round" stroke-width="3.26277" vectornator:layerName="Oval 1"/>
<path d="M279.044 182.194C273.898 184.767 274.513 190.818 277.661 194.753C278.28 195.526 279.357 195.922 280.196 196.481" fill="none" opacity="1" stroke="#224767" stroke-linecap="round" stroke-linejoin="round" stroke-opacity="0.538288" stroke-width="3.85983" vectornator:layerName="Kurve 1"/>
</g>
<path d="M338.682 131.996C322.437 131.996 306.181 132.17 290.043 130.825C287.148 130.584 284.213 130.854 281.315 130.612C275.293 130.111 268.871 130.506 262.796 130.506C260.658 130.506 258.532 130.825 256.41 130.825C256.003 130.825 252.859 130.825 253.962 130.825" fill="none" opacity="1" stroke="#a3a3a3" stroke-linecap="round" stroke-linejoin="round" stroke-width="2.35836" vectornator:layerName="Kurve 46"/>
<path d="M336.745 61.8902C336.745 59.5665 336.867 57.1223 337.06 54.8119C337.354 51.2806 336.823 47.739 337.06 44.1944C337.264 41.1354 337.439 37.7124 337.06 34.678C336.704 31.8326 337.16 28.8137 336.981 25.9481C336.807 23.1691 336.902 20.3173 336.902 17.5327C336.902 16.3848 337.109 15.0077 336.745 13.9149" fill="none" opacity="1" stroke="#d1d1d1" stroke-linecap="round" stroke-linejoin="round" stroke-width="1.07138" vectornator:layerName="Kurve 16"/>
<path d="M318.263 62.6767C318.263 59.1715 318.162 55.4407 318.656 51.9806C318.889 50.3528 318.702 48.6359 318.971 47.0257C319.21 45.587 318.879 43.9815 318.735 42.5428C318.512 40.3138 318.466 38.0901 318.263 35.8577C317.916 32.0477 318.508 28.1982 318.105 24.3751C317.819 21.6522 318.446 18.9187 318.105 16.1957C318.01 15.4306 318.458 13.8743 317.87 13.2857" fill="none" opacity="1" stroke="#d1d1d1" stroke-linecap="round" stroke-linejoin="round" stroke-width="1.07138" vectornator:layerName="Kurve 17"/>
<path d="M299.309 62.7553C299.309 60.7392 299.341 58.6724 299.623 56.6994C300.137 53.1046 299.458 49.0382 299.702 45.3741C300.171 38.3406 299.928 31.2829 299.151 24.2965C298.876 21.8187 298.837 19.3326 298.837 16.8249C298.837 15.7627 299.079 14.1646 298.601 13.2071" fill="none" opacity="1" stroke="#d1d1d1" stroke-linecap="round" stroke-linejoin="round" stroke-width="1.07138" vectornator:layerName="Kurve 18"/>
<path d="M280.826 62.9913C280.826 58.7079 280.655 54.2084 280.984 49.9357C281.066 48.8685 281.224 47.7903 281.141 46.7111C280.986 44.7015 281.217 42.6641 281.062 40.6552C280.771 36.8671 280.669 33.0793 280.669 29.2513C280.669 26.9147 280.532 24.7169 280.354 22.4089C280.244 20.9719 280.479 19.508 280.276 18.0833C280.098 16.8372 279.961 15.7592 279.961 14.4655C279.961 14.205 280.099 12.6951 279.961 12.9711" fill="none" opacity="1" stroke="#d1d1d1" stroke-linecap="round" stroke-linejoin="round" stroke-width="1.07138" vectornator:layerName="Kurve 19"/>
<path d="M248.616 61.0043C249.979 56.9435 251.248 52.6234 252.92 48.6774C253.337 47.6918 253.83 46.72 254.095 45.6705C254.588 43.7161 255.455 41.858 255.947 39.9043C256.876 36.2204 257.985 32.5971 259.203 28.968C259.947 26.7529 260.516 24.6257 261.082 22.3812C261.435 20.9837 262.124 19.6708 262.384 18.2553C262.612 17.0174 262.826 15.9519 263.237 14.7255C263.32 14.4786 263.931 13.0911 263.713 13.3088" fill="none" opacity="1" stroke="#d1d1d1" stroke-linecap="round" stroke-linejoin="round" stroke-width="1.07138" vectornator:layerName="Kurve 20"/>
<g opacity="1" vectornator:layerName="Gruppieren 9">
<g opacity="1" vectornator:layerName="Gruppieren 2">
<path d="M344.337 71.8038C344.337 67.528 340.871 64.0617 336.595 64.0617C332.319 64.0617 328.853 67.528 328.853 71.8038C328.853 76.0797 332.319 79.5459 336.595 79.5459C340.871 79.5459 344.337 76.0797 344.337 71.8038Z" fill="#ffffff" fill-rule="nonzero" opacity="1" stroke="#224767" stroke-linecap="round" stroke-linejoin="round" stroke-width="3.26277" vectornator:layerName="Oval 1"/>
<path d="M335.543 64.7209C330.397 67.2936 331.012 73.3443 334.16 77.2791C334.779 78.0523 335.856 78.4484 336.695 79.0073" fill="none" opacity="1" stroke="#224767" stroke-linecap="round" stroke-linejoin="round" stroke-opacity="0.538288" stroke-width="3.85983" vectornator:layerName="Kurve 1"/>
</g>
<g opacity="1" vectornator:layerName="Gruppieren 3">
<path d="M325.772 71.8038C325.772 67.528 322.305 64.0617 318.03 64.0617C313.754 64.0617 310.287 67.528 310.287 71.8038C310.287 76.0797 313.754 79.5459 318.03 79.5459C322.305 79.5459 325.772 76.0797 325.772 71.8038Z" fill="#ffffff" fill-rule="nonzero" opacity="1" stroke="#224767" stroke-linecap="round" stroke-linejoin="round" stroke-width="3.26277" vectornator:layerName="Oval 1"/>
<path d="M316.977 64.7209C311.832 67.2936 312.447 73.3443 315.595 77.2791C316.213 78.0523 317.291 78.4484 318.129 79.0073" fill="none" opacity="1" stroke="#224767" stroke-linecap="round" stroke-linejoin="round" stroke-opacity="0.538288" stroke-width="3.85983" vectornator:layerName="Kurve 1"/>
</g>
<g opacity="1" vectornator:layerName="Gruppieren 4">
<path d="M307.093 71.8038C307.093 67.528 303.627 64.0617 299.351 64.0617C295.075 64.0617 291.609 67.528 291.609 71.8038C291.609 76.0797 295.075 79.5459 299.351 79.5459C303.627 79.5459 307.093 76.0797 307.093 71.8038Z" fill="#ffffff" fill-rule="nonzero" opacity="1" stroke="#224767" stroke-linecap="round" stroke-linejoin="round" stroke-width="3.26277" vectornator:layerName="Oval 1"/>
<path d="M298.299 64.7209C293.153 67.2936 293.768 73.3443 296.916 77.2791C297.535 78.0523 298.613 78.4484 299.451 79.0073" fill="none" opacity="1" stroke="#224767" stroke-linecap="round" stroke-linejoin="round" stroke-opacity="0.538288" stroke-width="3.85983" vectornator:layerName="Kurve 1"/>
</g>
<g opacity="1" vectornator:layerName="Gruppieren 5">
<path d="M288.528 71.8038C288.528 67.528 285.062 64.0617 280.786 64.0617C276.51 64.0617 273.044 67.528 273.044 71.8038C273.044 76.0797 276.51 79.5459 280.786 79.5459C285.062 79.5459 288.528 76.0797 288.528 71.8038Z" fill="#ffffff" fill-rule="nonzero" opacity="1" stroke="#224767" stroke-linecap="round" stroke-linejoin="round" stroke-width="3.26277" vectornator:layerName="Oval 1"/>
<path d="M279.734 64.7209C274.588 67.2936 275.203 73.3443 278.351 77.2791C278.97 78.0523 280.047 78.4484 280.886 79.0073" fill="none" opacity="1" stroke="#224767" stroke-linecap="round" stroke-linejoin="round" stroke-opacity="0.538288" stroke-width="3.85983" vectornator:layerName="Kurve 1"/>
</g>
</g>
<g opacity="1" vectornator:layerName="Gruppieren 10">
<path d="M253.637 68.7464C253.637 64.4705 250.171 61.0043 245.895 61.0043C241.619 61.0043 238.153 64.4705 238.153 68.7464C238.153 73.0222 241.619 76.4885 245.895 76.4885C250.171 76.4885 253.637 73.0222 253.637 68.7464Z" fill="#ffffff" fill-rule="nonzero" opacity="1" stroke="#224767" stroke-linecap="round" stroke-linejoin="round" stroke-width="3.26277" vectornator:layerName="Oval 1"/>
<path d="M244.843 61.6634C239.697 64.2361 240.312 70.2868 243.46 74.2217C244.079 74.9949 245.156 75.3909 245.995 75.9499" fill="none" opacity="1" stroke="#224767" stroke-linecap="round" stroke-linejoin="round" stroke-opacity="0.538288" stroke-width="3.85983" vectornator:layerName="Kurve 1"/>
</g>
<path d="M258.412 80.8928C258.635 81.0046 258.61 81.0129 258.412 80.8141C257.704 80.1063 256.996 79.3985 256.288 78.6906C256.052 78.4547 255.816 78.2188 255.58 77.9828" fill="none" opacity="1" stroke="#224767" stroke-linecap="round" stroke-linejoin="round" stroke-opacity="0.289319" stroke-width="1.07138" vectornator:layerName="Kurve 21"/>
<path d="M263.76 79.6344C261.895 78.0357 259.595 76.9644 257.861 75.2301" fill="none" opacity="1" stroke="#224767" stroke-linecap="round" stroke-linejoin="round" stroke-opacity="0.289319" stroke-width="1.07138" vectornator:layerName="Kurve 22"/>
<path d="M263.052 73.6572C261.811 73.1256 260.586 72.5594 259.355 72.0056" fill="none" opacity="1" stroke="#224767" stroke-linecap="round" stroke-linejoin="round" stroke-opacity="0.289319" stroke-width="1.07138" vectornator:layerName="Kurve 23"/>
<path d="M341.873 14.0993C325.628 14.0993 309.372 14.2734 293.234 12.9285C290.339 12.6873 287.404 12.9571 284.506 12.7156C278.484 12.2138 272.062 12.6092 265.987 12.6092C263.849 12.6092 261.723 12.9285 259.601 12.9285C259.194 12.9285 256.05 12.9285 257.153 12.9285" fill="none" opacity="1" stroke="#a3a3a3" stroke-linecap="round" stroke-linejoin="round" stroke-width="2.35836" vectornator:layerName="Kurve 24"/>
<g opacity="1" vectornator:layerName="Gruppieren 23">
<path d="M172.343 37.8638C179.938 36.5979 187.726 37.6863 195.353 38.0986C196.694 38.1711 198.8 38.7499 200.049 38.3334" fill="none" opacity="1" stroke="#eebf5b" stroke-linecap="round" stroke-linejoin="round" stroke-width="3.83456" vectornator:layerName="Kurve 25"/>
<path d="M191.362 26.3586C193.789 28.7861 196.389 31.035 198.875 33.4026C199.822 34.3048 203.688 37.8651 203.571 38.3334C203.337 39.2693 198.17 44.5328 197.466 45.3774C196.489 46.5498 194.94 48.8712 193.475 49.6038" fill="none" opacity="1" stroke="#eebf5b" stroke-linecap="round" stroke-linejoin="round" stroke-width="3.83456" vectornator:layerName="Kurve 26"/>
</g>
<g opacity="1" vectornator:layerName="Gruppieren 24">
<path d="M172.343 165.361C179.938 164.095 187.726 165.183 195.353 165.596C196.694 165.668 198.8 166.247 200.049 165.83" fill="none" opacity="1" stroke="#eebf5b" stroke-linecap="round" stroke-linejoin="round" stroke-width="3.83456" vectornator:layerName="Kurve 25"/>
<path d="M191.362 153.856C193.789 156.283 196.389 158.532 198.875 160.9C199.822 161.802 203.688 165.362 203.571 165.83C203.337 166.766 198.17 172.03 197.466 172.874C196.489 174.047 194.94 176.368 193.475 177.101" fill="none" opacity="1" stroke="#eebf5b" stroke-linecap="round" stroke-linejoin="round" stroke-width="3.83456" vectornator:layerName="Kurve 26"/>
</g>
<g opacity="1" vectornator:layerName="Gruppieren 25">
<path d="M172.343 283.81C179.938 282.544 187.726 283.633 195.353 284.045C196.694 284.118 198.8 284.696 200.049 284.28" fill="none" opacity="1" stroke="#eebf5b" stroke-linecap="round" stroke-linejoin="round" stroke-width="3.83456" vectornator:layerName="Kurve 25"/>
<path d="M191.362 272.305C193.789 274.733 196.389 276.981 198.875 279.349C199.822 280.251 203.688 283.812 203.571 284.28C203.337 285.216 198.17 290.479 197.466 291.324C196.489 292.496 194.94 294.818 193.475 295.55" fill="none" opacity="1" stroke="#eebf5b" stroke-linecap="round" stroke-linejoin="round" stroke-width="3.83456" vectornator:layerName="Kurve 26"/>
</g>
</g>
</svg>
