<?xml version="1.0" encoding="UTF-8" standalone="no"?>
<!DOCTYPE svg PUBLIC "-//W3C//DTD SVG 1.1//EN" "http://www.w3.org/Graphics/SVG/1.1/DTD/svg11.dtd">
<!-- Created with Vectornator (http://vectornator.io/) -->
<svg height="100%" stroke-miterlimit="10" style="fill-rule:nonzero;clip-rule:evenodd;stroke-linecap:round;stroke-linejoin:round;" version="1.1" viewBox="0 0 340.2 212.625" width="100%" xml:space="preserve" xmlns="http://www.w3.org/2000/svg" xmlns:vectornator="http://vectornator.io" xmlns:xlink="http://www.w3.org/1999/xlink">
<defs/>
<path d="M0 0L340.2 0L340.2 212.625L0 212.625L0 0Z" fill="#ffffff" fill-rule="nonzero" opacity="1" stroke="none"/>
<g id="Ebene-1" vectornator:layerName="Ebene 1">
<path d="M48.03 143.958C48.03 138.003 47.7172 131.74 47.2238 125.82C46.4698 116.771 47.8293 107.696 47.2238 98.6133C46.7013 90.7749 46.2519 82.0035 47.2238 74.2281C48.1352 66.9371 46.9664 59.2011 47.4254 51.8582C47.8704 44.7374 47.6269 37.4297 47.6269 30.2944C47.6269 27.3529 47.0965 23.8242 48.03 21.024" fill="none" opacity="1" stroke="#d1d1d1" stroke-linecap="round" stroke-linejoin="round" stroke-width="2.74535" vectornator:layerName="Kurve 7"/>
<path d="M95.3897 145.973C95.3897 136.991 95.6487 127.431 94.382 118.565C93.7862 114.394 94.2635 109.994 93.5759 105.868C92.9615 102.182 93.8118 98.0679 94.1805 94.3812C94.7517 88.6696 94.8697 82.9713 95.3897 77.2511C96.2772 67.4881 94.7615 57.624 95.7927 47.8276C96.5272 40.8503 94.9205 33.8459 95.7927 26.8684C96.0378 24.9078 94.8892 20.9199 96.3973 19.4117" fill="none" opacity="1" stroke="#d1d1d1" stroke-linecap="round" stroke-linejoin="round" stroke-width="2.74535" vectornator:layerName="Kurve 8"/>
<path d="M143.959 146.175C143.959 141.008 143.875 135.712 143.152 130.657C141.837 121.445 143.577 111.025 142.951 101.636C141.749 83.6134 142.373 65.5283 144.362 47.6261C145.067 41.2769 145.168 34.9064 145.168 28.4806C145.168 25.7587 144.546 21.6637 145.772 19.2102" fill="none" opacity="1" stroke="#d1d1d1" stroke-linecap="round" stroke-linejoin="round" stroke-width="2.74535" vectornator:layerName="Kurve 9"/>
<path d="M191.318 146.779C191.318 135.803 191.757 124.274 190.915 113.325C190.705 110.591 190.299 107.828 190.512 105.062C190.908 99.9127 190.318 94.6921 190.714 89.5444C191.46 79.8377 191.721 70.1316 191.721 60.3225C191.721 54.3352 192.073 48.7033 192.527 42.7893C192.811 39.1072 192.207 35.356 192.729 31.7051C193.185 28.5121 193.535 25.7497 193.535 22.4347C193.535 21.7674 193.181 17.8983 193.535 18.6056" fill="none" opacity="1" stroke="#d1d1d1" stroke-linecap="round" stroke-linejoin="round" stroke-width="2.74535" vectornator:layerName="Kurve 10"/>
<path d="M273.855 141.688C270.362 131.282 267.11 120.212 262.827 110.101C261.758 107.575 260.494 105.085 259.816 102.396C258.553 97.3877 256.332 92.6263 255.069 87.6203C252.688 78.1804 249.847 68.8959 246.726 59.5966C244.821 53.9205 243.362 48.4696 241.911 42.7182C241.008 39.1374 239.242 35.7731 238.575 32.1461C237.991 28.9739 237.444 26.2437 236.389 23.101C236.177 22.4684 234.61 18.9129 235.171 19.4709" fill="none" opacity="1" stroke="#d1d1d1" stroke-linecap="round" stroke-linejoin="round" stroke-width="2.74535" vectornator:layerName="Kurve 12"/>
<g opacity="1" vectornator:layerName="Gruppieren 7">
<g opacity="1" vectornator:layerName="Gruppieren 2">
<path d="M28.5764 169.361C28.5764 158.404 37.4584 149.522 48.415 149.522C59.3716 149.522 68.2537 158.404 68.2537 169.361C68.2537 180.317 59.3716 189.2 48.415 189.2C37.4584 189.2 28.5764 180.317 28.5764 169.361Z" fill="#ffffff" fill-rule="nonzero" opacity="1" stroke="#224767" stroke-linecap="round" stroke-linejoin="round" stroke-width="8.36066" vectornator:layerName="Oval 1"/>
<path d="M51.1113 151.211C64.2961 157.804 62.7203 173.308 54.654 183.391C53.0691 185.372 50.3075 186.387 48.159 187.819" fill="none" opacity="1" stroke="#224767" stroke-linecap="round" stroke-linejoin="round" stroke-opacity="0.538288" stroke-width="9.89057" vectornator:layerName="Kurve 1"/>
</g>
<g opacity="1" vectornator:layerName="Gruppieren 3">
<path d="M76.1486 169.361C76.1486 158.404 85.0307 149.522 95.9873 149.522C106.944 149.522 115.826 158.404 115.826 169.361C115.826 180.317 106.944 189.2 95.9873 189.2C85.0307 189.2 76.1486 180.317 76.1486 169.361Z" fill="#ffffff" fill-rule="nonzero" opacity="1" stroke="#224767" stroke-linecap="round" stroke-linejoin="round" stroke-width="8.36066" vectornator:layerName="Oval 1"/>
<path d="M98.6836 151.211C111.868 157.804 110.293 173.308 102.226 183.391C100.641 185.372 97.8798 186.387 95.7313 187.819" fill="none" opacity="1" stroke="#224767" stroke-linecap="round" stroke-linejoin="round" stroke-opacity="0.538288" stroke-width="9.89057" vectornator:layerName="Kurve 1"/>
</g>
<g opacity="1" vectornator:layerName="Gruppieren 4">
<path d="M124.011 169.361C124.011 158.404 132.893 149.522 143.85 149.522C154.806 149.522 163.688 158.404 163.688 169.361C163.688 180.317 154.806 189.2 143.85 189.2C132.893 189.2 124.011 180.317 124.011 169.361Z" fill="#ffffff" fill-rule="nonzero" opacity="1" stroke="#224767" stroke-linecap="round" stroke-linejoin="round" stroke-width="8.36066" vectornator:layerName="Oval 1"/>
<path d="M146.546 151.211C159.731 157.804 158.155 173.308 150.089 183.391C148.504 185.372 145.742 186.387 143.594 187.819" fill="none" opacity="1" stroke="#224767" stroke-linecap="round" stroke-linejoin="round" stroke-opacity="0.538288" stroke-width="9.89057" vectornator:layerName="Kurve 1"/>
</g>
<g opacity="1" vectornator:layerName="Gruppieren 5">
<path d="M171.583 169.361C171.583 158.404 180.465 149.522 191.422 149.522C202.378 149.522 211.261 158.404 211.261 169.361C211.261 180.317 202.378 189.2 191.422 189.2C180.465 189.2 171.583 180.317 171.583 169.361Z" fill="#ffffff" fill-rule="nonzero" opacity="1" stroke="#224767" stroke-linecap="round" stroke-linejoin="round" stroke-width="8.36066" vectornator:layerName="Oval 1"/>
<path d="M194.118 151.211C207.303 157.804 205.727 173.308 197.661 183.391C196.076 185.372 193.314 186.387 191.166 187.819" fill="none" opacity="1" stroke="#224767" stroke-linecap="round" stroke-linejoin="round" stroke-opacity="0.538288" stroke-width="9.89057" vectornator:layerName="Kurve 1"/>
</g>
</g>
<g opacity="1" vectornator:layerName="Gruppieren 6">
<path d="M260.989 161.526C260.989 150.57 269.871 141.688 280.828 141.688C291.784 141.688 300.666 150.57 300.666 161.526C300.666 172.483 291.784 181.365 280.828 181.365C269.871 181.365 260.989 172.483 260.989 161.526Z" fill="#ffffff" fill-rule="nonzero" opacity="1" stroke="#224767" stroke-linecap="round" stroke-linejoin="round" stroke-width="8.36066" vectornator:layerName="Oval 1"/>
<path d="M283.524 143.377C296.709 149.969 295.133 165.474 287.067 175.556C285.482 177.538 282.72 178.553 280.572 179.985" fill="none" opacity="1" stroke="#224767" stroke-linecap="round" stroke-linejoin="round" stroke-opacity="0.538288" stroke-width="9.89057" vectornator:layerName="Kurve 1"/>
</g>
<path d="M313.043 129.897C313.616 129.61 313.552 129.589 313.043 130.098C311.229 131.912 309.415 133.726 307.602 135.54C306.997 136.144 306.392 136.749 305.788 137.354" fill="none" opacity="1" stroke="#224767" stroke-linecap="round" stroke-linejoin="round" stroke-opacity="0.289319" stroke-width="2.74535" vectornator:layerName="Kurve 13"/>
<path d="M326.747 133.121C321.968 137.218 316.076 139.963 311.632 144.407" fill="none" opacity="1" stroke="#224767" stroke-linecap="round" stroke-linejoin="round" stroke-opacity="0.289319" stroke-width="2.74535" vectornator:layerName="Kurve 14"/>
<path d="M324.933 148.438C321.755 149.8 318.615 151.251 315.461 152.67" fill="none" opacity="1" stroke="#224767" stroke-linecap="round" stroke-linejoin="round" stroke-opacity="0.289319" stroke-width="2.74535" vectornator:layerName="Kurve 15"/>
<path d="M34.8886 21.4963C76.5159 21.4963 118.171 21.9425 159.525 18.4963C166.942 17.8783 174.463 18.5697 181.889 17.9509C197.319 16.665 213.777 17.6782 229.343 17.6782C234.822 17.6782 240.269 18.4963 245.707 18.4963C246.75 18.4963 254.805 18.4963 251.98 18.4963" fill="none" opacity="1" stroke="#a3a3a3" stroke-linecap="round" stroke-linejoin="round" stroke-width="6.04315" vectornator:layerName="Kurve 16"/>
</g>
</svg>
