<?xml version="1.0" encoding="UTF-8" standalone="no"?>
<!DOCTYPE svg PUBLIC "-//W3C//DTD SVG 1.1//EN" "http://www.w3.org/Graphics/SVG/1.1/DTD/svg11.dtd">
<!-- Created with Vectornator (http://vectornator.io/) -->
<svg height="100%" stroke-miterlimit="10" style="fill-rule:nonzero;clip-rule:evenodd;stroke-linecap:round;stroke-linejoin:round;" version="1.1" viewBox="0 0 175.77 141.75" width="100%" xml:space="preserve" xmlns="http://www.w3.org/2000/svg" xmlns:vectornator="http://vectornator.io" xmlns:xlink="http://www.w3.org/1999/xlink">
<defs/>
<clipPath id="ArtboardFrame">
<rect height="141.75" width="175.77" x="0" y="0"/>
</clipPath>
<g clip-path="url(#ArtboardFrame)" id="Ebene-2" vectornator:layerName="Ebene 2" visibility="hidden">
<path d="M121.287 121.408C126.986 123.308 134.464 123.542 138.307 128.667C141.509 132.936 136.195 134.611 135.303 138.178C134.663 140.738 136.272 143.096 135.804 145.437C135.31 147.908 131.246 149.512 129.797 151.444C127.737 154.191 127.509 157.477 124.541 159.704C118.397 164.312 110.236 164.103 103.515 167.463" fill="none" opacity="1" stroke="#4a6b5f" stroke-linecap="round" stroke-linejoin="round" stroke-width="3.19853"/>
<path d="M120.014 125.805C123.724 127.66 127.566 126.881 131.217 128.342C136.641 130.512 130.573 135.055 131.217 138.276C132.623 145.309 129.907 144.673 126.144 149.69C124.929 151.309 125.089 153.387 123.819 154.974C122.643 156.444 114.29 159.839 112.194 160.258C109.517 160.794 102.668 161.541 100.78 163.429" fill="none" opacity="1" stroke="#4a6b5f" stroke-linecap="round" stroke-linejoin="round" stroke-opacity="0.511261" stroke-width="8.14522"/>
</g>
<g id="Ebene-1" vectornator:layerName="Ebene 1">
<path d="M75.6895 42.2169C83.2778 49.6444 80.6128 61.0804 75.4392 68.6763" fill="none" opacity="1" stroke="#eebf5b" stroke-linecap="round" stroke-linejoin="round" stroke-width="1.85252"/>
<path d="M93.1536 36.0267C98.7564 48.3658 100.991 59.9829 92.9033 71.8572" fill="none" opacity="1" stroke="#eebf5b" stroke-linecap="round" stroke-linejoin="round" stroke-width="1.85252"/>
<path d="M108.274 30.3709C115.58 46.4597 120.504 59.6382 109.776 75.3886" fill="none" opacity="1" stroke="#eebf5b" stroke-linecap="round" stroke-linejoin="round" stroke-width="1.85252"/>
<path d="M126.491 25.7159C131.593 31.0664 133.511 36.5214 135.251 42.8042C138.943 56.1307 135.421 67.4203 129.745 79.9209" fill="none" opacity="1" stroke="#eebf5b" stroke-linecap="round" stroke-linejoin="round" stroke-width="2.6489"/>
<path d="M125.045 27.6179C126.886 30.3212 129.103 32.9672 130.697 35.6981C132.577 38.9177 132.984 43.0647 133.375 46.5082C134.629 57.5576 132.771 68.6935 128.02 79.1567" fill="none" opacity="1" stroke="#eebf5b" stroke-linecap="round" stroke-linejoin="round" stroke-opacity="0.497746" stroke-width="5.8611"/>
<path d="M163.323 5.51176C163.323 18.9551 163.572 32.4787 163.572 45.9553C163.572 57.4035 163.617 68.8259 164.564 80.1959C165.196 87.7813 164.469 95.4673 165.308 103.023C166.218 111.207 164.64 119.684 165.805 127.835C165.91 128.573 165.999 129.313 166.074 130.054" fill="none" opacity="1" stroke="#daa987" stroke-linecap="round" stroke-linejoin="round" stroke-opacity="0.497747" stroke-width="6.02349"/>
<path d="M3.56406 76.8388C10.0435 76.8388 16.4063 76.547 22.8798 76.9278C28.2464 77.2435 33.5765 78.491 38.902 78.9751C44.5436 79.488 51.8933 80.6992 56.8826 83.6928" fill="none" opacity="1" stroke="#4a6b5f" stroke-linecap="round" stroke-linejoin="round" stroke-width="2.02222"/>
<path d="M57.4615 85.2073C56.104 87.9223 51.6815 88.8965 49.8516 91.4583C49.2268 92.333 49.0841 93.3795 48.4927 94.2667C47.5133 95.7358 45.8953 97.1669 45.3219 98.8869C44.9614 99.9686 44.7124 101.154 44.1442 102.148C42.5097 105.009 40.8682 107.549 39.5239 110.574C36.9162 116.441 38.8129 122.263 38.3462 128.33C38.2907 129.052 38.0832 129.739 37.8327 130.417" fill="none" opacity="1" stroke="#4a6b5f" stroke-linecap="round" stroke-linejoin="round" stroke-width="1.9286"/>
<path d="M56.4202 84.6941C52.895 88.2194 48.7466 87.4811 44.0614 88.1504C39.7002 88.7734 35.2106 89.0776 30.76 89.4072C28.0275 89.6096 25.3271 89.6578 22.5906 89.7214C19.0186 89.8045 15.5103 89.7581 12.0124 88.8836" fill="none" opacity="1" stroke="#4a6b5f" stroke-linecap="round" stroke-linejoin="round" stroke-width="2.02222"/>
<path d="M163.102 133.81C163.916 128.921 163.227 123.206 162.528 118.309C161.695 112.482 162.795 106.364 162.145 100.512C161.328 93.1635 163.19 85.4386 162.145 78.123C161.473 73.417 160.889 67.2049 161.571 62.4312C162.16 58.3079 161.079 53.8988 161.762 49.8012C162.174 47.3312 162.371 43.8849 161.954 41.3813C161.397 38.0421 162.425 34.3593 161.762 31.0477C160.654 25.5046 160.997 19.1239 160.997 13.4423C160.997 10.8269 160.083 5.72336 161.571 3.49139" fill="none" opacity="1" stroke="#daa987" stroke-linecap="round" stroke-linejoin="round" stroke-width="2.6489"/>
<path d="M52.8958 84.414C52.147 84.6012 51.5062 85.0699 50.7657 85.1933C46.0146 85.9852 40.899 85.7921 36.0626 86.0766C27.6737 86.57 19.3698 86.3883 10.9687 86.3883" fill="none" opacity="1" stroke="#4a6b5f" stroke-linecap="round" stroke-linejoin="round" stroke-opacity="0.495495" stroke-width="6.41928"/>
<path d="M43.3052 59.1405C44.9441 59.1405 46.5819 59.0526 48.2201 59.0039C52.808 58.8677 51.8453 58.2806 51.7698 62.2806C51.7574 62.9403 51.7698 63.6003 51.7698 64.2602C51.7698 64.9428 51.7698 65.6255 51.7698 66.3081C51.7698 67.2931 52.1978 71.3476 51.8381 72.247C51.7665 72.426 49.7921 72.7599 49.6537 72.7931C47.418 73.3297 45.0534 73.544 42.7591 73.544C42.6468 73.544 39.8237 73.3776 39.8237 73.2027C39.8237 72.7964 40.6355 70.489 40.7112 70.0626C41.2258 67.1622 41.4614 64.238 41.8716 61.3249C41.9093 61.0576 42.3495 57.7909 42.3495 58.0482" fill="none" opacity="1" stroke="#a3a3a3" stroke-linecap="round" stroke-linejoin="round" stroke-width="1.54963"/>
<path d="M43.0705 74.2598C42.4637 77.1724 42.4639 80.1794 42.1148 83.134C42.1038 83.2272 41.8417 83.1596 41.8417 83.0657" fill="none" opacity="1" stroke="#a3a3a3" stroke-linecap="round" stroke-linejoin="round" stroke-width="1.54963"/>
<path d="M48.7538 73.9817C48.2577 76.9584 49.2057 79.9928 49.4364 82.9924" fill="none" opacity="1" stroke="#a3a3a3" stroke-linecap="round" stroke-linejoin="round" stroke-width="1.54963"/>
<path d="M52.5556 62.3697C54.7746 59.98 56.9079 57.433 59.5184 55.4751" fill="none" opacity="1" stroke="#a3a3a3" stroke-linecap="round" stroke-linejoin="round" stroke-width="1.54963"/>
<path d="M36.7446 56.5914C35.5458 55.6924 39.3303 60.7473 40.4308 61.8477" fill="none" opacity="1" stroke="#a3a3a3" stroke-linecap="round" stroke-linejoin="round" stroke-width="1.54963"/>
<path d="M44.2101 60.9057C44.2101 64.2862 43.6693 67.6023 43.6693 70.9743" fill="none" opacity="1" stroke="#a3a3a3" stroke-linecap="round" stroke-linejoin="round" stroke-opacity="0.531532" stroke-width="5.94669"/>
<path d="M47.3058 48.6106C47.9314 48.2196 48.2745 48.1728 48.9082 48.2784C49.0393 48.3003 49.2986 48.3953 49.3967 48.4934C49.4619 48.5585 49.6843 48.6888 49.5922 48.6888C48.975 48.6888 48.3393 48.8451 47.7552 48.8451" fill="none" opacity="1" stroke="#d5694f" stroke-linecap="round" stroke-linejoin="round" stroke-opacity="0.513513" stroke-width="1.54963"/>
<path d="M45.8346 50.2029C45.344 51.3478 44.7018 56.1504 46.5801 56.4393C48.3818 56.7165 50.6164 52.8675 50.8165 51.3665C50.8988 50.7492 50.5984 50.2748 50.5984 49.7119" fill="none" opacity="1" stroke="#a3a3a3" stroke-linecap="round" stroke-linejoin="round" stroke-width="1.54963"/>
<path d="M51.0933 49.4829C51.0933 47.3997 48.326 45.7818 46.6769 47.431C46.4103 47.6975 45.4043 49.8128 45.6216 50.0301C45.6851 50.0936 46.5083 49.8907 46.5987 49.8737C47.3668 49.7297 48.2409 49.776 49.0219 49.776C49.9688 49.776 50.9098 49.6771 51.8554 49.6392C53.2378 49.5839 54.6265 49.2484 55.9983 49.2484" fill="none" opacity="1" stroke="#d5694f" stroke-linecap="round" stroke-linejoin="round" stroke-width="1.54963"/>
</g>
<g clip-path="url(#ArtboardFrame)" id="Ebene-4" vectornator:layerName="Ebene 4" visibility="hidden">
<path d="M169.061 208.893C168.457 209.347 167.72 209.66 167.244 210.246C166.929 210.634 166.947 211.2 166.821 211.684C165.918 215.145 171.008 216.237 172.739 213.121C173.907 211.019 171.223 207.27 169.061 208.893Z" fill="none" opacity="1" stroke="#a3a3a3" stroke-linecap="round" stroke-linejoin="round" stroke-width="1.54963"/>
<path d="M169.526 215.826C169.526 217.264 169.442 218.7 169.442 220.138" fill="none" opacity="1" stroke="#a3a3a3" stroke-linecap="round" stroke-linejoin="round" stroke-width="1.54963"/>
<path d="M169.442 220.307C171.455 218.294 174.447 217.162 176.459 215.15" fill="none" opacity="1" stroke="#a3a3a3" stroke-linecap="round" stroke-linejoin="round" stroke-width="1.54963"/>
<path d="M168.765 220.307C168.681 220.307 168.583 220.353 168.512 220.307C166.683 219.134 164.902 217.888 163.101 216.672C162.66 216.374 161.372 215.45 161.748 215.826" fill="none" opacity="1" stroke="#a3a3a3" stroke-linecap="round" stroke-linejoin="round" stroke-width="1.54963"/>
<path d="M168.934 221.068C168.934 222.929 168.85 224.788 168.85 226.648" fill="none" opacity="1" stroke="#a3a3a3" stroke-linecap="round" stroke-linejoin="round" stroke-width="1.54963"/>
<path d="M168.427 227.24C167.801 229.119 166.814 230.857 165.975 232.651C165.367 233.953 164.748 235.251 164.115 236.541C163.865 237.051 163.608 237.886 163.608 237.048" fill="none" opacity="1" stroke="#a3a3a3" stroke-linecap="round" stroke-linejoin="round" stroke-width="1.54963"/>
<path d="M168.765 227.071C168.765 227.128 168.744 227.188 168.765 227.24C169.704 229.587 170.619 231.945 171.64 234.258C172.099 235.297 172.386 236.587 173.331 237.217C173.405 237.266 173.387 237.048 173.416 236.963" fill="none" opacity="1" stroke="#a3a3a3" stroke-linecap="round" stroke-linejoin="round" stroke-width="1.54963"/>
<path d="M170.452 211.445C170.404 211.492 170.357 211.539 170.31 211.586" fill="none" opacity="1" stroke="#a3a3a3" stroke-linecap="round" stroke-linejoin="round" stroke-opacity="0.533783" stroke-width="5.94669"/>
<path d="M53.4451 211.666C53.3724 211.677 53.4694 211.42 53.4017 211.449C52.4759 211.846 51.4671 212.163 50.7164 212.835C48.4563 214.857 51.4273 219.002 53.9215 218.725C57.9062 218.283 57.931 210.949 53.4451 211.666Z" fill="none" opacity="1" stroke="#a3a3a3" stroke-linecap="round" stroke-linejoin="round" stroke-width="1.54963"/>
<path d="M52.6655 219.375C51.4101 218.478 49.5372 222.303 49.1572 223.316C47.739 227.098 47.6037 232.169 48.8974 236.05C49.2969 237.248 50.4947 239.488 51.9292 239.775C53.685 240.126 55.7753 235.166 56.2603 233.711C57.2245 230.818 58.162 223.658 56.087 221.064C55.2769 220.051 53.6175 220.055 52.6655 219.375Z" fill="none" opacity="1" stroke="#a3a3a3" stroke-linecap="round" stroke-linejoin="round" stroke-width="1.54963"/>
<path d="M82.8101 210.28C82.3162 210.913 81.0828 210.448 80.5146 211.016C78.5995 212.931 79.0559 218.051 82.5069 217.859C85.237 217.707 88.8835 212.619 86.2317 210.409C85.7133 209.978 83.4568 209.45 82.8101 210.28Z" fill="none" opacity="1" stroke="#a3a3a3" stroke-linecap="round" stroke-linejoin="round" stroke-width="1.54963"/>
<path d="M81.1643 218.725C79.6752 218.596 78.5248 222.52 78.349 223.663C77.7273 227.704 78.3526 230.593 83.0267 230.593C86.5124 230.593 88.2857 224.306 87.0113 221.757C86.2555 220.246 85.2261 219.099 83.5464 218.725C82.2888 218.446 81.3699 218.743 81.1643 218.725Z" fill="none" opacity="1" stroke="#a3a3a3" stroke-linecap="round" stroke-linejoin="round" stroke-width="1.54963"/>
<path d="M79.8216 230.939C78.8226 232.937 78.7284 235.271 78.1758 237.436C78.0492 237.931 77.6186 239.405 77.7427 238.908" fill="none" opacity="1" stroke="#a3a3a3" stroke-linecap="round" stroke-linejoin="round" stroke-width="1.54963"/>
<path d="M84.326 230.766C84.9514 233.58 85.6912 236.419 87.1845 238.908" fill="none" opacity="1" stroke="#a3a3a3" stroke-linecap="round" stroke-linejoin="round" stroke-width="1.54963"/>
<path d="M125.501 215.685C126.562 215.837 123.374 216.331 122.599 217.071C122.066 217.58 122.229 218.503 122.166 219.237C122.043 220.669 123.788 221.774 125.024 221.836C126.783 221.924 128.878 220.118 128.663 218.284C128.555 217.368 127.994 216.302 127.103 215.945C126.901 215.865 124.274 215.511 125.501 215.685Z" fill="none" opacity="1" stroke="#a3a3a3" stroke-linecap="round" stroke-linejoin="round" stroke-width="1.54963"/>
<path d="M123.985 222.225C123.859 222.326 123.598 222.287 123.552 222.442C122.727 225.23 121.808 227.999 121.213 230.844C120.883 232.422 123.703 234.56 125.024 234.483C126.061 234.422 126.999 233.183 127.536 232.404C129.471 229.598 130.131 226.469 128.229 223.481C127.387 222.158 125.452 221.047 123.985 222.225Z" fill="none" opacity="1" stroke="#a3a3a3" stroke-linecap="round" stroke-linejoin="round" stroke-width="1.54963"/>
<path d="M122.686 234.742C121.735 237.356 121.418 240.159 120.866 242.885C120.77 243.36 120.78 243.614 120.78 243.231" fill="none" opacity="1" stroke="#a3a3a3" stroke-linecap="round" stroke-linejoin="round" stroke-width="1.54963"/>
<path d="M125.284 235.522C124.8 237.458 126.176 239.416 126.757 241.326C127.041 242.26 127.401 243.171 127.71 244.098" fill="none" opacity="1" stroke="#a3a3a3" stroke-linecap="round" stroke-linejoin="round" stroke-width="1.54963"/>
<path d="M121.733 226.427C120.239 227.621 118.61 228.861 117.748 230.584" fill="none" opacity="1" stroke="#a3a3a3" stroke-linecap="round" stroke-linejoin="round" stroke-width="1.54963"/>
<path d="M129.096 226.773C130.831 227.641 132.403 228.824 134.206 229.545" fill="none" opacity="1" stroke="#a3a3a3" stroke-linecap="round" stroke-linejoin="round" stroke-width="1.54963"/>
<path d="M248.411 199.751C247.468 201.166 247.278 202.981 247.046 204.666C246.899 205.726 247.006 206.818 247.182 207.874C247.363 208.959 249.272 208.439 249.776 208.079C251.448 206.885 252.78 204.768 252.78 202.686C252.78 201.192 251.963 198.725 250.118 199.956" fill="none" opacity="1" stroke="#a3a3a3" stroke-linecap="round" stroke-linejoin="round" stroke-width="1.54963"/>
<path d="M245.203 213.881C246.842 213.881 248.479 213.793 250.118 213.745C254.705 213.609 253.743 213.021 253.667 217.021C253.655 217.681 253.667 218.341 253.667 219.001C253.667 219.684 253.667 220.366 253.667 221.049C253.667 222.034 254.095 226.088 253.736 226.988C253.664 227.167 251.69 227.501 251.551 227.534C249.316 228.071 246.951 228.285 244.657 228.285C244.544 228.285 241.721 228.118 241.721 227.944C241.721 227.537 242.533 225.23 242.609 224.803C243.123 221.903 243.359 218.979 243.769 216.066C243.807 215.798 244.247 212.532 244.247 212.789" fill="none" opacity="1" stroke="#a3a3a3" stroke-linecap="round" stroke-linejoin="round" stroke-width="1.54963"/>
<path d="M243.769 234.77C243.162 237.683 243.163 240.689 242.813 243.644C242.802 243.737 242.54 243.67 242.54 243.576" fill="none" opacity="1" stroke="#a3a3a3" stroke-linecap="round" stroke-linejoin="round" stroke-width="1.54963"/>
<path d="M249.64 235.316C249.144 238.293 250.092 241.327 250.322 244.327" fill="none" opacity="1" stroke="#a3a3a3" stroke-linecap="round" stroke-linejoin="round" stroke-width="1.54963"/>
<path d="M257.9 215.724C260.119 213.335 262.252 210.788 264.862 208.83" fill="none" opacity="1" stroke="#a3a3a3" stroke-linecap="round" stroke-linejoin="round" stroke-width="1.54963"/>
<path d="M233.734 210.059C232.536 209.16 236.32 214.214 237.421 215.315" fill="none" opacity="1" stroke="#a3a3a3" stroke-linecap="round" stroke-linejoin="round" stroke-width="1.54963"/>
<path d="M199.354 213.2C199.354 215.969 201.254 218.402 202.243 220.989C203.307 223.771 204.43 226.498 205.509 229.28C206.051 230.677 206.523 232.064 207.142 233.425C207.329 233.836 207.394 235.057 207.645 234.681C208.785 232.97 209.409 230.759 210.283 228.903C212.09 225.063 213.99 221.241 215.936 217.471C216.608 216.17 217.233 215.127 218.071 213.954C218.18 213.802 218.426 213.607 218.322 213.452C218.132 213.167 214.887 213.912 214.554 213.954C210.88 214.413 207.069 213.468 203.374 213.326C201.614 213.258 200.06 212.836 198.349 212.572C198.14 212.54 196.332 212.387 196.967 212.07" fill="none" opacity="1" stroke="#a3a3a3" stroke-linecap="round" stroke-linejoin="round" stroke-width="1.54963"/>
<path d="M206.074 204.784C206.394 204.493 207.021 203.367 206.891 203.779C206.37 205.425 204.633 206.844 204.881 208.552C205.089 209.988 206.691 210.987 208.022 211.567C209.843 212.361 212.046 207.415 211.539 206.04C210.774 203.963 206.911 203.352 205.509 205.035C205.377 205.193 205.922 204.922 206.074 204.784Z" fill="none" opacity="1" stroke="#a3a3a3" stroke-linecap="round" stroke-linejoin="round" stroke-width="1.54963"/>
<path d="M211.486 232.143C212.217 235.433 213.22 238.658 214.167 241.893C214.301 242.349 214.419 242.82 214.654 243.233C214.735 243.374 214.654 242.908 214.654 242.746" fill="none" opacity="1" stroke="#a3a3a3" stroke-linecap="round" stroke-linejoin="round" stroke-width="1.54963"/>
<path d="M203.442 231.412C203.28 231.452 203.032 231.385 202.955 231.534C201.908 233.551 201.082 235.675 200.152 237.749C199.497 239.209 198.849 240.673 198.202 242.136C198.188 242.169 197.295 243.653 197.958 242.989" fill="none" opacity="1" stroke="#a3a3a3" stroke-linecap="round" stroke-linejoin="round" stroke-width="1.54963"/>
</g>
</svg>
