<?xml version="1.0" encoding="UTF-8" standalone="no"?>
<!DOCTYPE svg PUBLIC "-//W3C//DTD SVG 1.1//EN" "http://www.w3.org/Graphics/SVG/1.1/DTD/svg11.dtd">
<!-- Created with Vectornator (http://vectornator.io/) -->
<svg height="100%" stroke-miterlimit="10" style="fill-rule:nonzero;clip-rule:evenodd;stroke-linecap:round;stroke-linejoin:round;" version="1.1" viewBox="0 0 48.195 62.37" width="100%" xml:space="preserve" xmlns="http://www.w3.org/2000/svg" xmlns:vectornator="http://vectornator.io" xmlns:xlink="http://www.w3.org/1999/xlink">
<defs/>
<path d="M0 0L48.195 0L48.195 62.37L0 62.37L0 0Z" fill="#ffffff" fill-rule="nonzero" opacity="1" stroke="none"/>
<g id="Ebene-1" vectornator:layerName="Ebene 1">
<path d="M27.2344 10.9952C29.3942 10.4986 31.6138 10.2316 33.7968 9.83877C34.7595 9.66554 35.8324 9.25914 36.8225 9.44125" fill="none" opacity="1" stroke="#f6deaa" stroke-linecap="round" stroke-linejoin="round" stroke-opacity="0.513625" stroke-width="4.29779" vectornator:layerName="Kurve 28"/>
<g opacity="1" vectornator:layerName="Gruppieren 1">
<path d="M20.8684 34.3018C22.5074 34.3018 24.1451 34.2139 25.7834 34.1653C30.3712 34.029 29.4085 33.442 29.3331 37.4419C29.3206 38.1017 29.3331 38.7617 29.3331 39.4215C29.3331 40.1042 29.3331 40.7868 29.3331 41.4694C29.3331 42.4545 29.7611 46.509 29.4013 47.4083C29.3297 47.5873 27.3554 47.9212 27.2169 47.9544C24.9813 48.491 22.6166 48.7053 20.3223 48.7053C20.2101 48.7053 17.387 48.5389 17.387 48.364C17.387 47.9577 18.1988 45.6503 18.2744 45.2239C18.789 42.3235 19.0246 39.3993 19.4349 36.4862C19.4725 36.219 19.9127 32.9523 19.9127 33.2096" fill="none" opacity="1" stroke="#a3a3a3" stroke-linecap="round" stroke-linejoin="round" stroke-width="1.54963" vectornator:layerName="Kurve 1"/>
<path d="M21.2325 49.4211C20.7329 50.9998 20.51 52.6069 20.3224 54.2179" fill="none" opacity="1" stroke="#a3a3a3" stroke-linecap="round" stroke-linejoin="round" stroke-width="1.54963" vectornator:layerName="Kurve 15"/>
<path d="M26.317 49.143C26.0477 50.7589 26.2039 52.3917 26.44 54.0267" fill="none" opacity="1" stroke="#a3a3a3" stroke-linecap="round" stroke-linejoin="round" stroke-width="1.54963" vectornator:layerName="Kurve 14"/>
<path d="M16.5379 43.7684C18.7569 41.3786 20.8902 38.8317 23.5008 36.8738" fill="none" opacity="1" stroke="#a3a3a3" stroke-linecap="round" stroke-linejoin="round" stroke-width="1.54963" vectornator:layerName="Kurve 4"/>
<path d="M29.5453 40.8476C30.9407 40.8255 32.3347 40.733 33.7968 40.9502" fill="none" opacity="1" stroke="#a3a3a3" stroke-linecap="round" stroke-linejoin="round" stroke-width="1.54963" vectornator:layerName="Kurve 10"/>
<path d="M23.1255 44.0488C24.5499 43.5839 18.2383 43.7787 16.7054 44.0475" fill="none" opacity="1" stroke="#a3a3a3" stroke-linecap="round" stroke-linejoin="round" stroke-width="1.54963" vectornator:layerName="Kurve 5"/>
<path d="M21.7734 36.067C21.7734 39.4475 21.2325 42.7636 21.2325 46.1356" fill="none" opacity="1" stroke="#a3a3a3" stroke-linecap="round" stroke-linejoin="round" stroke-opacity="0.531532" stroke-width="5.94669" vectornator:layerName="Kurve 6"/>
<path d="M24.869 23.772C25.4946 23.3809 25.8377 23.3341 26.4714 23.4397C26.6025 23.4616 26.8619 23.5566 26.96 23.6547C27.0251 23.7198 27.2475 23.8501 27.1554 23.8501C26.5383 23.8501 25.9025 24.0065 25.3185 24.0065" fill="none" opacity="1" stroke="#d5694f" stroke-linecap="round" stroke-linejoin="round" stroke-opacity="0.513513" stroke-width="1.54963" vectornator:layerName="Kurve 7"/>
<path d="M23.3979 25.3642C22.9072 26.5091 22.2651 31.3117 24.1434 31.6006C25.945 31.8778 28.1797 28.0288 28.3798 26.5278C28.4621 25.9105 28.1616 25.4361 28.1616 24.8733" fill="none" opacity="1" stroke="#a3a3a3" stroke-linecap="round" stroke-linejoin="round" stroke-width="1.54963" vectornator:layerName="Kurve 8"/>
<path d="M28.6565 24.6442C28.6565 22.561 25.8893 20.9432 24.2401 22.5923C23.9736 22.8589 22.9676 24.9741 23.1848 25.1914C23.2483 25.2549 24.0716 25.052 24.1619 25.0351C24.9301 24.891 25.8041 24.9373 26.5851 24.9373C27.5321 24.9373 28.473 24.8384 29.4187 24.8006C30.801 24.7453 32.1898 24.4097 33.5615 24.4097" fill="none" opacity="1" stroke="#d5694f" stroke-linecap="round" stroke-linejoin="round" stroke-width="1.54963" vectornator:layerName="Kurve 9"/>
<path d="M20.0539 54.2913C19.2078 55.5604 17.7847 56.8143 16.4984 57.6718" fill="none" opacity="1" stroke="#a3a3a3" stroke-linecap="round" stroke-linejoin="round" stroke-width="1.54963" vectornator:layerName="Kurve 16"/>
<path d="M26.407 54.1747C26.02 55.3358 24.8333 56.9342 24.8333 58.1381" fill="none" opacity="1" stroke="#a3a3a3" stroke-linecap="round" stroke-linejoin="round" stroke-width="1.54963" vectornator:layerName="Kurve 17"/>
<path d="M11.0779 34.7073C12.3603 34.7073 13.6425 34.6742 14.9247 34.649" fill="none" opacity="1" stroke="#d1d1d1" stroke-linecap="round" stroke-linejoin="round" stroke-width="1.54963" vectornator:layerName="Kurve 18"/>
<path d="M13.1762 36.6308C14.0504 36.6308 14.9247 36.6308 15.799 36.6308" fill="none" opacity="1" stroke="#d1d1d1" stroke-linecap="round" stroke-linejoin="round" stroke-width="1.54963" vectornator:layerName="Kurve 19"/>
<path d="M10.495 38.9622C11.7785 38.9622 13.0586 38.8456 14.3419 38.8456" fill="none" opacity="1" stroke="#d1d1d1" stroke-linecap="round" stroke-linejoin="round" stroke-width="1.54963" vectornator:layerName="Kurve 20"/>
</g>
<path d="M22.4011 5.6106C23.8876 6.29415 25.2655 7.18605 26.645 8.03186C27.209 8.37763 28.007 8.56164 28.4919 9.00759" fill="none" opacity="1" stroke="#eebf5b" stroke-linecap="round" stroke-linejoin="round" stroke-width="1" vectornator:layerName="Kurve 21"/>
<path d="M28.4919 8.93532C27.0032 10.3044 25.4806 11.6685 24.0122 13.0189" fill="none" opacity="1" stroke="#eebf5b" stroke-linecap="round" stroke-linejoin="round" stroke-width="1" vectornator:layerName="Kurve 22"/>
<path d="M24.3659 13.0551C28.7708 12.2449 33.1614 11.3361 37.5691 10.5254C38.6835 10.3204 39.7715 10.0994 40.8699 9.87491C41.5988 9.72595 42.5627 9.81928 43.2277 9.51353" fill="none" opacity="1" stroke="#eebf5b" stroke-linecap="round" stroke-linejoin="round" stroke-width="1" vectornator:layerName="Kurve 23"/>
<path d="M22.7548 5.24922C24.8236 5.24922 26.9255 6.07357 28.9634 6.3695C32.0305 6.81487 35.0242 7.62932 38.08 8.14028C39.6047 8.39524 41.8471 8.62574 43.2277 9.26056" fill="none" opacity="1" stroke="#eebf5b" stroke-linecap="round" stroke-linejoin="round" stroke-width="1" vectornator:layerName="Kurve 24"/>
<path d="M43.2277 9.36898C38.3019 9.36898 33.3797 9.15215 28.4526 9.15215" fill="none" opacity="1" stroke="#eebf5b" stroke-linecap="round" stroke-linejoin="round" stroke-width="1" vectornator:layerName="Kurve 25"/>
<path d="M22.4404 5.71902C22.8461 5.90555 25.5572 8.92202 25.8591 9.47739" fill="none" opacity="1" stroke="#eebf5b" stroke-linecap="round" stroke-linejoin="round" stroke-width="1" vectornator:layerName="Kurve 26"/>
<path d="M25.7805 9.54967C25.2288 10.5645 24.55 11.5658 24.0908 12.6214" fill="none" opacity="1" stroke="#eebf5b" stroke-linecap="round" stroke-linejoin="round" stroke-width="1" vectornator:layerName="Kurve 27"/>
<path d="M11.2138 7.49245C11.2138 7.41651 11.1381 7.27093 11.2138 7.26463C13.3352 7.08784 15.4659 7.04803 17.5928 6.96086C18.5543 6.92146 19.5167 6.91024 20.4786 6.88492" fill="none" opacity="1" stroke="#f6deaa" stroke-linecap="round" stroke-linejoin="round" stroke-width="1" vectornator:layerName="Kurve 29"/>
<path d="M14.1755 9.46693C13.438 9.46693 14.6949 9.54807 14.8589 9.54287C16.3526 9.49545 17.8461 9.44629 19.3395 9.39099C20.023 9.36567 20.706 9.31504 21.3899 9.31504" fill="none" opacity="1" stroke="#f6deaa" stroke-linecap="round" stroke-linejoin="round" stroke-width="1" vectornator:layerName="Kurve 30"/>
<path d="M11.5175 12.8843C14.4324 12.8843 17.3424 12.4432 20.2508 12.2008" fill="none" opacity="1" stroke="#f6deaa" stroke-linecap="round" stroke-linejoin="round" stroke-width="1" vectornator:layerName="Kurve 31"/>
</g>
</svg>
