<?xml version="1.0" encoding="UTF-8" standalone="no"?>
<!DOCTYPE svg PUBLIC "-//W3C//DTD SVG 1.1//EN" "http://www.w3.org/Graphics/SVG/1.1/DTD/svg11.dtd">
<!-- Created with Vectornator (http://vectornator.io/) -->
<svg height="100%" stroke-miterlimit="10" style="fill-rule:nonzero;clip-rule:evenodd;stroke-linecap:round;stroke-linejoin:round;" version="1.1" viewBox="0 0 326.025 255.15" width="100%" xml:space="preserve" xmlns="http://www.w3.org/2000/svg" xmlns:vectornator="http://vectornator.io" xmlns:xlink="http://www.w3.org/1999/xlink">
<defs/>
<g id="Ebene-2" vectornator:layerName="Ebene 2">
<path d="M23.2513 184.763L287.12 185.337" fill="none" opacity="1" stroke="#a3a3a3" stroke-linecap="butt" stroke-linejoin="round" stroke-opacity="0.197404" stroke-width="0.579909"/>
<path d="M22.2952 147.477L286.164 148.051" fill="none" opacity="1" stroke="#a3a3a3" stroke-linecap="butt" stroke-linejoin="round" stroke-opacity="0.197404" stroke-width="0.579909"/>
<path d="M23.2513 109.618L287.12 110.191" fill="none" opacity="1" stroke="#a3a3a3" stroke-linecap="butt" stroke-linejoin="round" stroke-opacity="0.197404" stroke-width="0.579909"/>
<path d="M22.6776 72.9056L286.547 73.4792" fill="none" opacity="1" stroke="#a3a3a3" stroke-linecap="butt" stroke-linejoin="round" stroke-opacity="0.197404" stroke-width="0.579909"/>
<path d="M22.8689 34.8549L286.738 35.4285" fill="none" opacity="1" stroke="#a3a3a3" stroke-linecap="butt" stroke-linejoin="round" stroke-opacity="0.197404" stroke-width="0.579909"/>
<path d="M64.8973 227.707L66.2358 25.0248" fill="none" opacity="1" stroke="#a3a3a3" stroke-linecap="butt" stroke-linejoin="round" stroke-opacity="0.197404" stroke-width="0.579909"/>
<path d="M102.374 227.707L103.713 25.0248" fill="none" opacity="1" stroke="#a3a3a3" stroke-linecap="butt" stroke-linejoin="round" stroke-opacity="0.197404" stroke-width="0.579909"/>
<path d="M140.043 227.707L141.381 25.0248" fill="none" opacity="1" stroke="#a3a3a3" stroke-linecap="butt" stroke-linejoin="round" stroke-opacity="0.197404" stroke-width="0.579909"/>
<path d="M178.052 227.707L179.391 25.0248" fill="none" opacity="1" stroke="#a3a3a3" stroke-linecap="butt" stroke-linejoin="round" stroke-opacity="0.197404" stroke-width="0.579909"/>
<path d="M215.415 227.707L216.753 25.0248" fill="none" opacity="1" stroke="#a3a3a3" stroke-linecap="butt" stroke-linejoin="round" stroke-opacity="0.197404" stroke-width="0.579909"/>
<path d="M252.777 227.707L254.116 25.0248" fill="none" opacity="1" stroke="#a3a3a3" stroke-linecap="butt" stroke-linejoin="round" stroke-opacity="0.197404" stroke-width="0.579909"/>
<path d="M215.87 110.312L178.303 110.538" fill="none" opacity="1" stroke="#2e6777" stroke-linecap="butt" stroke-linejoin="round" stroke-width="3.19853"/>
<g opacity="1">
<path d="M28.5922 20.11C28.6356 32.4168 29.307 222.928 29.307 222.928" fill="none" stroke="#a3a3a3" stroke-linecap="butt" stroke-linejoin="round" stroke-width="2.6489"/>
<g fill="#a3a3a3" stroke="none">
<path d="M37.5905 27.6278L29.6097 17.9432L28.5802 16.694L27.5596 17.9504L19.6471 27.691C19.1859 28.2588 19.2723 29.0929 19.8401 29.5541C20.4078 30.0153 21.242 29.9289 21.7032 29.3612L29.6156 19.6206L27.5655 19.6278L35.5463 29.3124C36.0115 29.8769 36.8463 29.9574 37.4107 29.4922C37.9752 29.027 38.0557 28.1923 37.5905 27.6278Z" fill="#a3a3a3"/>
</g>
</g>
<g opacity="1">
<path d="M285.014 223.321C270.848 223.321 28.8894 223.321 28.8894 223.321" fill="none" stroke="#a3a3a3" stroke-linecap="butt" stroke-linejoin="round" stroke-width="2.6489"/>
<g fill="#a3a3a3" stroke="none">
<path d="M277.465 232.293L287.178 224.346L288.43 223.321L287.178 222.296L277.465 214.349C276.899 213.886 276.064 213.969 275.601 214.535C275.138 215.101 275.221 215.936 275.788 216.399L285.5 224.346L285.5 222.296L275.788 230.242C275.221 230.706 275.138 231.54 275.601 232.106C276.064 232.672 276.899 232.756 277.465 232.293Z" fill="#a3a3a3"/>
</g>
</g>
<path d="M61.5596 234.515C61.4771 234.557 61.2694 234.721 61.3122 234.639C61.801 233.706 62.3004 232.77 62.92 231.918C63.4199 231.231 64.1387 229.93 64.8989 230.31C65.4484 230.585 65.2437 237.75 65.641 239.339" fill="none" opacity="1" stroke="#eebf5b" stroke-linecap="round" stroke-linejoin="round" stroke-width="2.09926"/>
<path d="M103.754 73.0981L29.0007 147.324" fill="none" opacity="1" stroke="#2e6777" stroke-linecap="butt" stroke-linejoin="round" stroke-width="3.19853"/>
<path d="M102.917 72.7494L140.647 185.268" fill="none" opacity="1" stroke="#2e6777" stroke-linecap="butt" stroke-linejoin="round" stroke-width="3.19853"/>
<path d="M215.29 109.801L253.234 147.665" fill="none" opacity="1" stroke="#2e6777" stroke-linecap="butt" stroke-linejoin="round" stroke-width="3.19853"/>
<path d="M100.395 231.424C100.395 231.341 100.316 231.199 100.395 231.176C101.53 230.852 102.679 230.372 103.858 230.434C105.005 230.494 105.144 231.418 105.218 232.166C105.513 235.108 100.89 237.768 100.89 239.834C100.89 240.214 101.634 239.679 102.003 239.586C102.489 239.465 102.986 239.363 103.487 239.339C104.963 239.269 106.461 239.339 107.939 239.339" fill="none" opacity="1" stroke="#eebf5b" stroke-linecap="round" stroke-linejoin="round" stroke-width="2.09926"/>
<path d="M137.499 232.66C138.298 230.663 143.202 228.781 144.054 231.052C144.457 232.128 143.068 233.294 142.322 233.773C141.817 234.098 140.054 234.537 140.591 234.268C141.957 233.585 144.505 234.572 143.806 236.494C143.427 237.537 140.963 239.628 139.725 239.215C139.237 239.053 138.425 237.451 138.117 236.989" fill="none" opacity="1" stroke="#eebf5b" stroke-linecap="round" stroke-linejoin="round" stroke-width="2.09926"/>
<path d="M178.189 229.321C178.189 229.653 174.845 235.377 176.21 236.618C176.827 237.179 183.623 235.134 182.394 235.134" fill="none" opacity="1" stroke="#eebf5b" stroke-linecap="round" stroke-linejoin="round" stroke-width="2.09926"/>
<path d="M181.405 229.692C180.803 232.1 180.97 234.637 180.786 237.113C180.71 238.144 180.613 239.173 180.539 240.205C180.539 240.205 180.539 241.002 180.539 240.328" fill="none" opacity="1" stroke="#eebf5b" stroke-linecap="round" stroke-linejoin="round" stroke-width="2.09926"/>
<path d="M214.922 230.187C210.088 234.054 216.926 232.801 216.282 236.989C215.941 239.206 212.077 241.697 212.077 237.484" fill="none" opacity="1" stroke="#eebf5b" stroke-linecap="round" stroke-linejoin="round" stroke-width="2.09926"/>
<path d="M213.932 232.042C214.262 231.382 215.19 231.206 215.911 231.052C217.212 230.776 218.546 230.693 219.869 230.558C220.219 230.522 221.733 230.168 221.477 230.681" fill="none" opacity="1" stroke="#eebf5b" stroke-linecap="round" stroke-linejoin="round" stroke-width="2.09926"/>
<path d="M255.983 229.816C255.901 229.774 255.812 229.64 255.736 229.692C254.698 230.41 253.551 231.052 252.768 232.042C251.908 233.128 250.066 236.486 251.283 238.226C253.082 240.795 257.625 238.428 256.725 236.989C255.603 235.193 253.108 235.959 252.149 237.236" fill="none" opacity="1" stroke="#eebf5b" stroke-linecap="round" stroke-linejoin="round" stroke-width="2.09926"/>
<path d="M5.00718 186.232C5.34892 185.677 5.61363 185.066 6.03239 184.566C6.94434 183.478 7.95552 182.474 8.97988 181.491C9.04151 181.431 9.19797 181.414 9.23618 181.491C9.43071 181.88 9.23618 183.866 9.23618 184.054C9.23618 186.726 8.97988 189.344 8.97988 191.999" fill="none" opacity="1" stroke="#eebf5b" stroke-linecap="round" stroke-linejoin="round" stroke-width="2.09926"/>
<path d="M14.5545 183.733C14.7576 183.553 15.2294 182.903 15.1311 183.156C14.6338 184.439 13.5596 185.515 13.337 186.873C13.0951 188.349 13.5511 191.999 15.003 191.999C17.7485 191.999 19.2714 186.796 18.4631 184.694C17.6557 182.595 15.3749 182.785 13.9778 184.182C13.8056 184.354 14.3725 183.895 14.5545 183.733Z" fill="none" opacity="1" stroke="#eebf5b" stroke-linecap="round" stroke-linejoin="round" stroke-width="2.09926"/>
<path d="M5.64794 147.402C5.25411 147.402 5.54307 146.406 5.90424 146.249C7.09569 145.731 9.58764 145.6 9.74879 146.89C10.0122 148.997 6.88426 152.704 6.03239 154.322C5.83645 154.695 5.16973 155.242 5.51979 155.476C5.89958 155.729 12.2264 154.963 10.9021 154.963" fill="none" opacity="1" stroke="#eebf5b" stroke-linecap="round" stroke-linejoin="round" stroke-width="2.09926"/>
<path d="M15.1952 147.338C16.4311 146.335 14.1747 148.349 14.1059 148.556C13.5915 150.099 13.174 154.48 16.0282 154.194C18.886 153.908 19.5189 149.924 17.9505 148.171C17.6892 147.879 15.1015 145.848 14.4904 147.274C14.3975 147.491 15.012 147.487 15.1952 147.338Z" fill="none" opacity="1" stroke="#eebf5b" stroke-linecap="round" stroke-linejoin="round" stroke-width="2.09926"/>
<path d="M5.39164 107.419C4.7206 106.412 6.91827 105.312 8.08282 104.984C8.55168 104.852 8.94816 105.488 9.23618 105.881C10.8777 108.12 6.94491 108.654 6.545 109.854C6.3554 110.423 7.74419 109.908 8.33912 109.982C9.70611 110.153 10.8986 111.028 10.6458 112.545C10.2057 115.186 6.90684 114.648 5.26348 113.827" fill="none" opacity="1" stroke="#eebf5b" stroke-linecap="round" stroke-linejoin="round" stroke-width="2.09926"/>
<path d="M15.5156 106.714C15.6609 106.416 16.0372 105.554 15.7719 105.753C14.9489 106.37 14.0526 107.086 13.7215 108.06C12.9413 110.354 13.662 114.57 15.6438 113.827C17.4497 113.149 18.2109 110.465 17.6942 108.829C17.0164 106.682 14.9085 107.96 15.5156 106.714Z" fill="none" opacity="1" stroke="#eebf5b" stroke-linecap="round" stroke-linejoin="round" stroke-width="2.09926"/>
<path d="M6.68733 68.6121C5.66543 70.3152 2.88258 73.9813 3.34773 75.6093C3.40996 75.8272 7.28909 75.2136 7.6415 75.1322C8.24412 74.9932 8.70142 74.7613 9.23179 74.4961" fill="none" opacity="1" stroke="#eebf5b" stroke-linecap="round" stroke-linejoin="round" stroke-width="2.09926"/>
<path d="M179.496 109.914L140.319 185.932" fill="none" opacity="1" stroke="#2e6777" stroke-linecap="butt" stroke-linejoin="round" stroke-width="3.19853"/>
<path d="M10.0269 69.4072C8.22075 72.1165 8.11859 76.8792 8.11859 80.0621" fill="none" opacity="1" stroke="#eebf5b" stroke-linecap="round" stroke-linejoin="round" stroke-width="2.09926"/>
<path d="M14.5593 71.236C14.3012 71.0979 14.5785 70.0858 14.4797 70.3614C13.8851 72.0201 13.1234 73.6898 13.0485 75.4503C13.0112 76.327 13.6428 77.1281 14.1617 77.8357C15.3333 79.4334 17.774 73.5628 17.8193 72.7468C17.985 69.7658 15.8349 71.919 14.5593 71.236Z" fill="none" opacity="1" stroke="#eebf5b" stroke-linecap="round" stroke-linejoin="round" stroke-width="2.09926"/>
<path d="M9.23179 34.2619C9.12577 34.1559 9.01975 33.8378 8.91373 33.9438C8.16406 34.6935 6.83789 35.4414 7.00539 36.4883C7.15273 37.4091 10.7066 37.6798 10.345 39.6688C9.81678 42.574 6.9446 42.4706 5.25607 40.782" fill="none" opacity="1" stroke="#eebf5b" stroke-linecap="round" stroke-linejoin="round" stroke-width="2.09926"/>
<path d="M7.00539 34.898C8.60285 34.3655 10.242 34.2619 11.9353 34.2619" fill="none" opacity="1" stroke="#eebf5b" stroke-linecap="round" stroke-linejoin="round" stroke-width="2.09926"/>
<path d="M15.752 34.2619C14.7376 34.5415 13.7659 35.3558 13.3665 36.3292C12.9213 37.4145 12.3951 41.2151 14.4797 41.7362C20.1493 43.1536 20.9934 32.8172 15.752 34.2619Z" fill="none" opacity="1" stroke="#eebf5b" stroke-linecap="round" stroke-linejoin="round" stroke-width="2.09926"/>
<path d="M23.8331 5.67512C23.3525 5.31467 20.8411 5.25311 21.2678 6.39101C21.6723 7.46963 24.2907 7.55963 23.5348 9.37387C22.894 10.9118 19.8957 10.298 19.8957 9.61249" fill="none" opacity="1" stroke="#eebf5b" stroke-linecap="round" stroke-linejoin="round" stroke-width="1.54963"/>
<path d="M29.6795 2.93089C29.351 2.52032 28.4062 1.73028 27.9494 2.09569C27.9036 2.13239 28.0091 3.92292 28.0091 4.36267C28.0091 5.52677 27.5591 10.3341 28.1284 11.2829C28.2022 11.4059 30.8296 11.147 30.9919 10.9846" fill="none" opacity="1" stroke="#eebf5b" stroke-linecap="round" stroke-linejoin="round" stroke-width="1.54963"/>
<path d="M32.6027 5.37684C32.6027 5.13414 32.6632 8.53894 33.0203 8.65798C33.1468 8.70016 33.1693 8.43002 33.1993 8.30004C33.2951 7.88453 33.994 5.3518 34.3327 5.43649C35.1009 5.62854 34.9535 8.40538 35.2276 8.35969C36.0259 8.22664 35.8082 5.52332 36.719 5.67512C37.3774 5.78486 37.2681 8.49483 37.6735 8.35969" fill="none" opacity="1" stroke="#eebf5b" stroke-linecap="round" stroke-linejoin="round" stroke-width="1.54963"/>
<path d="M37.9122 2.69227C37.6175 2.49581 41.2165 1.94498 41.6109 2.93089C41.9812 3.85652 41.8665 5.82294 42.0285 6.74895C42.4102 8.92988 43.72 10.86 41.074 11.5215C40.547 11.6533 39.9974 11.7147 39.4633 11.5812" fill="none" opacity="1" stroke="#eebf5b" stroke-linecap="round" stroke-linejoin="round" stroke-width="1.54963"/>
<path d="M296.825 218.539C297.522 219.586 296.676 221.051 296.524 222.299C296.131 225.524 296.166 228.364 300.133 225.984" fill="none" opacity="1" stroke="#eebf5b" stroke-linecap="round" stroke-linejoin="round" stroke-width="1.54963"/>
<path d="M294.794 222.75C294.744 222.75 294.594 222.754 294.644 222.75C295.396 222.697 296.147 222.626 296.9 222.6C297.723 222.571 298.611 222.6 299.457 222.6" fill="none" opacity="1" stroke="#eebf5b" stroke-linecap="round" stroke-linejoin="round" stroke-width="1.54963"/>
<path d="M309.157 217.863C308.233 217.4 307.176 217.225 306.149 217.111C306.146 217.11 306.339 218.538 306.375 218.765C306.589 220.12 306.56 219.529 306.6 221.322C306.665 224.228 304.72 229.117 309.383 227.563" fill="none" opacity="1" stroke="#eebf5b" stroke-linecap="round" stroke-linejoin="round" stroke-width="1.54963"/>
<path d="M314.12 221.021C313.79 220.361 312.524 220.947 311.939 221.397C311.052 222.079 314.306 223.307 314.12 224.33C313.952 225.252 310.8 225.191 310.962 224.706" fill="none" opacity="1" stroke="#eebf5b" stroke-linecap="round" stroke-linejoin="round" stroke-width="1.54963"/>
<path d="M315.473 218.163C315.647 218.033 319.384 217.792 319.384 218.239C319.384 218.766 318.975 219.486 318.933 220.043C318.755 222.354 319.087 224.878 319.534 227.112C319.716 228.019 316.108 228.056 316.376 227.789" fill="none" opacity="1" stroke="#eebf5b" stroke-linecap="round" stroke-linejoin="round" stroke-width="1.54963"/>
</g>
<g id="Ebene-1" vectornator:layerName="Ebene 1"/>
</svg>
