<?xml version="1.0" encoding="UTF-8" standalone="no"?>
<!DOCTYPE svg PUBLIC "-//W3C//DTD SVG 1.1//EN" "http://www.w3.org/Graphics/SVG/1.1/DTD/svg11.dtd">
<!-- Created with Vectornator (http://vectornator.io/) -->
<svg height="100%" stroke-miterlimit="10" style="fill-rule:nonzero;clip-rule:evenodd;stroke-linecap:round;stroke-linejoin:round;" version="1.1" viewBox="0 0 326.025 255.15" width="100%" xml:space="preserve" xmlns="http://www.w3.org/2000/svg" xmlns:vectornator="http://vectornator.io" xmlns:xlink="http://www.w3.org/1999/xlink">
<defs/>
<g id="Ebene-2" vectornator:layerName="Ebene 2">
<path d="M32.0237 3.58282L106.595 3.58282L106.595 228.445L32.0237 228.445L32.0237 3.58282Z" fill="#e9b0a2" fill-opacity="0.215734" fill-rule="nonzero" opacity="1" stroke="none"/>
<path d="M218.991 3.9505L256.059 3.9505L256.059 228.813L218.991 228.813L218.991 3.9505Z" fill="#e9b0a2" fill-opacity="0.215734" fill-rule="nonzero" opacity="1" stroke="none"/>
<path d="M25.905 189.821L289.774 190.395" fill="none" opacity="1" stroke="#a3a3a3" stroke-linecap="butt" stroke-linejoin="round" stroke-opacity="0.197404" stroke-width="0.579909"/>
<path d="M24.9489 152.535L288.818 153.109" fill="none" opacity="1" stroke="#a3a3a3" stroke-linecap="butt" stroke-linejoin="round" stroke-opacity="0.197404" stroke-width="0.579909"/>
<path d="M25.905 114.676L289.774 115.249" fill="none" opacity="1" stroke="#a3a3a3" stroke-linecap="butt" stroke-linejoin="round" stroke-opacity="0.197404" stroke-width="0.579909"/>
<path d="M25.3313 77.9633L289.201 78.537" fill="none" opacity="1" stroke="#a3a3a3" stroke-linecap="butt" stroke-linejoin="round" stroke-opacity="0.197404" stroke-width="0.579909"/>
<path d="M25.5226 39.9126L289.392 40.4863" fill="none" opacity="1" stroke="#a3a3a3" stroke-linecap="butt" stroke-linejoin="round" stroke-opacity="0.197404" stroke-width="0.579909"/>
<path d="M67.551 232.765L68.8895 30.0826" fill="none" opacity="1" stroke="#a3a3a3" stroke-linecap="butt" stroke-linejoin="round" stroke-opacity="0.197404" stroke-width="0.579909"/>
<path d="M105.028 232.765L106.367 30.0826" fill="none" opacity="1" stroke="#a3a3a3" stroke-linecap="butt" stroke-linejoin="round" stroke-opacity="0.197404" stroke-width="0.579909"/>
<path d="M142.696 232.765L144.035 30.0826" fill="none" opacity="1" stroke="#a3a3a3" stroke-linecap="butt" stroke-linejoin="round" stroke-opacity="0.197404" stroke-width="0.579909"/>
<path d="M180.706 232.765L182.044 30.0826" fill="none" opacity="1" stroke="#a3a3a3" stroke-linecap="butt" stroke-linejoin="round" stroke-opacity="0.197404" stroke-width="0.579909"/>
<path d="M218.068 232.765L219.407 30.0826" fill="none" opacity="1" stroke="#a3a3a3" stroke-linecap="butt" stroke-linejoin="round" stroke-opacity="0.197404" stroke-width="0.579909"/>
<path d="M255.431 232.765L256.769 30.0826" fill="none" opacity="1" stroke="#a3a3a3" stroke-linecap="butt" stroke-linejoin="round" stroke-opacity="0.197404" stroke-width="0.579909"/>
<path d="M218.524 115.37L180.957 115.596" fill="none" opacity="1" stroke="#2e6777" stroke-linecap="butt" stroke-linejoin="round" stroke-width="3.19853"/>
<g opacity="1">
<path d="M31.2459 25.1677C31.2893 37.4746 31.9607 227.986 31.9607 227.986" fill="none" stroke="#a3a3a3" stroke-linecap="butt" stroke-linejoin="round" stroke-width="2.6489"/>
<g fill="#a3a3a3" stroke="none">
<path d="M40.2443 32.6855L32.2634 23.001L31.2339 21.7517L30.2133 23.0082L22.3009 32.7488C21.8397 33.3165 21.926 34.1507 22.4938 34.6119C23.0616 35.0731 23.8957 34.9867 24.3569 34.4189L32.2693 24.6783L30.2192 24.6856L38.2 34.3701C38.6652 34.9346 39.5 35.0151 40.0644 34.5499C40.6289 34.0847 40.7094 33.25 40.2443 32.6855Z" fill="#a3a3a3"/>
</g>
</g>
<g opacity="1">
<path d="M287.668 228.379C273.502 228.379 31.5431 228.379 31.5431 228.379" fill="none" stroke="#a3a3a3" stroke-linecap="butt" stroke-linejoin="round" stroke-width="2.6489"/>
<g fill="#a3a3a3" stroke="none">
<path d="M280.119 237.35L289.831 229.404L291.084 228.379L289.831 227.353L280.119 219.407C279.553 218.944 278.718 219.027 278.255 219.593C277.792 220.159 277.875 220.994 278.441 221.457L288.154 229.404L288.154 227.353L278.441 235.3C277.875 235.763 277.792 236.598 278.255 237.164C278.718 237.73 279.553 237.813 280.119 237.35Z" fill="#a3a3a3"/>
</g>
</g>
<path d="M64.2133 239.573C64.1308 239.614 63.9231 239.779 63.9659 239.697C64.4547 238.764 64.9541 237.828 65.5737 236.976C66.0736 236.289 66.7924 234.988 67.5526 235.368C68.1021 235.643 67.8974 242.808 68.2947 244.397" fill="none" opacity="1" stroke="#eebf5b" stroke-linecap="round" stroke-linejoin="round" stroke-width="2.09926"/>
<path d="M106.408 78.1558L31.6544 152.381" fill="none" opacity="1" stroke="#2e6777" stroke-linecap="butt" stroke-linejoin="round" stroke-width="3.19853"/>
<path d="M105.571 77.8071L143.3 190.325" fill="none" opacity="1" stroke="#2e6777" stroke-linecap="butt" stroke-linejoin="round" stroke-width="3.19853"/>
<path d="M217.944 114.859L255.888 152.723" fill="none" opacity="1" stroke="#2e6777" stroke-linecap="butt" stroke-linejoin="round" stroke-width="3.19853"/>
<path d="M103.049 236.481C103.049 236.399 102.969 236.257 103.049 236.234C104.184 235.91 105.333 235.43 106.512 235.492C107.658 235.552 107.797 236.476 107.872 237.223C108.166 240.166 103.543 242.825 103.543 244.891C103.543 245.272 104.288 244.736 104.656 244.644C105.143 244.522 105.64 244.421 106.141 244.397C107.617 244.326 109.115 244.397 110.593 244.397" fill="none" opacity="1" stroke="#eebf5b" stroke-linecap="round" stroke-linejoin="round" stroke-width="2.09926"/>
<path d="M140.152 237.718C140.951 235.72 145.856 233.839 146.707 236.11C147.111 237.186 145.721 238.352 144.976 238.831C144.471 239.156 142.707 239.594 143.244 239.326C144.611 238.643 147.159 239.63 146.46 241.552C146.081 242.595 143.617 244.686 142.379 244.273C141.891 244.11 141.079 242.509 140.771 242.047" fill="none" opacity="1" stroke="#eebf5b" stroke-linecap="round" stroke-linejoin="round" stroke-width="2.09926"/>
<path d="M180.843 234.379C180.843 234.711 177.499 240.435 178.864 241.676C179.481 242.237 186.276 240.192 185.048 240.192" fill="none" opacity="1" stroke="#eebf5b" stroke-linecap="round" stroke-linejoin="round" stroke-width="2.09926"/>
<path d="M184.058 234.75C183.456 237.158 183.623 239.695 183.44 242.171C183.364 243.202 183.266 244.231 183.193 245.262C183.193 245.263 183.193 246.059 183.193 245.386" fill="none" opacity="1" stroke="#eebf5b" stroke-linecap="round" stroke-linejoin="round" stroke-width="2.09926"/>
<path d="M217.575 235.244C212.742 239.111 219.58 237.859 218.936 242.047C218.595 244.264 214.731 246.755 214.731 242.542" fill="none" opacity="1" stroke="#eebf5b" stroke-linecap="round" stroke-linejoin="round" stroke-width="2.09926"/>
<path d="M216.586 237.1C216.916 236.44 217.844 236.264 218.565 236.11C219.865 235.834 221.2 235.751 222.523 235.616C222.872 235.58 224.387 235.226 224.13 235.739" fill="none" opacity="1" stroke="#eebf5b" stroke-linecap="round" stroke-linejoin="round" stroke-width="2.09926"/>
<path d="M258.637 234.873C258.554 234.832 258.465 234.697 258.39 234.75C257.352 235.468 256.205 236.11 255.421 237.1C254.561 238.186 252.719 241.544 253.937 243.284C255.735 245.852 260.278 243.486 259.379 242.047C258.256 240.25 255.761 241.016 254.803 242.294" fill="none" opacity="1" stroke="#eebf5b" stroke-linecap="round" stroke-linejoin="round" stroke-width="2.09926"/>
<path d="M7.66089 191.29C8.00262 190.735 8.26734 190.124 8.6861 189.624C9.59804 188.535 10.6092 187.532 11.6336 186.548C11.6952 186.489 11.8517 186.472 11.8899 186.548C12.0844 186.937 11.8899 188.924 11.8899 189.111C11.8899 191.784 11.6336 194.401 11.6336 197.057" fill="none" opacity="1" stroke="#eebf5b" stroke-linecap="round" stroke-linejoin="round" stroke-width="2.09926"/>
<path d="M17.2082 188.791C17.4114 188.61 17.8831 187.961 17.7849 188.214C17.2875 189.497 16.2133 190.573 15.9907 191.931C15.7488 193.406 16.2048 197.057 17.6567 197.057C20.4022 197.057 21.9251 191.854 21.1168 189.752C20.3094 187.653 18.0286 187.842 16.6315 189.239C16.4593 189.412 17.0262 188.953 17.2082 188.791Z" fill="none" opacity="1" stroke="#eebf5b" stroke-linecap="round" stroke-linejoin="round" stroke-width="2.09926"/>
<path d="M8.30164 152.46C7.90781 152.46 8.19678 151.464 8.55795 151.307C9.7494 150.789 12.2413 150.658 12.4025 151.947C12.6659 154.054 9.53796 157.762 8.6861 159.38C8.49015 159.752 7.82344 160.3 8.17349 160.534C8.55329 160.787 14.8802 160.021 13.5559 160.021" fill="none" opacity="1" stroke="#eebf5b" stroke-linecap="round" stroke-linejoin="round" stroke-width="2.09926"/>
<path d="M17.8489 152.396C19.0848 151.393 16.8284 153.407 16.7596 153.613C16.2453 155.157 15.8277 159.537 18.6819 159.252C21.5397 158.966 22.1726 154.982 20.6042 153.229C20.3429 152.937 17.7552 150.906 17.1441 152.332C17.0512 152.549 17.6658 152.545 17.8489 152.396Z" fill="none" opacity="1" stroke="#eebf5b" stroke-linecap="round" stroke-linejoin="round" stroke-width="2.09926"/>
<path d="M8.04534 112.477C7.3743 111.47 9.57197 110.369 10.7365 110.042C11.2054 109.91 11.6019 110.546 11.8899 110.939C13.5314 113.177 9.59862 113.712 9.19871 114.912C9.00911 115.48 10.3979 114.965 10.9928 115.04C12.3598 115.211 13.5523 116.086 13.2996 117.603C12.8594 120.244 9.56055 119.706 7.91719 118.884" fill="none" opacity="1" stroke="#eebf5b" stroke-linecap="round" stroke-linejoin="round" stroke-width="2.09926"/>
<path d="M18.1693 111.772C18.3146 111.474 18.6909 110.612 18.4256 110.811C17.6026 111.428 16.7063 112.143 16.3752 113.117C15.595 115.412 16.3157 119.627 18.2975 118.884C20.1034 118.207 20.8646 115.523 20.3479 113.886C19.6701 111.74 17.5622 113.018 18.1693 111.772Z" fill="none" opacity="1" stroke="#eebf5b" stroke-linecap="round" stroke-linejoin="round" stroke-width="2.09926"/>
<path d="M9.34104 73.6698C8.31914 75.373 5.53628 79.0391 6.00143 80.6671C6.06367 80.8849 9.9428 80.2713 10.2952 80.19C10.8978 80.0509 11.3551 79.8191 11.8855 79.5539" fill="none" opacity="1" stroke="#eebf5b" stroke-linecap="round" stroke-linejoin="round" stroke-width="2.09926"/>
<path d="M182.15 114.971L142.973 190.99" fill="none" opacity="1" stroke="#2e6777" stroke-linecap="butt" stroke-linejoin="round" stroke-width="3.19853"/>
<path d="M12.6806 74.465C10.8745 77.1743 10.7723 81.9369 10.7723 85.1199" fill="none" opacity="1" stroke="#eebf5b" stroke-linecap="round" stroke-linejoin="round" stroke-width="2.09926"/>
<path d="M17.213 76.2938C16.9549 76.1556 17.2322 75.1436 17.1334 75.4191C16.5388 77.0779 15.7771 78.7475 15.7022 80.5081C15.6649 81.3847 16.2965 82.1859 16.8154 82.8935C17.987 84.4912 20.4277 78.6205 20.473 77.8046C20.6387 74.8235 18.4886 76.9768 17.213 76.2938Z" fill="none" opacity="1" stroke="#eebf5b" stroke-linecap="round" stroke-linejoin="round" stroke-width="2.09926"/>
<path d="M11.8855 39.3196C11.7795 39.2136 11.6735 38.8956 11.5674 39.0016C10.8178 39.7512 9.49159 40.4992 9.65909 41.546C9.80643 42.4669 13.3603 42.7375 12.9987 44.7266C12.4705 47.6318 9.59831 47.5283 7.90978 45.8398" fill="none" opacity="1" stroke="#eebf5b" stroke-linecap="round" stroke-linejoin="round" stroke-width="2.09926"/>
<path d="M9.65909 39.9557C11.2566 39.4233 12.8957 39.3196 14.589 39.3196" fill="none" opacity="1" stroke="#eebf5b" stroke-linecap="round" stroke-linejoin="round" stroke-width="2.09926"/>
<path d="M18.4057 39.3196C17.3913 39.5992 16.4196 40.4135 16.0202 41.387C15.575 42.4723 15.0488 46.2728 17.1334 46.794C22.803 48.2114 23.6471 37.875 18.4057 39.3196Z" fill="none" opacity="1" stroke="#eebf5b" stroke-linecap="round" stroke-linejoin="round" stroke-width="2.09926"/>
<path d="M32.3332 7.98865C32.0047 7.57808 31.0599 6.78804 30.6031 7.15345C30.5573 7.19015 30.6628 8.98068 30.6628 9.42043C30.6628 10.5845 30.2128 15.3919 30.7821 16.3407C30.8559 16.4637 33.4833 16.2047 33.6456 16.0424" fill="none" opacity="1" stroke="#eebf5b" stroke-linecap="round" stroke-linejoin="round" stroke-width="1.54963"/>
<path d="M35.2564 10.4346C35.2564 10.1919 35.3169 13.5967 35.674 13.7157C35.8005 13.7579 35.823 13.4878 35.853 13.3578C35.9488 12.9423 36.6477 10.4096 36.9864 10.4943C37.7546 10.6863 37.6072 13.4631 37.8813 13.4175C38.6796 13.2844 38.4619 10.5811 39.3727 10.7329C40.0312 10.8426 39.9218 13.5526 40.3272 13.4175" fill="none" opacity="1" stroke="#eebf5b" stroke-linecap="round" stroke-linejoin="round" stroke-width="1.54963"/>
<path d="M40.5659 7.75003C40.2712 7.55356 43.8702 7.00274 44.2646 7.98865C44.6349 8.91428 44.5202 10.8807 44.6822 11.8067C45.0639 13.9876 46.3737 15.9178 43.7277 16.5793C43.2007 16.711 42.6511 16.7725 42.117 16.6389" fill="none" opacity="1" stroke="#eebf5b" stroke-linecap="round" stroke-linejoin="round" stroke-width="1.54963"/>
<path d="M299.478 223.597C300.176 224.643 299.33 226.109 299.178 227.357C298.784 230.582 298.82 233.422 302.787 231.042" fill="none" opacity="1" stroke="#eebf5b" stroke-linecap="round" stroke-linejoin="round" stroke-width="1.54963"/>
<path d="M297.448 227.808C297.398 227.808 297.248 227.812 297.298 227.808C298.049 227.754 298.8 227.684 299.554 227.658C300.376 227.629 301.265 227.658 302.11 227.658" fill="none" opacity="1" stroke="#eebf5b" stroke-linecap="round" stroke-linejoin="round" stroke-width="1.54963"/>
<path d="M311.811 222.92C310.886 222.458 309.83 222.283 308.803 222.168C308.799 222.168 308.993 223.596 309.028 223.823C309.242 225.178 309.214 224.587 309.254 226.379C309.319 229.286 307.374 234.175 312.036 232.621" fill="none" opacity="1" stroke="#eebf5b" stroke-linecap="round" stroke-linejoin="round" stroke-width="1.54963"/>
<path d="M316.774 226.079C316.444 225.419 315.178 226.005 314.593 226.455C313.706 227.137 316.959 228.365 316.774 229.387C316.606 230.31 313.454 230.248 313.615 229.763" fill="none" opacity="1" stroke="#eebf5b" stroke-linecap="round" stroke-linejoin="round" stroke-width="1.54963"/>
<path d="M318.127 223.221C318.301 223.091 322.037 222.849 322.037 223.296C322.037 223.824 321.629 224.544 321.586 225.101C321.408 227.412 321.741 229.936 322.188 232.17C322.369 233.077 318.762 233.114 319.03 232.846" fill="none" opacity="1" stroke="#eebf5b" stroke-linecap="round" stroke-linejoin="round" stroke-width="1.54963"/>
<path d="M28.6318 152.643C28.6318 150.621 30.2702 148.983 32.2913 148.983C34.3123 148.983 35.9507 150.621 35.9507 152.643C35.9507 154.664 34.3123 156.302 32.2913 156.302C30.2702 156.302 28.6318 154.664 28.6318 152.643Z" fill="#ffffff" fill-rule="nonzero" opacity="1" stroke="#d5694f" stroke-linecap="round" stroke-linejoin="round" stroke-width="2.09926"/>
<path d="M103.204 78.4532C103.204 76.4322 104.842 74.7938 106.863 74.7938C108.884 74.7938 110.522 76.4322 110.522 78.4532C110.522 80.4743 108.884 82.1127 106.863 82.1127C104.842 82.1127 103.204 80.4743 103.204 78.4532Z" fill="#ffffff" fill-rule="nonzero" opacity="1" stroke="#d5694f" stroke-linecap="round" stroke-linejoin="round" stroke-width="2.09926"/>
<path d="M252.538 153.599C252.538 151.578 254.177 149.939 256.198 149.939C258.219 149.939 259.857 151.578 259.857 153.599C259.857 155.62 258.219 157.258 256.198 157.258C254.177 157.258 252.538 155.62 252.538 153.599Z" fill="#ffffff" fill-rule="nonzero" opacity="1" stroke="#d5694f" stroke-linecap="round" stroke-linejoin="round" stroke-width="2.09926"/>
<path d="M36.3773 152.957C51.8336 152.957 67.2896 152.957 82.7244 152.957C87.784 152.957 92.8579 152.702 97.918 152.702C98.9628 152.702 104.96 152.682 104.813 152.829" fill="none" opacity="1" stroke="#d5694f" stroke-linecap="round" stroke-linejoin="round" stroke-width="2.09926"/>
<path d="M101.876 149.51C101.685 149.127 105.883 151.054 105.706 151.935C105.305 153.943 102.289 155.452 101.365 157.298" fill="none" opacity="1" stroke="#d5694f" stroke-linecap="round" stroke-linejoin="round" stroke-width="2.09926"/>
<path d="M105.706 150.659C105.706 128.149 106.089 105.601 106.089 83.1172" fill="none" opacity="1" stroke="#d5694f" stroke-linecap="round" stroke-linejoin="round" stroke-width="2.09926"/>
<path d="M105.706 83.6279C104.81 84.0761 103.216 89.3741 103.791 88.2243" fill="none" opacity="1" stroke="#d5694f" stroke-linecap="round" stroke-linejoin="round" stroke-width="2.09926"/>
<path d="M105.962 84.1386C107.143 85.9104 107.818 87.9789 108.771 89.8841" fill="none" opacity="1" stroke="#d5694f" stroke-linecap="round" stroke-linejoin="round" stroke-width="2.09926"/>
<path d="M59.8701 164.831C61.8475 164.501 63.8408 164.824 65.6156 163.81" fill="none" opacity="1" stroke="#d5694f" stroke-linecap="round" stroke-linejoin="round" stroke-width="2.09926"/>
<path d="M63.062 161.894C63.062 160.744 62.9343 164.192 62.9343 165.342C62.9343 166.024 63.0194 166.704 63.062 167.385" fill="none" opacity="1" stroke="#d5694f" stroke-linecap="round" stroke-linejoin="round" stroke-width="2.09926"/>
<path d="M69.1905 162.533C69.8771 161.961 71.424 161.759 71.8718 162.533C73.025 164.525 65.9539 169.279 73.0209 167.512" fill="none" opacity="1" stroke="#d5694f" stroke-linecap="round" stroke-linejoin="round" stroke-width="2.09926"/>
<path d="M79.5324 163.554C79.1815 162.852 77.8872 163.63 77.2342 164.065C77.1513 164.12 79.6672 165.388 79.2771 166.363C78.8727 167.374 77.2824 167.129 76.4682 167.129" fill="none" opacity="1" stroke="#d5694f" stroke-linecap="round" stroke-linejoin="round" stroke-width="2.09926"/>
<path d="M78.7664 120.399C79.9512 120.103 81.1333 120.527 82.3414 120.527" fill="none" opacity="1" stroke="#d5694f" stroke-linecap="round" stroke-linejoin="round" stroke-width="2.09926"/>
<path d="M81.0646 117.718C80.9164 119.2 81.005 120.698 81.0646 122.187" fill="none" opacity="1" stroke="#d5694f" stroke-linecap="round" stroke-linejoin="round" stroke-width="2.09926"/>
<path d="M85.2779 118.101C85.5351 117.33 87.1289 117.271 87.7038 117.846C89.1414 119.283 83.2454 123.699 87.5761 123.08" fill="none" opacity="1" stroke="#d5694f" stroke-linecap="round" stroke-linejoin="round" stroke-width="2.09926"/>
<path d="M91.7895 117.846C90.5942 118.443 90.774 120.521 91.1511 121.804C91.2962 122.297 92.0465 122.515 92.5556 122.442C95.485 122.023 95.5205 115.98 91.7895 117.846Z" fill="none" opacity="1" stroke="#d5694f" stroke-linecap="round" stroke-linejoin="round" stroke-width="2.09926"/>
<path d="M96.5136 119.122C97.0143 120.124 96.7762 121.35 97.0243 122.442C97.1553 123.018 97.7556 121.478 97.918 120.91C97.9472 120.808 98.4749 118.741 98.6841 118.867C99.8158 119.546 98.8749 121.356 99.5779 122.059C99.93 122.411 100.665 119.462 100.982 119.25C101.675 118.788 102.31 122.494 102.387 122.697" fill="none" opacity="1" stroke="#d5694f" stroke-linecap="round" stroke-linejoin="round" stroke-width="2.09926"/>
<path d="M218.557 118.185C218.557 129.48 218.838 140.939 218.838 152.312" fill="none" opacity="1" stroke="#d5694f" stroke-linecap="round" stroke-linejoin="round" stroke-width="2.09926"/>
<path d="M215.187 147.818C216.365 148.997 216.642 151.065 218.276 151.61" fill="none" opacity="1" stroke="#d5694f" stroke-linecap="round" stroke-linejoin="round" stroke-width="2.09926"/>
<path d="M222.068 146.273C221.262 147.885 220.491 149.515 219.821 151.189" fill="none" opacity="1" stroke="#d5694f" stroke-linecap="round" stroke-linejoin="round" stroke-width="2.09926"/>
<path d="M194.963 137.425C195.811 135.73 197.056 134.263 198.053 132.65C198.421 132.054 198.334 137.13 198.334 138.408" fill="none" opacity="1" stroke="#d5694f" stroke-linecap="round" stroke-linejoin="round" stroke-width="2.09926"/>
<path d="M201.283 133.142C200.108 133.892 200.981 136.191 201.845 137.285C202.274 137.828 206.491 129.814 201.283 133.142Z" fill="none" opacity="1" stroke="#d5694f" stroke-linecap="round" stroke-linejoin="round" stroke-width="2.09926"/>
<path d="M205.917 134.336C205.982 134.916 206.166 137.458 206.76 137.566C207.228 137.651 207.937 133.871 208.586 134.195C209.067 134.436 209.051 137.071 209.569 136.864C210.091 136.655 210.97 133.309 211.676 134.897C212.112 135.88 211.845 135.573 212.097 136.583C212.194 136.969 212.48 137.348 212.659 137.706" fill="none" opacity="1" stroke="#d5694f" stroke-linecap="round" stroke-linejoin="round" stroke-width="2.09926"/>
<path d="M186.115 136.161C187.815 136.161 189.48 136.175 191.171 136.021" fill="none" opacity="1" stroke="#d5694f" stroke-linecap="round" stroke-linejoin="round" stroke-width="2.09926"/>
<path d="M219.681 152.874C222.831 153.662 226.823 152.874 230.074 152.874C237.353 152.874 244.579 153.015 251.842 153.015" fill="none" opacity="1" stroke="#d5694f" stroke-linecap="round" stroke-linejoin="round" stroke-width="2.09926"/>
<path d="M247.629 150.065C248.96 150.509 250.185 151.229 251.421 151.891C253.435 152.97 249.022 154.997 248.191 156.104" fill="none" opacity="1" stroke="#d5694f" stroke-linecap="round" stroke-linejoin="round" stroke-width="2.09926"/>
<path d="M225.58 163.969C226.827 163.761 228.107 163.829 229.372 163.829" fill="none" opacity="1" stroke="#d5694f" stroke-linecap="round" stroke-linejoin="round" stroke-width="2.09926"/>
<path d="M215.252 115.93C215.252 113.909 216.891 112.271 218.912 112.271C220.933 112.271 222.571 113.909 222.571 115.93C222.571 117.951 220.933 119.59 218.912 119.59C216.891 119.59 215.252 117.951 215.252 115.93Z" fill="#ffffff" fill-rule="nonzero" opacity="1" stroke="#d5694f" stroke-linecap="round" stroke-linejoin="round" stroke-width="2.09926"/>
<path d="M227.967 161.722C227.967 160.548 227.655 164.059 227.686 165.233C227.7 165.767 227.967 166.263 228.108 166.778" fill="none" opacity="1" stroke="#d5694f" stroke-linecap="round" stroke-linejoin="round" stroke-width="2.09926"/>
<path d="M232.461 164.952C232.789 164.437 233.164 163.95 233.444 163.407C236.623 157.248 234.443 162.752 235.551 166.076" fill="none" opacity="1" stroke="#d5694f" stroke-linecap="round" stroke-linejoin="round" stroke-width="2.09926"/>
<path d="M241.59 162.284C241.098 161.792 239.989 162.393 239.624 162.986C239.282 163.541 242.72 164.798 242.011 166.216C241.754 166.731 239.624 167.21 239.624 166.778" fill="none" opacity="1" stroke="#d5694f" stroke-linecap="round" stroke-linejoin="round" stroke-width="2.09926"/>
<path d="M68.6582 15.8596C68.6582 18.2472 68.4955 20.6319 68.4955 23.0198" fill="none" opacity="1" stroke="#d5694f" stroke-linecap="round" stroke-linejoin="round" stroke-width="2.09926"/>
<path d="M64.7526 15.6968C64.0874 14.3664 72.1056 14.8832 72.8893 14.8832" fill="none" opacity="1" stroke="#d5694f" stroke-linecap="round" stroke-linejoin="round" stroke-width="2.09926"/>
<path d="M64.7526 23.8335C67.4234 22.4981 70.7393 24.5016 73.3775 23.1826" fill="none" opacity="1" stroke="#d5694f" stroke-linecap="round" stroke-linejoin="round" stroke-width="2.09926"/>
<path d="M122.035 15.0459C122.035 17.7701 122.238 20.4964 122.686 23.1826" fill="none" opacity="1" stroke="#f3d3cb" stroke-linecap="round" stroke-linejoin="round" stroke-width="2.09926"/>
<path d="M125.127 14.5577C125.127 16.8366 125.192 19.1157 125.289 21.3925C125.304 21.7353 125.461 22.6758 125.615 22.3689" fill="none" opacity="1" stroke="#f3d3cb" stroke-linecap="round" stroke-linejoin="round" stroke-width="2.09926"/>
<path d="M118.129 14.8832C120.082 13.5813 125.199 14.395 127.73 14.395" fill="none" opacity="1" stroke="#f3d3cb" stroke-linecap="round" stroke-linejoin="round" stroke-width="2.09926"/>
<path d="M119.594 23.508C122.885 24.1663 126.374 23.4334 129.683 23.0198" fill="none" opacity="1" stroke="#f3d3cb" stroke-linecap="round" stroke-linejoin="round" stroke-width="2.09926"/>
<path d="M159.301 14.7204C159.301 17.3247 159.076 19.9281 159.138 22.5316C159.14 22.6401 159.355 22.5316 159.463 22.5316" fill="none" opacity="1" stroke="#f3d3cb" stroke-linecap="round" stroke-linejoin="round" stroke-width="2.09926"/>
<path d="M161.742 14.395C161.742 16.6197 161.856 18.8429 161.904 21.067C161.915 21.5581 161.847 22.971 162.067 22.5316" fill="none" opacity="1" stroke="#f3d3cb" stroke-linecap="round" stroke-linejoin="round" stroke-width="2.09926"/>
<path d="M163.857 14.2322C163.857 17.2186 164.183 20.1902 164.183 23.1826" fill="none" opacity="1" stroke="#f3d3cb" stroke-linecap="round" stroke-linejoin="round" stroke-width="2.09926"/>
<path d="M157.348 13.2558C156.388 11.3362 166.613 10.9573 167.275 12.2794" fill="none" opacity="1" stroke="#f3d3cb" stroke-linecap="round" stroke-linejoin="round" stroke-width="2.09926"/>
<path d="M156.697 25.1354C160.054 24.7996 163.422 24.5805 166.786 24.3217" fill="none" opacity="1" stroke="#f3d3cb" stroke-linecap="round" stroke-linejoin="round" stroke-width="2.09926"/>
<path d="M193.475 14.395C193.475 14.0392 193.475 17.5079 193.475 18.1378C193.475 19.7414 193.411 21.4637 193.8 23.0198" fill="none" opacity="1" stroke="#f3d3cb" stroke-linecap="round" stroke-linejoin="round" stroke-width="2.09926"/>
<path d="M196.729 14.0695C197.149 16.1682 197.753 19.239 198.194 20.9043C198.232 21.0476 200.366 15.7375 200.635 14.395" fill="none" opacity="1" stroke="#f3d3cb" stroke-linecap="round" stroke-linejoin="round" stroke-width="2.09926"/>
<path d="M191.847 12.9304C191.684 12.8761 191.19 12.7993 191.359 12.7676C193.244 12.4142 195.141 12.0755 197.055 11.954C198.734 11.8474 200.417 12.1167 202.099 12.1167" fill="none" opacity="1" stroke="#f3d3cb" stroke-linecap="round" stroke-linejoin="round" stroke-width="2.09926"/>
<path d="M192.335 24.159C191.185 24.159 194.611 23.811 195.753 23.6708C197.977 23.3977 200.207 22.5403 202.425 22.8571C202.532 22.8725 202.425 23.0741 202.425 23.1826" fill="none" opacity="1" stroke="#f3d3cb" stroke-linecap="round" stroke-linejoin="round" stroke-width="2.09926"/>
<path d="M232.531 16.3478C233.985 18.2872 233.203 22.7559 235.46 23.508C235.645 23.5699 235.723 23.2054 235.785 23.0198C236.36 21.2944 236.749 19.4041 237.25 17.6496C237.449 16.9538 237.562 16.2362 237.738 15.5341" fill="none" opacity="1" stroke="#d5694f" stroke-linecap="round" stroke-linejoin="round" stroke-width="2.09926"/>
<path d="M229.764 14.2322C232.818 13.5536 235.925 14.5256 238.877 13.4186" fill="none" opacity="1" stroke="#d5694f" stroke-linecap="round" stroke-linejoin="round" stroke-width="2.09926"/>
<path d="M231.717 24.8099C234.54 24.8099 237.359 24.5996 240.179 24.4844" fill="none" opacity="1" stroke="#d5694f" stroke-linecap="round" stroke-linejoin="round" stroke-width="2.09926"/>
<path d="M20.8575 9.84584C22.2317 11.2201 23.3949 13.1646 24.2931 14.9611" fill="none" opacity="1" stroke="#eebf5b" stroke-linecap="round" stroke-linejoin="round" stroke-width="1.54963"/>
<path d="M24.9802 9.6168C24.6359 9.84639 20.5521 15.0131 20.5521 15.8009" fill="none" opacity="1" stroke="#eebf5b" stroke-linecap="round" stroke-linejoin="round" stroke-width="1.54963"/>
</g>
<g id="Ebene-1" vectornator:layerName="Ebene 1"/>
</svg>
